<?xml version="1.0" standalone="no"?>
<!DOCTYPE svg PUBLIC "-//W3C//DTD SVG 1.1//EN" "http://www.w3.org/Graphics/SVG/1.1/DTD/svg11.dtd" >
<svg xmlns="http://www.w3.org/2000/svg" xmlns:xlink="http://www.w3.org/1999/xlink" version="1.1">
<metadata>
Created by FontForge 20190801 at Fri Oct 14 02:40:23 2016
 By root
Copyright (c) 2015 CJ Type. All rights reserved.
</metadata>
<defs>
<font id="DunbarTall-Medium" horiz-adv-x="0" >
  <font-face 
    font-family="DunbarTall Medium"
    font-weight="500"
    font-stretch="normal"
    units-per-em="1000"
    panose-1="0 0 0 0 0 0 0 2 0 0"
    ascent="780"
    descent="-220"
    x-height="574"
    cap-height="746"
    bbox="-222.28 -294 1196 1102"
    underline-thickness="0"
    underline-position="0"
    unicode-range="U+0020-FEFF"
  />
<missing-glyph 
 />
    <glyph glyph-name="f_f" unicode="ff" horiz-adv-x="567" 
d="M219 0h-135v460h-72v114h72v27q0 64 19.5 103t50 59.5t69 27t76.5 6.5v-119q-31 0 -55.5 -15t-24.5 -72v-17h132v27q0 64 19.5 103t50 59.5t69 27t76.5 6.5v-119q-31 0 -55.5 -15t-24.5 -72v-17h69v-114h-69v-460h-135v460h-132v-460z" />
    <glyph glyph-name="f_i" unicode="fi" horiz-adv-x="522" 
d="M283 460h-64v-460h-135v460h-72v114h72v27q0 64 19.5 103t50 59.5t69 27t76.5 6.5v-119q-31 0 -55.5 -15t-24.5 -72v-17h64v-114zM478 780v-125h-139v125h139zM476 574v-574h-135v574h135z" />
    <glyph glyph-name="f_l" unicode="fl" horiz-adv-x="522" 
d="M283 460h-64v-460h-135v460h-72v114h72v27q0 64 19.5 103t50 59.5t69 27t76.5 6.5v-119q-31 0 -55.5 -15t-24.5 -72v-17h64v-114zM476 780v-780h-135v780h135z" />
    <glyph glyph-name="f_f_i" unicode="ffi" horiz-adv-x="789" 
d="M745 780v-125h-139v125h139zM743 574v-574h-135v574h135zM219 0h-135v460h-72v114h72v27q0 64 19.5 103t50 59.5t69 27t76.5 6.5v-119q-31 0 -55.5 -15t-24.5 -72v-17h132v27q0 64 19.5 103t50 59.5t69 27t76.5 6.5v-119q-31 0 -55.5 -15t-24.5 -72v-17h64v-114h-64v-460
h-135v460h-132v-460z" />
    <glyph glyph-name="f_f_l" unicode="ffl" horiz-adv-x="789" 
d="M743 780v-780h-135v780h135zM219 0h-135v460h-72v114h72v27q0 64 19.5 103t50 59.5t69 27t76.5 6.5v-119q-31 0 -55.5 -15t-24.5 -72v-17h132v27q0 64 19.5 103t50 59.5t69 27t76.5 6.5v-119q-31 0 -55.5 -15t-24.5 -72v-17h64v-114h-64v-460h-135v460h-132v-460z" />
    <glyph glyph-name=".notdef" 
 />
    <glyph glyph-name=".null" 
 />
    <glyph glyph-name="nonmarkingreturn" horiz-adv-x="333" 
 />
    <glyph glyph-name="space" unicode=" " horiz-adv-x="170" 
 />
    <glyph glyph-name="exclam" unicode="!" horiz-adv-x="313" 
d="M214 204h-115l-26 542h167zM80 0v135h153v-135h-153z" />
    <glyph glyph-name="quotedbl" unicode="&#x22;" horiz-adv-x="507" 
d="M51 452l63 294h151l-111 -294h-103zM254 452l63 294h151l-111 -294h-103z" />
    <glyph glyph-name="numbersign" unicode="#" horiz-adv-x="786" 
d="M457 299l28 148h-145l-29 -148h146zM398 0l37 191h-145l-38 -191h-112l37 191h-132v108h154l28 148h-143v108h165l37 191h113l-38 -191h146l37 191h113l-38 -191h121v-108h-142l-29 -148h131v-108h-152l-38 -191h-112z" />
    <glyph glyph-name="dollar" unicode="$" horiz-adv-x="531" 
d="M320 -116h-90v114q-51 1 -103.5 12.5t-86.5 33.5v128q47 -30 91.5 -43t99.5 -13q63 0 96 25t33 54q0 32 -37 64.5t-110 82.5q-97 65 -135 113t-38 108t48 109.5t142 62.5v114h90v-112q34 -3 70.5 -11.5t66.5 -24.5v-125q-31 20 -72 32t-85 12q-62 0 -87 -20t-25 -36
q0 -33 31.5 -62.5t96.5 -73.5q49 -35 84 -63t58 -53.5t34 -53t11 -62.5q0 -42 -14.5 -74.5t-39 -55.5t-58 -38.5t-71.5 -22.5v-121z" />
    <glyph glyph-name="percent" unicode="%" horiz-adv-x="834" 
d="M719 746l-496 -746h-107l495 746h108zM193 746q73 0 121 -47.5t48 -140.5v-27q0 -92 -48 -139.5t-121 -47.5q-72 0 -120.5 47.5t-48.5 139.5v27q0 93 48.5 140.5t120.5 47.5zM258 533v24q0 58 -18 87t-47 29q-28 0 -46.5 -29t-18.5 -87v-24q0 -59 18.5 -87.5t46.5 -28.5
t46.5 28.5t18.5 87.5zM641 402q73 0 121 -47.5t48 -140.5v-27q0 -92 -48 -139.5t-121 -47.5q-72 0 -120.5 47.5t-48.5 139.5v27q0 93 48.5 140.5t120.5 47.5zM706 189v24q0 58 -18 87t-47 29q-28 0 -46.5 -29t-18.5 -87v-24q0 -59 18.5 -87.5t46.5 -28.5t46.5 28.5
t18.5 87.5z" />
    <glyph glyph-name="ampersand" unicode="&#x26;" horiz-adv-x="806" 
d="M286 588q0 -35 17.5 -58t46.5 -54q55 34 81.5 58.5t26.5 57.5q0 27 -22 51t-66 24q-34 0 -59 -22.5t-25 -56.5zM320 99q39 0 76 16t73 43q-41 46 -82 93t-72 81q-56 -34 -84 -66t-28 -75q0 -38 35.5 -64.5t81.5 -27.5zM613 0q-7 6 -22 22.5l-35 38.5
q-49 -38 -110.5 -61.5t-142.5 -23.5q-120 1 -189 56t-69 143q0 84 56.5 136.5t140.5 101.5q-45 49 -73.5 86.5t-27.5 89.5q0 40 19 73.5t50 57t72.5 37t86.5 13.5q106 0 168 -50t62 -123q0 -59 -40.5 -102t-109.5 -84q-7 -4 -13 -7.5t-13 -7.5q31 -34 66.5 -73t72.5 -79
q25 26 49 54l48 56l85 -94q-25 -28 -48.5 -56.5t-47.5 -54.5q44 -48 80 -87.5t53 -58.5v-3h-168z" />
    <glyph glyph-name="quotesingle" unicode="'" horiz-adv-x="304" 
d="M51 452l63 294h151l-111 -294h-103z" />
    <glyph glyph-name="parenleft" unicode="(" horiz-adv-x="417" 
d="M287 783l76 -79q-25 -25 -52 -64.5t-49 -90.5t-36.5 -112.5t-14.5 -130.5v-14q0 -68 14 -130t36.5 -113t49.5 -90.5t52 -63.5l-76 -79q-34 27 -71 71.5t-67.5 104t-50.5 135t-20 163.5v18q0 88 20 163t50.5 134.5t67.5 104t71 73.5z" />
    <glyph glyph-name="parenright" unicode=")" horiz-adv-x="417" 
d="M130 783q34 -29 70.5 -73.5t67 -104t50.5 -134.5t20 -163v-18q0 -88 -20 -163.5t-50.5 -135t-67.5 -104t-71 -71.5l-75 79q25 24 52 63.5t49 90.5t36 113t14 130v14q0 69 -14.5 130.5t-36.5 112.5t-48.5 90.5t-51.5 64.5z" />
    <glyph glyph-name="asterisk" unicode="*" horiz-adv-x="379" 
d="M259 406l-68 137l-68 -139l-77 56l107 101l-133 18l29 91l119 -65l-25 141h94l-25 -139l117 64l30 -91l-130 -17l106 -102z" />
    <glyph glyph-name="plus" unicode="+" horiz-adv-x="622" 
d="M584 297h-211v-232h-124v232h-211v109h211v214h124v-214h211v-109z" />
    <glyph glyph-name="comma" unicode="," horiz-adv-x="289" 
d="M85 135h156l-107 -287h-104z" />
    <glyph glyph-name="hyphen" unicode="-" horiz-adv-x="404" 
d="M364 380v-125h-324v125h324z" />
    <glyph glyph-name="period" unicode="." horiz-adv-x="262" 
d="M53 146h156v-146h-156v146z" />
    <glyph glyph-name="slash" unicode="/" horiz-adv-x="556" 
d="M542 780l-486 -1000h-133l484 1000h135z" />
    <glyph glyph-name="zero" unicode="0" horiz-adv-x="648" 
d="M324 770q61 0 113 -23.5t89.5 -70t58.5 -116.5t21 -162v-52q0 -91 -21.5 -160.5t-59 -116t-89.5 -70t-112 -23.5t-112 23.5t-89.5 70t-59 116t-21.5 160.5v52q0 92 21.5 162t59 116.5t89.5 70t112 23.5zM470 346v52q0 131 -40.5 194t-105.5 63q-63 0 -105 -63t-42 -194
v-52q0 -130 42 -192.5t105 -62.5q64 0 105 62.5t41 192.5z" />
    <glyph glyph-name="one" unicode="1" horiz-adv-x="378" 
d="M312 0h-135v548l-140 -141v175l169 164h106v-746z" />
    <glyph glyph-name="two" unicode="2" horiz-adv-x="584" 
d="M514 0h-490l-8 18q15 18 57 69.5t89.5 108.5l90 108t56.5 69q40 49 57.5 83t17.5 77q0 48 -36.5 85t-98.5 38q-40 0 -81 -14.5t-85 -51.5l1 135q41 23 88 34t93 11q59 0 107 -18t82 -49t53 -73t19 -90q0 -73 -32 -122t-79 -106q-10 -13 -29.5 -35.5t-43 -49.5t-50 -56.5
t-51.5 -56.5h320z" />
    <glyph glyph-name="three" unicode="3" horiz-adv-x="519" 
d="M203 -24q-17 0 -41.5 1.5t-50 6t-50 11.5t-42.5 18v122q13 -10 33.5 -18.5t41.5 -14t41 -8.5t32 -3q85 -1 138.5 36t53.5 96q0 57 -50.5 91t-127.5 34h-52l4 114h48q60 0 99 30.5t39 73.5q0 41 -36 65.5t-92 24.5q-26 0 -61 -5t-67 -22l10 121q25 10 60 15t82 5
q51 0 95 -14t75.5 -39t50 -59.5t18.5 -74.5q-1 -49 -28.5 -94t-73.5 -72q62 -25 102 -77.5t40 -121.5q0 -52 -21.5 -96.5t-59.5 -77t-92 -50.5t-118 -18z" />
    <glyph glyph-name="four" unicode="4" horiz-adv-x="623" 
d="M380 252v269l-180 -269h180zM578 138h-63v-138h-135v138h-358l-10 24l395 584h108v-494h95z" />
    <glyph glyph-name="five" unicode="5" horiz-adv-x="592" 
d="M217 -24q-43 0 -96 10.5t-95 34.5v119q40 -24 88.5 -37t100.5 -13q77 0 130 43.5t53 114.5q0 56 -49 95.5t-133 39.5q-40 0 -78 -7t-72 -19l97 389h403l-35 -114h-277l-38 -137q11 1 22.5 1.5t22.5 0.5q65 0 117 -18.5t87.5 -51t54.5 -78.5t19 -101q0 -58 -23 -108
t-64.5 -86.5t-101.5 -57t-133 -20.5z" />
    <glyph glyph-name="six" unicode="6" horiz-adv-x="606" 
d="M306 -24q-59 0 -111 18t-90.5 51.5t-60.5 82.5t-22 110t25 125t64.5 128.5t90 129t100.5 125.5h168q-64 -72 -123 -144t-103 -138l3 -2q22 10 47 16t52 6q51 0 95.5 -19.5t77 -52.5t51.5 -78t19 -96q0 -54 -21 -102t-58.5 -83t-89.5 -56t-114 -21zM306 379
q-60 0 -104.5 -42.5t-44.5 -102.5q0 -59 44.5 -101.5t104.5 -42.5q61 0 104.5 42.5t43.5 101.5q0 60 -43.5 102.5t-104.5 42.5z" />
    <glyph glyph-name="seven" unicode="7" horiz-adv-x="570" 
d="M246 0h-149l273 632h-349l37 114h506z" />
    <glyph glyph-name="eight" unicode="8" horiz-adv-x="588" 
d="M293 -24q-63 0 -114.5 18.5t-87.5 50.5t-56 76t-20 95q0 63 33 113t91 79q-42 26 -65 66.5t-23 88.5q0 42 17 80t48.5 66t76.5 44.5t100 16.5q56 0 101.5 -16.5t76.5 -44.5t48 -66t17 -80q0 -48 -22.5 -88.5t-65.5 -66.5q59 -29 92 -79.5t33 -112.5q0 -51 -20 -95
t-56.5 -76t-88.5 -50.5t-115 -18.5zM293 447q45 0 78.5 31t33.5 77q0 43 -33 72t-79 29t-78.5 -29t-32.5 -72q0 -46 32.5 -77t78.5 -31zM293 90q62 0 105.5 38.5t43.5 95.5t-43.5 93.5t-105.5 36.5q-60 0 -103.5 -36.5t-43.5 -93.5t43.5 -95.5t103.5 -38.5z" />
    <glyph glyph-name="nine" unicode="9" horiz-adv-x="606" 
d="M305 0h-168q64 72 123 144t103 138l-3 2q-22 -10 -47 -16t-52 -6q-51 0 -95.5 19.5t-77 52.5t-51.5 78t-19 96q0 54 21 102t58.5 83t89.5 56t114 21q59 0 111 -18t90.5 -51.5t60.5 -82.5t22 -110t-25 -125t-64.5 -128.5t-90 -129t-100.5 -125.5zM301 367q60 0 104.5 42.5
t44.5 102.5q0 59 -44.5 101.5t-104.5 42.5q-61 0 -104.5 -42.5t-43.5 -101.5q0 -60 43.5 -102.5t104.5 -42.5z" />
    <glyph glyph-name="colon" unicode=":" horiz-adv-x="258" 
d="M55 522h149v-153h-149v153zM55 153h149v-153h-149v153z" />
    <glyph glyph-name="semicolon" unicode=";" horiz-adv-x="290" 
d="M79 522h149v-153h-149v153zM79 122h151l-91 -272h-108z" />
    <glyph glyph-name="less" unicode="&#x3c;" horiz-adv-x="560" 
d="M536 6l-512 245v113l512 248v-117l-399 -186l399 -182v-121z" />
    <glyph glyph-name="equal" unicode="=" horiz-adv-x="553" 
d="M517 499v-101h-480v101h480zM517 281v-101h-480v101h480z" />
    <glyph glyph-name="greater" unicode="&#x3e;" horiz-adv-x="560" 
d="M24 6v121l399 182l-399 186v117l512 -248v-113z" />
    <glyph glyph-name="question" unicode="?" horiz-adv-x="569" 
d="M315 191h-126v214h32q30 0 58 7.5t49 23.5t33.5 40.5t12.5 57.5q0 43 -38.5 78t-110.5 35q-39 0 -78 -12.5t-80 -44.5l-5 119q44 26 94 39t100 13q113 0 182.5 -63.5t69.5 -163.5q0 -50 -15.5 -91t-41.5 -71t-61.5 -50t-74.5 -27v-104zM186 0v124h131v-124h-131z" />
    <glyph glyph-name="at" unicode="@" horiz-adv-x="1002" 
d="M527 -189q-108 0 -197 36t-152 99t-97.5 149t-34.5 185q0 92 33 175.5t93 145.5t146 98.5t190 36.5q103 0 186.5 -35t142 -93t90.5 -133.5t32 -156.5q0 -80 -20 -135.5t-50 -89.5t-64.5 -49t-62.5 -15q-47 0 -75.5 20.5t-37.5 54.5q-32 -33 -74.5 -54.5t-91.5 -22.5
q-52 -1 -97 15.5t-77.5 47.5t-51.5 74.5t-19 94.5q0 53 19.5 97t52.5 75.5t78 49t95 18.5q47 1 88.5 -17t72.5 -47v39h107v-326q0 -34 11.5 -40.5t18.5 -6.5q12 0 30 13t35.5 39t30 67.5t12.5 98.5q0 66 -27 130t-76 113.5t-120 80t-158 30.5q-88 0 -161 -33t-124 -87.5
t-79 -125.5t-28 -146q0 -79 28.5 -153t81.5 -130t129.5 -90t171.5 -34q42 0 86 5.5t85 16t77 26t62 35.5l35 -56q-29 -21 -69 -38t-85.5 -28.5t-94.5 -17.5t-96 -6zM495 126q55 0 94 42t39 96q0 25 -9.5 48.5t-27 42t-42.5 30t-54 11.5q-26 0 -51 -8.5t-44 -25.5t-30.5 -43
t-11.5 -60q0 -33 11.5 -58t30.5 -41.5t44 -25t51 -8.5z" />
    <glyph glyph-name="A" unicode="A" horiz-adv-x="723" 
d="M475 246l-115 309l-115 -309h230zM567 0l-47 125h-320l-47 -125h-151l288 746h144l287 -746h-154z" />
    <glyph glyph-name="B" unicode="B" horiz-adv-x="575" 
d="M309 0h-260v746h239q64 0 108 -15t70.5 -41.5t38.5 -62t12 -75.5q0 -46 -21 -87.5t-61 -70.5q53 -29 82 -79.5t29 -110.5q0 -39 -14 -76t-42.5 -65t-73.5 -45.5t-107 -17.5zM260 623h-66v-181h63q62 0 95 24.5t33 67.5q0 40 -25.5 64.5t-99.5 24.5zM270 326h-76v-203h79
q75 0 101 28.5t26 70.5q0 50 -33.5 77t-96.5 27z" />
    <glyph glyph-name="C" unicode="C" horiz-adv-x="633" 
d="M597 734v-141q-34 22 -74 33t-83 11q-57 0 -106.5 -21.5t-85.5 -57t-57 -83.5t-21 -100q0 -53 21 -101.5t57 -85t85.5 -58t106.5 -21.5q43 0 83 11t74 33v-141q-37 -18 -79 -27t-86 -9q-87 0 -162 31.5t-129.5 85t-85.5 126.5t-31 155t31 154.5t85.5 126t129.5 84.5
t162 31q44 0 86 -9t79 -27z" />
    <glyph glyph-name="D" unicode="D" horiz-adv-x="674" 
d="M49 0v746h210q75 0 145 -23t123.5 -69t86 -116t32.5 -164q0 -95 -32.5 -165.5t-86 -116.5t-123.5 -69t-145 -23h-210zM194 615v-484h68q47 0 90 15.5t76 45.5t52.5 76t19.5 106q0 59 -19.5 104.5t-52.5 75.5t-76 45.5t-90 15.5h-68z" />
    <glyph glyph-name="E" unicode="E" horiz-adv-x="506" 
d="M49 0v746h407v-126h-262v-174h237v-126h-237v-194h270v-126h-415z" />
    <glyph glyph-name="F" unicode="F" horiz-adv-x="513" 
d="M49 0v746h435v-126h-290v-195h257v-126h-257v-299h-145z" />
    <glyph glyph-name="G" unicode="G" horiz-adv-x="832" 
d="M810 369q0 -80 -29 -152t-80 -125t-120.5 -84.5t-148.5 -31.5q-86 0 -161 31.5t-129.5 85t-86 126.5t-31.5 155t31.5 154.5t86 126t129.5 84.5t161 31q83 0 158 -31t127 -82l-100 -97q-40 40 -87 58.5t-98 18.5q-56 0 -104 -21t-83 -56.5t-55 -83.5t-20 -101
q0 -55 20 -103.5t55 -84.5t83 -57t104 -21q86 0 148.5 52.5t78.5 128.5h-215l56 126h310v-47z" />
    <glyph glyph-name="H" unicode="H" horiz-adv-x="665" 
d="M49 0v746h145v-283h277v283h145v-746h-145v332h-277v-332h-145z" />
    <glyph glyph-name="I" unicode="I" horiz-adv-x="243" 
d="M49 0v746h145v-746h-145z" />
    <glyph glyph-name="J" unicode="J" horiz-adv-x="362" 
d="M11 0v135q17 -9 35.5 -13.5t36.5 -4.5q37 0 61 29.5t24 118.5v481h145v-528q0 -116 -48 -175t-162 -59q-26 0 -49 3.5t-43 12.5z" />
    <glyph glyph-name="K" unicode="K" horiz-adv-x="667" 
d="M463 0l-269 348v-348h-145v746h145v-338l259 338h169l-285 -358l311 -388h-185z" />
    <glyph glyph-name="L" unicode="L" horiz-adv-x="464" 
d="M49 746h145v-615h257v-131h-402v746z" />
    <glyph glyph-name="M" unicode="M" horiz-adv-x="862" 
d="M430 144l-236 340v-484h-145v746h143l246 -356l232 356h143v-746h-145v482l-224 -338h-14z" />
    <glyph glyph-name="N" unicode="N" horiz-adv-x="742" 
d="M551 0l-357 499v-499h-145v746h141l358 -505v505h145v-746h-142z" />
    <glyph glyph-name="O" unicode="O" horiz-adv-x="863" 
d="M432 770q85 0 160 -31t129.5 -84.5t86 -126t31.5 -154.5t-31.5 -155t-86 -126.5t-129.5 -85t-160 -31.5q-86 0 -161 31.5t-129.5 85t-86 126.5t-31.5 155t31.5 154.5t86 126t129.5 84.5t161 31zM432 637q-56 0 -104 -21t-83 -56.5t-55 -83.5t-20 -102t20 -102.5t55 -84.5
t83 -57t104 -21q55 0 103 21t83 57t55 84.5t20 102.5t-20 102t-55 83.5t-83 56.5t-103 21z" />
    <glyph glyph-name="P" unicode="P" horiz-adv-x="564" 
d="M240 215h-46v-215h-145v746h195q63 0 119.5 -15t97.5 -46t65 -80t24 -117t-27 -119t-70.5 -85t-99.5 -51.5t-113 -17.5zM235 610h-41v-259h41q75 0 120.5 37t45.5 100q0 55 -38.5 88.5t-127.5 33.5z" />
    <glyph glyph-name="Q" unicode="Q" horiz-adv-x="863" 
d="M432 637q-56 0 -104 -21t-83 -56.5t-55 -83.5t-20 -102t20 -102.5t55 -84.5t83 -57t104 -21q55 0 103 21t83 57t55 84.5t20 102.5t-20 102t-55 83.5t-83 56.5t-103 21zM837 -23h-377q-7 -1 -14 -1h-14q-86 0 -161 31.5t-129.5 85t-86 126.5t-31.5 155t31.5 154.5t86 126
t129.5 84.5t161 31q85 0 160 -31t129.5 -84.5t86 -126t31.5 -154.5q0 -90 -46.5 -167.5t-117.5 -123.5l178 20z" />
    <glyph glyph-name="R" unicode="R" horiz-adv-x="582" 
d="M247 610h-53v-232h56q67 0 110.5 34t43.5 89q0 49 -37.5 79t-119.5 30zM387 0l-193 247v-247h-145v746h185q66 0 123.5 -14t100.5 -44t67.5 -76.5t24.5 -110.5q0 -46 -15 -83.5t-40.5 -66t-61 -49.5t-75.5 -34l205 -268h-176z" />
    <glyph glyph-name="S" unicode="S" horiz-adv-x="505" 
d="M427 743l-2 -129q-26 10 -63 17t-70 7q-62 0 -89.5 -19.5t-27.5 -51.5q0 -30 31 -59.5t99 -76.5q81 -57 128.5 -110.5t47.5 -121.5q0 -92 -74.5 -151.5t-196.5 -59.5q-19 0 -43 2t-48 5.5t-46 7.5t-35 8l2 131q13 -5 33.5 -10.5t44.5 -10t50.5 -7.5t50.5 -3q57 0 86 25
t29 57q0 31 -31.5 61.5t-99.5 76.5q-98 67 -135.5 119.5t-37.5 115.5q0 37 15 72.5t46.5 62.5t81.5 43.5t119 16.5q34 0 70.5 -5.5t64.5 -12.5z" />
    <glyph glyph-name="T" unicode="T" horiz-adv-x="479" 
d="M167 0v616h-158v130h461v-130h-158v-616h-145z" />
    <glyph glyph-name="U" unicode="U" horiz-adv-x="681" 
d="M632 308q0 -156 -75 -244t-217 -88q-140 0 -215.5 88t-75.5 244v438h145v-467q0 -42 12.5 -74t32.5 -53.5t46.5 -32t54.5 -10.5q29 0 56 10.5t47 32t32 53.5t12 74v467h145v-438z" />
    <glyph glyph-name="V" unicode="V" horiz-adv-x="721" 
d="M438 0h-156l-280 746h155l206 -567l206 567h150z" />
    <glyph glyph-name="W" unicode="W" horiz-adv-x="991" 
d="M631 0l-134 526l-138 -526h-156l-201 746h153l135 -542l134 542h154l133 -543l136 543h142l-202 -746h-156z" />
    <glyph glyph-name="X" unicode="X" horiz-adv-x="674" 
d="M511 0l-176 296l-168 -296h-160l232 392l-212 354h162l147 -253l149 253h154l-210 -351l238 -395h-156z" />
    <glyph glyph-name="Y" unicode="Y" horiz-adv-x="662" 
d="M403 0h-145v225l-256 521h158l172 -381l180 381h148l-257 -521v-225z" />
    <glyph glyph-name="Z" unicode="Z" horiz-adv-x="625" 
d="M556 0h-541l-2 13l361 611h-308l58 122h473l2 -13l-361 -611h376z" />
    <glyph glyph-name="bracketleft" unicode="[" horiz-adv-x="415" 
d="M111 -214v960h261v-85h-127v-790h135v-85h-269z" />
    <glyph glyph-name="backslash" unicode="\" horiz-adv-x="559" 
d="M14 780h136l486 -1000h-136z" />
    <glyph glyph-name="bracketright" unicode="]" horiz-adv-x="415" 
d="M304 -214h-269v85h135v790h-127v85h261v-960z" />
    <glyph glyph-name="asciicircum" unicode="^" horiz-adv-x="632" 
d="M466 369l-151 260l-151 -260h-128l223 377h111l226 -377h-130z" />
    <glyph glyph-name="underscore" unicode="_" horiz-adv-x="500" 
d="M500 -51v-105h-500v105h500z" />
    <glyph glyph-name="grave" unicode="`" horiz-adv-x="500" 
d="M107 790h161l82 -147h-111z" />
    <glyph glyph-name="a" unicode="a" horiz-adv-x="543" 
d="M261 65q45 0 74.5 31.5t29.5 77.5q0 41 -28.5 71t-75.5 30q-46 0 -74 -30t-28 -71q0 -45 28 -77t74 -32zM376 0v49q-28 -29 -70.5 -49t-98.5 -20q-80 0 -134.5 53.5t-54.5 136.5q0 39 14.5 74t41.5 60.5t66 40.5t87 15q43 0 77.5 -10.5t59.5 -27.5v25q0 75 -30.5 102.5
t-91.5 26.5q-29 0 -59.5 -4t-82.5 -14l-4 114q51 10 85 14t77 4q123 0 182 -54.5t59 -147.5v-388h-123z" />
    <glyph glyph-name="b" unicode="b" horiz-adv-x="717" 
d="M403 -19q-71 0 -130.5 26t-100.5 71v-78h-128v780h135v-279q41 42 99 67t125 25q62 0 115.5 -24.5t92.5 -66t61.5 -98t22.5 -119.5t-22.5 -118.5t-61.5 -96.5t-92.5 -65t-115.5 -24zM175 287q0 -37 14.5 -71.5t40 -60t60.5 -41t76 -15.5t75.5 15.5t59 41t38.5 60t14 72.5
t-14 72t-38.5 59.5t-59 40.5t-75.5 15t-76 -15t-60.5 -41t-40 -60t-14.5 -72z" />
    <glyph glyph-name="c" unicode="c" horiz-adv-x="531" 
d="M497 132v-122q-10 -7 -27 -12.5t-36.5 -9.5t-39 -5.5t-35.5 -1.5q-72 0 -134 23.5t-107 64.5t-70.5 97t-25.5 121q0 64 25.5 120t70.5 97.5t107 65t134 23.5q16 0 35.5 -1.5t38.5 -5.5t36.5 -9.5t27.5 -12.5v-122h-4q-28 23 -65.5 29.5t-68.5 6.5q-84 0 -139.5 -55
t-55.5 -136q0 -82 55.5 -136.5t139.5 -54.5q31 0 68.5 7t65.5 29h4z" />
    <glyph glyph-name="d" unicode="d" horiz-adv-x="717" 
d="M542 287q0 38 -14.5 72t-40 60t-60.5 41t-76 15t-75.5 -15t-59 -40.5t-38.5 -59.5t-14 -72t14 -72.5t38.5 -60t59 -41t75.5 -15.5t76 15.5t60.5 41t40 60t14.5 71.5zM545 0v78q-41 -45 -100.5 -71t-130.5 -26q-62 0 -115.5 24t-92.5 65t-61.5 96.5t-22.5 118.5
t22.5 119.5t61.5 98t92.5 66t115.5 24.5q67 0 125 -25t99 -67v279h135v-780h-128z" />
    <glyph glyph-name="e" unicode="e" horiz-adv-x="663" 
d="M333 488q-63 0 -104.5 -35.5t-56.5 -95.5h321q-15 60 -56 95.5t-104 35.5zM637 76q-47 -43 -112.5 -74.5t-163.5 -31.5q-77 0 -140 24t-107 66.5t-68 100.5t-24 126t23.5 126t65 100t98.5 66t124 24q66 0 123.5 -24t98.5 -66t64.5 -100t23.5 -126v-34h-477
q9 -77 58.5 -122t136.5 -45q66 0 114 21t81 54z" />
    <glyph glyph-name="f" unicode="f" horiz-adv-x="300" 
d="M288 460h-69v-460h-135v460h-72v114h72v27q0 64 19.5 103t50 59.5t69 27t76.5 6.5v-119q-31 0 -55.5 -15t-24.5 -72v-17h69v-114z" />
    <glyph glyph-name="g" unicode="g" horiz-adv-x="679" 
d="M332 140q35 0 66 13t53.5 36t36 53.5t13.5 64.5q0 35 -13.5 66.5t-36 55t-53.5 37t-66 13.5q-34 0 -65 -13.5t-54 -37t-36.5 -55t-13.5 -66.5q0 -34 13.5 -64.5t36.5 -53.5t54 -36t65 -13zM319 -225q-43 0 -91.5 4.5t-102.5 15.5v117q61 -13 106 -17.5t85 -4.5q38 0 72 9
t58.5 30.5t39 58t14.5 92.5v26q-41 -40 -93.5 -62.5t-106.5 -22.5t-105 20.5t-89 57.5t-61 90t-23 118q0 66 23 120t61 91.5t88.5 58.5t105.5 21q54 0 108 -24t95 -66v66h132v-490q0 -169 -83.5 -239t-232.5 -70z" />
    <glyph glyph-name="h" unicode="h" horiz-adv-x="609" 
d="M179 346v-346h-135v780h129v-269q28 31 76.5 55t111.5 24q91 0 148.5 -57t57.5 -156v-377h-135v336q0 75 -37.5 105t-87.5 30q-21 0 -44 -8t-41.5 -24t-30.5 -39.5t-12 -53.5z" />
    <glyph glyph-name="i" unicode="i" horiz-adv-x="227" 
d="M183 780v-125h-139v125h139zM181 574v-574h-135v574h135z" />
    <glyph glyph-name="j" unicode="j" horiz-adv-x="227" 
d="M183 780v-125h-139v125h139zM-72 -103h15q54 0 78.5 20.5t24.5 77.5v579h135v-579q0 -66 -12.5 -109.5t-40.5 -68.5t-74 -35t-111 -10h-15v125z" />
    <glyph glyph-name="k" unicode="k" horiz-adv-x="583" 
d="M417 0l-174 253l-64 -63v-190h-135v780h135v-417l214 211h174l-230 -228l244 -346h-164z" />
    <glyph glyph-name="l" unicode="l" horiz-adv-x="227" 
d="M181 780v-780h-135v780h135z" />
    <glyph glyph-name="m" unicode="m" horiz-adv-x="918" 
d="M180 346v-346h-136v574h129v-80q20 34 62 65t105 31q59 0 103 -29t66 -80q8 18 23 37t37 35t51.5 26.5t65.5 10.5q85 0 137.5 -57t52.5 -156v-377h-135v336q0 75 -29 105t-76 30q-40 0 -74 -32t-34 -96v-343h-135v336q0 75 -30.5 105t-75.5 30q-42 0 -74.5 -32.5
t-32.5 -92.5z" />
    <glyph glyph-name="n" unicode="n" horiz-adv-x="609" 
d="M179 346v-346h-135v574h129v-63q28 31 76.5 55t111.5 24q91 0 148.5 -57t57.5 -156v-377h-135v336q0 75 -37.5 105t-87.5 30q-21 0 -44 -8t-41.5 -24t-30.5 -39.5t-12 -53.5z" />
    <glyph glyph-name="o" unicode="o" horiz-adv-x="710" 
d="M355 603q72 0 133 -25t105.5 -67.5t69.5 -100.5t25 -123t-25 -123t-69.5 -100.5t-105.5 -67.5t-133 -25q-71 0 -132.5 25t-105.5 67.5t-69.5 100.5t-25.5 123t25.5 123t69.5 100.5t105.5 67.5t132.5 25zM355 488q-41 0 -76 -16t-60.5 -43t-40 -64t-14.5 -78t14.5 -78
t40 -64t60.5 -43t76 -16t76.5 16t61 43t40 64t14.5 78t-14.5 78t-40 64t-61 43t-76.5 16z" />
    <glyph glyph-name="p" unicode="p" horiz-adv-x="717" 
d="M175 287q0 -38 14.5 -72t40 -60t60.5 -41t76 -15t75.5 15t59 40.5t38.5 59.5t14 72t-14 72.5t-38.5 60t-59 41t-75.5 15.5t-76 -15.5t-60.5 -41t-40 -60t-14.5 -71.5zM403 -19q-67 0 -125 25t-99 67v-293h-135v794h128v-78q41 45 100.5 71t130.5 26q62 0 115.5 -24
t92.5 -65t61.5 -96.5t22.5 -118.5t-22.5 -119.5t-61.5 -98t-92.5 -66t-115.5 -24.5z" />
    <glyph glyph-name="q" unicode="q" horiz-adv-x="717" 
d="M673 -220h-135v293q-41 -42 -99 -67t-125 -25q-62 0 -115.5 24.5t-92.5 66t-61.5 98t-22.5 119.5t22.5 118.5t61.5 96.5t92.5 65t115.5 24q71 0 130.5 -26t100.5 -71v78h128v-794zM542 287q0 37 -14.5 71.5t-40 60t-60.5 41t-76 15.5t-75.5 -15.5t-59 -41t-38.5 -60
t-14 -72.5t14 -72t38.5 -59.5t59 -40.5t75.5 -15t76 15t60.5 41t40 60t14.5 72z" />
    <glyph glyph-name="r" unicode="r" horiz-adv-x="366" 
d="M179 309v-309h-135v574h129v-122q8 17 23 38t36 39.5t47.5 31.5t57.5 13h19v-154q-4 2 -13 3.5t-15 1.5q-34 0 -61.5 -11.5t-47 -28.5t-30 -37.5t-10.5 -38.5z" />
    <glyph glyph-name="s" unicode="s" horiz-adv-x="440" 
d="M231 594q37 0 70.5 -7.5t58.5 -17.5v-120q-32 16 -63.5 24t-54.5 8q-34 0 -53.5 -12.5t-19.5 -34.5q0 -15 19 -32.5t61 -44.5q102 -66 136.5 -113t34.5 -96q0 -74 -56 -120t-154 -47q-37 0 -85 12t-85 28v120q46 -23 86 -34t65 -11q46 0 66.5 16t20.5 38q0 14 -20 35
t-90 66q-44 29 -71.5 52.5t-43 45t-21 44t-5.5 48.5q0 28 11.5 55.5t36 49t63.5 35t93 13.5z" />
    <glyph glyph-name="t" unicode="t" horiz-adv-x="303" 
d="M291 460h-72v-460h-135v460h-72v114h72v139l135 30v-169h72v-114z" />
    <glyph glyph-name="u" unicode="u" horiz-adv-x="609" 
d="M436 0v64q-28 -31 -76.5 -55.5t-111.5 -24.5q-90 0 -148 57t-58 156v377h135v-336q0 -75 37 -105t88 -30q22 0 44.5 8t41 24t30.5 39.5t12 53.5v346h135v-574h-129z" />
    <glyph glyph-name="v" unicode="v" horiz-adv-x="640" 
d="M401 0h-161l-241 574h151l172 -435l178 435h141z" />
    <glyph glyph-name="w" unicode="w" horiz-adv-x="896" 
d="M573 0l-123 377l-121 -377h-135l-195 574h146l118 -390l119 390h143l117 -392l119 392h136l-190 -574h-134z" />
    <glyph glyph-name="x" unicode="x" horiz-adv-x="629" 
d="M452 0l-142 213l-158 -213h-143l220 297l-189 277h152l130 -202l146 202h143l-208 -276l194 -298h-145z" />
    <glyph glyph-name="y" unicode="y" horiz-adv-x="627" 
d="M327 -220h-138l79 210l-269 584h152l180 -417l157 417h140z" />
    <glyph glyph-name="z" unicode="z" horiz-adv-x="575" 
d="M494 0h-490l-3 5l325 455h-265l51 114h438l3 -5l-323 -455h315z" />
    <glyph glyph-name="braceleft" unicode="{" horiz-adv-x="432" 
d="M367 -214h-88q-63 0 -100 28.5t-37 109.5v199q0 46 -15.5 68.5t-40.5 29.5q-1 0 -4 1t-4 1v84q1 0 4 1t4 1q25 7 40.5 29.5t15.5 67.5v202q0 81 37 109.5t100 28.5h88v-85h-33q-29 0 -43.5 -16t-14.5 -69v-168q0 -47 -19.5 -81t-62.5 -53v-18q43 -18 62.5 -50.5
t19.5 -80.5v-177q0 -53 14.5 -65t43.5 -12h33v-85z" />
    <glyph glyph-name="bar" unicode="|" horiz-adv-x="208" 
d="M60 746h88v-906h-88v906z" />
    <glyph glyph-name="braceright" unicode="}" horiz-adv-x="432" 
d="M153 -214h-89v78h34q29 0 43 11.5t14 65.5v184q0 48 19.5 80.5t62.5 50.5v19q-43 18 -62.5 52t-19.5 81v176q0 53 -14 68.5t-43 15.5h-34v78h89q63 0 99.5 -28.5t36.5 -109.5v-202q0 -45 15.5 -67.5t40.5 -29.5q1 0 4 -1t4 -1v-84l-3.5 -1t-4.5 -1q-25 -7 -40.5 -29.5
t-15.5 -68.5v-199q0 -81 -36.5 -109.5t-99.5 -28.5z" />
    <glyph glyph-name="asciitilde" unicode="~" horiz-adv-x="665" 
d="M171 219l-123 8q0 109 44.5 156.5t111.5 47.5q29 0 62.5 -17t66.5 -36.5t63.5 -36.5t54.5 -17q18 0 30.5 14.5t12.5 66.5l123 -8q0 -96 -38.5 -147.5t-108.5 -51.5q-31 0 -65.5 16.5t-68.5 36t-65.5 36t-56.5 16.5q-16 0 -29.5 -15.5t-13.5 -68.5z" />
    <glyph glyph-name="exclamdown" unicode="&#xa1;" horiz-adv-x="313" 
d="M80 746h153v-135h-153v135zM214 542l26 -542h-167l26 542h115z" />
    <glyph glyph-name="cent" unicode="&#xa2;" horiz-adv-x="507" 
d="M489 0q-26 -11 -55 -16t-56 -6v-95h-90v100q-57 10 -106 36.5t-84.5 66t-55.5 91t-20 110.5t20 110.5t55.5 91t84.5 66t106 36.5v104h90v-99q26 -1 55 -7t56 -18v-124h-4q-28 19 -61 27.5t-61 8.5q-41 0 -77.5 -15.5t-63.5 -42t-43 -62.5t-16 -76q0 -41 16 -76.5t43 -62
t63.5 -42t77.5 -15.5q28 0 58 6.5t64 25.5h4v-123z" />
    <glyph glyph-name="sterling" unicode="&#xa3;" horiz-adv-x="603" 
d="M564 107v-107h-524v107h25q42 0 62 27.5t20 82.5v124h-81v88h81v132q0 47 21 84.5t55.5 63t80 39t94.5 13.5q32 0 64.5 -4t63.5 -17v-118q-26 14 -53 20t-54 6q-25 0 -49 -7t-43 -19.5t-30.5 -31t-11.5 -41.5v-120h180v-88h-180v-124q0 -38 -9 -65.5t-25 -44.5h313z" />
    <glyph glyph-name="currency" unicode="&#xa4;" horiz-adv-x="572" 
d="M471 143l-85 84q-22 -13 -47 -20t-53 -7t-53 7t-47 20l-85 -84l-74 76l86 85q-11 21 -17.5 44.5t-6.5 48.5t6 48.5t17 44.5l-85 85l74 76l85 -84q22 13 47 20t53 7t53 -7t47 -20l85 84l74 -75l-86 -85q11 -22 17.5 -45.5t6.5 -48.5t-6 -48t-17 -44l85 -85zM286 504
q-45 0 -74.5 -32t-29.5 -75t29.5 -75t74.5 -32t75 32t30 75t-30 75t-75 32z" />
    <glyph glyph-name="yen" unicode="&#xa5;" horiz-adv-x="665" 
d="M613 152h-209v-152h-145v152h-200v88h200v32l-25 48h-175v88h129l-175 338h156l164 -339l170 339h149l-177 -338h138v-88h-184l-25 -48v-32h209v-88z" />
    <glyph glyph-name="brokenbar" unicode="&#xa6;" horiz-adv-x="208" 
d="M60 746h88v-404h-88v404zM60 244h88v-404h-88v404z" />
    <glyph glyph-name="section" unicode="&#xa7;" horiz-adv-x="548" 
d="M283 189q19 -9 36.5 -18.5t32.5 -19.5q23 11 36.5 32.5t13.5 47.5q0 11 -4.5 25.5t-17.5 31.5t-38.5 37t-66.5 41q-13 6 -25 12t-23 12q-36 -4 -57.5 -25t-21.5 -51q0 -28 25.5 -57t109.5 -68zM232 -225q-42 0 -85.5 11t-76.5 30l2 123q40 -23 79.5 -37.5t80.5 -14.5
q48 1 78.5 22.5t30.5 55.5q0 13 -4.5 26.5t-19 28.5t-42 33t-73.5 41q-87 39 -128.5 83.5t-41.5 106.5q0 48 28.5 94t82.5 70q-31 30 -43.5 61.5t-12.5 66.5q0 34 13.5 69t40 62.5t66 45t89.5 17.5q33 0 64.5 -6.5t65.5 -25.5l-2 -114q-30 17 -61.5 25.5t-66.5 8.5t-62 -19
t-27 -49q0 -28 31.5 -53t94.5 -59q110 -57 148.5 -113t38.5 -115q0 -62 -27.5 -102.5t-68.5 -61.5q21 -28 30 -56.5t9 -57.5q0 -51 -20 -88.5t-52.5 -61.5t-74 -35.5t-84.5 -11.5z" />
    <glyph glyph-name="dieresis" unicode="&#xa8;" horiz-adv-x="500" 
d="M420 782v-107h-121v107h121zM201 782v-107h-121v107h121z" />
    <glyph glyph-name="copyright" unicode="&#xa9;" horiz-adv-x="879" 
d="M440 756q83 0 154.5 -30t123.5 -82t81.5 -122t29.5 -149t-29.5 -149t-81.5 -122t-123.5 -82t-154.5 -30t-155 30t-124 82t-81.5 122t-29.5 149t29.5 149t81.5 122t124 82t155 30zM440 712q-70 0 -132 -27t-108 -73t-73 -108t-27 -131q0 -70 27 -132t73 -107.5t108 -72.5
t132 -27q69 0 131 27t108 72.5t73 107.5t27 132q0 69 -27 131t-73 108t-108 73t-131 27zM608 555l-52 -79q-23 16 -46.5 24.5t-49.5 8.5q-57 0 -97 -39.5t-40 -93.5t40 -94t97 -40q26 0 49.5 8.5t46.5 24.5l52 -79q-34 -29 -73.5 -43.5t-80.5 -14.5q-52 0 -97 19t-77.5 51
t-51 75.5t-18.5 92.5t18.5 92.5t51 75.5t77.5 50.5t97 18.5q41 0 80.5 -14.5t73.5 -43.5z" />
    <glyph glyph-name="ordfeminine" unicode="&#xaa;" horiz-adv-x="398" 
d="M193 405q23 0 37.5 18t14.5 45q0 22 -14 38.5t-38 16.5q-25 0 -39.5 -16.5t-14.5 -38.5q0 -25 14.5 -44t39.5 -19zM257 345v31q-19 -19 -49.5 -32t-70.5 -13q-54 0 -91 36.5t-37 96.5q0 54 38.5 93.5t110.5 39.5q26 0 48 -5t38 -13v1q0 42 -17.5 57.5t-60.5 14.5
q-20 0 -43 -3t-58 -10l-2 106q34 7 60.5 10t59.5 3q95 0 141 -38t46 -104v-271h-113z" />
    <glyph glyph-name="guillemotleft" unicode="&#xab;" horiz-adv-x="595" 
d="M343 0h-115l-185 285v3l185 286h116l-186 -286zM548 0h-115l-185 285v3l185 286h116l-186 -286z" />
    <glyph glyph-name="logicalnot" unicode="&#xac;" horiz-adv-x="654" 
d="M614 123h-136v200h-448v117h584v-317z" />
    <glyph glyph-name="registered" unicode="&#xae;" horiz-adv-x="527" 
d="M264 756q50 0 92.5 -18t73.5 -49t49 -73t18 -89q0 -48 -18 -90t-49 -73t-73.5 -49t-92.5 -18t-93 18t-74 49t-49 73t-18 90q0 47 18 89t49 73t74 49t93 18zM264 730q-42 0 -79 -16t-65 -43.5t-44 -64.5t-16 -79t16 -79t44 -65t65 -44t79 -16q41 0 78.5 16t65 44t43.5 65
t16 79t-16 79t-43.5 64.5t-65 43.5t-78.5 16zM263 595h-8v-60h9q16 0 23.5 7.5t7.5 21.5q0 18 -9.5 24.5t-22.5 6.5zM306 399l-48 75h-3v-75h-68v260h76q35 0 68 -19.5t33 -75.5q0 -25 -11 -42.5t-27 -28.5l58 -88l-5 -6h-73z" />
    <glyph glyph-name="macron" unicode="&#xaf;" horiz-adv-x="500" 
d="M394 768v-100h-288v100h288z" />
    <glyph glyph-name="degree" unicode="&#xb0;" horiz-adv-x="380" 
d="M190 765q35 0 66 -13t53 -35t35 -51.5t13 -61.5t-13 -61.5t-35 -51.5t-53 -35t-66 -13t-66 13t-53 35t-35 51.5t-13 61.5t13 61.5t35 51.5t53 35t66 13zM190 698q-40 0 -66 -28t-26 -66t26 -66t66 -28t66 28t26 66t-26 66t-66 28z" />
    <glyph glyph-name="plusminus" unicode="&#xb1;" horiz-adv-x="612" 
d="M572 317h-203v-171h-124v171h-205v109h205v197h124v-197h203v-109zM574 109v-98h-536v98h536z" />
    <glyph glyph-name="two.sups" unicode="&#xb2;" horiz-adv-x="414" 
d="M348 279h-314l-7 15q11 14 37.5 47.5t55.5 70.5t55 69.5t36 45.5q17 22 26 38.5t9 40.5q0 26 -20 46t-56 20q-23 0 -48 -8.5t-52 -30.5l1 104q26 13 55.5 18.5t57.5 5.5q79 -1 126.5 -43.5t47.5 -105.5q-1 -49 -21.5 -77t-41.5 -55q-13 -16 -40.5 -48.5t-55.5 -63.5h185z
" />
    <glyph glyph-name="three.sups" unicode="&#xb3;" horiz-adv-x="375" 
d="M155 264q-12 0 -28.5 1t-33.5 3.5t-33.5 7t-28.5 11.5v90q16 -13 46.5 -18t45.5 -5q51 -1 82 17t31 49q0 29 -29 46t-74 17h-31l3 89h28q34 0 57 15t23 39q0 22 -20.5 33.5t-54.5 11.5q-15 0 -39 -3t-43 -13l6 94q18 6 40.5 9t56.5 3q69 1 114.5 -34t45.5 -86
q-1 -31 -18 -59t-45 -45q38 -16 62 -48.5t24 -73.5q0 -65 -52 -108.5t-135 -42.5z" />
    <glyph glyph-name="acute" unicode="&#xb4;" horiz-adv-x="500" 
d="M396 790l-132 -147h-107l81 147h158z" />
    <glyph glyph-name="paragraph" unicode="&#xb6;" horiz-adv-x="625" 
d="M403 -207h-86v479h-20q-59 0 -108 18t-83.5 50t-54 75t-19.5 92q0 46 19.5 89.5t54.5 76.5t84.5 53t109.5 20h271v-953h-85v861h-83v-861z" />
    <glyph glyph-name="periodcentered" unicode="&#xb7;" horiz-adv-x="262" 
d="M53 419h156v-146h-156v146z" />
    <glyph glyph-name="cedilla" unicode="&#xb8;" horiz-adv-x="500" 
d="M221 -209q-14 0 -36 3t-41 10v65h1q19 -7 38 -10t29 -3q25 0 40 8.5t15 23.5q0 14 -18.5 23.5t-45.5 9.5h-21l-4 10l28 79h62l-13 -35q49 -7 74 -31t25 -60q0 -38 -36.5 -65.5t-96.5 -27.5z" />
    <glyph glyph-name="one.sups" unicode="&#xb9;" horiz-adv-x="292" 
d="M233 279h-106v316l-84 -82v136l107 97h83v-467z" />
    <glyph glyph-name="ordmasculine" unicode="&#xba;" horiz-adv-x="505" 
d="M253 766q51 0 95.5 -17t76 -46.5t49.5 -69.5t18 -87t-18 -87.5t-49.5 -70t-76 -46.5t-95.5 -17t-95 17t-76 46.5t-50.5 70t-18.5 87.5t18.5 87t50.5 69.5t76 46.5t95 17zM253 660q-46 0 -77 -32.5t-31 -81.5q0 -50 31 -82.5t77 -32.5t77.5 33t31.5 82t-31.5 81.5
t-77.5 32.5z" />
    <glyph glyph-name="guillemotright" unicode="&#xbb;" horiz-adv-x="595" 
d="M162 0h-115l185 289l-184 285h114l185 -286v-3zM367 0h-115l185 289l-184 285h114l185 -286v-3z" />
    <glyph glyph-name="onequarter" unicode="&#xbc;" horiz-adv-x="801" 
d="M213 279h-106v316l-84 -82v136l107 97h83v-467zM560 746h120l-452 -746h-118zM636 167v124l-82 -124h82zM776 78h-34v-78h-106v78h-216l-9 20l247 369h84v-300h58z" />
    <glyph glyph-name="onehalf" unicode="&#xbd;" horiz-adv-x="888" 
d="M213 279h-106v316l-84 -82v136l107 97h83v-467zM560 746h120l-452 -746h-118zM842 0h-314l-7 15q11 14 37.5 47.5t55.5 70.5t55 69.5t36 45.5q17 22 26 38.5t9 40.5q0 26 -20 46t-56 20q-23 0 -48 -8.5t-52 -30.5l1 104q26 13 55.5 18.5t57.5 5.5q79 -1 126.5 -43.5
t47.5 -105.5q-1 -49 -21.5 -77t-41.5 -55q-13 -16 -40.5 -48.5t-55.5 -63.5h185z" />
    <glyph glyph-name="threequarters" unicode="&#xbe;" horiz-adv-x="872" 
d="M135 264q-12 0 -28.5 1t-33.5 3.5t-33.5 7t-28.5 11.5v90q16 -13 46.5 -18t45.5 -5q51 -1 82 17t31 49q0 29 -29 46t-74 17h-31l3 89h28q34 0 57 15t23 39q0 22 -20.5 33.5t-54.5 11.5q-15 0 -39 -3t-43 -13l6 94q18 6 40.5 9t56.5 3q69 1 114.5 -34t45.5 -86
q-1 -31 -18 -59t-45 -45q38 -16 62 -48.5t24 -73.5q0 -65 -52 -108.5t-135 -42.5zM631 746h120l-452 -746h-118zM707 167v124l-82 -124h82zM847 78h-34v-78h-106v78h-216l-9 20l247 369h84v-300h58z" />
    <glyph glyph-name="questiondown" unicode="&#xbf;" horiz-adv-x="569" 
d="M383 746v-123h-130v123h130zM314 -15q-113 0 -182.5 61t-69.5 161q0 52 15.5 91.5t42 67t61.5 43t75 21.5v126h124v-193h-31q-31 0 -59 -9t-49 -26t-33.5 -42.5t-12.5 -58.5q0 -54 38.5 -91.5t110.5 -37.5q39 0 78 13t81 45l5 -118q-44 -26 -94 -39.5t-100 -13.5z" />
    <glyph glyph-name="Agrave" unicode="&#xc0;" horiz-adv-x="723" 
d="M475 246l-115 309l-115 -309h230zM567 0l-47 125h-320l-47 -125h-151l288 746h144l287 -746h-154zM169 954h161l82 -147h-111z" />
    <glyph glyph-name="Aacute" unicode="&#xc1;" horiz-adv-x="723" 
d="M475 246l-115 309l-115 -309h230zM567 0l-47 125h-320l-47 -125h-151l288 746h144l287 -746h-154zM546 954l-132 -147h-107l81 147h158z" />
    <glyph glyph-name="Acircumflex" unicode="&#xc2;" horiz-adv-x="723" 
d="M475 246l-115 309l-115 -309h230zM567 0l-47 125h-320l-47 -125h-151l288 746h144l287 -746h-154zM428 807l-68 83l-67 -83h-118l117 147h138l117 -147h-119z" />
    <glyph glyph-name="Atilde" unicode="&#xc3;" horiz-adv-x="723" 
d="M475 246l-115 309l-115 -309h230zM567 0l-47 125h-320l-47 -125h-151l288 746h144l287 -746h-154zM247 807l-108 3q-4 46 4.5 77t26.5 50t42 27t49 8q24 0 48.5 -7.5t47 -17t42.5 -17t35 -7.5q16 0 28 10t11 38l109 -3q7 -78 -28.5 -117t-94.5 -39q-24 0 -48.5 7.5
t-47.5 17t-42.5 17t-34.5 7.5q-16 0 -28 -10t-11 -44z" />
    <glyph glyph-name="Adieresis" unicode="&#xc4;" horiz-adv-x="723" 
d="M475 246l-115 309l-115 -309h230zM567 0l-47 125h-320l-47 -125h-151l288 746h144l287 -746h-154zM530 914v-107h-121v107h121zM311 914v-107h-121v107h121z" />
    <glyph glyph-name="Aring" unicode="&#xc5;" horiz-adv-x="723" 
d="M475 246l-115 309l-115 -309h230zM567 0l-47 125h-320l-47 -125h-151l288 746h144l287 -746h-154zM360 932q53 0 90.5 -37t37.5 -86t-37.5 -86t-90.5 -37t-90.5 37.5t-37.5 85.5t37.5 85.5t90.5 37.5zM360 871q-25 0 -43.5 -18.5t-18.5 -43.5q0 -26 18.5 -44t43.5 -18
t43.5 18t18.5 44q0 25 -18.5 43.5t-43.5 18.5z" />
    <glyph glyph-name="AE" unicode="&#xc6;" horiz-adv-x="951" 
d="M472 246l-117 340l-117 -340h234zM557 0l-43 125h-318l-43 -125h-151l283 746h465v-126h-273l65 -174h289v-126h-241l73 -194h286v-126h-392z" />
    <glyph glyph-name="Ccedilla" unicode="&#xc7;" horiz-adv-x="633" 
d="M597 734v-141q-34 22 -74 33t-83 11q-57 0 -106.5 -21.5t-85.5 -57t-57 -83.5t-21 -100q0 -53 21 -101.5t57 -85t85.5 -58t106.5 -21.5q43 0 83 11t74 33v-141q-37 -18 -79 -27t-86 -9q-87 0 -162 31.5t-129.5 85t-85.5 126.5t-31 155t31 154.5t85.5 126t129.5 84.5
t162 31q44 0 86 -9t79 -27zM378 -233q-14 0 -36 3t-41 10v65h1q19 -7 38 -10t29 -3q25 0 40 8.5t15 23.5q0 14 -18.5 23.5t-45.5 9.5h-21l-4 10l28 79h62l-13 -35q49 -7 74 -31t25 -60q0 -38 -36.5 -65.5t-96.5 -27.5z" />
    <glyph glyph-name="Egrave" unicode="&#xc8;" horiz-adv-x="506" 
d="M49 0v746h407v-126h-262v-174h237v-126h-237v-194h270v-126h-415zM71 954h161l82 -147h-111z" />
    <glyph glyph-name="Eacute" unicode="&#xc9;" horiz-adv-x="506" 
d="M49 0v746h407v-126h-262v-174h237v-126h-237v-194h270v-126h-415zM448 954l-132 -147h-107l81 147h158z" />
    <glyph glyph-name="Ecircumflex" unicode="&#xca;" horiz-adv-x="506" 
d="M49 0v746h407v-126h-262v-174h237v-126h-237v-194h270v-126h-415zM330 807l-68 83l-67 -83h-118l117 147h138l117 -147h-119z" />
    <glyph glyph-name="Edieresis" unicode="&#xcb;" horiz-adv-x="506" 
d="M49 0v746h407v-126h-262v-174h237v-126h-237v-194h270v-126h-415zM432 914v-107h-121v107h121zM213 914v-107h-121v107h121z" />
    <glyph glyph-name="Igrave" unicode="&#xcc;" horiz-adv-x="243" 
d="M49 0v746h145v-746h-145zM-69 954h161l82 -147h-111z" />
    <glyph glyph-name="Iacute" unicode="&#xcd;" horiz-adv-x="243" 
d="M49 0v746h145v-746h-145zM308 954l-132 -147h-107l81 147h158z" />
    <glyph glyph-name="Icircumflex" unicode="&#xce;" horiz-adv-x="243" 
d="M49 0v746h145v-746h-145zM190 807l-68 83l-67 -83h-118l117 147h138l117 -147h-119z" />
    <glyph glyph-name="Idieresis" unicode="&#xcf;" horiz-adv-x="243" 
d="M49 0v746h145v-746h-145zM292 914v-107h-121v107h121zM73 914v-107h-121v107h121z" />
    <glyph glyph-name="Eth" unicode="&#xd0;" horiz-adv-x="680" 
d="M265 0h-210v322h-49v115h49v309h210q75 0 145 -23t123.5 -69t86 -116t32.5 -164q0 -95 -32.5 -165.5t-86 -116.5t-123.5 -69t-145 -23zM200 131h68q47 0 90 15.5t76 45.5t52.5 76t19.5 106q0 59 -19.5 104.5t-52.5 75.5t-76 45.5t-90 15.5h-68v-178h123v-115h-123v-191z
" />
    <glyph glyph-name="Ntilde" unicode="&#xd1;" horiz-adv-x="742" 
d="M551 0l-357 499v-499h-145v746h141l358 -505v505h145v-746h-142zM248 807l-108 3q-4 46 4.5 77t26.5 50t42 27t49 8q24 0 48.5 -7.5t47 -17t42.5 -17t35 -7.5q16 0 28 10t11 38l109 -3q7 -78 -28.5 -117t-94.5 -39q-24 0 -48.5 7.5t-47.5 17t-42.5 17t-34.5 7.5
q-16 0 -28 -10t-11 -44z" />
    <glyph glyph-name="Ograve" unicode="&#xd2;" horiz-adv-x="863" 
d="M432 770q85 0 160 -31t129.5 -84.5t86 -126t31.5 -154.5t-31.5 -155t-86 -126.5t-129.5 -85t-160 -31.5q-86 0 -161 31.5t-129.5 85t-86 126.5t-31.5 155t31.5 154.5t86 126t129.5 84.5t161 31zM432 637q-56 0 -104 -21t-83 -56.5t-55 -83.5t-20 -102t20 -102.5t55 -84.5
t83 -57t104 -21q55 0 103 21t83 57t55 84.5t20 102.5t-20 102t-55 83.5t-83 56.5t-103 21zM241 954h161l82 -147h-111z" />
    <glyph glyph-name="Oacute" unicode="&#xd3;" horiz-adv-x="863" 
d="M432 770q85 0 160 -31t129.5 -84.5t86 -126t31.5 -154.5t-31.5 -155t-86 -126.5t-129.5 -85t-160 -31.5q-86 0 -161 31.5t-129.5 85t-86 126.5t-31.5 155t31.5 154.5t86 126t129.5 84.5t161 31zM432 637q-56 0 -104 -21t-83 -56.5t-55 -83.5t-20 -102t20 -102.5t55 -84.5
t83 -57t104 -21q55 0 103 21t83 57t55 84.5t20 102.5t-20 102t-55 83.5t-83 56.5t-103 21zM618 954l-132 -147h-107l81 147h158z" />
    <glyph glyph-name="Ocircumflex" unicode="&#xd4;" horiz-adv-x="863" 
d="M432 770q85 0 160 -31t129.5 -84.5t86 -126t31.5 -154.5t-31.5 -155t-86 -126.5t-129.5 -85t-160 -31.5q-86 0 -161 31.5t-129.5 85t-86 126.5t-31.5 155t31.5 154.5t86 126t129.5 84.5t161 31zM432 637q-56 0 -104 -21t-83 -56.5t-55 -83.5t-20 -102t20 -102.5t55 -84.5
t83 -57t104 -21q55 0 103 21t83 57t55 84.5t20 102.5t-20 102t-55 83.5t-83 56.5t-103 21zM500 807l-68 83l-67 -83h-118l117 147h138l117 -147h-119z" />
    <glyph glyph-name="Otilde" unicode="&#xd5;" horiz-adv-x="863" 
d="M432 770q85 0 160 -31t129.5 -84.5t86 -126t31.5 -154.5t-31.5 -155t-86 -126.5t-129.5 -85t-160 -31.5q-86 0 -161 31.5t-129.5 85t-86 126.5t-31.5 155t31.5 154.5t86 126t129.5 84.5t161 31zM432 637q-56 0 -104 -21t-83 -56.5t-55 -83.5t-20 -102t20 -102.5t55 -84.5
t83 -57t104 -21q55 0 103 21t83 57t55 84.5t20 102.5t-20 102t-55 83.5t-83 56.5t-103 21zM319 807l-108 3q-4 46 4.5 77t26.5 50t42 27t49 8q24 0 48.5 -7.5t47 -17t42.5 -17t35 -7.5q16 0 28 10t11 38l109 -3q7 -78 -28.5 -117t-94.5 -39q-24 0 -48.5 7.5t-47.5 17
t-42.5 17t-34.5 7.5q-16 0 -28 -10t-11 -44z" />
    <glyph glyph-name="Odieresis" unicode="&#xd6;" horiz-adv-x="863" 
d="M432 770q85 0 160 -31t129.5 -84.5t86 -126t31.5 -154.5t-31.5 -155t-86 -126.5t-129.5 -85t-160 -31.5q-86 0 -161 31.5t-129.5 85t-86 126.5t-31.5 155t31.5 154.5t86 126t129.5 84.5t161 31zM432 637q-56 0 -104 -21t-83 -56.5t-55 -83.5t-20 -102t20 -102.5t55 -84.5
t83 -57t104 -21q55 0 103 21t83 57t55 84.5t20 102.5t-20 102t-55 83.5t-83 56.5t-103 21zM602 914v-107h-121v107h121zM383 914v-107h-121v107h121z" />
    <glyph glyph-name="multiply" unicode="&#xd7;" horiz-adv-x="552" 
d="M446 93l-175 175l-168 -168l-74 75l168 168l-164 164l77 76l164 -164l155 155l75 -74l-156 -155l175 -175z" />
    <glyph glyph-name="Oslash" unicode="&#xd8;" horiz-adv-x="882" 
d="M170 374q0 -51 18 -97.5t50 -81.5l292 423q-22 9 -47 14t-51 5q-56 0 -104 -21t-83 -56.5t-55 -83.5t-20 -102zM432 109q55 0 103 21t83 57t55 84.5t20 102.5q0 51 -18 97t-50 81l-293 -424q22 -9 47.5 -14t52.5 -5zM432 -24q-49 0 -94 10t-85 29l-43 -63h-140l87 126
q-61 54 -97 131t-36 165q0 82 31.5 154.5t86 126t129.5 84.5t161 31q48 0 92.5 -10t84.5 -28l43 62h140l-87 -125q62 -54 98 -131t36 -164q0 -82 -31.5 -155t-86 -126.5t-129.5 -85t-160 -31.5z" />
    <glyph glyph-name="Ugrave" unicode="&#xd9;" horiz-adv-x="681" 
d="M632 308q0 -156 -75 -244t-217 -88q-140 0 -215.5 88t-75.5 244v438h145v-467q0 -42 12.5 -74t32.5 -53.5t46.5 -32t54.5 -10.5q29 0 56 10.5t47 32t32 53.5t12 74v467h145v-438zM150 954h161l82 -147h-111z" />
    <glyph glyph-name="Uacute" unicode="&#xda;" horiz-adv-x="681" 
d="M632 308q0 -156 -75 -244t-217 -88q-140 0 -215.5 88t-75.5 244v438h145v-467q0 -42 12.5 -74t32.5 -53.5t46.5 -32t54.5 -10.5q29 0 56 10.5t47 32t32 53.5t12 74v467h145v-438zM527 954l-132 -147h-107l81 147h158z" />
    <glyph glyph-name="Ucircumflex" unicode="&#xdb;" horiz-adv-x="681" 
d="M632 308q0 -156 -75 -244t-217 -88q-140 0 -215.5 88t-75.5 244v438h145v-467q0 -42 12.5 -74t32.5 -53.5t46.5 -32t54.5 -10.5q29 0 56 10.5t47 32t32 53.5t12 74v467h145v-438zM409 807l-68 83l-67 -83h-118l117 147h138l117 -147h-119z" />
    <glyph glyph-name="Udieresis" unicode="&#xdc;" horiz-adv-x="681" 
d="M632 308q0 -156 -75 -244t-217 -88q-140 0 -215.5 88t-75.5 244v438h145v-467q0 -42 12.5 -74t32.5 -53.5t46.5 -32t54.5 -10.5q29 0 56 10.5t47 32t32 53.5t12 74v467h145v-438zM511 914v-107h-121v107h121zM292 914v-107h-121v107h121z" />
    <glyph glyph-name="Yacute" unicode="&#xdd;" horiz-adv-x="662" 
d="M403 0h-145v225l-256 521h158l172 -381l180 381h148l-257 -521v-225zM517 954l-132 -147h-107l81 147h158z" />
    <glyph glyph-name="Thorn" unicode="&#xde;" horiz-adv-x="554" 
d="M265 509h-71v-217h71q57 0 93 28.5t36 77.5q0 50 -31 80.5t-98 30.5zM249 156h-55v-156h-145v746h145v-101h60q59 0 111.5 -11.5t91 -39.5t61 -76t22.5 -120q0 -63 -25.5 -109t-66.5 -75t-93.5 -43.5t-105.5 -14.5z" />
    <glyph glyph-name="germandbls" unicode="&#xdf;" horiz-adv-x="607" 
d="M299 -148v136q75 44 108.5 93t33.5 96q0 54 -38.5 90t-96.5 49l77 144h-204v-460h-135v601q0 64 19 103t49.5 59.5t69.5 27t77 6.5v-119q-31 0 -55.5 -15t-24.5 -72v-80l39 63h350l3 -5l-108 -207q57 -31 87 -79t30 -106q0 -55 -20.5 -101.5t-57.5 -86.5t-89 -74
t-114 -63z" />
    <glyph glyph-name="agrave" unicode="&#xe0;" horiz-adv-x="543" 
d="M261 65q45 0 74.5 31.5t29.5 77.5q0 41 -28.5 71t-75.5 30q-46 0 -74 -30t-28 -71q0 -45 28 -77t74 -32zM376 0v49q-28 -29 -70.5 -49t-98.5 -20q-80 0 -134.5 53.5t-54.5 136.5q0 39 14.5 74t41.5 60.5t66 40.5t87 15q43 0 77.5 -10.5t59.5 -27.5v25q0 75 -30.5 102.5
t-91.5 26.5q-29 0 -59.5 -4t-82.5 -14l-4 114q51 10 85 14t77 4q123 0 182 -54.5t59 -147.5v-388h-123zM80 798h161l82 -147h-111z" />
    <glyph glyph-name="aacute" unicode="&#xe1;" horiz-adv-x="543" 
d="M261 65q45 0 74.5 31.5t29.5 77.5q0 41 -28.5 71t-75.5 30q-46 0 -74 -30t-28 -71q0 -45 28 -77t74 -32zM376 0v49q-28 -29 -70.5 -49t-98.5 -20q-80 0 -134.5 53.5t-54.5 136.5q0 39 14.5 74t41.5 60.5t66 40.5t87 15q43 0 77.5 -10.5t59.5 -27.5v25q0 75 -30.5 102.5
t-91.5 26.5q-29 0 -59.5 -4t-82.5 -14l-4 114q51 10 85 14t77 4q123 0 182 -54.5t59 -147.5v-388h-123zM457 798l-132 -147h-107l81 147h158z" />
    <glyph glyph-name="acircumflex" unicode="&#xe2;" horiz-adv-x="543" 
d="M261 65q45 0 74.5 31.5t29.5 77.5q0 41 -28.5 71t-75.5 30q-46 0 -74 -30t-28 -71q0 -45 28 -77t74 -32zM376 0v49q-28 -29 -70.5 -49t-98.5 -20q-80 0 -134.5 53.5t-54.5 136.5q0 39 14.5 74t41.5 60.5t66 40.5t87 15q43 0 77.5 -10.5t59.5 -27.5v25q0 75 -30.5 102.5
t-91.5 26.5q-29 0 -59.5 -4t-82.5 -14l-4 114q51 10 85 14t77 4q123 0 182 -54.5t59 -147.5v-388h-123zM339 651l-68 83l-67 -83h-118l117 147h138l117 -147h-119z" />
    <glyph glyph-name="atilde" unicode="&#xe3;" horiz-adv-x="543" 
d="M261 65q45 0 74.5 31.5t29.5 77.5q0 41 -28.5 71t-75.5 30q-46 0 -74 -30t-28 -71q0 -45 28 -77t74 -32zM376 0v49q-28 -29 -70.5 -49t-98.5 -20q-80 0 -134.5 53.5t-54.5 136.5q0 39 14.5 74t41.5 60.5t66 40.5t87 15q43 0 77.5 -10.5t59.5 -27.5v25q0 75 -30.5 102.5
t-91.5 26.5q-29 0 -59.5 -4t-82.5 -14l-4 114q51 10 85 14t77 4q123 0 182 -54.5t59 -147.5v-388h-123zM158 651l-108 3q-4 46 4.5 77t26.5 50t42 27t49 8q24 0 48.5 -7.5t47 -17t42.5 -17t35 -7.5q16 0 28 10t11 38l109 -3q7 -78 -28.5 -117t-94.5 -39q-24 0 -48.5 7.5
t-47.5 17t-42.5 17t-34.5 7.5q-16 0 -28 -10t-11 -44z" />
    <glyph glyph-name="adieresis" unicode="&#xe4;" horiz-adv-x="543" 
d="M261 65q45 0 74.5 31.5t29.5 77.5q0 41 -28.5 71t-75.5 30q-46 0 -74 -30t-28 -71q0 -45 28 -77t74 -32zM376 0v49q-28 -29 -70.5 -49t-98.5 -20q-80 0 -134.5 53.5t-54.5 136.5q0 39 14.5 74t41.5 60.5t66 40.5t87 15q43 0 77.5 -10.5t59.5 -27.5v25q0 75 -30.5 102.5
t-91.5 26.5q-29 0 -59.5 -4t-82.5 -14l-4 114q51 10 85 14t77 4q123 0 182 -54.5t59 -147.5v-388h-123zM441 758v-107h-121v107h121zM222 758v-107h-121v107h121z" />
    <glyph glyph-name="aring" unicode="&#xe5;" horiz-adv-x="543" 
d="M261 65q45 0 74.5 31.5t29.5 77.5q0 41 -28.5 71t-75.5 30q-46 0 -74 -30t-28 -71q0 -45 28 -77t74 -32zM376 0v49q-28 -29 -70.5 -49t-98.5 -20q-80 0 -134.5 53.5t-54.5 136.5q0 39 14.5 74t41.5 60.5t66 40.5t87 15q43 0 77.5 -10.5t59.5 -27.5v25q0 75 -30.5 102.5
t-91.5 26.5q-29 0 -59.5 -4t-82.5 -14l-4 114q51 10 85 14t77 4q123 0 182 -54.5t59 -147.5v-388h-123zM271 892q53 0 90.5 -37t37.5 -86t-37.5 -86t-90.5 -37t-90.5 37.5t-37.5 85.5t37.5 85.5t90.5 37.5zM271 831q-25 0 -43.5 -18.5t-18.5 -43.5q0 -26 18.5 -44t43.5 -18
t43.5 18t18.5 44q0 25 -18.5 43.5t-43.5 18.5z" />
    <glyph glyph-name="ae" unicode="&#xe6;" horiz-adv-x="986" 
d="M656 488q-63 0 -104.5 -35.5t-56.5 -95.5h321q-15 60 -56 95.5t-104 35.5zM261 56q45 0 74.5 31.5t29.5 82.5q0 41 -28.5 73t-75.5 32q-46 0 -74 -32t-28 -73q0 -49 28 -81.5t74 -32.5zM960 76q-47 -43 -112.5 -74t-163.5 -31q-81 0 -146 29.5t-107 80.5q-17 -42 -65 -76
t-133 -34q-96 0 -155.5 56t-59.5 139q0 39 14.5 74.5t41.5 62t66 42t87 15.5q38 0 69 -8.5t56 -21.5v17q0 75 -27.5 102.5t-88.5 26.5q-29 0 -56.5 -4t-79.5 -14l-4 114q51 10 82 14t74 4q72 0 120.5 -19t76.5 -54q39 40 92 63t115 23q66 0 123.5 -24t98.5 -66t64.5 -100
t23.5 -126v-34h-477q9 -77 58.5 -122t136.5 -45q66 0 114 21t81 54z" />
    <glyph glyph-name="ccedilla" unicode="&#xe7;" horiz-adv-x="531" 
d="M497 132v-122q-10 -7 -27 -12.5t-36.5 -9.5t-39 -5.5t-35.5 -1.5q-72 0 -134 23.5t-107 64.5t-70.5 97t-25.5 121q0 64 25.5 120t70.5 97.5t107 65t134 23.5q16 0 35.5 -1.5t38.5 -5.5t36.5 -9.5t27.5 -12.5v-122h-4q-28 23 -65.5 29.5t-68.5 6.5q-84 0 -139.5 -55
t-55.5 -136q0 -82 55.5 -136.5t139.5 -54.5q31 0 68.5 7t65.5 29h4zM305 -228q-14 0 -36 3t-41 10v65h1q19 -7 38 -10t29 -3q25 0 40 8.5t15 23.5q0 14 -18.5 23.5t-45.5 9.5h-21l-4 10l28 79h62l-13 -35q49 -7 74 -31t25 -60q0 -38 -36.5 -65.5t-96.5 -27.5z" />
    <glyph glyph-name="egrave" unicode="&#xe8;" horiz-adv-x="663" 
d="M333 488q-63 0 -104.5 -35.5t-56.5 -95.5h321q-15 60 -56 95.5t-104 35.5zM637 76q-47 -43 -112.5 -74.5t-163.5 -31.5q-77 0 -140 24t-107 66.5t-68 100.5t-24 126t23.5 126t65 100t98.5 66t124 24q66 0 123.5 -24t98.5 -66t64.5 -100t23.5 -126v-34h-477
q9 -77 58.5 -122t136.5 -45q66 0 114 21t81 54zM142 798h161l82 -147h-111z" />
    <glyph glyph-name="eacute" unicode="&#xe9;" horiz-adv-x="663" 
d="M333 488q-63 0 -104.5 -35.5t-56.5 -95.5h321q-15 60 -56 95.5t-104 35.5zM637 76q-47 -43 -112.5 -74.5t-163.5 -31.5q-77 0 -140 24t-107 66.5t-68 100.5t-24 126t23.5 126t65 100t98.5 66t124 24q66 0 123.5 -24t98.5 -66t64.5 -100t23.5 -126v-34h-477
q9 -77 58.5 -122t136.5 -45q66 0 114 21t81 54zM519 798l-132 -147h-107l81 147h158z" />
    <glyph glyph-name="ecircumflex" unicode="&#xea;" horiz-adv-x="663" 
d="M333 488q-63 0 -104.5 -35.5t-56.5 -95.5h321q-15 60 -56 95.5t-104 35.5zM637 76q-47 -43 -112.5 -74.5t-163.5 -31.5q-77 0 -140 24t-107 66.5t-68 100.5t-24 126t23.5 126t65 100t98.5 66t124 24q66 0 123.5 -24t98.5 -66t64.5 -100t23.5 -126v-34h-477
q9 -77 58.5 -122t136.5 -45q66 0 114 21t81 54zM401 651l-68 83l-67 -83h-118l117 147h138l117 -147h-119z" />
    <glyph glyph-name="edieresis" unicode="&#xeb;" horiz-adv-x="663" 
d="M333 488q-63 0 -104.5 -35.5t-56.5 -95.5h321q-15 60 -56 95.5t-104 35.5zM637 76q-47 -43 -112.5 -74.5t-163.5 -31.5q-77 0 -140 24t-107 66.5t-68 100.5t-24 126t23.5 126t65 100t98.5 66t124 24q66 0 123.5 -24t98.5 -66t64.5 -100t23.5 -126v-34h-477
q9 -77 58.5 -122t136.5 -45q66 0 114 21t81 54zM503 758v-107h-121v107h121zM284 758v-107h-121v107h121z" />
    <glyph glyph-name="igrave" unicode="&#xec;" horiz-adv-x="227" 
d="M181 574v-574h-135v574h135zM-77 798h161l82 -147h-111z" />
    <glyph glyph-name="iacute" unicode="&#xed;" horiz-adv-x="227" 
d="M181 574v-574h-135v574h135zM300 798l-132 -147h-107l81 147h158z" />
    <glyph glyph-name="icircumflex" unicode="&#xee;" horiz-adv-x="227" 
d="M181 574v-574h-135v574h135zM182 651l-68 83l-67 -83h-118l117 147h138l117 -147h-119z" />
    <glyph glyph-name="idieresis" unicode="&#xef;" horiz-adv-x="227" 
d="M181 574v-574h-135v574h135zM284 758v-107h-121v107h121zM65 758v-107h-121v107h121z" />
    <glyph glyph-name="eth" unicode="&#xf0;" horiz-adv-x="703" 
d="M352 -27q-71 0 -131.5 25t-104.5 67.5t-69 100t-25 121.5q0 60 25 114t69 94.5t104.5 64t131.5 23.5q19 0 38 -2t36 -6q-15 16 -31 31.5t-34 30.5l-164 -42l-45 72l130 33q-29 21 -60 41t-63 39h202q16 -10 32 -21l32 -22l150 38l45 -71l-120 -31q84 -80 132.5 -174.5
t48.5 -193.5v-18q0 -64 -25 -121.5t-69 -100t-104.5 -67.5t-130.5 -25zM352 483q-41 0 -75.5 -16t-59.5 -42.5t-39.5 -62.5t-14.5 -75q0 -40 14.5 -75.5t39.5 -62t59.5 -42.5t75.5 -16q40 0 75 16t60 42.5t39 62t14 75.5q0 39 -14 75t-39 62.5t-60 42.5t-75 16z" />
    <glyph glyph-name="ntilde" unicode="&#xf1;" horiz-adv-x="609" 
d="M179 346v-346h-135v574h129v-63q28 31 76.5 55t111.5 24q91 0 148.5 -57t57.5 -156v-377h-135v336q0 75 -37.5 105t-87.5 30q-21 0 -44 -8t-41.5 -24t-30.5 -39.5t-12 -53.5zM193 651l-108 3q-4 46 4.5 77t26.5 50t42 27t49 8q24 0 48.5 -7.5t47 -17t42.5 -17t35 -7.5
q16 0 28 10t11 38l109 -3q7 -78 -28.5 -117t-94.5 -39q-24 0 -48.5 7.5t-47.5 17t-42.5 17t-34.5 7.5q-16 0 -28 -10t-11 -44z" />
    <glyph glyph-name="ograve" unicode="&#xf2;" horiz-adv-x="710" 
d="M355 603q72 0 133 -25t105.5 -67.5t69.5 -100.5t25 -123t-25 -123t-69.5 -100.5t-105.5 -67.5t-133 -25q-71 0 -132.5 25t-105.5 67.5t-69.5 100.5t-25.5 123t25.5 123t69.5 100.5t105.5 67.5t132.5 25zM355 488q-41 0 -76 -16t-60.5 -43t-40 -64t-14.5 -78t14.5 -78
t40 -64t60.5 -43t76 -16t76.5 16t61 43t40 64t14.5 78t-14.5 78t-40 64t-61 43t-76.5 16zM164 798h161l82 -147h-111z" />
    <glyph glyph-name="oacute" unicode="&#xf3;" horiz-adv-x="710" 
d="M355 603q72 0 133 -25t105.5 -67.5t69.5 -100.5t25 -123t-25 -123t-69.5 -100.5t-105.5 -67.5t-133 -25q-71 0 -132.5 25t-105.5 67.5t-69.5 100.5t-25.5 123t25.5 123t69.5 100.5t105.5 67.5t132.5 25zM355 488q-41 0 -76 -16t-60.5 -43t-40 -64t-14.5 -78t14.5 -78
t40 -64t60.5 -43t76 -16t76.5 16t61 43t40 64t14.5 78t-14.5 78t-40 64t-61 43t-76.5 16zM541 798l-132 -147h-107l81 147h158z" />
    <glyph glyph-name="ocircumflex" unicode="&#xf4;" horiz-adv-x="710" 
d="M355 603q72 0 133 -25t105.5 -67.5t69.5 -100.5t25 -123t-25 -123t-69.5 -100.5t-105.5 -67.5t-133 -25q-71 0 -132.5 25t-105.5 67.5t-69.5 100.5t-25.5 123t25.5 123t69.5 100.5t105.5 67.5t132.5 25zM355 488q-41 0 -76 -16t-60.5 -43t-40 -64t-14.5 -78t14.5 -78
t40 -64t60.5 -43t76 -16t76.5 16t61 43t40 64t14.5 78t-14.5 78t-40 64t-61 43t-76.5 16zM423 651l-68 83l-67 -83h-118l117 147h138l117 -147h-119z" />
    <glyph glyph-name="otilde" unicode="&#xf5;" horiz-adv-x="710" 
d="M355 603q72 0 133 -25t105.5 -67.5t69.5 -100.5t25 -123t-25 -123t-69.5 -100.5t-105.5 -67.5t-133 -25q-71 0 -132.5 25t-105.5 67.5t-69.5 100.5t-25.5 123t25.5 123t69.5 100.5t105.5 67.5t132.5 25zM355 488q-41 0 -76 -16t-60.5 -43t-40 -64t-14.5 -78t14.5 -78
t40 -64t60.5 -43t76 -16t76.5 16t61 43t40 64t14.5 78t-14.5 78t-40 64t-61 43t-76.5 16zM242 651l-108 3q-4 46 4.5 77t26.5 50t42 27t49 8q24 0 48.5 -7.5t47 -17t42.5 -17t35 -7.5q16 0 28 10t11 38l109 -3q7 -78 -28.5 -117t-94.5 -39q-24 0 -48.5 7.5t-47.5 17
t-42.5 17t-34.5 7.5q-16 0 -28 -10t-11 -44z" />
    <glyph glyph-name="odieresis" unicode="&#xf6;" horiz-adv-x="710" 
d="M355 603q72 0 133 -25t105.5 -67.5t69.5 -100.5t25 -123t-25 -123t-69.5 -100.5t-105.5 -67.5t-133 -25q-71 0 -132.5 25t-105.5 67.5t-69.5 100.5t-25.5 123t25.5 123t69.5 100.5t105.5 67.5t132.5 25zM355 488q-41 0 -76 -16t-60.5 -43t-40 -64t-14.5 -78t14.5 -78
t40 -64t60.5 -43t76 -16t76.5 16t61 43t40 64t14.5 78t-14.5 78t-40 64t-61 43t-76.5 16zM525 758v-107h-121v107h121zM306 758v-107h-121v107h121z" />
    <glyph glyph-name="divide" unicode="&#xf7;" horiz-adv-x="599" 
d="M236 491v131h127v-131h-127zM563 404v-109h-528v109h528zM236 77v131h127v-131h-127z" />
    <glyph glyph-name="oslash" unicode="&#xf8;" horiz-adv-x="703" 
d="M164 287q0 -37 11.5 -70.5t31.5 -59.5l193 326q-10 2 -21.5 3.5t-23.5 1.5q-41 0 -76 -16t-60.5 -43t-40 -64t-14.5 -78zM355 86q41 0 76.5 16t61 43t40 64t14.5 78q0 39 -13 74t-35 61l-195 -329q12 -4 25 -5.5t26 -1.5zM355 -29q-30 0 -58.5 4.5t-54.5 13.5l-22 -37
h-134l54 91q-54 43 -86 107t-32 137q0 65 25.5 123t69.5 100.5t105.5 67.5t132.5 25q28 0 55 -4t52 -12l20 35h135l-52 -87q57 -43 90 -108t33 -140q0 -65 -25 -123t-69.5 -100.5t-105.5 -67.5t-133 -25z" />
    <glyph glyph-name="ugrave" unicode="&#xf9;" horiz-adv-x="609" 
d="M436 0v64q-28 -31 -76.5 -55.5t-111.5 -24.5q-90 0 -148 57t-58 156v377h135v-336q0 -75 37 -105t88 -30q22 0 44.5 8t41 24t30.5 39.5t12 53.5v346h135v-574h-129zM113 798h161l82 -147h-111z" />
    <glyph glyph-name="uacute" unicode="&#xfa;" horiz-adv-x="609" 
d="M436 0v64q-28 -31 -76.5 -55.5t-111.5 -24.5q-90 0 -148 57t-58 156v377h135v-336q0 -75 37 -105t88 -30q22 0 44.5 8t41 24t30.5 39.5t12 53.5v346h135v-574h-129zM490 798l-132 -147h-107l81 147h158z" />
    <glyph glyph-name="ucircumflex" unicode="&#xfb;" horiz-adv-x="609" 
d="M436 0v64q-28 -31 -76.5 -55.5t-111.5 -24.5q-90 0 -148 57t-58 156v377h135v-336q0 -75 37 -105t88 -30q22 0 44.5 8t41 24t30.5 39.5t12 53.5v346h135v-574h-129zM372 651l-68 83l-67 -83h-118l117 147h138l117 -147h-119z" />
    <glyph glyph-name="udieresis" unicode="&#xfc;" horiz-adv-x="609" 
d="M436 0v64q-28 -31 -76.5 -55.5t-111.5 -24.5q-90 0 -148 57t-58 156v377h135v-336q0 -75 37 -105t88 -30q22 0 44.5 8t41 24t30.5 39.5t12 53.5v346h135v-574h-129zM474 758v-107h-121v107h121zM255 758v-107h-121v107h121z" />
    <glyph glyph-name="yacute" unicode="&#xfd;" horiz-adv-x="627" 
d="M327 -220h-138l79 210l-269 584h152l180 -417l157 417h140zM502 798l-132 -147h-107l81 147h158z" />
    <glyph glyph-name="thorn" unicode="&#xfe;" horiz-adv-x="717" 
d="M175 287q0 -37 14.5 -71.5t40 -60t60.5 -41t76 -15.5t75.5 15.5t59 41t38.5 60t14 72.5t-14 72t-38.5 59.5t-59 40.5t-75.5 15t-76 -15t-60.5 -41t-40 -60t-14.5 -72zM403 -19q-67 0 -124.5 24.5t-99.5 67.5v-293h-135v1000h135v-279q41 43 99 67.5t125 24.5
q62 0 115.5 -24.5t92.5 -66t61.5 -98t22.5 -119.5t-22.5 -118.5t-61.5 -96.5t-92.5 -65t-115.5 -24z" />
    <glyph glyph-name="ydieresis" unicode="&#xff;" horiz-adv-x="627" 
d="M327 -220h-138l79 210l-269 584h152l180 -417l157 417h140zM486 758v-107h-121v107h121zM267 758v-107h-121v107h121z" />
    <glyph glyph-name="Amacron" unicode="&#x100;" horiz-adv-x="723" 
d="M475 246l-115 309l-115 -309h230zM567 0l-47 125h-320l-47 -125h-151l288 746h144l287 -746h-154zM504 907v-100h-288v100h288z" />
    <glyph glyph-name="amacron" unicode="&#x101;" horiz-adv-x="543" 
d="M261 65q45 0 74.5 31.5t29.5 77.5q0 41 -28.5 71t-75.5 30q-46 0 -74 -30t-28 -71q0 -45 28 -77t74 -32zM376 0v49q-28 -29 -70.5 -49t-98.5 -20q-80 0 -134.5 53.5t-54.5 136.5q0 39 14.5 74t41.5 60.5t66 40.5t87 15q43 0 77.5 -10.5t59.5 -27.5v25q0 75 -30.5 102.5
t-91.5 26.5q-29 0 -59.5 -4t-82.5 -14l-4 114q51 10 85 14t77 4q123 0 182 -54.5t59 -147.5v-388h-123zM415 751v-100h-288v100h288z" />
    <glyph glyph-name="Abreve" unicode="&#x102;" horiz-adv-x="723" 
d="M475 246l-115 309l-115 -309h230zM567 0l-47 125h-320l-47 -125h-151l288 746h144l287 -746h-154zM527 957q-13 -69 -57 -112t-110 -43t-110 43t-57 112l87 3q13 -37 35.5 -56t44.5 -19t44.5 19t35.5 56z" />
    <glyph glyph-name="abreve" unicode="&#x103;" horiz-adv-x="543" 
d="M261 65q45 0 74.5 31.5t29.5 77.5q0 41 -28.5 71t-75.5 30q-46 0 -74 -30t-28 -71q0 -45 28 -77t74 -32zM376 0v49q-28 -29 -70.5 -49t-98.5 -20q-80 0 -134.5 53.5t-54.5 136.5q0 39 14.5 74t41.5 60.5t66 40.5t87 15q43 0 77.5 -10.5t59.5 -27.5v25q0 75 -30.5 102.5
t-91.5 26.5q-29 0 -59.5 -4t-82.5 -14l-4 114q51 10 85 14t77 4q123 0 182 -54.5t59 -147.5v-388h-123zM438 801q-13 -69 -57 -112t-110 -43t-110 43t-57 112l87 3q13 -37 35.5 -56t44.5 -19t44.5 19t35.5 56z" />
    <glyph glyph-name="Aogonek" unicode="&#x104;" horiz-adv-x="723" 
d="M623 -177q-54 0 -78.5 24.5t-24.5 56.5q0 26 14 49t36 39l-49 133h-321l-47 -125h-151l288 746h144l287 -746l-58 -32q-23 -13 -29.5 -22.5t-6.5 -18.5q0 -13 8 -21t22 -8q12 0 21 4.5t14 9.5l39 -49q-16 -14 -42.5 -26.5t-65.5 -13.5zM475 246l-115 309l-115 -309h230z
" />
    <glyph glyph-name="aogonek" unicode="&#x105;" horiz-adv-x="543" 
d="M261 65q45 0 74.5 31.5t29.5 77.5q0 41 -28.5 71t-75.5 30q-46 0 -74 -30t-28 -71q0 -45 28 -77t74 -32zM509 -137q-16 -14 -42.5 -26.5t-65.5 -13.5q-54 0 -78.5 24.5t-24.5 56.5q0 27 16.5 49t43.5 37l18 10v49q-28 -29 -70.5 -49t-98.5 -20q-80 0 -134.5 53.5
t-54.5 136.5q0 39 14.5 74t41.5 60.5t66 40.5t87 15q43 0 77.5 -10.5t59.5 -27.5v25q0 75 -30.5 102.5t-91.5 26.5q-29 0 -59.5 -4t-82.5 -14l-4 114q51 10 85 14t77 4q123 0 182 -54.5t59 -147.5v-388l-58 -32q-22 -12 -29 -22t-7 -19q0 -13 8 -21t22 -8q12 0 21 4.5
t14 9.5z" />
    <glyph glyph-name="Cacute" unicode="&#x106;" horiz-adv-x="633" 
d="M597 734v-141q-34 22 -74 33t-83 11q-57 0 -106.5 -21.5t-85.5 -57t-57 -83.5t-21 -100q0 -53 21 -101.5t57 -85t85.5 -58t106.5 -21.5q43 0 83 11t74 33v-141q-37 -18 -79 -27t-86 -9q-87 0 -162 31.5t-129.5 85t-85.5 126.5t-31 155t31 154.5t85.5 126t129.5 84.5
t162 31q44 0 86 -9t79 -27zM588 954l-132 -147h-107l81 147h158z" />
    <glyph glyph-name="cacute" unicode="&#x107;" horiz-adv-x="531" 
d="M497 132v-122q-10 -7 -27 -12.5t-36.5 -9.5t-39 -5.5t-35.5 -1.5q-72 0 -134 23.5t-107 64.5t-70.5 97t-25.5 121q0 64 25.5 120t70.5 97.5t107 65t134 23.5q16 0 35.5 -1.5t38.5 -5.5t36.5 -9.5t27.5 -12.5v-122h-4q-28 23 -65.5 29.5t-68.5 6.5q-84 0 -139.5 -55
t-55.5 -136q0 -82 55.5 -136.5t139.5 -54.5q31 0 68.5 7t65.5 29h4zM525 798l-132 -147h-107l81 147h158z" />
    <glyph glyph-name="Ccircumflex" unicode="&#x108;" horiz-adv-x="633" 
d="M597 734v-141q-34 22 -74 33t-83 11q-57 0 -106.5 -21.5t-85.5 -57t-57 -83.5t-21 -100q0 -53 21 -101.5t57 -85t85.5 -58t106.5 -21.5q43 0 83 11t74 33v-141q-37 -18 -79 -27t-86 -9q-87 0 -162 31.5t-129.5 85t-85.5 126.5t-31 155t31 154.5t85.5 126t129.5 84.5
t162 31q44 0 86 -9t79 -27zM470 807l-68 83l-67 -83h-118l117 147h138l117 -147h-119z" />
    <glyph glyph-name="ccircumflex" unicode="&#x109;" horiz-adv-x="531" 
d="M497 132v-122q-10 -7 -27 -12.5t-36.5 -9.5t-39 -5.5t-35.5 -1.5q-72 0 -134 23.5t-107 64.5t-70.5 97t-25.5 121q0 64 25.5 120t70.5 97.5t107 65t134 23.5q16 0 35.5 -1.5t38.5 -5.5t36.5 -9.5t27.5 -12.5v-122h-4q-28 23 -65.5 29.5t-68.5 6.5q-84 0 -139.5 -55
t-55.5 -136q0 -82 55.5 -136.5t139.5 -54.5q31 0 68.5 7t65.5 29h4zM407 651l-68 83l-67 -83h-118l117 147h138l117 -147h-119z" />
    <glyph glyph-name="Cdotaccent" unicode="&#x10a;" horiz-adv-x="633" 
d="M597 734v-141q-34 22 -74 33t-83 11q-57 0 -106.5 -21.5t-85.5 -57t-57 -83.5t-21 -100q0 -53 21 -101.5t57 -85t85.5 -58t106.5 -21.5q43 0 83 11t74 33v-141q-37 -18 -79 -27t-86 -9q-87 0 -162 31.5t-129.5 85t-85.5 126.5t-31 155t31 154.5t85.5 126t129.5 84.5
t162 31q44 0 86 -9t79 -27zM472 910v-103h-140v103h140z" />
    <glyph glyph-name="cdotaccent" unicode="&#x10b;" horiz-adv-x="531" 
d="M497 132v-122q-10 -7 -27 -12.5t-36.5 -9.5t-39 -5.5t-35.5 -1.5q-72 0 -134 23.5t-107 64.5t-70.5 97t-25.5 121q0 64 25.5 120t70.5 97.5t107 65t134 23.5q16 0 35.5 -1.5t38.5 -5.5t36.5 -9.5t27.5 -12.5v-122h-4q-28 23 -65.5 29.5t-68.5 6.5q-84 0 -139.5 -55
t-55.5 -136q0 -82 55.5 -136.5t139.5 -54.5q31 0 68.5 7t65.5 29h4zM409 780v-125h-140v125h140z" />
    <glyph glyph-name="Ccaron" unicode="&#x10c;" horiz-adv-x="633" 
d="M597 734v-141q-34 22 -74 33t-83 11q-57 0 -106.5 -21.5t-85.5 -57t-57 -83.5t-21 -100q0 -53 21 -101.5t57 -85t85.5 -58t106.5 -21.5q43 0 83 11t74 33v-141q-37 -18 -79 -27t-86 -9q-87 0 -162 31.5t-129.5 85t-85.5 126.5t-31 155t31 154.5t85.5 126t129.5 84.5
t162 31q44 0 86 -9t79 -27zM473 807h-138l-117 147h117l67 -84l68 84h120z" />
    <glyph glyph-name="ccaron" unicode="&#x10d;" horiz-adv-x="531" 
d="M497 132v-122q-10 -7 -27 -12.5t-36.5 -9.5t-39 -5.5t-35.5 -1.5q-72 0 -134 23.5t-107 64.5t-70.5 97t-25.5 121q0 64 25.5 120t70.5 97.5t107 65t134 23.5q16 0 35.5 -1.5t38.5 -5.5t36.5 -9.5t27.5 -12.5v-122h-4q-28 23 -65.5 29.5t-68.5 6.5q-84 0 -139.5 -55
t-55.5 -136q0 -82 55.5 -136.5t139.5 -54.5q31 0 68.5 7t65.5 29h4zM410 651h-138l-117 147h117l67 -84l68 84h120z" />
    <glyph glyph-name="Dcaron" unicode="&#x10e;" horiz-adv-x="674" 
d="M49 0v746h210q75 0 145 -23t123.5 -69t86 -116t32.5 -164q0 -95 -32.5 -165.5t-86 -116.5t-123.5 -69t-145 -23h-210zM194 615v-484h68q47 0 90 15.5t76 45.5t52.5 76t19.5 106q0 59 -19.5 104.5t-52.5 75.5t-76 45.5t-90 15.5h-68zM379 807h-138l-117 147h117l67 -84
l68 84h120z" />
    <glyph glyph-name="dcaron" unicode="&#x10f;" horiz-adv-x="717" 
d="M542 287q0 38 -14.5 72t-40 60t-60.5 41t-76 15t-75.5 -15t-59 -40.5t-38.5 -59.5t-14 -72t14 -72.5t38.5 -60t59 -41t75.5 -15.5t76 15.5t60.5 41t40 60t14.5 71.5zM545 0v78q-41 -45 -100.5 -71t-130.5 -26q-62 0 -115.5 24t-92.5 65t-61.5 96.5t-22.5 118.5
t22.5 119.5t61.5 98t92.5 66t115.5 24.5q67 0 125 -25t99 -67v279h135v-780h-128zM852 780l-53 -172h-82l17 172h118z" />
    <glyph glyph-name="Dcroat" unicode="&#x110;" horiz-adv-x="686" 
d="M271 0h-210v322h-49v115h49v309h210q75 0 145 -23t123.5 -69t86 -116t32.5 -164q0 -95 -32.5 -165.5t-86 -116.5t-123.5 -69t-145 -23zM206 131h68q47 0 90 15.5t76 45.5t52.5 76t19.5 106q0 59 -19.5 104.5t-52.5 75.5t-76 45.5t-90 15.5h-68v-178h123v-115h-123v-191z
" />
    <glyph glyph-name="dcroat" unicode="&#x111;" horiz-adv-x="717" 
d="M542 287q0 38 -14.5 72t-40 60t-60.5 41t-76 15t-75.5 -15t-59 -40.5t-38.5 -59.5t-14 -72t14 -72.5t38.5 -60t59 -41t75.5 -15.5t76 15.5t60.5 41t40 60t14.5 71.5zM545 0v78q-41 -45 -100.5 -71t-130.5 -26q-62 0 -115.5 24t-92.5 65t-61.5 96.5t-22.5 118.5
t22.5 119.5t61.5 98t92.5 66t115.5 24.5q67 0 125 -25t99 -67v107h-86v88h86v84h135v-84h48v-88h-48v-608h-128z" />
    <glyph glyph-name="Emacron" unicode="&#x112;" horiz-adv-x="506" 
d="M49 0v746h407v-126h-262v-174h237v-126h-237v-194h270v-126h-415zM406 907v-100h-288v100h288z" />
    <glyph glyph-name="emacron" unicode="&#x113;" horiz-adv-x="663" 
d="M333 488q-63 0 -104.5 -35.5t-56.5 -95.5h321q-15 60 -56 95.5t-104 35.5zM637 76q-47 -43 -112.5 -74.5t-163.5 -31.5q-77 0 -140 24t-107 66.5t-68 100.5t-24 126t23.5 126t65 100t98.5 66t124 24q66 0 123.5 -24t98.5 -66t64.5 -100t23.5 -126v-34h-477
q9 -77 58.5 -122t136.5 -45q66 0 114 21t81 54zM477 751v-100h-288v100h288z" />
    <glyph glyph-name="Ebreve" unicode="&#x114;" horiz-adv-x="506" 
d="M49 0v746h407v-126h-262v-174h237v-126h-237v-194h270v-126h-415zM429 957q-13 -69 -57 -112t-110 -43t-110 43t-57 112l87 3q13 -37 35.5 -56t44.5 -19t44.5 19t35.5 56z" />
    <glyph glyph-name="ebreve" unicode="&#x115;" horiz-adv-x="663" 
d="M333 488q-63 0 -104.5 -35.5t-56.5 -95.5h321q-15 60 -56 95.5t-104 35.5zM637 76q-47 -43 -112.5 -74.5t-163.5 -31.5q-77 0 -140 24t-107 66.5t-68 100.5t-24 126t23.5 126t65 100t98.5 66t124 24q66 0 123.5 -24t98.5 -66t64.5 -100t23.5 -126v-34h-477
q9 -77 58.5 -122t136.5 -45q66 0 114 21t81 54zM500 801q-13 -69 -57 -112t-110 -43t-110 43t-57 112l87 3q13 -37 35.5 -56t44.5 -19t44.5 19t35.5 56z" />
    <glyph glyph-name="Edotaccent" unicode="&#x116;" horiz-adv-x="506" 
d="M49 0v746h407v-126h-262v-174h237v-126h-237v-194h270v-126h-415zM332 910v-103h-140v103h140z" />
    <glyph glyph-name="edotaccent" unicode="&#x117;" horiz-adv-x="663" 
d="M333 488q-63 0 -104.5 -35.5t-56.5 -95.5h321q-15 60 -56 95.5t-104 35.5zM637 76q-47 -43 -112.5 -74.5t-163.5 -31.5q-77 0 -140 24t-107 66.5t-68 100.5t-24 126t23.5 126t65 100t98.5 66t124 24q66 0 123.5 -24t98.5 -66t64.5 -100t23.5 -126v-34h-477
q9 -77 58.5 -122t136.5 -45q66 0 114 21t81 54zM403 780v-125h-140v125h140z" />
    <glyph glyph-name="Eogonek" unicode="&#x118;" horiz-adv-x="506" 
d="M474 -137q-16 -14 -42.5 -26.5t-65.5 -13.5q-54 0 -78.5 24.5t-24.5 56.5q0 27 16.5 49t43.5 37l18 10h-292v746h407v-126h-262v-174h237v-126h-237v-194h270v-126l-58 -32q-22 -12 -29 -22t-7 -19q0 -13 8 -21t22 -8q12 0 21 4.5t14 9.5z" />
    <glyph glyph-name="eogonek" unicode="&#x119;" horiz-adv-x="663" 
d="M333 488q-63 0 -104.5 -35.5t-56.5 -95.5h321q-15 60 -56 95.5t-104 35.5zM627 -137q-16 -14 -42.5 -26.5t-65.5 -13.5q-54 0 -78.5 24.5t-24.5 56.5q0 22 8.5 40t24.5 34q-20 -4 -42 -6t-46 -2q-77 0 -140 24t-107 66.5t-68 100.5t-24 126t23.5 126t65 100t98.5 66
t124 24q66 0 123.5 -24t98.5 -66t64.5 -100t23.5 -126v-34h-477q9 -77 58.5 -122t136.5 -45q66 0 114 21t81 54l81 -85q-1 -1 -3 -2.5t-3 -2.5l-80 -89q-18 -19 -23 -32.5t-5 -22.5q0 -13 8 -21t22 -8q12 0 21 4.5t14 9.5z" />
    <glyph glyph-name="Ecaron" unicode="&#x11a;" horiz-adv-x="506" 
d="M49 0v746h407v-126h-262v-174h237v-126h-237v-194h270v-126h-415zM333 807h-138l-117 147h117l67 -84l68 84h120z" />
    <glyph glyph-name="ecaron" unicode="&#x11b;" horiz-adv-x="663" 
d="M333 488q-63 0 -104.5 -35.5t-56.5 -95.5h321q-15 60 -56 95.5t-104 35.5zM637 76q-47 -43 -112.5 -74.5t-163.5 -31.5q-77 0 -140 24t-107 66.5t-68 100.5t-24 126t23.5 126t65 100t98.5 66t124 24q66 0 123.5 -24t98.5 -66t64.5 -100t23.5 -126v-34h-477
q9 -77 58.5 -122t136.5 -45q66 0 114 21t81 54zM404 651h-138l-117 147h117l67 -84l68 84h120z" />
    <glyph glyph-name="Gcircumflex" unicode="&#x11c;" horiz-adv-x="832" 
d="M810 369q0 -80 -29 -152t-80 -125t-120.5 -84.5t-148.5 -31.5q-86 0 -161 31.5t-129.5 85t-86 126.5t-31.5 155t31.5 154.5t86 126t129.5 84.5t161 31q83 0 158 -31t127 -82l-100 -97q-40 40 -87 58.5t-98 18.5q-56 0 -104 -21t-83 -56.5t-55 -83.5t-20 -101
q0 -55 20 -103.5t55 -84.5t83 -57t104 -21q86 0 148.5 52.5t78.5 128.5h-215l56 126h310v-47zM500 807l-68 83l-67 -83h-118l117 147h138l117 -147h-119z" />
    <glyph glyph-name="gcircumflex" unicode="&#x11d;" horiz-adv-x="679" 
d="M332 140q35 0 66 13t53.5 36t36 53.5t13.5 64.5q0 35 -13.5 66.5t-36 55t-53.5 37t-66 13.5q-34 0 -65 -13.5t-54 -37t-36.5 -55t-13.5 -66.5q0 -34 13.5 -64.5t36.5 -53.5t54 -36t65 -13zM319 -225q-43 0 -91.5 4.5t-102.5 15.5v117q61 -13 106 -17.5t85 -4.5q38 0 72 9
t58.5 30.5t39 58t14.5 92.5v26q-41 -40 -93.5 -62.5t-106.5 -22.5t-105 20.5t-89 57.5t-61 90t-23 118q0 66 23 120t61 91.5t88.5 58.5t105.5 21q54 0 108 -24t95 -66v66h132v-490q0 -169 -83.5 -239t-232.5 -70zM397 651l-68 83l-67 -83h-118l117 147h138l117 -147h-119z
" />
    <glyph glyph-name="Gbreve" unicode="&#x11e;" horiz-adv-x="832" 
d="M810 369q0 -80 -29 -152t-80 -125t-120.5 -84.5t-148.5 -31.5q-86 0 -161 31.5t-129.5 85t-86 126.5t-31.5 155t31.5 154.5t86 126t129.5 84.5t161 31q83 0 158 -31t127 -82l-100 -97q-40 40 -87 58.5t-98 18.5q-56 0 -104 -21t-83 -56.5t-55 -83.5t-20 -101
q0 -55 20 -103.5t55 -84.5t83 -57t104 -21q86 0 148.5 52.5t78.5 128.5h-215l56 126h310v-47zM599 957q-13 -69 -57 -112t-110 -43t-110 43t-57 112l87 3q13 -37 35.5 -56t44.5 -19t44.5 19t35.5 56z" />
    <glyph glyph-name="gbreve" unicode="&#x11f;" horiz-adv-x="679" 
d="M332 140q35 0 66 13t53.5 36t36 53.5t13.5 64.5q0 35 -13.5 66.5t-36 55t-53.5 37t-66 13.5q-34 0 -65 -13.5t-54 -37t-36.5 -55t-13.5 -66.5q0 -34 13.5 -64.5t36.5 -53.5t54 -36t65 -13zM319 -225q-43 0 -91.5 4.5t-102.5 15.5v117q61 -13 106 -17.5t85 -4.5q38 0 72 9
t58.5 30.5t39 58t14.5 92.5v26q-41 -40 -93.5 -62.5t-106.5 -22.5t-105 20.5t-89 57.5t-61 90t-23 118q0 66 23 120t61 91.5t88.5 58.5t105.5 21q54 0 108 -24t95 -66v66h132v-490q0 -169 -83.5 -239t-232.5 -70zM496 801q-13 -69 -57 -112t-110 -43t-110 43t-57 112l87 3
q13 -37 35.5 -56t44.5 -19t44.5 19t35.5 56z" />
    <glyph glyph-name="Gdotaccent" unicode="&#x120;" horiz-adv-x="832" 
d="M810 369q0 -80 -29 -152t-80 -125t-120.5 -84.5t-148.5 -31.5q-86 0 -161 31.5t-129.5 85t-86 126.5t-31.5 155t31.5 154.5t86 126t129.5 84.5t161 31q83 0 158 -31t127 -82l-100 -97q-40 40 -87 58.5t-98 18.5q-56 0 -104 -21t-83 -56.5t-55 -83.5t-20 -101
q0 -55 20 -103.5t55 -84.5t83 -57t104 -21q86 0 148.5 52.5t78.5 128.5h-215l56 126h310v-47zM502 910v-103h-140v103h140z" />
    <glyph glyph-name="gdotaccent" unicode="&#x121;" horiz-adv-x="679" 
d="M332 140q35 0 66 13t53.5 36t36 53.5t13.5 64.5q0 35 -13.5 66.5t-36 55t-53.5 37t-66 13.5q-34 0 -65 -13.5t-54 -37t-36.5 -55t-13.5 -66.5q0 -34 13.5 -64.5t36.5 -53.5t54 -36t65 -13zM319 -225q-43 0 -91.5 4.5t-102.5 15.5v117q61 -13 106 -17.5t85 -4.5q38 0 72 9
t58.5 30.5t39 58t14.5 92.5v26q-41 -40 -93.5 -62.5t-106.5 -22.5t-105 20.5t-89 57.5t-61 90t-23 118q0 66 23 120t61 91.5t88.5 58.5t105.5 21q54 0 108 -24t95 -66v66h132v-490q0 -169 -83.5 -239t-232.5 -70zM399 780v-125h-140v125h140z" />
    <glyph glyph-name="Gcommaaccent" unicode="&#x122;" horiz-adv-x="832" 
d="M810 369q0 -80 -29 -152t-80 -125t-120.5 -84.5t-148.5 -31.5q-86 0 -161 31.5t-129.5 85t-86 126.5t-31.5 155t31.5 154.5t86 126t129.5 84.5t161 31q83 0 158 -31t127 -82l-100 -97q-40 40 -87 58.5t-98 18.5q-56 0 -104 -21t-83 -56.5t-55 -83.5t-20 -101
q0 -55 20 -103.5t55 -84.5t83 -57t104 -21q86 0 148.5 52.5t78.5 128.5h-215l56 126h310v-47zM498 -80l-63 -172h-100l28 172h135z" />
    <glyph glyph-name="gcommaaccent" unicode="&#x123;" horiz-adv-x="679" 
d="M332 140q35 0 66 13t53.5 36t36 53.5t13.5 64.5q0 35 -13.5 66.5t-36 55t-53.5 37t-66 13.5q-34 0 -65 -13.5t-54 -37t-36.5 -55t-13.5 -66.5q0 -34 13.5 -64.5t36.5 -53.5t54 -36t65 -13zM319 -225q-43 0 -91.5 4.5t-102.5 15.5v117q61 -13 106 -17.5t85 -4.5q38 0 72 9
t58.5 30.5t39 58t14.5 92.5v26q-41 -40 -93.5 -62.5t-106.5 -22.5t-105 20.5t-89 57.5t-61 90t-23 118q0 66 23 120t61 91.5t88.5 58.5t105.5 21q54 0 108 -24t95 -66v66h132v-490q0 -169 -83.5 -239t-232.5 -70z" />
    <glyph glyph-name="Hcircumflex" unicode="&#x124;" horiz-adv-x="665" 
d="M49 0v746h145v-283h277v283h145v-746h-145v332h-277v-332h-145zM401 807l-68 83l-67 -83h-118l117 147h138l117 -147h-119z" />
    <glyph glyph-name="hcircumflex" unicode="&#x125;" horiz-adv-x="609" 
d="M179 346v-346h-135v780h129v-269q28 31 76.5 55t111.5 24q91 0 148.5 -57t57.5 -156v-377h-135v336q0 75 -37.5 105t-87.5 30q-21 0 -44 -8t-41.5 -24t-30.5 -39.5t-12 -53.5zM177 840l-68 83l-67 -83h-118l117 147h138l117 -147h-119z" />
    <glyph glyph-name="Hbar" unicode="&#x126;" horiz-adv-x="675" 
d="M199 463h277v80h-277v-80zM199 332v-332h-145v543h-48v115h48v88h145v-88h277v88h145v-88h48v-115h-48v-543h-145v332h-277z" />
    <glyph glyph-name="hbar" unicode="&#x127;" horiz-adv-x="605" 
d="M179 346v-346h-135v608h-48v88h48v84h129v-84h92v-88h-92v-97q28 31 76.5 55t111.5 24q91 0 148.5 -57t57.5 -156v-377h-135v336q0 75 -37.5 105t-87.5 30q-21 0 -44 -8t-41.5 -24t-30.5 -39.5t-12 -53.5z" />
    <glyph glyph-name="Itilde" unicode="&#x128;" horiz-adv-x="243" 
d="M49 0v746h145v-746h-145zM9 807l-108 3q-4 46 4.5 77t26.5 50t42 27t49 8q24 0 48.5 -7.5t47 -17t42.5 -17t35 -7.5q16 0 28 10t11 38l109 -3q7 -78 -28.5 -117t-94.5 -39q-24 0 -48.5 7.5t-47.5 17t-42.5 17t-34.5 7.5q-16 0 -28 -10t-11 -44z" />
    <glyph glyph-name="itilde" unicode="&#x129;" horiz-adv-x="227" 
d="M181 574v-574h-135v574h135zM1 651l-108 3q-4 46 4.5 77t26.5 50t42 27t49 8q24 0 48.5 -7.5t47 -17t42.5 -17t35 -7.5q16 0 28 10t11 38l109 -3q7 -78 -28.5 -117t-94.5 -39q-24 0 -48.5 7.5t-47.5 17t-42.5 17t-34.5 7.5q-16 0 -28 -10t-11 -44z" />
    <glyph glyph-name="Imacron" unicode="&#x12a;" horiz-adv-x="243" 
d="M49 0v746h145v-746h-145zM266 907v-100h-288v100h288z" />
    <glyph glyph-name="imacron" unicode="&#x12b;" horiz-adv-x="227" 
d="M181 574v-574h-135v574h135zM258 751v-100h-288v100h288z" />
    <glyph glyph-name="Ibreve" unicode="&#x12c;" horiz-adv-x="243" 
d="M49 0v746h145v-746h-145zM289 957q-13 -69 -57 -112t-110 -43t-110 43t-57 112l87 3q13 -37 35.5 -56t44.5 -19t44.5 19t35.5 56z" />
    <glyph glyph-name="ibreve" unicode="&#x12d;" horiz-adv-x="227" 
d="M181 574v-574h-135v574h135zM281 801q-13 -69 -57 -112t-110 -43t-110 43t-57 112l87 3q13 -37 35.5 -56t44.5 -19t44.5 19t35.5 56z" />
    <glyph glyph-name="Iogonek" unicode="&#x12e;" horiz-adv-x="243" 
d="M96 -177q-54 0 -78.5 24.5t-24.5 56.5q0 30 15.5 54.5t40.5 41.5v746h145v-746l-58 -32q-22 -12 -29 -22t-7 -19q0 -13 8 -21t22 -8q12 0 21 4.5t14 9.5l39 -49q-16 -14 -42.5 -26.5t-65.5 -13.5z" />
    <glyph glyph-name="iogonek" unicode="&#x12f;" horiz-adv-x="227" 
d="M183 780v-125h-139v125h139zM191 -137q-16 -14 -42.5 -26.5t-65.5 -13.5q-54 0 -78.5 24.5t-24.5 56.5q0 27 16.5 52.5t43.5 40.5l6 3v574h135v-574l-58 -32q-22 -12 -29 -22t-7 -19q0 -13 8 -21t22 -8q12 0 21 4.5t14 9.5z" />
    <glyph glyph-name="Idotaccent" unicode="&#x130;" horiz-adv-x="243" 
d="M49 0v746h145v-746h-145zM192 910v-103h-140v103h140z" />
    <glyph glyph-name="dotlessi" unicode="&#x131;" horiz-adv-x="227" 
d="M181 574v-574h-135v574h135z" />
    <glyph glyph-name="IJ" unicode="&#x132;" horiz-adv-x="605" 
d="M49 0v746h145v-746h-145zM254 0v135q17 -9 35.5 -13.5t36.5 -4.5q37 0 61 29.5t24 118.5v481h145v-528q0 -116 -48 -175t-162 -59q-26 0 -49 3.5t-43 12.5z" />
    <glyph glyph-name="ij" unicode="&#x133;" horiz-adv-x="454" 
d="M183 780v-125h-139v125h139zM181 574v-574h-135v574h135zM410 780v-125h-139v125h139zM155 -103h15q54 0 78.5 20.5t24.5 77.5v579h135v-579q0 -66 -12.5 -109.5t-40.5 -68.5t-74 -35t-111 -10h-15v125z" />
    <glyph glyph-name="Jcircumflex" unicode="&#x134;" horiz-adv-x="362" 
d="M11 0v135q17 -9 35.5 -13.5t36.5 -4.5q37 0 61 29.5t24 118.5v481h145v-528q0 -116 -48 -175t-162 -59q-26 0 -49 3.5t-43 12.5zM307 807l-68 83l-67 -83h-118l117 147h138l117 -147h-119z" />
    <glyph glyph-name="jcircumflex" unicode="&#x135;" horiz-adv-x="220" 
d="M-53 -111h10q39 1 62.5 30.5t23.5 83.5v571h134v-573q0 -117 -56 -172.5t-160 -56.5h-14v117zM178 651l-68 83l-67 -83h-118l117 147h138l117 -147h-119z" />
    <glyph glyph-name="Kcommaaccent" unicode="&#x136;" horiz-adv-x="667" 
d="M463 0l-269 348v-348h-145v746h145v-338l259 338h169l-285 -358l311 -388h-185zM393 -56l-63 -172h-100l28 172h135z" />
    <glyph glyph-name="kcommaaccent" unicode="&#x137;" horiz-adv-x="583" 
d="M417 0l-174 253l-64 -63v-190h-135v780h135v-417l214 211h174l-230 -228l244 -346h-164zM379 -56l-63 -172h-100l28 172h135z" />
    <glyph glyph-name="kgreenlandic" unicode="&#x138;" horiz-adv-x="583" 
d="M417 0l-174 253l-64 -63v-190h-135v574h135v-211l214 211h174l-230 -228l244 -346h-164z" />
    <glyph glyph-name="Lacute" unicode="&#x139;" horiz-adv-x="464" 
d="M49 746h145v-615h257v-131h-402v746zM308 954l-132 -147h-107l81 147h158z" />
    <glyph glyph-name="lacute" unicode="&#x13a;" horiz-adv-x="227" 
d="M181 780v-780h-135v780h135zM300 987l-132 -147h-107l81 147h158z" />
    <glyph glyph-name="Lcommaaccent" unicode="&#x13b;" horiz-adv-x="464" 
d="M49 746h145v-615h257v-131h-402v746zM346 -56l-63 -172h-100l28 172h135z" />
    <glyph glyph-name="lcommaaccent" unicode="&#x13c;" horiz-adv-x="227" 
d="M181 780v-780h-135v780h135zM180 -56l-63 -172h-100l28 172h135z" />
    <glyph glyph-name="Lcaron" unicode="&#x13d;" horiz-adv-x="464" 
d="M49 746h145v-615h257v-131h-402v746zM419 780l-53 -172h-82l17 172h118z" />
    <glyph glyph-name="lcaron" unicode="&#x13e;" horiz-adv-x="227" 
d="M181 780v-780h-135v780h135zM361 780l-53 -172h-82l17 172h118z" />
    <glyph glyph-name="Ldot" unicode="&#x13f;" horiz-adv-x="464" 
d="M49 746h145v-615h257v-131h-402v746zM403 440v-103h-140v103h140z" />
    <glyph glyph-name="ldot" unicode="&#x140;" horiz-adv-x="299" 
d="M181 780v-780h-135v780h135zM333 471v-125h-140v125h140z" />
    <glyph glyph-name="Lslash" unicode="&#x141;" horiz-adv-x="474" 
d="M451 0h-402v285l-45 -22l-1 126l46 22v335h145v-264l174 85l1 -127l-175 -85v-224h257v-131z" />
    <glyph glyph-name="lslash" unicode="&#x142;" horiz-adv-x="241" 
d="M190 0h-135v338l-51 -27v108l51 27v334h135v-262l50 27v-108l-50 -27v-410z" />
    <glyph glyph-name="Nacute" unicode="&#x143;" horiz-adv-x="742" 
d="M551 0l-357 499v-499h-145v746h141l358 -505v505h145v-746h-142zM547 954l-132 -147h-107l81 147h158z" />
    <glyph glyph-name="nacute" unicode="&#x144;" horiz-adv-x="609" 
d="M179 346v-346h-135v574h129v-63q28 31 76.5 55t111.5 24q91 0 148.5 -57t57.5 -156v-377h-135v336q0 75 -37.5 105t-87.5 30q-21 0 -44 -8t-41.5 -24t-30.5 -39.5t-12 -53.5zM492 798l-132 -147h-107l81 147h158z" />
    <glyph glyph-name="Ncommaaccent" unicode="&#x145;" horiz-adv-x="742" 
d="M551 0l-357 499v-499h-145v746h141l358 -505v505h145v-746h-142zM422 -56l-63 -172h-100l28 172h135z" />
    <glyph glyph-name="ncommaaccent" unicode="&#x146;" horiz-adv-x="609" 
d="M179 346v-346h-135v574h129v-63q28 31 76.5 55t111.5 24q91 0 148.5 -57t57.5 -156v-377h-135v336q0 75 -37.5 105t-87.5 30q-21 0 -44 -8t-41.5 -24t-30.5 -39.5t-12 -53.5zM372 -56l-63 -172h-100l28 172h135z" />
    <glyph glyph-name="Ncaron" unicode="&#x147;" horiz-adv-x="742" 
d="M551 0l-357 499v-499h-145v746h141l358 -505v505h145v-746h-142zM432 807h-138l-117 147h117l67 -84l68 84h120z" />
    <glyph glyph-name="ncaron" unicode="&#x148;" horiz-adv-x="609" 
d="M179 346v-346h-135v574h129v-63q28 31 76.5 55t111.5 24q91 0 148.5 -57t57.5 -156v-377h-135v336q0 75 -37.5 105t-87.5 30q-21 0 -44 -8t-41.5 -24t-30.5 -39.5t-12 -53.5zM377 651h-138l-117 147h117l67 -84l68 84h120z" />
    <glyph glyph-name="Eng" unicode="&#x14a;" horiz-adv-x="742" 
d="M471 -228h-23v117h19q38 0 61 29.5t23 81.5l-357 499v-499h-145v746h141l358 -505v505h145v-745q0 -117 -57.5 -173t-164.5 -56z" />
    <glyph glyph-name="eng" unicode="&#x14b;" horiz-adv-x="609" 
d="M350 -228h-14v117h10q39 1 62.5 29.5t23.5 81.5v336q0 75 -37.5 105t-87.5 30q-21 0 -44 -8t-41.5 -24t-30.5 -39.5t-12 -53.5v-346h-135v574h129v-63q28 31 76.5 55t111.5 24q91 0 148.5 -57t57.5 -156v-377q0 -116 -56 -171.5t-161 -56.5z" />
    <glyph glyph-name="Omacron" unicode="&#x14c;" horiz-adv-x="863" 
d="M432 770q85 0 160 -31t129.5 -84.5t86 -126t31.5 -154.5t-31.5 -155t-86 -126.5t-129.5 -85t-160 -31.5q-86 0 -161 31.5t-129.5 85t-86 126.5t-31.5 155t31.5 154.5t86 126t129.5 84.5t161 31zM432 637q-56 0 -104 -21t-83 -56.5t-55 -83.5t-20 -102t20 -102.5t55 -84.5
t83 -57t104 -21q55 0 103 21t83 57t55 84.5t20 102.5t-20 102t-55 83.5t-83 56.5t-103 21zM576 907v-100h-288v100h288z" />
    <glyph glyph-name="omacron" unicode="&#x14d;" horiz-adv-x="710" 
d="M355 603q72 0 133 -25t105.5 -67.5t69.5 -100.5t25 -123t-25 -123t-69.5 -100.5t-105.5 -67.5t-133 -25q-71 0 -132.5 25t-105.5 67.5t-69.5 100.5t-25.5 123t25.5 123t69.5 100.5t105.5 67.5t132.5 25zM355 488q-41 0 -76 -16t-60.5 -43t-40 -64t-14.5 -78t14.5 -78
t40 -64t60.5 -43t76 -16t76.5 16t61 43t40 64t14.5 78t-14.5 78t-40 64t-61 43t-76.5 16zM499 751v-100h-288v100h288z" />
    <glyph glyph-name="Obreve" unicode="&#x14e;" horiz-adv-x="863" 
d="M432 770q85 0 160 -31t129.5 -84.5t86 -126t31.5 -154.5t-31.5 -155t-86 -126.5t-129.5 -85t-160 -31.5q-86 0 -161 31.5t-129.5 85t-86 126.5t-31.5 155t31.5 154.5t86 126t129.5 84.5t161 31zM432 637q-56 0 -104 -21t-83 -56.5t-55 -83.5t-20 -102t20 -102.5t55 -84.5
t83 -57t104 -21q55 0 103 21t83 57t55 84.5t20 102.5t-20 102t-55 83.5t-83 56.5t-103 21zM599 957q-13 -69 -57 -112t-110 -43t-110 43t-57 112l87 3q13 -37 35.5 -56t44.5 -19t44.5 19t35.5 56z" />
    <glyph glyph-name="obreve" unicode="&#x14f;" horiz-adv-x="710" 
d="M355 603q72 0 133 -25t105.5 -67.5t69.5 -100.5t25 -123t-25 -123t-69.5 -100.5t-105.5 -67.5t-133 -25q-71 0 -132.5 25t-105.5 67.5t-69.5 100.5t-25.5 123t25.5 123t69.5 100.5t105.5 67.5t132.5 25zM355 488q-41 0 -76 -16t-60.5 -43t-40 -64t-14.5 -78t14.5 -78
t40 -64t60.5 -43t76 -16t76.5 16t61 43t40 64t14.5 78t-14.5 78t-40 64t-61 43t-76.5 16zM522 801q-13 -69 -57 -112t-110 -43t-110 43t-57 112l87 3q13 -37 35.5 -56t44.5 -19t44.5 19t35.5 56z" />
    <glyph glyph-name="Ohungarumlaut" unicode="&#x150;" horiz-adv-x="863" 
d="M432 770q85 0 160 -31t129.5 -84.5t86 -126t31.5 -154.5t-31.5 -155t-86 -126.5t-129.5 -85t-160 -31.5q-86 0 -161 31.5t-129.5 85t-86 126.5t-31.5 155t31.5 154.5t86 126t129.5 84.5t161 31zM432 637q-56 0 -104 -21t-83 -56.5t-55 -83.5t-20 -102t20 -102.5t55 -84.5
t83 -57t104 -21q55 0 103 21t83 57t55 84.5t20 102.5t-20 102t-55 83.5t-83 56.5t-103 21zM565 954h143l-133 -147h-98zM364 954h143l-133 -147h-99z" />
    <glyph glyph-name="ohungarumlaut" unicode="&#x151;" horiz-adv-x="710" 
d="M355 603q72 0 133 -25t105.5 -67.5t69.5 -100.5t25 -123t-25 -123t-69.5 -100.5t-105.5 -67.5t-133 -25q-71 0 -132.5 25t-105.5 67.5t-69.5 100.5t-25.5 123t25.5 123t69.5 100.5t105.5 67.5t132.5 25zM355 488q-41 0 -76 -16t-60.5 -43t-40 -64t-14.5 -78t14.5 -78
t40 -64t60.5 -43t76 -16t76.5 16t61 43t40 64t14.5 78t-14.5 78t-40 64t-61 43t-76.5 16zM488 798h143l-133 -147h-98zM287 798h143l-133 -147h-99z" />
    <glyph glyph-name="OE" unicode="&#x152;" horiz-adv-x="972" 
d="M445 131h61v484h-61q-53 0 -102 -15.5t-86.5 -45.5t-60 -75.5t-22.5 -104.5q0 -60 22.5 -106t60 -76t86.5 -45.5t102 -15.5zM449 0q-82 0 -158.5 23t-134.5 69t-93 116.5t-35 165.5q0 94 35.5 164t93.5 116t134 69t157 23h465v-126h-262v-174h237v-126h-237v-194h270
v-126h-472z" />
    <glyph glyph-name="oe" unicode="&#x153;" horiz-adv-x="1188" 
d="M858 488q-63 0 -104.5 -35.5t-56.5 -95.5h321q-15 60 -56 95.5t-104 35.5zM355 488q-41 0 -76 -16t-60.5 -43t-40 -64t-14.5 -78t14.5 -78t40 -64t60.5 -43t76 -16q42 0 77.5 16t60.5 43.5t39.5 64t14.5 77.5t-14.5 78t-40 64t-61 43t-76.5 16zM1162 76
q-47 -43 -112.5 -74t-163.5 -31q-89 0 -158.5 32.5t-112.5 88.5q-43 -55 -111 -88t-149 -33q-71 0 -132.5 25t-105.5 67.5t-69.5 100.5t-25.5 123t25.5 123t69.5 100.5t105.5 67.5t132.5 25q80 0 147 -32.5t112 -86.5q40 55 103 87t141 32q66 0 123.5 -24t98.5 -66
t64.5 -100t23.5 -126v-34h-477q9 -77 58.5 -122t136.5 -45q66 0 114 21t81 54z" />
    <glyph glyph-name="Racute" unicode="&#x154;" horiz-adv-x="582" 
d="M247 610h-53v-232h56q67 0 110.5 34t43.5 89q0 49 -37.5 79t-119.5 30zM387 0l-193 247v-247h-145v746h185q66 0 123.5 -14t100.5 -44t67.5 -76.5t24.5 -110.5q0 -46 -15 -83.5t-40.5 -66t-61 -49.5t-75.5 -34l205 -268h-176zM467 954l-132 -147h-107l81 147h158z" />
    <glyph glyph-name="racute" unicode="&#x155;" horiz-adv-x="366" 
d="M179 309v-309h-135v574h129v-122q8 17 23 38t36 39.5t47.5 31.5t57.5 13h19v-154q-4 2 -13 3.5t-15 1.5q-34 0 -61.5 -11.5t-47 -28.5t-30 -37.5t-10.5 -38.5zM406 798l-132 -147h-107l81 147h158z" />
    <glyph glyph-name="Rcommaaccent" unicode="&#x156;" horiz-adv-x="582" 
d="M247 610h-53v-232h56q67 0 110.5 34t43.5 89q0 49 -37.5 79t-119.5 30zM387 0l-193 247v-247h-145v746h185q66 0 123.5 -14t100.5 -44t67.5 -76.5t24.5 -110.5q0 -46 -15 -83.5t-40.5 -66t-61 -49.5t-75.5 -34l205 -268h-176zM352 -56l-63 -172h-100l28 172h135z" />
    <glyph glyph-name="rcommaaccent" unicode="&#x157;" horiz-adv-x="366" 
d="M179 309v-309h-135v574h129v-122q8 17 23 38t36 39.5t47.5 31.5t57.5 13h19v-154q-4 2 -13 3.5t-15 1.5q-34 0 -61.5 -11.5t-47 -28.5t-30 -37.5t-10.5 -38.5zM178 -56l-63 -172h-100l28 172h135z" />
    <glyph glyph-name="Rcaron" unicode="&#x158;" horiz-adv-x="582" 
d="M247 610h-53v-232h56q67 0 110.5 34t43.5 89q0 49 -37.5 79t-119.5 30zM387 0l-193 247v-247h-145v746h185q66 0 123.5 -14t100.5 -44t67.5 -76.5t24.5 -110.5q0 -46 -15 -83.5t-40.5 -66t-61 -49.5t-75.5 -34l205 -268h-176zM352 807h-138l-117 147h117l67 -84l68 84
h120z" />
    <glyph glyph-name="rcaron" unicode="&#x159;" horiz-adv-x="366" 
d="M179 309v-309h-135v574h129v-122q8 17 23 38t36 39.5t47.5 31.5t57.5 13h19v-154q-4 2 -13 3.5t-15 1.5q-34 0 -61.5 -11.5t-47 -28.5t-30 -37.5t-10.5 -38.5zM291 651h-138l-117 147h117l67 -84l68 84h120z" />
    <glyph glyph-name="Sacute" unicode="&#x15a;" horiz-adv-x="505" 
d="M427 743l-2 -129q-26 10 -63 17t-70 7q-62 0 -89.5 -19.5t-27.5 -51.5q0 -30 31 -59.5t99 -76.5q81 -57 128.5 -110.5t47.5 -121.5q0 -92 -74.5 -151.5t-196.5 -59.5q-19 0 -43 2t-48 5.5t-46 7.5t-35 8l2 131q13 -5 33.5 -10.5t44.5 -10t50.5 -7.5t50.5 -3q57 0 86 25
t29 57q0 31 -31.5 61.5t-99.5 76.5q-98 67 -135.5 119.5t-37.5 115.5q0 37 15 72.5t46.5 62.5t81.5 43.5t119 16.5q34 0 70.5 -5.5t64.5 -12.5zM464 954l-132 -147h-107l81 147h158z" />
    <glyph glyph-name="sacute" unicode="&#x15b;" horiz-adv-x="440" 
d="M231 594q37 0 70.5 -7.5t58.5 -17.5v-120q-32 16 -63.5 24t-54.5 8q-34 0 -53.5 -12.5t-19.5 -34.5q0 -15 19 -32.5t61 -44.5q102 -66 136.5 -113t34.5 -96q0 -74 -56 -120t-154 -47q-37 0 -85 12t-85 28v120q46 -23 86 -34t65 -11q46 0 66.5 16t20.5 38q0 14 -20 35
t-90 66q-44 29 -71.5 52.5t-43 45t-21 44t-5.5 48.5q0 28 11.5 55.5t36 49t63.5 35t93 13.5zM410 798l-132 -147h-107l81 147h158z" />
    <glyph glyph-name="Scircumflex" unicode="&#x15c;" horiz-adv-x="505" 
d="M427 743l-2 -129q-26 10 -63 17t-70 7q-62 0 -89.5 -19.5t-27.5 -51.5q0 -30 31 -59.5t99 -76.5q81 -57 128.5 -110.5t47.5 -121.5q0 -92 -74.5 -151.5t-196.5 -59.5q-19 0 -43 2t-48 5.5t-46 7.5t-35 8l2 131q13 -5 33.5 -10.5t44.5 -10t50.5 -7.5t50.5 -3q57 0 86 25
t29 57q0 31 -31.5 61.5t-99.5 76.5q-98 67 -135.5 119.5t-37.5 115.5q0 37 15 72.5t46.5 62.5t81.5 43.5t119 16.5q34 0 70.5 -5.5t64.5 -12.5zM346 807l-68 83l-67 -83h-118l117 147h138l117 -147h-119z" />
    <glyph glyph-name="scircumflex" unicode="&#x15d;" horiz-adv-x="440" 
d="M231 594q37 0 70.5 -7.5t58.5 -17.5v-120q-32 16 -63.5 24t-54.5 8q-34 0 -53.5 -12.5t-19.5 -34.5q0 -15 19 -32.5t61 -44.5q102 -66 136.5 -113t34.5 -96q0 -74 -56 -120t-154 -47q-37 0 -85 12t-85 28v120q46 -23 86 -34t65 -11q46 0 66.5 16t20.5 38q0 14 -20 35
t-90 66q-44 29 -71.5 52.5t-43 45t-21 44t-5.5 48.5q0 28 11.5 55.5t36 49t63.5 35t93 13.5zM292 651l-68 83l-67 -83h-118l117 147h138l117 -147h-119z" />
    <glyph glyph-name="Scedilla" unicode="&#x15e;" horiz-adv-x="505" 
d="M427 743l-2 -129q-26 10 -63 17t-70 7q-62 0 -89.5 -19.5t-27.5 -51.5q0 -30 31 -59.5t99 -76.5q81 -57 128.5 -110.5t47.5 -121.5q0 -92 -74.5 -151.5t-196.5 -59.5q-19 0 -43 2t-48 5.5t-46 7.5t-35 8l2 131q13 -5 33.5 -10.5t44.5 -10t50.5 -7.5t50.5 -3q57 0 86 25
t29 57q0 31 -31.5 61.5t-99.5 76.5q-98 67 -135.5 119.5t-37.5 115.5q0 37 15 72.5t46.5 62.5t81.5 43.5t119 16.5q34 0 70.5 -5.5t64.5 -12.5zM201 -221q-14 0 -36 3t-41 10v65h1q19 -7 38 -10t29 -3q25 0 40 8.5t15 23.5q0 14 -18.5 23.5t-45.5 9.5h-21l-4 10l28 79h62
l-13 -35q49 -7 74 -31t25 -60q0 -38 -36.5 -65.5t-96.5 -27.5z" />
    <glyph glyph-name="scedilla" unicode="&#x15f;" horiz-adv-x="440" 
d="M231 594q37 0 70.5 -7.5t58.5 -17.5v-120q-32 16 -63.5 24t-54.5 8q-34 0 -53.5 -12.5t-19.5 -34.5q0 -15 19 -32.5t61 -44.5q102 -66 136.5 -113t34.5 -96q0 -74 -56 -120t-154 -47q-37 0 -85 12t-85 28v120q46 -23 86 -34t65 -11q46 0 66.5 16t20.5 38q0 14 -20 35
t-90 66q-44 29 -71.5 52.5t-43 45t-21 44t-5.5 48.5q0 28 11.5 55.5t36 49t63.5 35t93 13.5zM186 -228q-14 0 -36 3t-41 10v65h1q19 -7 38 -10t29 -3q25 0 40 8.5t15 23.5q0 14 -18.5 23.5t-45.5 9.5h-21l-4 10l28 79h62l-13 -35q49 -7 74 -31t25 -60q0 -38 -36.5 -65.5
t-96.5 -27.5z" />
    <glyph glyph-name="Scaron" unicode="&#x160;" horiz-adv-x="505" 
d="M427 743l-2 -129q-26 10 -63 17t-70 7q-62 0 -89.5 -19.5t-27.5 -51.5q0 -30 31 -59.5t99 -76.5q81 -57 128.5 -110.5t47.5 -121.5q0 -92 -74.5 -151.5t-196.5 -59.5q-19 0 -43 2t-48 5.5t-46 7.5t-35 8l2 131q13 -5 33.5 -10.5t44.5 -10t50.5 -7.5t50.5 -3q57 0 86 25
t29 57q0 31 -31.5 61.5t-99.5 76.5q-98 67 -135.5 119.5t-37.5 115.5q0 37 15 72.5t46.5 62.5t81.5 43.5t119 16.5q34 0 70.5 -5.5t64.5 -12.5zM349 807h-138l-117 147h117l67 -84l68 84h120z" />
    <glyph glyph-name="scaron" unicode="&#x161;" horiz-adv-x="440" 
d="M231 594q37 0 70.5 -7.5t58.5 -17.5v-120q-32 16 -63.5 24t-54.5 8q-34 0 -53.5 -12.5t-19.5 -34.5q0 -15 19 -32.5t61 -44.5q102 -66 136.5 -113t34.5 -96q0 -74 -56 -120t-154 -47q-37 0 -85 12t-85 28v120q46 -23 86 -34t65 -11q46 0 66.5 16t20.5 38q0 14 -20 35
t-90 66q-44 29 -71.5 52.5t-43 45t-21 44t-5.5 48.5q0 28 11.5 55.5t36 49t63.5 35t93 13.5zM295 651h-138l-117 147h117l67 -84l68 84h120z" />
    <glyph glyph-name="Tcaron" unicode="&#x164;" horiz-adv-x="479" 
d="M167 0v616h-158v130h461v-130h-158v-616h-145zM311 807h-138l-117 147h117l67 -84l68 84h120z" />
    <glyph glyph-name="tcaron" unicode="&#x165;" horiz-adv-x="303" 
d="M291 460h-72v-460h-135v460h-72v114h72v139l135 30v-169h72v-114zM379 860l-53 -172h-82l17 172h118z" />
    <glyph glyph-name="Tbar" unicode="&#x166;" horiz-adv-x="479" 
d="M388 301h-76v-301h-145v301h-76v115h76v200h-158v130h461v-130h-158v-200h76v-115z" />
    <glyph glyph-name="tbar" unicode="&#x167;" horiz-adv-x="303" 
d="M291 263h-72v-263h-135v263h-72v88h72v109h-72v114h72v139l135 30v-169h72v-114h-72v-109h72v-88z" />
    <glyph glyph-name="Utilde" unicode="&#x168;" horiz-adv-x="681" 
d="M632 308q0 -156 -75 -244t-217 -88q-140 0 -215.5 88t-75.5 244v438h145v-467q0 -42 12.5 -74t32.5 -53.5t46.5 -32t54.5 -10.5q29 0 56 10.5t47 32t32 53.5t12 74v467h145v-438zM228 807l-108 3q-4 46 4.5 77t26.5 50t42 27t49 8q24 0 48.5 -7.5t47 -17t42.5 -17
t35 -7.5q16 0 28 10t11 38l109 -3q7 -78 -28.5 -117t-94.5 -39q-24 0 -48.5 7.5t-47.5 17t-42.5 17t-34.5 7.5q-16 0 -28 -10t-11 -44z" />
    <glyph glyph-name="utilde" unicode="&#x169;" horiz-adv-x="609" 
d="M436 0v64q-28 -31 -76.5 -55.5t-111.5 -24.5q-90 0 -148 57t-58 156v377h135v-336q0 -75 37 -105t88 -30q22 0 44.5 8t41 24t30.5 39.5t12 53.5v346h135v-574h-129zM191 651l-108 3q-4 46 4.5 77t26.5 50t42 27t49 8q24 0 48.5 -7.5t47 -17t42.5 -17t35 -7.5q16 0 28 10
t11 38l109 -3q7 -78 -28.5 -117t-94.5 -39q-24 0 -48.5 7.5t-47.5 17t-42.5 17t-34.5 7.5q-16 0 -28 -10t-11 -44z" />
    <glyph glyph-name="Umacron" unicode="&#x16a;" horiz-adv-x="681" 
d="M632 308q0 -156 -75 -244t-217 -88q-140 0 -215.5 88t-75.5 244v438h145v-467q0 -42 12.5 -74t32.5 -53.5t46.5 -32t54.5 -10.5q29 0 56 10.5t47 32t32 53.5t12 74v467h145v-438zM485 907v-100h-288v100h288z" />
    <glyph glyph-name="umacron" unicode="&#x16b;" horiz-adv-x="609" 
d="M436 0v64q-28 -31 -76.5 -55.5t-111.5 -24.5q-90 0 -148 57t-58 156v377h135v-336q0 -75 37 -105t88 -30q22 0 44.5 8t41 24t30.5 39.5t12 53.5v346h135v-574h-129zM448 751v-100h-288v100h288z" />
    <glyph glyph-name="Ubreve" unicode="&#x16c;" horiz-adv-x="681" 
d="M632 308q0 -156 -75 -244t-217 -88q-140 0 -215.5 88t-75.5 244v438h145v-467q0 -42 12.5 -74t32.5 -53.5t46.5 -32t54.5 -10.5q29 0 56 10.5t47 32t32 53.5t12 74v467h145v-438zM508 957q-13 -69 -57 -112t-110 -43t-110 43t-57 112l87 3q13 -37 35.5 -56t44.5 -19
t44.5 19t35.5 56z" />
    <glyph glyph-name="ubreve" unicode="&#x16d;" horiz-adv-x="609" 
d="M436 0v64q-28 -31 -76.5 -55.5t-111.5 -24.5q-90 0 -148 57t-58 156v377h135v-336q0 -75 37 -105t88 -30q22 0 44.5 8t41 24t30.5 39.5t12 53.5v346h135v-574h-129zM471 801q-13 -69 -57 -112t-110 -43t-110 43t-57 112l87 3q13 -37 35.5 -56t44.5 -19t44.5 19t35.5 56z
" />
    <glyph glyph-name="Uring" unicode="&#x16e;" horiz-adv-x="681" 
d="M632 308q0 -156 -75 -244t-217 -88q-140 0 -215.5 88t-75.5 244v438h145v-467q0 -42 12.5 -74t32.5 -53.5t46.5 -32t54.5 -10.5q29 0 56 10.5t47 32t32 53.5t12 74v467h145v-438zM341 1048q53 0 90.5 -37t37.5 -86t-37.5 -86t-90.5 -37t-90.5 37.5t-37.5 85.5t37.5 85.5
t90.5 37.5zM341 987q-25 0 -43.5 -18.5t-18.5 -43.5q0 -26 18.5 -44t43.5 -18t43.5 18t18.5 44q0 25 -18.5 43.5t-43.5 18.5z" />
    <glyph glyph-name="uring" unicode="&#x16f;" horiz-adv-x="609" 
d="M436 0v64q-28 -31 -76.5 -55.5t-111.5 -24.5q-90 0 -148 57t-58 156v377h135v-336q0 -75 37 -105t88 -30q22 0 44.5 8t41 24t30.5 39.5t12 53.5v346h135v-574h-129zM304 892q53 0 90.5 -37t37.5 -86t-37.5 -86t-90.5 -37t-90.5 37.5t-37.5 85.5t37.5 85.5t90.5 37.5z
M304 831q-25 0 -43.5 -18.5t-18.5 -43.5q0 -26 18.5 -44t43.5 -18t43.5 18t18.5 44q0 25 -18.5 43.5t-43.5 18.5z" />
    <glyph glyph-name="Uhungarumlaut" unicode="&#x170;" horiz-adv-x="681" 
d="M632 308q0 -156 -75 -244t-217 -88q-140 0 -215.5 88t-75.5 244v438h145v-467q0 -42 12.5 -74t32.5 -53.5t46.5 -32t54.5 -10.5q29 0 56 10.5t47 32t32 53.5t12 74v467h145v-438zM474 954h143l-133 -147h-98zM273 954h143l-133 -147h-99z" />
    <glyph glyph-name="uhungarumlaut" unicode="&#x171;" horiz-adv-x="609" 
d="M436 0v64q-28 -31 -76.5 -55.5t-111.5 -24.5q-90 0 -148 57t-58 156v377h135v-336q0 -75 37 -105t88 -30q22 0 44.5 8t41 24t30.5 39.5t12 53.5v346h135v-574h-129zM437 798h143l-133 -147h-98zM236 798h143l-133 -147h-99z" />
    <glyph glyph-name="Uogonek" unicode="&#x172;" horiz-adv-x="681" 
d="M409 -177q-54 0 -78.5 24.5t-24.5 56.5q0 22 9 39.5t24 32.5q-140 1 -215 89t-75 243v438h145v-467q0 -42 12.5 -74t32.5 -53.5t46.5 -32t54.5 -10.5q29 0 56 10.5t47 32t32 53.5t12 74v467h146v-438q0 -105 -34.5 -180.5t-100.5 -113.5l-49 -35q-23 -16 -29.5 -28.5
t-6.5 -23.5q0 -13 8 -21t22 -8q12 0 21 4.5t14 9.5l39 -49q-16 -14 -42.5 -26.5t-65.5 -13.5z" />
    <glyph glyph-name="uogonek" unicode="&#x173;" horiz-adv-x="609" 
d="M575 -137q-16 -14 -42.5 -26.5t-65.5 -13.5q-54 0 -78.5 24.5t-24.5 56.5q0 27 16.5 51t43.5 39l12 7v63q-28 -31 -76.5 -55.5t-111.5 -24.5q-90 0 -148 57t-58 156v377h135v-336q0 -75 37 -105t88 -30q22 0 44.5 8t41 24t30.5 39.5t12 53.5v346h135v-574l-58 -32
q-22 -12 -29 -22t-7 -19q0 -13 8 -21t22 -8q12 0 21 4.5t14 9.5z" />
    <glyph glyph-name="Wcircumflex" unicode="&#x174;" horiz-adv-x="991" 
d="M631 0l-134 526l-138 -526h-156l-201 746h153l135 -542l134 542h154l133 -543l136 543h142l-202 -746h-156zM565 807l-68 83l-67 -83h-118l117 147h138l117 -147h-119z" />
    <glyph glyph-name="wcircumflex" unicode="&#x175;" horiz-adv-x="896" 
d="M573 0l-123 377l-121 -377h-135l-195 574h146l118 -390l119 390h143l117 -392l119 392h136l-190 -574h-134zM518 651l-68 83l-67 -83h-118l117 147h138l117 -147h-119z" />
    <glyph glyph-name="Ycircumflex" unicode="&#x176;" horiz-adv-x="662" 
d="M403 0h-145v225l-256 521h158l172 -381l180 381h148l-257 -521v-225zM399 807l-68 83l-67 -83h-118l117 147h138l117 -147h-119z" />
    <glyph glyph-name="ycircumflex" unicode="&#x177;" horiz-adv-x="627" 
d="M327 -220h-138l79 210l-269 584h152l180 -417l157 417h140zM384 651l-68 83l-67 -83h-118l117 147h138l117 -147h-119z" />
    <glyph glyph-name="Ydieresis" unicode="&#x178;" horiz-adv-x="662" 
d="M403 0h-145v225l-256 521h158l172 -381l180 381h148l-257 -521v-225zM501 914v-107h-121v107h121zM282 914v-107h-121v107h121z" />
    <glyph glyph-name="Zacute" unicode="&#x179;" horiz-adv-x="625" 
d="M556 0h-541l-2 13l361 611h-308l58 122h473l2 -13l-361 -611h376zM510 954l-132 -147h-107l81 147h158z" />
    <glyph glyph-name="zacute" unicode="&#x17a;" horiz-adv-x="575" 
d="M494 0h-490l-3 5l325 455h-265l51 114h438l3 -5l-323 -455h315zM478 798l-132 -147h-107l81 147h158z" />
    <glyph glyph-name="Zdotaccent" unicode="&#x17b;" horiz-adv-x="625" 
d="M556 0h-541l-2 13l361 611h-308l58 122h473l2 -13l-361 -611h376zM394 910v-103h-140v103h140z" />
    <glyph glyph-name="zdotaccent" unicode="&#x17c;" horiz-adv-x="575" 
d="M494 0h-490l-3 5l325 455h-265l51 114h438l3 -5l-323 -455h315zM362 780v-125h-140v125h140z" />
    <glyph glyph-name="Zcaron" unicode="&#x17d;" horiz-adv-x="625" 
d="M556 0h-541l-2 13l361 611h-308l58 122h473l2 -13l-361 -611h376zM395 807h-138l-117 147h117l67 -84l68 84h120z" />
    <glyph glyph-name="zcaron" unicode="&#x17e;" horiz-adv-x="575" 
d="M494 0h-490l-3 5l325 455h-265l51 114h438l3 -5l-323 -455h315zM363 651h-138l-117 147h117l67 -84l68 84h120z" />
    <glyph glyph-name="florin" unicode="&#x192;" horiz-adv-x="484" 
d="M273 9q-10 -67 -29 -111.5t-49 -70.5t-72.5 -36.5t-99.5 -10.5v119q23 0 41.5 3t33 14.5t24.5 33.5t15 59q2 15 7 49.5t11 80t13.5 98.5t14.5 104h-76v114h92q4 25 7 47.5t5 38.5q9 65 31.5 105t54 62t71 30t82.5 8v-119q-33 0 -64 -14t-39 -73q-2 -16 -5 -38t-7 -47h77
v-114h-93q-7 -51 -14.5 -104t-13.5 -98.5t-11 -80t-7 -49.5z" />
    <glyph glyph-name="Aringacute" unicode="&#x1fa;" horiz-adv-x="723" 
d="M475 246l-115 309l-115 -309h230zM567 0l-47 125h-320l-47 -125h-151l288 746h144l287 -746h-154zM360 932q53 0 90.5 -37t37.5 -86t-37.5 -86t-90.5 -37t-90.5 37.5t-37.5 85.5t37.5 85.5t90.5 37.5zM360 871q-25 0 -43.5 -18.5t-18.5 -43.5q0 -26 18.5 -44t43.5 -18
t43.5 18t18.5 44q0 25 -18.5 43.5t-43.5 18.5zM546 1102l-132 -147h-107l81 147h158z" />
    <glyph glyph-name="aringacute" unicode="&#x1fb;" horiz-adv-x="543" 
d="M261 65q45 0 74.5 31.5t29.5 77.5q0 41 -28.5 71t-75.5 30q-46 0 -74 -30t-28 -71q0 -45 28 -77t74 -32zM376 0v49q-28 -29 -70.5 -49t-98.5 -20q-80 0 -134.5 53.5t-54.5 136.5q0 39 14.5 74t41.5 60.5t66 40.5t87 15q43 0 77.5 -10.5t59.5 -27.5v25q0 75 -30.5 102.5
t-91.5 26.5q-29 0 -59.5 -4t-82.5 -14l-4 114q51 10 85 14t77 4q123 0 182 -54.5t59 -147.5v-388h-123zM271 892q53 0 90.5 -37t37.5 -86t-37.5 -86t-90.5 -37t-90.5 37.5t-37.5 85.5t37.5 85.5t90.5 37.5zM271 831q-25 0 -43.5 -18.5t-18.5 -43.5q0 -26 18.5 -44t43.5 -18
t43.5 18t18.5 44q0 25 -18.5 43.5t-43.5 18.5zM457 1062l-132 -147h-107l81 147h158z" />
    <glyph glyph-name="AEacute" unicode="&#x1fc;" horiz-adv-x="951" 
d="M472 246l-117 340l-117 -340h234zM557 0l-43 125h-318l-43 -125h-151l283 746h465v-126h-273l65 -174h289v-126h-241l73 -194h286v-126h-392zM562 954l-132 -147h-107l81 147h158z" />
    <glyph glyph-name="aeacute" unicode="&#x1fd;" horiz-adv-x="986" 
d="M656 488q-63 0 -104.5 -35.5t-56.5 -95.5h321q-15 60 -56 95.5t-104 35.5zM261 56q45 0 74.5 31.5t29.5 82.5q0 41 -28.5 73t-75.5 32q-46 0 -74 -32t-28 -73q0 -49 28 -81.5t74 -32.5zM960 76q-47 -43 -112.5 -74t-163.5 -31q-81 0 -146 29.5t-107 80.5q-17 -42 -65 -76
t-133 -34q-96 0 -155.5 56t-59.5 139q0 39 14.5 74.5t41.5 62t66 42t87 15.5q38 0 69 -8.5t56 -21.5v17q0 75 -27.5 102.5t-88.5 26.5q-29 0 -56.5 -4t-79.5 -14l-4 114q51 10 82 14t74 4q72 0 120.5 -19t76.5 -54q39 40 92 63t115 23q66 0 123.5 -24t98.5 -66t64.5 -100
t23.5 -126v-34h-477q9 -77 58.5 -122t136.5 -45q66 0 114 21t81 54zM654 798l-132 -147h-107l81 147h158z" />
    <glyph glyph-name="Oslashacute" unicode="&#x1fe;" horiz-adv-x="882" 
d="M170 374q0 -51 18 -97.5t50 -81.5l292 423q-22 9 -47 14t-51 5q-56 0 -104 -21t-83 -56.5t-55 -83.5t-20 -102zM432 109q55 0 103 21t83 57t55 84.5t20 102.5q0 51 -18 97t-50 81l-293 -424q22 -9 47.5 -14t52.5 -5zM432 -24q-49 0 -94 10t-85 29l-43 -63h-140l87 126
q-61 54 -97 131t-36 165q0 82 31.5 154.5t86 126t129.5 84.5t161 31q48 0 92.5 -10t84.5 -28l43 62h140l-87 -125q62 -54 98 -131t36 -164q0 -82 -31.5 -155t-86 -126.5t-129.5 -85t-160 -31.5zM617 954l-132 -147h-107l81 147h158z" />
    <glyph glyph-name="oslashacute" unicode="&#x1ff;" horiz-adv-x="703" 
d="M164 287q0 -37 11.5 -70.5t31.5 -59.5l193 326q-10 2 -21.5 3.5t-23.5 1.5q-41 0 -76 -16t-60.5 -43t-40 -64t-14.5 -78zM355 86q41 0 76.5 16t61 43t40 64t14.5 78q0 39 -13 74t-35 61l-195 -329q12 -4 25 -5.5t26 -1.5zM355 -29q-30 0 -58.5 4.5t-54.5 13.5l-22 -37
h-134l54 91q-54 43 -86 107t-32 137q0 65 25.5 123t69.5 100.5t105.5 67.5t132.5 25q28 0 55 -4t52 -12l20 35h135l-52 -87q57 -43 90 -108t33 -140q0 -65 -25 -123t-69.5 -100.5t-105.5 -67.5t-133 -25zM541 798l-132 -147h-107l81 147h158z" />
    <glyph glyph-name="Scommaaccent" unicode="&#x218;" horiz-adv-x="505" 
d="M427 743l-2 -129q-26 10 -63 17t-70 7q-62 0 -89.5 -19.5t-27.5 -51.5q0 -30 31 -59.5t99 -76.5q81 -57 128.5 -110.5t47.5 -121.5q0 -92 -74.5 -151.5t-196.5 -59.5q-19 0 -43 2t-48 5.5t-46 7.5t-35 8l2 131q13 -5 33.5 -10.5t44.5 -10t50.5 -7.5t50.5 -3q57 0 86 25
t29 57q0 31 -31.5 61.5t-99.5 76.5q-98 67 -135.5 119.5t-37.5 115.5q0 37 15 72.5t46.5 62.5t81.5 43.5t119 16.5q34 0 70.5 -5.5t64.5 -12.5zM291 -68l-63 -172h-100l28 172h135z" />
    <glyph glyph-name="scommaaccent" unicode="&#x219;" horiz-adv-x="440" 
d="M231 594q37 0 70.5 -7.5t58.5 -17.5v-120q-32 16 -63.5 24t-54.5 8q-34 0 -53.5 -12.5t-19.5 -34.5q0 -15 19 -32.5t61 -44.5q102 -66 136.5 -113t34.5 -96q0 -74 -56 -120t-154 -47q-37 0 -85 12t-85 28v120q46 -23 86 -34t65 -11q46 0 66.5 16t20.5 38q0 14 -20 35
t-90 66q-44 29 -71.5 52.5t-43 45t-21 44t-5.5 48.5q0 28 11.5 55.5t36 49t63.5 35t93 13.5zM276 -56l-63 -172h-100l28 172h135z" />
    <glyph glyph-name="Tcommaaccent" unicode="&#x21a;" horiz-adv-x="479" 
d="M167 0v616h-158v130h461v-130h-158v-616h-145zM306 -56l-63 -172h-100l28 172h135z" />
    <glyph glyph-name="tcommaaccent" unicode="&#x21b;" horiz-adv-x="303" 
d="M291 460h-72v-460h-135v460h-72v114h72v139l135 30v-169h72v-114zM218 -56l-63 -172h-100l28 172h135z" />
    <glyph glyph-name="dotlessj" unicode="&#x237;" horiz-adv-x="220" 
d="M-53 -111h10q39 1 62.5 30.5t23.5 83.5v571h134v-573q0 -117 -56 -172.5t-160 -56.5h-14v117z" />
    <glyph glyph-name="schwa" unicode="&#x259;" horiz-adv-x="663" 
d="M330 -29q-66 0 -123.5 24t-98.5 66t-64.5 100t-23.5 126v34h477q-9 77 -58.5 122t-136.5 45q-66 0 -114 -21t-81 -54l-81 85q47 43 112.5 74t163.5 31q77 0 140 -24t107 -66t68 -100t24 -126t-23.5 -126t-65 -100t-98.5 -66t-124 -24zM330 86q63 0 104.5 35.5t56.5 95.5
h-321q15 -60 56 -95.5t104 -35.5z" />
    <glyph glyph-name="circumflex" unicode="&#x2c6;" horiz-adv-x="500" 
d="M315 643l-68 83l-67 -83h-118l117 147h138l117 -147h-119z" />
    <glyph glyph-name="caron" unicode="&#x2c7;" horiz-adv-x="500" 
d="M317 643h-138l-117 147h117l67 -84l68 84h120z" />
    <glyph glyph-name="breve" unicode="&#x2d8;" horiz-adv-x="500" 
d="M417 793q-13 -69 -57 -112t-110 -43t-110 43t-57 112l87 3q13 -37 35.5 -56t44.5 -19t44.5 19t35.5 56z" />
    <glyph glyph-name="dotaccent" unicode="&#x2d9;" horiz-adv-x="500" 
d="M320 730v-103h-140v103h140z" />
    <glyph glyph-name="ring" unicode="&#x2da;" horiz-adv-x="500" 
d="M250 882q53 0 90.5 -37t37.5 -86t-37.5 -86t-90.5 -37t-90.5 37.5t-37.5 85.5t37.5 85.5t90.5 37.5zM250 821q-25 0 -43.5 -18.5t-18.5 -43.5q0 -26 18.5 -44t43.5 -18t43.5 18t18.5 44q0 25 -18.5 43.5t-43.5 18.5z" />
    <glyph glyph-name="ogonek" unicode="&#x2db;" horiz-adv-x="500" 
d="M301 -26q-22 -12 -29 -22t-7 -19q0 -13 8 -21t22 -8q12 0 21 4.5t14 9.5l39 -49q-16 -14 -42.5 -26.5t-65.5 -13.5q-54 0 -78.5 24.5t-24.5 56.5q0 27 16.5 49t43.5 37l35 19l106 -9z" />
    <glyph glyph-name="tilde" unicode="&#x2dc;" horiz-adv-x="500" 
d="M137 642l-108 3q-4 46 4.5 77t26.5 50t42 27t49 8q24 0 48.5 -7.5t47 -17t42.5 -17t35 -7.5q16 0 28 10t11 38l109 -3q7 -78 -28.5 -117t-94.5 -39q-24 0 -48.5 7.5t-47.5 17t-42.5 17t-34.5 7.5q-16 0 -28 -10t-11 -44z" />
    <glyph glyph-name="hungarumlaut" unicode="&#x2dd;" horiz-adv-x="500" 
d="M372 790h143l-133 -147h-98zM171 790h143l-133 -147h-99z" />
    <glyph glyph-name="acute.cmb" unicode="&#x301;" 
d="M146 790l-132 -147h-107l81 147h158z" />
    <glyph glyph-name="mu" unicode="&#x3bc;" horiz-adv-x="611" 
d="M159 -190l-115 -30v794h135v-346q0 -32 11.5 -55.5t30 -39t41 -23t43.5 -7.5t43.5 7.5t41 23t30.5 39t12 55.5v346h135v-574h-115v63q-22 -37 -61 -58t-85 -21t-85.5 21t-61.5 58v-253z" />
    <glyph glyph-name="Wgrave" unicode="&#x1e80;" horiz-adv-x="991" 
d="M631 0l-134 526l-138 -526h-156l-201 746h153l135 -542l134 542h154l133 -543l136 543h142l-202 -746h-156zM306 954h161l82 -147h-111z" />
    <glyph glyph-name="wgrave" unicode="&#x1e81;" horiz-adv-x="896" 
d="M573 0l-123 377l-121 -377h-135l-195 574h146l118 -390l119 390h143l117 -392l119 392h136l-190 -574h-134zM259 798h161l82 -147h-111z" />
    <glyph glyph-name="Wacute" unicode="&#x1e82;" horiz-adv-x="991" 
d="M631 0l-134 526l-138 -526h-156l-201 746h153l135 -542l134 542h154l133 -543l136 543h142l-202 -746h-156zM683 954l-132 -147h-107l81 147h158z" />
    <glyph glyph-name="wacute" unicode="&#x1e83;" horiz-adv-x="896" 
d="M573 0l-123 377l-121 -377h-135l-195 574h146l118 -390l119 390h143l117 -392l119 392h136l-190 -574h-134zM636 798l-132 -147h-107l81 147h158z" />
    <glyph glyph-name="Wdieresis" unicode="&#x1e84;" horiz-adv-x="991" 
d="M631 0l-134 526l-138 -526h-156l-201 746h153l135 -542l134 542h154l133 -543l136 543h142l-202 -746h-156zM667 914v-107h-121v107h121zM448 914v-107h-121v107h121z" />
    <glyph glyph-name="wdieresis" unicode="&#x1e85;" horiz-adv-x="896" 
d="M573 0l-123 377l-121 -377h-135l-195 574h146l118 -390l119 390h143l117 -392l119 392h136l-190 -574h-134zM620 758v-107h-121v107h121zM401 758v-107h-121v107h121z" />
    <glyph glyph-name="Ygrave" unicode="&#x1ef2;" horiz-adv-x="662" 
d="M403 0h-145v225l-256 521h158l172 -381l180 381h148l-257 -521v-225zM140 954h161l82 -147h-111z" />
    <glyph glyph-name="ygrave" unicode="&#x1ef3;" horiz-adv-x="627" 
d="M327 -220h-138l79 210l-269 584h152l180 -417l157 417h140zM125 798h161l82 -147h-111z" />
    <glyph glyph-name="uni2000" unicode="&#x2000;" horiz-adv-x="500" 
 />
    <glyph glyph-name="uni2001" unicode="&#x2001;" horiz-adv-x="1000" 
 />
    <glyph glyph-name="uni2002" unicode="&#x2002;" horiz-adv-x="500" 
 />
    <glyph glyph-name="uni2003" unicode="&#x2003;" horiz-adv-x="1000" 
 />
    <glyph glyph-name="uni2004" unicode="&#x2004;" horiz-adv-x="333" 
 />
    <glyph glyph-name="uni2005" unicode="&#x2005;" horiz-adv-x="250" 
 />
    <glyph glyph-name="uni2009" unicode="&#x2009;" horiz-adv-x="166" 
 />
    <glyph glyph-name="uni200A" unicode="&#x200a;" horiz-adv-x="100" 
 />
    <glyph glyph-name="uni200B" unicode="&#x200b;" 
 />
    <glyph glyph-name="endash" unicode="&#x2013;" horiz-adv-x="524" 
d="M494 370v-105h-464v105h464z" />
    <glyph glyph-name="emdash" unicode="&#x2014;" horiz-adv-x="724" 
d="M694 370v-105h-664v105h664z" />
    <glyph glyph-name="emdash.salt_em" unicode="&#x2015;" horiz-adv-x="1000" 
d="M1000 370v-105h-1000v105h1000z" />
    <glyph glyph-name="quoteleft" unicode="&#x2018;" horiz-adv-x="309" 
d="M263 746l-63 -294h-151l112 294h102z" />
    <glyph glyph-name="quoteright" unicode="&#x2019;" horiz-adv-x="304" 
d="M51 452l63 294h151l-111 -294h-103z" />
    <glyph glyph-name="quotesinglbase" unicode="&#x201a;" horiz-adv-x="308" 
d="M37 -294l63 294h151l-111 -294h-103z" />
    <glyph glyph-name="quotedblleft" unicode="&#x201c;" horiz-adv-x="512" 
d="M263 746l-63 -294h-151l112 294h102zM466 746l-63 -294h-151l112 294h102z" />
    <glyph glyph-name="quotedblright" unicode="&#x201d;" horiz-adv-x="507" 
d="M51 452l63 294h151l-111 -294h-103zM254 452l63 294h151l-111 -294h-103z" />
    <glyph glyph-name="quotedblbase" unicode="&#x201e;" horiz-adv-x="511" 
d="M37 -294l63 294h151l-111 -294h-103zM240 -294l63 294h151l-111 -294h-103z" />
    <glyph glyph-name="dagger" unicode="&#x2020;" horiz-adv-x="461" 
d="M429 456h-131v-566l-135 30v536h-131v107h131v183h135v-183h131v-107z" />
    <glyph glyph-name="daggerdbl" unicode="&#x2021;" horiz-adv-x="461" 
d="M429 205h-131v-315l-135 30v285h-131v107h131v144h-131v107h131v183h135v-183h131v-107h-131v-144h131v-107z" />
    <glyph glyph-name="bullet" unicode="&#x2022;" horiz-adv-x="271" 
d="M54 392h163v-150h-163v150z" />
    <glyph glyph-name="ellipsis" unicode="&#x2026;" horiz-adv-x="775" 
d="M53 146h156v-146h-156v146zM309 146h156v-146h-156v146zM566 146h156v-146h-156v146z" />
    <glyph glyph-name="perthousand" unicode="&#x2030;" horiz-adv-x="1220" 
d="M719 746l-496 -746h-107l495 746h108zM193 746q73 0 121 -47.5t48 -140.5v-27q0 -92 -48 -139.5t-121 -47.5q-72 0 -120.5 47.5t-48.5 139.5v27q0 93 48.5 140.5t120.5 47.5zM258 533v24q0 58 -18 87t-47 29q-28 0 -46.5 -29t-18.5 -87v-24q0 -59 18.5 -87.5t46.5 -28.5
t46.5 28.5t18.5 87.5zM641 402q73 0 121 -47.5t48 -140.5v-27q0 -92 -48 -139.5t-121 -47.5q-72 0 -120.5 47.5t-48.5 139.5v27q0 93 48.5 140.5t120.5 47.5zM1028 402q72 0 120 -47.5t48 -140.5v-27q0 -92 -48 -139.5t-120 -47.5q-71 0 -119.5 47.5t-48.5 139.5v27
q0 93 48.5 140.5t119.5 47.5zM1093 189v24q0 58 -18 87.5t-47 29.5q-28 0 -46.5 -29.5t-18.5 -87.5v-24q0 -60 18.5 -88.5t46.5 -28.5t46.5 28.5t18.5 88.5zM706 189v24q0 58 -18 87t-47 29q-28 0 -46.5 -29t-18.5 -87v-24q0 -59 18.5 -87.5t46.5 -28.5t46.5 28.5t18.5 87.5
z" />
    <glyph glyph-name="minute" unicode="&#x2032;" horiz-adv-x="252" 
d="M33 412l60 334h126l-60 -334h-126z" />
    <glyph glyph-name="second" unicode="&#x2033;" horiz-adv-x="459" 
d="M33 412l60 334h126l-60 -334h-126zM240 412l60 334h126l-60 -334h-126z" />
    <glyph glyph-name="guilsinglleft" unicode="&#x2039;" horiz-adv-x="390" 
d="M343 0h-115l-185 285v3l185 286h116l-186 -286z" />
    <glyph glyph-name="guilsinglright" unicode="&#x203a;" horiz-adv-x="390" 
d="M162 0h-115l185 289l-184 285h114l185 -286v-3z" />
    <glyph glyph-name="fraction" unicode="&#x2044;" horiz-adv-x="285" 
d="M308 746h120l-452 -746h-118z" />
    <glyph glyph-name="zero.sups" unicode="&#x2070;" horiz-adv-x="469" 
d="M235 761q81 0 134.5 -58.5t53.5 -174.5v-32q0 -114 -53.5 -173t-134.5 -59t-135 59t-54 173v32q0 116 54 174.5t135 58.5zM316 496v32q0 73 -22.5 108t-58.5 35q-35 0 -59 -35t-24 -108v-32q0 -72 24 -107t59 -35t58 35t23 107z" />
    <glyph glyph-name="four.sups" unicode="&#x2074;" horiz-adv-x="432" 
d="M247 446v124l-82 -124h82zM387 357h-34v-78h-106v78h-216l-9 20l247 369h84v-300h58z" />
    <glyph glyph-name="five.sups" unicode="&#x2075;" horiz-adv-x="420" 
d="M160 264q-28 0 -63.5 6t-61.5 22v92q25 -16 56 -23.5t68 -7.5q41 0 70.5 22t29.5 59q0 28 -29 48t-80 20q-24 0 -48 -3.5t-45 -10.5l64 258h266l-27 -89h-169l-19 -66h8.5h8.5q87 0 134 -44t47 -113q0 -72 -56.5 -121t-153.5 -49z" />
    <glyph glyph-name="six.sups" unicode="&#x2076;" horiz-adv-x="432" 
d="M218 264q-80 0 -133.5 45t-53.5 124q0 39 15.5 79.5t40.5 80t56.5 78t63.5 75.5h132q-38 -40 -75 -82.5t-65 -82.5l2 -1q12 5 25 7.5t27 2.5q63 0 107 -45.5t44 -110.5q0 -35 -13.5 -66t-38 -54t-59 -36.5t-75.5 -13.5zM218 509q-33 0 -57 -22.5t-24 -56.5q0 -31 24 -54
t57 -23t56.5 23t23.5 54q0 34 -23.5 56.5t-56.5 22.5z" />
    <glyph glyph-name="seven.sups" unicode="&#x2077;" horiz-adv-x="413" 
d="M192 279h-118l166 378h-207l26 89h333z" />
    <glyph glyph-name="eight.sups" unicode="&#x2078;" horiz-adv-x="414" 
d="M207 264q-85 0 -133 43.5t-48 109.5q0 37 19 66.5t53 48.5q-25 16 -38 41t-13 55q0 54 42.5 93.5t117.5 39.5q77 0 118.5 -39.5t41.5 -93.5q0 -30 -13 -55t-38 -42q34 -18 53 -47.5t19 -66.5q0 -66 -48.5 -109.5t-132.5 -43.5zM207 561q23 0 40.5 16.5t17.5 43.5
q0 22 -17 36.5t-41 14.5t-41.5 -14.5t-17.5 -36.5q0 -26 17 -43t42 -17zM207 353q33 0 56 20t23 51q0 30 -23 48.5t-56 18.5q-32 0 -55.5 -18.5t-23.5 -48.5q0 -31 23.5 -51t55.5 -20z" />
    <glyph glyph-name="nine.sups" unicode="&#x2079;" horiz-adv-x="432" 
d="M226 278h-132q38 40 74.5 82.5t64.5 82.5l-2 1q-11 -5 -24.5 -7.5t-26.5 -2.5q-64 0 -108 45.5t-44 110.5q0 70 52 120t135 50q79 0 132.5 -44.5t53.5 -124.5q0 -39 -15.5 -79.5t-40 -80t-56 -78t-63.5 -75.5zM215 515q32 0 56 23t24 56q0 31 -24 54t-56 23
q-34 0 -57.5 -23t-23.5 -54q0 -33 23.5 -56t57.5 -23z" />
    <glyph glyph-name="zero.sinf" unicode="&#x2080;" horiz-adv-x="429" 
d="M215 282q81 0 134.5 -58.5t53.5 -174.5v-32q0 -114 -53.5 -173t-134.5 -59t-135 59t-54 173v32q0 116 54 174.5t135 58.5zM296 17v32q0 73 -22.5 108t-58.5 35q-35 0 -59 -35t-24 -108v-32q0 -72 24 -107t59 -35t58 35t23 107z" />
    <glyph glyph-name="one.sinf" unicode="&#x2081;" horiz-adv-x="252" 
d="M213 -200h-106v316l-84 -82v136l107 97h83v-467z" />
    <glyph glyph-name="two.sinf" unicode="&#x2082;" horiz-adv-x="374" 
d="M328 -200h-314l-7 15q11 14 37.5 47.5t55.5 70.5t55 69.5t36 45.5q17 22 26 38.5t9 40.5q0 26 -20 46t-56 20q-23 0 -48 -8.5t-52 -30.5l1 104q26 13 55.5 18.5t57.5 5.5q79 -1 126.5 -43.5t47.5 -105.5q-1 -49 -21.5 -77t-41.5 -55q-13 -16 -40.5 -48.5t-55.5 -63.5h185
z" />
    <glyph glyph-name="three.sinf" unicode="&#x2083;" horiz-adv-x="335" 
d="M135 -215q-12 0 -28.5 1t-33.5 3.5t-33.5 7t-28.5 11.5v90q16 -13 46.5 -18t45.5 -5q51 -1 82 17t31 49q0 29 -29 46t-74 17h-31l3 89h28q34 0 57 15t23 39q0 22 -20.5 33.5t-54.5 11.5q-15 0 -39 -3t-43 -13l6 94q18 6 40.5 9t56.5 3q69 1 114.5 -34t45.5 -86
q-1 -31 -18 -59t-45 -45q38 -16 62 -48.5t24 -73.5q0 -65 -52 -108.5t-135 -42.5z" />
    <glyph glyph-name="four.sinf" unicode="&#x2084;" horiz-adv-x="392" 
d="M227 -33v124l-82 -124h82zM367 -122h-34v-78h-106v78h-216l-9 20l247 369h84v-300h58z" />
    <glyph glyph-name="five.sinf" unicode="&#x2085;" horiz-adv-x="380" 
d="M140 -215q-28 0 -63.5 6t-61.5 22v92q25 -16 56 -23.5t68 -7.5q41 0 70.5 22t29.5 59q0 28 -29 48t-80 20q-24 0 -48 -3.5t-45 -10.5l64 258h266l-27 -89h-169l-19 -66h8.5h8.5q87 0 134 -44t47 -113q0 -72 -56.5 -121t-153.5 -49z" />
    <glyph glyph-name="six.sinf" unicode="&#x2086;" horiz-adv-x="392" 
d="M198 -215q-80 0 -133.5 45t-53.5 124q0 39 15.5 79.5t40.5 80t56.5 78t63.5 75.5h132q-38 -40 -75 -82.5t-65 -82.5l2 -1q12 5 25 7.5t27 2.5q63 0 107 -45.5t44 -110.5q0 -35 -13.5 -66t-38 -54t-59 -36.5t-75.5 -13.5zM198 30q-33 0 -57 -22.5t-24 -56.5q0 -31 24 -54
t57 -23t56.5 23t23.5 54q0 34 -23.5 56.5t-56.5 22.5z" />
    <glyph glyph-name="seven.sinf" unicode="&#x2087;" horiz-adv-x="373" 
d="M172 -200h-118l166 378h-207l26 89h333z" />
    <glyph glyph-name="eight.sinf" unicode="&#x2088;" horiz-adv-x="374" 
d="M187 -215q-85 0 -133 43.5t-48 109.5q0 37 19 66.5t53 48.5q-25 16 -38 41t-13 55q0 54 42.5 93.5t117.5 39.5q77 0 118.5 -39.5t41.5 -93.5q0 -30 -13 -55t-38 -42q34 -18 53 -47.5t19 -66.5q0 -66 -48.5 -109.5t-132.5 -43.5zM187 82q23 0 40.5 16.5t17.5 43.5
q0 22 -17 36.5t-41 14.5t-41.5 -14.5t-17.5 -36.5q0 -26 17 -43t42 -17zM187 -126q33 0 56 20t23 51q0 30 -23 48.5t-56 18.5q-32 0 -55.5 -18.5t-23.5 -48.5q0 -31 23.5 -51t55.5 -20z" />
    <glyph glyph-name="nine.sinf" unicode="&#x2089;" horiz-adv-x="392" 
d="M206 -201h-132q38 40 74.5 82.5t64.5 82.5l-2 1q-11 -5 -24.5 -7.5t-26.5 -2.5q-64 0 -108 45.5t-44 110.5q0 70 52 120t135 50q79 0 132.5 -44.5t53.5 -124.5q0 -39 -15.5 -79.5t-40 -80t-56 -78t-63.5 -75.5zM195 36q32 0 56 23t24 56q0 31 -24 54t-56 23
q-34 0 -57.5 -23t-23.5 -54q0 -33 23.5 -56t57.5 -23z" />
    <glyph glyph-name="Euro" unicode="&#x20ac;" horiz-adv-x="628" 
d="M594 9q-31 -16 -64.5 -22.5t-70.5 -6.5q-65 0 -121 20.5t-100.5 57.5t-76.5 88t-48 111h-107l16 79h78q-1 9 -1.5 18.5t-0.5 19.5v13.5t1 13.5h-93l16 79h88q15 62 46.5 114.5t76.5 90.5t102.5 59.5t123.5 21.5q37 0 70.5 -6.5t64.5 -22.5v-125q-27 16 -56 25.5t-61 9.5
q-77 0 -136 -47.5t-85 -119.5h278l-16 -79h-279q-1 -6 -1 -12.5v-13.5q0 -10 0.5 -19.5t1.5 -19.5h264l-16 -79h-228q28 -69 85.5 -113.5t131.5 -44.5q32 0 61 9.5t56 26.5v-126z" />
    <glyph glyph-name="copyrightsound" unicode="&#x2117;" horiz-adv-x="879" 
d="M440 756q83 0 154.5 -30t123.5 -82t81.5 -122t29.5 -149t-29.5 -149t-81.5 -122t-123.5 -82t-154.5 -30t-155 30t-124 82t-81.5 122t-29.5 149t29.5 149t81.5 122t124 82t155 30zM440 712q-70 0 -132.5 -26.5t-108 -72.5t-72.5 -108t-27 -132t27 -132t72.5 -107.5
t108 -72.5t132.5 -27t132 27t107.5 72.5t72.5 107.5t27 132t-27 132t-72.5 108t-107.5 72.5t-132 26.5zM450 286h-23v-127h-113v435h137q33 0 66 -5.5t59 -22t42.5 -48t16.5 -82.5q0 -41 -18 -70t-44.5 -46.5t-59.5 -25.5t-63 -8zM461 487h-34v-94h34q27 0 43.5 11t16.5 32
q1 26 -15.5 38.5t-44.5 12.5z" />
    <glyph glyph-name="trademark" unicode="&#x2122;" horiz-adv-x="653" 
d="M75 442v234h-62v70h200v-70h-61v-234h-77zM412 494l-86 133v-185h-75v304h83l88 -142l85 142h82v-304h-76v183l-84 -131h-17z" />
    <glyph glyph-name="arrowleft" unicode="&#x2190;" horiz-adv-x="750" 
d="M514 88v-8h-197l-315 316v14l315 316h197v-8l-243 -242h475v-145h-475z" />
    <glyph glyph-name="arrowup" unicode="&#x2191;" horiz-adv-x="750" 
d="M690 232l-242 243v-475h-145v475l-243 -243h-8v197l316 315h14l316 -315v-197h-8z" />
    <glyph glyph-name="arrowright" unicode="&#x2192;" horiz-adv-x="750" 
d="M433 75h-197v8l243 242h-475v145h475l-243 243v8h197l315 -316v-14z" />
    <glyph glyph-name="arrowdown" unicode="&#x2193;" horiz-adv-x="750" 
d="M382 2h-14l-316 315v197h8l242 -243v475h145v-475l243 243h8v-197z" />
    <glyph glyph-name="uni2196" unicode="&#x2196;" horiz-adv-x="750" 
d="M238 48l-5 -5l-140 139l1 446l10 10l446 1l140 -139l-6 -6l-344 1l337 -336l-103 -103l-336 337v-345z" />
    <glyph glyph-name="uni2197" unicode="&#x2197;" horiz-adv-x="750" 
d="M518 44l-6 6l1 344l-336 -337l-103 103l337 336h-345l-5 5l139 140l446 -1l10 -10l1 -446z" />
    <glyph glyph-name="uni2198" unicode="&#x2198;" horiz-adv-x="750" 
d="M200 68l-140 139l6 6l344 -1l-337 336l103 103l336 -337v345l5 5l140 -139l-1 -446l-10 -10z" />
    <glyph glyph-name="uni2199" unicode="&#x2199;" horiz-adv-x="750" 
d="M550 66l-446 1l-10 10l-1 446l139 140l6 -6l-1 -344l336 337l103 -103l-337 -336h345l5 -5z" />
    <glyph glyph-name="minus" unicode="&#x2212;" horiz-adv-x="575" 
d="M544 404v-109h-513v109h513z" />
    <glyph glyph-name="radical" unicode="&#x221a;" horiz-adv-x="667" 
d="M381 0h-135l-123 346h-86v109h165l112 -324l230 615h118z" />
    <glyph glyph-name="infinity" unicode="&#x221e;" horiz-adv-x="678" 
d="M496 158q-59 0 -95.5 32.5t-61.5 68.5q-30 -46 -68.5 -73.5t-93.5 -27.5q-36 0 -67 15t-53 40t-34.5 58.5t-12.5 69.5t12.5 69.5t35.5 58.5t54.5 40t68.5 15q57 0 94 -30t65 -68q32 50 71.5 74t89.5 24q36 0 67 -15t53 -40t34.5 -58.5t12.5 -69.5t-13 -69.5t-35.5 -58.5
t-54.5 -40t-69 -15zM189 255q38 0 60.5 26t37.5 54q-28 42 -47 67t-56 25q-32 0 -52.5 -26t-20.5 -60t22 -60t56 -26zM494 255q31 0 52 26t21 60t-22 60t-56 26q-36 0 -58 -22t-40 -56q25 -40 45 -67t58 -27z" />
    <glyph glyph-name="approxequal" unicode="&#x2248;" horiz-adv-x="576" 
d="M136 382l-98 16q0 44 12 73t30.5 46.5t42.5 25t48 7.5q26 0 55.5 -11t58.5 -24t55.5 -24.5t46.5 -11.5q19 0 35.5 8.5t17.5 40.5l97 -17q0 -44 -11.5 -73.5t-30.5 -47t-43 -24.5t-49 -7q-26 0 -55 11t-58 24.5t-55.5 24.5t-46.5 11q-19 1 -35.5 -8t-16.5 -40zM136 154
l-98 17q0 44 12 73t30.5 46.5t42.5 25t48 7.5q26 0 55.5 -11t58.5 -24.5t55.5 -24.5t46.5 -11q19 -1 35.5 8t17.5 40l97 -16q0 -44 -11.5 -73.5t-30.5 -47t-43 -25t-49 -7.5q-26 0 -55 11t-58 24.5t-55.5 25t-46.5 11.5q-19 0 -35.5 -9t-16.5 -40z" />
    <glyph glyph-name="notequal" unicode="&#x2260;" horiz-adv-x="549" 
d="M209 5l-117 -1l68 176h-123v101h162l46 117h-208v101h247l68 176l116 1l-68 -177h112v-101h-151l-45 -117h196v-101h-235z" />
    <glyph glyph-name="lessequal" unicode="&#x2264;" horiz-adv-x="560" 
d="M536 146l-512 175v113l512 178v-117l-375 -116l375 -112v-121zM24 116h512v-94h-512v94z" />
    <glyph glyph-name="greaterequal" unicode="&#x2265;" horiz-adv-x="560" 
d="M24 146v121l375 112l-375 116v117l512 -178v-113zM536 116v-94h-512v94h512z" />
    <glyph glyph-name="lozenge" unicode="&#x25ca;" horiz-adv-x="604" 
d="M564 373l-216 -373h-90l-218 373l217 373h91zM303 109l152 262l-153 266l-153 -263z" />
    <glyph glyph-name="commaaccent" unicode="&#xf6c3;" horiz-adv-x="500" 
d="M316 -30l-63 -172h-100l28 172h135z" />
    <glyph glyph-name="apple" unicode="&#xf8ff;" horiz-adv-x="596" 
d="M10 -101v761h576v-761h-576zM107 560v-560h170q47 0 91 20t77.5 57t53.5 89t20 115q0 62 -20.5 114t-54 88.5t-77 56.5t-90.5 20h-170zM271 17h-156v525h156q43 0 83.5 -17t72 -49.5t50.5 -81.5t19 -113q0 -65 -19 -114.5t-50.5 -82.5t-72 -50t-83.5 -17zM271 535h-149
v-510h149q41 0 80.5 16.5t69.5 49t48.5 80.5t18.5 110t-18.5 109.5t-48.5 79.5t-69.5 48.5t-80.5 16.5zM145 32v495h126q40 0 78 -16t67.5 -47t47 -77.5t17.5 -105.5q0 -60 -17.5 -106.5t-47 -78t-67.5 -48t-78 -16.5h-126z" />
    <glyph glyph-name="uniFEFF" unicode="&#xfeff;" 
 />
    <glyph glyph-name="Jacute" horiz-adv-x="362" 
d="M11 0v135q17 -9 35.5 -13.5t36.5 -4.5q37 0 61 29.5t24 118.5v481h145v-528q0 -116 -48 -175t-162 -59q-26 0 -49 3.5t-43 12.5zM425 954l-132 -147h-107l81 147h158z" />
    <glyph glyph-name="jacute" horiz-adv-x="220" 
d="M-53 -111h10q39 1 62.5 30.5t23.5 83.5v571h134v-573q0 -117 -56 -172.5t-160 -56.5h-14v117zM296 798l-132 -147h-107l81 147h158z" />
    <glyph glyph-name="I_Jacute" horiz-adv-x="605" 
d="M49 0v746h145v-746h-145zM308 954l-132 -147h-107l81 147h158zM254 0v135q17 -9 35.5 -13.5t36.5 -4.5q37 0 61 29.5t24 118.5v481h145v-528q0 -116 -48 -175t-162 -59q-26 0 -49 3.5t-43 12.5zM668 954l-132 -147h-107l81 147h158z" />
    <glyph glyph-name="c_h" horiz-adv-x="1130" 
d="M497 132v-122q-10 -7 -27 -12.5t-36.5 -9.5t-39 -5.5t-35.5 -1.5q-72 0 -134 23.5t-107 64.5t-70.5 97t-25.5 121q0 64 25.5 120t70.5 97.5t107 65t134 23.5q16 0 35.5 -1.5t38.5 -5.5t36.5 -9.5t27.5 -12.5v-122h-4q-28 23 -65.5 29.5t-68.5 6.5q-84 0 -139.5 -55
t-55.5 -136q0 -82 55.5 -136.5t139.5 -54.5q31 0 68.5 7t65.5 29h4zM700 346v-346h-135v780h129v-269q28 31 76.5 55t111.5 24q91 0 148.5 -57t57.5 -156v-377h-135v336q0 75 -37.5 105t-87.5 30q-21 0 -44 -8t-41.5 -24t-30.5 -39.5t-12 -53.5z" />
    <glyph glyph-name="c_k" horiz-adv-x="1104" 
d="M497 132v-122q-10 -7 -27 -12.5t-36.5 -9.5t-39 -5.5t-35.5 -1.5q-72 0 -134 23.5t-107 64.5t-70.5 97t-25.5 121q0 64 25.5 120t70.5 97.5t107 65t134 23.5q16 0 35.5 -1.5t38.5 -5.5t36.5 -9.5t27.5 -12.5v-122h-4q-28 23 -65.5 29.5t-68.5 6.5q-84 0 -139.5 -55
t-55.5 -136q0 -82 55.5 -136.5t139.5 -54.5q31 0 68.5 7t65.5 29h4zM938 0l-174 253l-64 -63v-190h-135v780h135v-417l214 211h174l-230 -228l244 -346h-164z" />
    <glyph glyph-name="i_jacute" horiz-adv-x="447" 
d="M181 574v-574h-135v574h135zM300 798l-132 -147h-107l81 147h158zM174 -111h10q39 1 62.5 30.5t23.5 83.5v571h134v-573q0 -117 -56 -172.5t-160 -56.5h-14v117zM523 798l-132 -147h-107l81 147h158z" />
    <glyph glyph-name="caron.vertical" orientation="v" 
d="M38 -30l-53 -172h-82l17 172h118z" />
    <glyph glyph-name="endash.salt_en" horiz-adv-x="500" 
d="M500 370v-105h-500v105h500z" />
    <glyph glyph-name="emdash.uc_salt_em" horiz-adv-x="1000" 
d="M1000 426v-105h-1000v105h1000z" />
    <glyph glyph-name="endash.uc_salt_en" horiz-adv-x="500" 
d="M500 426v-105h-500v105h500z" />
    <glyph glyph-name="registered.salt_big" horiz-adv-x="879" 
d="M440 756q83 0 154.5 -30t123.5 -82t81.5 -122t29.5 -149t-29.5 -149t-81.5 -122t-123.5 -82t-154.5 -30t-155 30t-124 82t-81.5 122t-29.5 149t29.5 149t81.5 122t124 82t155 30zM440 712q-70 0 -132 -27t-108 -72.5t-73 -107.5t-27 -132q0 -69 27 -131t73 -108t108 -73
t132 -27q69 0 131 27t108 73t73 108t27 131q0 70 -27 132t-73 107.5t-108 72.5t-131 27zM439 487h-14v-99h16q27 0 39.5 12t12.5 36q0 29 -16.5 40t-37.5 11zM510 161l-81 125h-4v-125h-113v433h127q29 0 59 -7.5t54 -25t39.5 -48.5t15.5 -77q0 -42 -18 -71t-45 -47l96 -148
l-8 -9h-122z" />
    <glyph glyph-name="acute.lc" 
d="M146 790l-132 -147h-107l81 147h158z" />
    <glyph glyph-name="grave.lc" 
d="M-143 790h161l82 -147h-111z" />
    <glyph glyph-name="hungarumlaut.lc" 
d="M122 790h143l-133 -147h-98zM-79 790h143l-133 -147h-99z" />
    <glyph glyph-name="circumflex.lc" 
d="M65 643l-68 83l-67 -83h-118l117 147h138l117 -147h-119z" />
    <glyph glyph-name="caron.lc" 
d="M67 643h-138l-117 147h117l67 -84l68 84h120z" />
    <glyph glyph-name="breve.lc" 
d="M167 793q-13 -69 -57 -112t-110 -43t-110 43t-57 112l87 3q13 -37 35.5 -56t44.5 -19t44.5 19t35.5 56z" />
    <glyph glyph-name="tilde.lc" 
d="M-113 642l-108 3q-4 46 4.5 77t26.5 50t42 27t49 8q24 0 48.5 -7.5t47 -17t42.5 -17t35 -7.5q16 0 28 10t11 38l109 -3q7 -78 -28.5 -117t-94.5 -39q-24 0 -48.5 7.5t-47.5 17t-42.5 17t-34.5 7.5q-16 0 -28 -10t-11 -44z" />
    <glyph glyph-name="macron.lc" 
d="M144 768v-100h-288v100h288z" />
    <glyph glyph-name="dieresis.lc" 
d="M170 782v-107h-121v107h121zM-49 782v-107h-121v107h121z" />
    <glyph glyph-name="dotaccent.lc" 
d="M70 752v-125h-140v125h140z" />
    <glyph glyph-name="ring.lc" 
d="M0 882q53 0 90.5 -37t37.5 -86t-37.5 -86t-90.5 -37t-90.5 37.5t-37.5 85.5t37.5 85.5t90.5 37.5zM0 821q-25 0 -43.5 -18.5t-18.5 -43.5q0 -26 18.5 -44t43.5 -18t43.5 18t18.5 44q0 25 -18.5 43.5t-43.5 18.5z" />
    <glyph glyph-name="cedilla.lc" 
d="M-29 -209q-14 0 -36 3t-41 10v65h1q19 -7 38 -10t29 -3q25 0 40 8.5t15 23.5q0 14 -18.5 23.5t-45.5 9.5h-21l-4 10l28 79h62l-13 -35q49 -7 74 -31t25 -60q0 -38 -36.5 -65.5t-96.5 -27.5z" />
    <glyph glyph-name="ogonek.lc" 
d="M51 -26q-22 -12 -29 -22t-7 -19q0 -13 8 -21t22 -8q12 0 21 4.5t14 9.5l39 -49q-16 -14 -42.5 -26.5t-65.5 -13.5q-54 0 -78.5 24.5t-24.5 56.5q0 27 16.5 49t43.5 37l35 19l106 -9z" />
    <glyph glyph-name="commaaccent.lc" 
d="M66 -30l-63 -172h-100l28 172h135z" />
    <glyph glyph-name="grave.cmb" 
d="M-143 790h161l82 -147h-111z" />
    <glyph glyph-name="hungarumlaut.cmb" 
d="M122 790h143l-133 -147h-98zM-79 790h143l-133 -147h-99z" />
    <glyph glyph-name="circumflex.cmb" 
d="M65 643l-68 83l-67 -83h-118l117 147h138l117 -147h-119z" />
    <glyph glyph-name="caron.cmb" 
d="M67 643h-138l-117 147h117l67 -84l68 84h120z" />
    <glyph glyph-name="breve.cmb" 
d="M167 793q-13 -69 -57 -112t-110 -43t-110 43t-57 112l87 3q13 -37 35.5 -56t44.5 -19t44.5 19t35.5 56z" />
    <glyph glyph-name="tilde.cmb" 
d="M-113 642l-108 3q-4 46 4.5 77t26.5 50t42 27t49 8q24 0 48.5 -7.5t47 -17t42.5 -17t35 -7.5q16 0 28 10t11 38l109 -3q7 -78 -28.5 -117t-94.5 -39q-24 0 -48.5 7.5t-47.5 17t-42.5 17t-34.5 7.5q-16 0 -28 -10t-11 -44z" />
    <glyph glyph-name="macron.cmb" 
d="M144 768v-100h-288v100h288z" />
    <glyph glyph-name="dieresis.cmb" 
d="M170 782v-107h-121v107h121zM-49 782v-107h-121v107h121z" />
    <glyph glyph-name="dotaccent.cmb" 
d="M70 730v-103h-140v103h140z" />
    <glyph glyph-name="ring.cmb" 
d="M0 882q53 0 90.5 -37t37.5 -86t-37.5 -86t-90.5 -37t-90.5 37.5t-37.5 85.5t37.5 85.5t90.5 37.5zM0 821q-25 0 -43.5 -18.5t-18.5 -43.5q0 -26 18.5 -44t43.5 -18t43.5 18t18.5 44q0 25 -18.5 43.5t-43.5 18.5z" />
    <glyph glyph-name="cedilla.cmb" 
d="M-29 -209q-14 0 -36 3t-41 10v65h1q19 -7 38 -10t29 -3q25 0 40 8.5t15 23.5q0 14 -18.5 23.5t-45.5 9.5h-21l-4 10l28 79h62l-13 -35q49 -7 74 -31t25 -60q0 -38 -36.5 -65.5t-96.5 -27.5z" />
    <glyph glyph-name="ogonek.cmb" 
d="M51 -26q-22 -12 -29 -22t-7 -19q0 -13 8 -21t22 -8q12 0 21 4.5t14 9.5l39 -49q-16 -14 -42.5 -26.5t-65.5 -13.5q-54 0 -78.5 24.5t-24.5 56.5q0 27 16.5 49t43.5 37l35 19l106 -9z" />
    <glyph glyph-name="commaaccent.cmb" 
d="M66 -30l-63 -172h-100l28 172h135z" />
    <glyph glyph-name="hyphen.uc" horiz-adv-x="404" 
d="M364 436v-125h-324v125h324z" />
    <glyph glyph-name="endash.uc" horiz-adv-x="524" 
d="M494 426v-105h-464v105h464z" />
    <glyph glyph-name="emdash.uc" horiz-adv-x="724" 
d="M694 426v-105h-664v105h664z" />
    <glyph glyph-name="parenleft.uc" horiz-adv-x="399" 
d="M287 847l76 -79q-25 -25 -52 -64.5t-49 -90.5t-36.5 -112.5t-14.5 -130.5v-14q0 -68 14 -130t36.5 -113t49.5 -90.5t52 -63.5l-76 -79q-34 27 -71 71.5t-67.5 104t-50.5 135t-20 163.5v18q0 88 20 163t50.5 134.5t67.5 104t71 73.5z" />
    <glyph glyph-name="parenright.uc" horiz-adv-x="417" 
d="M130 847q34 -29 70.5 -73.5t67 -104t50.5 -134.5t20 -163v-18q0 -88 -20 -163.5t-50.5 -135t-67.5 -104t-71 -71.5l-75 79q25 24 52 63.5t49 90.5t36 113t14 130v14q0 69 -14.5 130.5t-36.5 112.5t-48.5 90.5t-51.5 64.5z" />
    <glyph glyph-name="bracketleft.uc" horiz-adv-x="415" 
d="M111 -122v960h261v-85h-127v-790h135v-85h-269z" />
    <glyph glyph-name="bracketright.uc" horiz-adv-x="415" 
d="M304 -122h-269v85h135v790h-127v85h261v-960z" />
    <glyph glyph-name="braceleft.uc" horiz-adv-x="431" 
d="M367 -122h-88q-63 0 -100 28.5t-37 109.5v199q0 46 -15.5 68.5t-40.5 29.5q-1 0 -4 1t-4 1v84q1 0 4 1t4 1q25 7 40.5 29.5t15.5 67.5v202q0 81 37 109.5t100 28.5h88v-85h-33q-29 0 -43.5 -16t-14.5 -69v-168q0 -47 -19.5 -81t-62.5 -53v-18q43 -18 62.5 -50.5
t19.5 -80.5v-177q0 -53 14.5 -65t43.5 -12h33v-85z" />
    <glyph glyph-name="braceright.uc" horiz-adv-x="431" 
d="M153 -122h-89v78h34q29 0 43 11.5t14 65.5v184q0 48 19.5 80.5t62.5 50.5v19q-43 18 -62.5 52t-19.5 81v176q0 53 -14 68.5t-43 15.5h-34v78h89q63 0 99.5 -28.5t36.5 -109.5v-202q0 -45 15.5 -67.5t40.5 -29.5q1 0 4 -1t4 -1v-84l-3.5 -1t-4.5 -1q-25 -7 -40.5 -29.5
t-15.5 -68.5v-199q0 -81 -36.5 -109.5t-99.5 -28.5z" />
    <glyph glyph-name="guilsinglleft.uc" horiz-adv-x="390" 
d="M343 46h-115l-185 285v3l185 286h116l-186 -286z" />
    <glyph glyph-name="guilsinglright.uc" horiz-adv-x="390" 
d="M162 46h-115l185 289l-184 285h114l185 -286v-3z" />
    <glyph glyph-name="guillemotleft.uc" horiz-adv-x="595" 
d="M548 46h-115l-185 285v3l185 286h116l-186 -286zM343 46h-115l-185 285v3l185 286h116l-186 -286z" />
    <glyph glyph-name="guillemotright.uc" horiz-adv-x="595" 
d="M367 46h-115l185 289l-184 285h114l185 -286v-3zM162 46h-115l185 289l-184 285h114l185 -286v-3z" />
    <glyph glyph-name="colon.uc" horiz-adv-x="258" 
d="M55 622h149v-153h-149v153zM55 253h149v-153h-149v153z" />
    <glyph glyph-name="semicolon.uc" horiz-adv-x="290" 
d="M79 622h149v-153h-149v153zM79 222h151l-91 -272h-108z" />
    <glyph glyph-name="plus.uc" horiz-adv-x="622" 
d="M584 320h-211v-232h-124v232h-211v109h211v214h124v-214h211v-109z" />
    <glyph glyph-name="minus.uc" horiz-adv-x="575" 
d="M544 427v-109h-513v109h513z" />
    <glyph glyph-name="divide.uc" horiz-adv-x="599" 
d="M236 514v131h127v-131h-127zM563 427v-109h-528v109h528zM236 100v131h127v-131h-127z" />
    <glyph glyph-name="multiply.uc" horiz-adv-x="552" 
d="M446 116l-175 175l-168 -168l-74 75l168 168l-164 164l77 76l164 -164l155 155l75 -74l-156 -155l175 -175z" />
    <glyph glyph-name="equal.uc" horiz-adv-x="553" 
d="M517 522v-101h-480v101h480zM517 304v-101h-480v101h480z" />
    <glyph glyph-name="zero.dnom" horiz-adv-x="429" 
d="M215 482q81 0 134.5 -58.5t53.5 -174.5v-32q0 -114 -53.5 -173t-134.5 -59t-135 59t-54 173v32q0 116 54 174.5t135 58.5zM296 217v32q0 73 -22.5 108t-58.5 35q-35 0 -59 -35t-24 -108v-32q0 -72 24 -107t59 -35t58 35t23 107z" />
    <glyph glyph-name="one.dnom" horiz-adv-x="252" 
d="M213 0h-106v316l-84 -82v136l107 97h83v-467z" />
    <glyph glyph-name="two.dnom" horiz-adv-x="374" 
d="M328 0h-314l-7 15q11 14 37.5 47.5t55.5 70.5t55 69.5t36 45.5q17 22 26 38.5t9 40.5q0 26 -20 46t-56 20q-23 0 -48 -8.5t-52 -30.5l1 104q26 13 55.5 18.5t57.5 5.5q79 -1 126.5 -43.5t47.5 -105.5q-1 -49 -21.5 -77t-41.5 -55q-13 -16 -40.5 -48.5t-55.5 -63.5h185z
" />
    <glyph glyph-name="three.dnom" horiz-adv-x="335" 
d="M135 -15q-12 0 -28.5 1t-33.5 3.5t-33.5 7t-28.5 11.5v90q16 -13 46.5 -18t45.5 -5q51 -1 82 17t31 49q0 29 -29 46t-74 17h-31l3 89h28q34 0 57 15t23 39q0 22 -20.5 33.5t-54.5 11.5q-15 0 -39 -3t-43 -13l6 94q18 6 40.5 9t56.5 3q69 1 114.5 -34t45.5 -86
q-1 -31 -18 -59t-45 -45q38 -16 62 -48.5t24 -73.5q0 -65 -52 -108.5t-135 -42.5z" />
    <glyph glyph-name="four.dnom" horiz-adv-x="392" 
d="M227 167v124l-82 -124h82zM367 78h-34v-78h-106v78h-216l-9 20l247 369h84v-300h58z" />
    <glyph glyph-name="five.dnom" horiz-adv-x="380" 
d="M140 -15q-28 0 -63.5 6t-61.5 22v92q25 -16 56 -23.5t68 -7.5q41 0 70.5 22t29.5 59q0 28 -29 48t-80 20q-24 0 -48 -3.5t-45 -10.5l64 258h266l-27 -89h-169l-19 -66h8.5h8.5q87 0 134 -44t47 -113q0 -72 -56.5 -121t-153.5 -49z" />
    <glyph glyph-name="six.dnom" horiz-adv-x="392" 
d="M198 -15q-80 0 -133.5 45t-53.5 124q0 39 15.5 79.5t40.5 80t56.5 78t63.5 75.5h132q-38 -40 -75 -82.5t-65 -82.5l2 -1q12 5 25 7.5t27 2.5q63 0 107 -45.5t44 -110.5q0 -35 -13.5 -66t-38 -54t-59 -36.5t-75.5 -13.5zM198 230q-33 0 -57 -22.5t-24 -56.5q0 -31 24 -54
t57 -23t56.5 23t23.5 54q0 34 -23.5 56.5t-56.5 22.5z" />
    <glyph glyph-name="seven.dnom" horiz-adv-x="373" 
d="M172 0h-118l166 378h-207l26 89h333z" />
    <glyph glyph-name="eight.dnom" horiz-adv-x="374" 
d="M187 -15q-85 0 -133 43.5t-48 109.5q0 37 19 66.5t53 48.5q-25 16 -38 41t-13 55q0 54 42.5 93.5t117.5 39.5q77 0 118.5 -39.5t41.5 -93.5q0 -30 -13 -55t-38 -42q34 -18 53 -47.5t19 -66.5q0 -66 -48.5 -109.5t-132.5 -43.5zM187 282q23 0 40.5 16.5t17.5 43.5
q0 22 -17 36.5t-41 14.5t-41.5 -14.5t-17.5 -36.5q0 -26 17 -43t42 -17zM187 74q33 0 56 20t23 51q0 30 -23 48.5t-56 18.5q-32 0 -55.5 -18.5t-23.5 -48.5q0 -31 23.5 -51t55.5 -20z" />
    <glyph glyph-name="nine.dnom" horiz-adv-x="392" 
d="M206 -1h-132q38 40 74.5 82.5t64.5 82.5l-2 1q-11 -5 -24.5 -7.5t-26.5 -2.5q-64 0 -108 45.5t-44 110.5q0 70 52 120t135 50q79 0 132.5 -44.5t53.5 -124.5q0 -39 -15.5 -79.5t-40 -80t-56 -78t-63.5 -75.5zM195 236q32 0 56 23t24 56q0 31 -24 54t-56 23
q-34 0 -57.5 -23t-23.5 -54q0 -33 23.5 -56t57.5 -23z" />
    <glyph glyph-name="zero.numr" horiz-adv-x="429" 
d="M215 761q81 0 134.5 -58.5t53.5 -174.5v-32q0 -114 -53.5 -173t-134.5 -59t-135 59t-54 173v32q0 116 54 174.5t135 58.5zM296 496v32q0 73 -22.5 108t-58.5 35q-35 0 -59 -35t-24 -108v-32q0 -72 24 -107t59 -35t58 35t23 107z" />
    <glyph glyph-name="one.numr" horiz-adv-x="252" 
d="M213 279h-106v316l-84 -82v136l107 97h83v-467z" />
    <glyph glyph-name="two.numr" horiz-adv-x="374" 
d="M328 279h-314l-7 15q11 14 37.5 47.5t55.5 70.5t55 69.5t36 45.5q17 22 26 38.5t9 40.5q0 26 -20 46t-56 20q-23 0 -48 -8.5t-52 -30.5l1 104q26 13 55.5 18.5t57.5 5.5q79 -1 126.5 -43.5t47.5 -105.5q-1 -49 -21.5 -77t-41.5 -55q-13 -16 -40.5 -48.5t-55.5 -63.5h185z
" />
    <glyph glyph-name="three.numr" horiz-adv-x="335" 
d="M135 264q-12 0 -28.5 1t-33.5 3.5t-33.5 7t-28.5 11.5v90q16 -13 46.5 -18t45.5 -5q51 -1 82 17t31 49q0 29 -29 46t-74 17h-31l3 89h28q34 0 57 15t23 39q0 22 -20.5 33.5t-54.5 11.5q-15 0 -39 -3t-43 -13l6 94q18 6 40.5 9t56.5 3q69 1 114.5 -34t45.5 -86
q-1 -31 -18 -59t-45 -45q38 -16 62 -48.5t24 -73.5q0 -65 -52 -108.5t-135 -42.5z" />
    <glyph glyph-name="four.numr" horiz-adv-x="392" 
d="M227 446v124l-82 -124h82zM367 357h-34v-78h-106v78h-216l-9 20l247 369h84v-300h58z" />
    <glyph glyph-name="five.numr" horiz-adv-x="380" 
d="M140 264q-28 0 -63.5 6t-61.5 22v92q25 -16 56 -23.5t68 -7.5q41 0 70.5 22t29.5 59q0 28 -29 48t-80 20q-24 0 -48 -3.5t-45 -10.5l64 258h266l-27 -89h-169l-19 -66h8.5h8.5q87 0 134 -44t47 -113q0 -72 -56.5 -121t-153.5 -49z" />
    <glyph glyph-name="six.numr" horiz-adv-x="392" 
d="M198 264q-80 0 -133.5 45t-53.5 124q0 39 15.5 79.5t40.5 80t56.5 78t63.5 75.5h132q-38 -40 -75 -82.5t-65 -82.5l2 -1q12 5 25 7.5t27 2.5q63 0 107 -45.5t44 -110.5q0 -35 -13.5 -66t-38 -54t-59 -36.5t-75.5 -13.5zM198 509q-33 0 -57 -22.5t-24 -56.5q0 -31 24 -54
t57 -23t56.5 23t23.5 54q0 34 -23.5 56.5t-56.5 22.5z" />
    <glyph glyph-name="seven.numr" horiz-adv-x="373" 
d="M172 279h-118l166 378h-207l26 89h333z" />
    <glyph glyph-name="eight.numr" horiz-adv-x="374" 
d="M187 264q-85 0 -133 43.5t-48 109.5q0 37 19 66.5t53 48.5q-25 16 -38 41t-13 55q0 54 42.5 93.5t117.5 39.5q77 0 118.5 -39.5t41.5 -93.5q0 -30 -13 -55t-38 -42q34 -18 53 -47.5t19 -66.5q0 -66 -48.5 -109.5t-132.5 -43.5zM187 561q23 0 40.5 16.5t17.5 43.5
q0 22 -17 36.5t-41 14.5t-41.5 -14.5t-17.5 -36.5q0 -26 17 -43t42 -17zM187 353q33 0 56 20t23 51q0 30 -23 48.5t-56 18.5q-32 0 -55.5 -18.5t-23.5 -48.5q0 -31 23.5 -51t55.5 -20z" />
    <glyph glyph-name="nine.numr" horiz-adv-x="392" 
d="M206 278h-132q38 40 74.5 82.5t64.5 82.5l-2 1q-11 -5 -24.5 -7.5t-26.5 -2.5q-64 0 -108 45.5t-44 110.5q0 70 52 120t135 50q79 0 132.5 -44.5t53.5 -124.5q0 -39 -15.5 -79.5t-40 -80t-56 -78t-63.5 -75.5zM195 515q32 0 56 23t24 56q0 31 -24 54t-56 23
q-34 0 -57.5 -23t-23.5 -54q0 -33 23.5 -56t57.5 -23z" />
    <glyph glyph-name="zero.salt_slash" horiz-adv-x="648" 
d="M324 770q61 0 113 -23.5t89.5 -70t58.5 -116.5t21 -162v-52q0 -91 -21.5 -160.5t-59 -116t-89.5 -70t-112 -23.5t-112 23.5t-89.5 70t-59 116t-21.5 160.5v52q0 92 21.5 162t59 116.5t89.5 70t112 23.5zM324 655q-13 0 -26 -3t-25 -8l177 -445q10 28 15 65t5 82v52
q0 131 -40.5 194t-105.5 63zM324 91q13 0 26.5 3t25.5 8l-178 445q-10 -29 -15.5 -66t-5.5 -83v-52q0 -130 42 -192.5t105 -62.5z" />
    <glyph glyph-name="C.salt_low" horiz-adv-x="677" 
d="M657 703l-65 -110q-34 22 -75.5 33t-86.5 11q-59 0 -107.5 -21.5t-82 -57t-52 -83.5t-18.5 -100q0 -53 18.5 -101.5t52 -85t82 -58t107.5 -21.5q45 0 86.5 11t75.5 33l65 -110q-58 -36 -113.5 -51.5t-116.5 -15.5q-91 0 -165.5 31.5t-127 85t-81.5 126.5t-29 155
t29 154.5t81.5 126t127 84.5t165.5 31q61 0 115.5 -15t114.5 -52z" />
    <glyph glyph-name="Ccedilla.salt_low" horiz-adv-x="677" 
d="M657 703l-65 -110q-34 22 -75.5 33t-86.5 11q-59 0 -107.5 -21.5t-82 -57t-52 -83.5t-18.5 -100q0 -53 18.5 -101.5t52 -85t82 -58t107.5 -21.5q45 0 86.5 11t75.5 33l65 -110q-58 -36 -113.5 -51.5t-116.5 -15.5q-91 0 -165.5 31.5t-127 85t-81.5 126.5t-29 155
t29 154.5t81.5 126t127 84.5t165.5 31q61 0 115.5 -15t114.5 -52zM393 -233q-14 0 -36 3t-41 10v65h1q19 -7 38 -10t29 -3q25 0 40 8.5t15 23.5q0 14 -18.5 23.5t-45.5 9.5h-21l-4 10l28 79h62l-13 -35q49 -7 74 -31t25 -60q0 -38 -36.5 -65.5t-96.5 -27.5z" />
    <glyph glyph-name="Cacute.salt_low" horiz-adv-x="677" 
d="M657 703l-65 -110q-34 22 -75.5 33t-86.5 11q-59 0 -107.5 -21.5t-82 -57t-52 -83.5t-18.5 -100q0 -53 18.5 -101.5t52 -85t82 -58t107.5 -21.5q45 0 86.5 11t75.5 33l65 -110q-58 -36 -113.5 -51.5t-116.5 -15.5q-91 0 -165.5 31.5t-127 85t-81.5 126.5t-29 155
t29 154.5t81.5 126t127 84.5t165.5 31q61 0 115.5 -15t114.5 -52zM603 954l-132 -147h-107l81 147h158z" />
    <glyph glyph-name="Ccircumflex.salt_low" horiz-adv-x="677" 
d="M657 703l-65 -110q-34 22 -75.5 33t-86.5 11q-59 0 -107.5 -21.5t-82 -57t-52 -83.5t-18.5 -100q0 -53 18.5 -101.5t52 -85t82 -58t107.5 -21.5q45 0 86.5 11t75.5 33l65 -110q-58 -36 -113.5 -51.5t-116.5 -15.5q-91 0 -165.5 31.5t-127 85t-81.5 126.5t-29 155
t29 154.5t81.5 126t127 84.5t165.5 31q61 0 115.5 -15t114.5 -52zM485 807l-68 83l-67 -83h-118l117 147h138l117 -147h-119z" />
    <glyph glyph-name="Cdotaccent.salt_low" horiz-adv-x="677" 
d="M657 703l-65 -110q-34 22 -75.5 33t-86.5 11q-59 0 -107.5 -21.5t-82 -57t-52 -83.5t-18.5 -100q0 -53 18.5 -101.5t52 -85t82 -58t107.5 -21.5q45 0 86.5 11t75.5 33l65 -110q-58 -36 -113.5 -51.5t-116.5 -15.5q-91 0 -165.5 31.5t-127 85t-81.5 126.5t-29 155
t29 154.5t81.5 126t127 84.5t165.5 31q61 0 115.5 -15t114.5 -52zM487 910v-103h-140v103h140z" />
    <glyph glyph-name="Ccaron.salt_low" horiz-adv-x="677" 
d="M657 703l-65 -110q-34 22 -75.5 33t-86.5 11q-59 0 -107.5 -21.5t-82 -57t-52 -83.5t-18.5 -100q0 -53 18.5 -101.5t52 -85t82 -58t107.5 -21.5q45 0 86.5 11t75.5 33l65 -110q-58 -36 -113.5 -51.5t-116.5 -15.5q-91 0 -165.5 31.5t-127 85t-81.5 126.5t-29 155
t29 154.5t81.5 126t127 84.5t165.5 31q61 0 115.5 -15t114.5 -52zM488 807h-138l-117 147h117l67 -84l68 84h120z" />
    <glyph glyph-name="S.salt_low" horiz-adv-x="475" 
d="M437 714l-57 -120q-25 20 -56.5 32t-59.5 12q-46 0 -66 -16.5t-20 -44.5q0 -32 29.5 -59.5t87.5 -81.5q86 -78 121 -136t35 -111q0 -87 -67.5 -144t-177.5 -57q-21 0 -47.5 4t-53 11t-53 17t-47.5 22l57 120q35 -21 72.5 -36t80.5 -15q45 0 68 22t23 50q0 33 -25 64.5
t-82 83.5q-44 40 -75.5 71t-51.5 58.5t-29.5 55t-9.5 60.5q0 35 13.5 68.5t42.5 59.5t75 41.5t110 15.5q41 0 85 -14t78 -33z" />
    <glyph glyph-name="Sacute.salt_low" horiz-adv-x="475" 
d="M437 714l-57 -120q-25 20 -56.5 32t-59.5 12q-46 0 -66 -16.5t-20 -44.5q0 -32 29.5 -59.5t87.5 -81.5q86 -78 121 -136t35 -111q0 -87 -67.5 -144t-177.5 -57q-21 0 -47.5 4t-53 11t-53 17t-47.5 22l57 120q35 -21 72.5 -36t80.5 -15q45 0 68 22t23 50q0 33 -25 64.5
t-82 83.5q-44 40 -75.5 71t-51.5 58.5t-29.5 55t-9.5 60.5q0 35 13.5 68.5t42.5 59.5t75 41.5t110 15.5q41 0 85 -14t78 -33zM450 954l-132 -147h-107l81 147h158z" />
    <glyph glyph-name="Scircumflex.salt_low" horiz-adv-x="475" 
d="M437 714l-57 -120q-25 20 -56.5 32t-59.5 12q-46 0 -66 -16.5t-20 -44.5q0 -32 29.5 -59.5t87.5 -81.5q86 -78 121 -136t35 -111q0 -87 -67.5 -144t-177.5 -57q-21 0 -47.5 4t-53 11t-53 17t-47.5 22l57 120q35 -21 72.5 -36t80.5 -15q45 0 68 22t23 50q0 33 -25 64.5
t-82 83.5q-44 40 -75.5 71t-51.5 58.5t-29.5 55t-9.5 60.5q0 35 13.5 68.5t42.5 59.5t75 41.5t110 15.5q41 0 85 -14t78 -33zM332 807l-68 83l-67 -83h-118l117 147h138l117 -147h-119z" />
    <glyph glyph-name="Scedilla.salt_low" horiz-adv-x="475" 
d="M437 714l-57 -120q-25 20 -56.5 32t-59.5 12q-46 0 -66 -16.5t-20 -44.5q0 -32 29.5 -59.5t87.5 -81.5q86 -78 121 -136t35 -111q0 -87 -67.5 -144t-177.5 -57q-21 0 -47.5 4t-53 11t-53 17t-47.5 22l57 120q35 -21 72.5 -36t80.5 -15q45 0 68 22t23 50q0 33 -25 64.5
t-82 83.5q-44 40 -75.5 71t-51.5 58.5t-29.5 55t-9.5 60.5q0 35 13.5 68.5t42.5 59.5t75 41.5t110 15.5q41 0 85 -14t78 -33zM182 -221q-14 0 -36 3t-41 10v65h1q19 -7 38 -10t29 -3q25 0 40 8.5t15 23.5q0 14 -18.5 23.5t-45.5 9.5h-21l-4 10l28 79h62l-13 -35
q49 -7 74 -31t25 -60q0 -38 -36.5 -65.5t-96.5 -27.5z" />
    <glyph glyph-name="Scaron.salt_low" horiz-adv-x="475" 
d="M437 714l-57 -120q-25 20 -56.5 32t-59.5 12q-46 0 -66 -16.5t-20 -44.5q0 -32 29.5 -59.5t87.5 -81.5q86 -78 121 -136t35 -111q0 -87 -67.5 -144t-177.5 -57q-21 0 -47.5 4t-53 11t-53 17t-47.5 22l57 120q35 -21 72.5 -36t80.5 -15q45 0 68 22t23 50q0 33 -25 64.5
t-82 83.5q-44 40 -75.5 71t-51.5 58.5t-29.5 55t-9.5 60.5q0 35 13.5 68.5t42.5 59.5t75 41.5t110 15.5q41 0 85 -14t78 -33zM335 807h-138l-117 147h117l67 -84l68 84h120z" />
    <glyph glyph-name="Scommaaccent.salt_low" horiz-adv-x="475" 
d="M437 714l-57 -120q-25 20 -56.5 32t-59.5 12q-46 0 -66 -16.5t-20 -44.5q0 -32 29.5 -59.5t87.5 -81.5q86 -78 121 -136t35 -111q0 -87 -67.5 -144t-177.5 -57q-21 0 -47.5 4t-53 11t-53 17t-47.5 22l57 120q35 -21 72.5 -36t80.5 -15q45 0 68 22t23 50q0 33 -25 64.5
t-82 83.5q-44 40 -75.5 71t-51.5 58.5t-29.5 55t-9.5 60.5q0 35 13.5 68.5t42.5 59.5t75 41.5t110 15.5q41 0 85 -14t78 -33zM272 -56l-63 -172h-100l28 172h135z" />
    <glyph glyph-name="a.salt_low" horiz-adv-x="543" 
d="M261 65q45 0 74.5 31.5t29.5 77.5q0 41 -28.5 71t-75.5 30q-46 0 -74 -30t-28 -71q0 -45 28 -77t74 -32zM376 0v49q-28 -29 -70.5 -49t-98.5 -20q-80 0 -134.5 53.5t-54.5 136.5q0 39 14.5 74t41.5 60.5t66 40.5t87 15q43 0 77.5 -10.5t59.5 -27.5v25q0 75 -30.5 102.5
t-91.5 26.5q-29 0 -59 -4t-74 -12l-26 108q60 14 98.5 18t76.5 4q123 0 182 -54.5t59 -147.5v-388h-123z" />
    <glyph glyph-name="agrave.salt_low" horiz-adv-x="543" 
d="M261 65q45 0 74.5 31.5t29.5 77.5q0 41 -28.5 71t-75.5 30q-46 0 -74 -30t-28 -71q0 -45 28 -77t74 -32zM376 0v49q-28 -29 -70.5 -49t-98.5 -20q-80 0 -134.5 53.5t-54.5 136.5q0 39 14.5 74t41.5 60.5t66 40.5t87 15q43 0 77.5 -10.5t59.5 -27.5v25q0 75 -30.5 102.5
t-91.5 26.5q-29 0 -59 -4t-74 -12l-26 108q60 14 98.5 18t76.5 4q123 0 182 -54.5t59 -147.5v-388h-123zM80 798h161l82 -147h-111z" />
    <glyph glyph-name="aacute.salt_low" horiz-adv-x="543" 
d="M261 65q45 0 74.5 31.5t29.5 77.5q0 41 -28.5 71t-75.5 30q-46 0 -74 -30t-28 -71q0 -45 28 -77t74 -32zM376 0v49q-28 -29 -70.5 -49t-98.5 -20q-80 0 -134.5 53.5t-54.5 136.5q0 39 14.5 74t41.5 60.5t66 40.5t87 15q43 0 77.5 -10.5t59.5 -27.5v25q0 75 -30.5 102.5
t-91.5 26.5q-29 0 -59 -4t-74 -12l-26 108q60 14 98.5 18t76.5 4q123 0 182 -54.5t59 -147.5v-388h-123zM457 798l-132 -147h-107l81 147h158z" />
    <glyph glyph-name="acircumflex.salt_low" horiz-adv-x="543" 
d="M261 65q45 0 74.5 31.5t29.5 77.5q0 41 -28.5 71t-75.5 30q-46 0 -74 -30t-28 -71q0 -45 28 -77t74 -32zM376 0v49q-28 -29 -70.5 -49t-98.5 -20q-80 0 -134.5 53.5t-54.5 136.5q0 39 14.5 74t41.5 60.5t66 40.5t87 15q43 0 77.5 -10.5t59.5 -27.5v25q0 75 -30.5 102.5
t-91.5 26.5q-29 0 -59 -4t-74 -12l-26 108q60 14 98.5 18t76.5 4q123 0 182 -54.5t59 -147.5v-388h-123zM339 651l-68 83l-67 -83h-118l117 147h138l117 -147h-119z" />
    <glyph glyph-name="atilde.salt_low" horiz-adv-x="543" 
d="M261 65q45 0 74.5 31.5t29.5 77.5q0 41 -28.5 71t-75.5 30q-46 0 -74 -30t-28 -71q0 -45 28 -77t74 -32zM376 0v49q-28 -29 -70.5 -49t-98.5 -20q-80 0 -134.5 53.5t-54.5 136.5q0 39 14.5 74t41.5 60.5t66 40.5t87 15q43 0 77.5 -10.5t59.5 -27.5v25q0 75 -30.5 102.5
t-91.5 26.5q-29 0 -59 -4t-74 -12l-26 108q60 14 98.5 18t76.5 4q123 0 182 -54.5t59 -147.5v-388h-123zM158 651l-108 3q-4 46 4.5 77t26.5 50t42 27t49 8q24 0 48.5 -7.5t47 -17t42.5 -17t35 -7.5q16 0 28 10t11 38l109 -3q7 -78 -28.5 -117t-94.5 -39q-24 0 -48.5 7.5
t-47.5 17t-42.5 17t-34.5 7.5q-16 0 -28 -10t-11 -44z" />
    <glyph glyph-name="adieresis.salt_low" horiz-adv-x="543" 
d="M261 65q45 0 74.5 31.5t29.5 77.5q0 41 -28.5 71t-75.5 30q-46 0 -74 -30t-28 -71q0 -45 28 -77t74 -32zM376 0v49q-28 -29 -70.5 -49t-98.5 -20q-80 0 -134.5 53.5t-54.5 136.5q0 39 14.5 74t41.5 60.5t66 40.5t87 15q43 0 77.5 -10.5t59.5 -27.5v25q0 75 -30.5 102.5
t-91.5 26.5q-29 0 -59 -4t-74 -12l-26 108q60 14 98.5 18t76.5 4q123 0 182 -54.5t59 -147.5v-388h-123zM441 758v-107h-121v107h121zM222 758v-107h-121v107h121z" />
    <glyph glyph-name="aring.salt_low" horiz-adv-x="543" 
d="M261 65q45 0 74.5 31.5t29.5 77.5q0 41 -28.5 71t-75.5 30q-46 0 -74 -30t-28 -71q0 -45 28 -77t74 -32zM376 0v49q-28 -29 -70.5 -49t-98.5 -20q-80 0 -134.5 53.5t-54.5 136.5q0 39 14.5 74t41.5 60.5t66 40.5t87 15q43 0 77.5 -10.5t59.5 -27.5v25q0 75 -30.5 102.5
t-91.5 26.5q-29 0 -59 -4t-74 -12l-26 108q60 14 98.5 18t76.5 4q123 0 182 -54.5t59 -147.5v-388h-123zM271 892q53 0 90.5 -37t37.5 -86t-37.5 -86t-90.5 -37t-90.5 37.5t-37.5 85.5t37.5 85.5t90.5 37.5zM271 831q-25 0 -43.5 -18.5t-18.5 -43.5q0 -26 18.5 -44t43.5 -18
t43.5 18t18.5 44q0 25 -18.5 43.5t-43.5 18.5z" />
    <glyph glyph-name="amacron.salt_low" horiz-adv-x="543" 
d="M261 65q45 0 74.5 31.5t29.5 77.5q0 41 -28.5 71t-75.5 30q-46 0 -74 -30t-28 -71q0 -45 28 -77t74 -32zM376 0v49q-28 -29 -70.5 -49t-98.5 -20q-80 0 -134.5 53.5t-54.5 136.5q0 39 14.5 74t41.5 60.5t66 40.5t87 15q43 0 77.5 -10.5t59.5 -27.5v25q0 75 -30.5 102.5
t-91.5 26.5q-29 0 -59 -4t-74 -12l-26 108q60 14 98.5 18t76.5 4q123 0 182 -54.5t59 -147.5v-388h-123zM415 751v-100h-288v100h288z" />
    <glyph glyph-name="abreve.salt_low" horiz-adv-x="543" 
d="M261 65q45 0 74.5 31.5t29.5 77.5q0 41 -28.5 71t-75.5 30q-46 0 -74 -30t-28 -71q0 -45 28 -77t74 -32zM376 0v49q-28 -29 -70.5 -49t-98.5 -20q-80 0 -134.5 53.5t-54.5 136.5q0 39 14.5 74t41.5 60.5t66 40.5t87 15q43 0 77.5 -10.5t59.5 -27.5v25q0 75 -30.5 102.5
t-91.5 26.5q-29 0 -59 -4t-74 -12l-26 108q60 14 98.5 18t76.5 4q123 0 182 -54.5t59 -147.5v-388h-123zM438 801q-13 -69 -57 -112t-110 -43t-110 43t-57 112l87 3q13 -37 35.5 -56t44.5 -19t44.5 19t35.5 56z" />
    <glyph glyph-name="aogonek.salt_low" horiz-adv-x="543" 
d="M261 65q45 0 74.5 31.5t29.5 77.5q0 41 -28.5 71t-75.5 30q-46 0 -74 -30t-28 -71q0 -45 28 -77t74 -32zM509 -137q-16 -14 -42.5 -26.5t-65.5 -13.5q-54 0 -78.5 24.5t-24.5 56.5q0 27 16.5 49t43.5 37l18 10v49q-28 -29 -70.5 -49t-98.5 -20q-80 0 -134.5 53.5
t-54.5 136.5q0 39 14.5 74t41.5 60.5t66 40.5t87 15q43 0 77.5 -10.5t59.5 -27.5v25q0 75 -30.5 102.5t-91.5 26.5q-29 0 -59 -4t-74 -12l-26 108q60 14 98.5 18t76.5 4q123 0 182 -54.5t59 -147.5v-388l-58 -32q-22 -12 -29 -22t-7 -19q0 -13 8 -21t22 -8q12 0 21 4.5
t14 9.5z" />
    <glyph glyph-name="aringacute.salt_low" horiz-adv-x="543" 
d="M261 65q45 0 74.5 31.5t29.5 77.5q0 41 -28.5 71t-75.5 30q-46 0 -74 -30t-28 -71q0 -45 28 -77t74 -32zM376 0v49q-28 -29 -70.5 -49t-98.5 -20q-80 0 -134.5 53.5t-54.5 136.5q0 39 14.5 74t41.5 60.5t66 40.5t87 15q43 0 77.5 -10.5t59.5 -27.5v25q0 75 -30.5 102.5
t-91.5 26.5q-29 0 -59 -4t-74 -12l-26 108q60 14 98.5 18t76.5 4q123 0 182 -54.5t59 -147.5v-388h-123zM271 892q53 0 90.5 -37t37.5 -86t-37.5 -86t-90.5 -37t-90.5 37.5t-37.5 85.5t37.5 85.5t90.5 37.5zM271 831q-25 0 -43.5 -18.5t-18.5 -43.5q0 -26 18.5 -44t43.5 -18
t43.5 18t18.5 44q0 25 -18.5 43.5t-43.5 18.5zM457 1062l-132 -147h-107l81 147h158z" />
    <glyph glyph-name="c.salt_low" horiz-adv-x="547" 
d="M487 130l53 -98q-31 -23 -80.5 -38t-105.5 -15q-71 0 -132 23.5t-105 64.5t-69.5 97t-25.5 121q0 64 25.5 120t69.5 97.5t105 65t132 23.5q56 0 105.5 -15t80.5 -38l-53 -98h-4q-28 22 -63.5 29t-65.5 7q-82 0 -136 -55t-54 -136q0 -82 54 -136.5t136 -54.5q30 0 65.5 7
t63.5 29h4z" />
    <glyph glyph-name="ccedilla.salt_low" horiz-adv-x="547" 
d="M487 130l53 -98q-31 -23 -80.5 -38t-105.5 -15q-71 0 -132 23.5t-105 64.5t-69.5 97t-25.5 121q0 64 25.5 120t69.5 97.5t105 65t132 23.5q56 0 105.5 -15t80.5 -38l-53 -98h-4q-28 22 -63.5 29t-65.5 7q-82 0 -136 -55t-54 -136q0 -82 54 -136.5t136 -54.5q30 0 65.5 7
t63.5 29h4zM305 -228q-14 0 -36 3t-41 10v65h1q19 -7 38 -10t29 -3q25 0 40 8.5t15 23.5q0 14 -18.5 23.5t-45.5 9.5h-21l-4 10l28 79h62l-13 -35q49 -7 74 -31t25 -60q0 -38 -36.5 -65.5t-96.5 -27.5z" />
    <glyph glyph-name="cacute.salt_low" horiz-adv-x="547" 
d="M487 130l53 -98q-31 -23 -80.5 -38t-105.5 -15q-71 0 -132 23.5t-105 64.5t-69.5 97t-25.5 121q0 64 25.5 120t69.5 97.5t105 65t132 23.5q56 0 105.5 -15t80.5 -38l-53 -98h-4q-28 22 -63.5 29t-65.5 7q-82 0 -136 -55t-54 -136q0 -82 54 -136.5t136 -54.5q30 0 65.5 7
t63.5 29h4zM525 798l-132 -147h-107l81 147h158z" />
    <glyph glyph-name="ccircumflex.salt_low" horiz-adv-x="547" 
d="M487 130l53 -98q-31 -23 -80.5 -38t-105.5 -15q-71 0 -132 23.5t-105 64.5t-69.5 97t-25.5 121q0 64 25.5 120t69.5 97.5t105 65t132 23.5q56 0 105.5 -15t80.5 -38l-53 -98h-4q-28 22 -63.5 29t-65.5 7q-82 0 -136 -55t-54 -136q0 -82 54 -136.5t136 -54.5q30 0 65.5 7
t63.5 29h4zM407 651l-68 83l-67 -83h-118l117 147h138l117 -147h-119z" />
    <glyph glyph-name="cdotaccent.salt_low" horiz-adv-x="547" 
d="M487 130l53 -98q-31 -23 -80.5 -38t-105.5 -15q-71 0 -132 23.5t-105 64.5t-69.5 97t-25.5 121q0 64 25.5 120t69.5 97.5t105 65t132 23.5q56 0 105.5 -15t80.5 -38l-53 -98h-4q-28 22 -63.5 29t-65.5 7q-82 0 -136 -55t-54 -136q0 -82 54 -136.5t136 -54.5q30 0 65.5 7
t63.5 29h4zM409 780v-125h-140v125h140z" />
    <glyph glyph-name="ccaron.salt_low" horiz-adv-x="547" 
d="M487 130l53 -98q-31 -23 -80.5 -38t-105.5 -15q-71 0 -132 23.5t-105 64.5t-69.5 97t-25.5 121q0 64 25.5 120t69.5 97.5t105 65t132 23.5q56 0 105.5 -15t80.5 -38l-53 -98h-4q-28 22 -63.5 29t-65.5 7q-82 0 -136 -55t-54 -136q0 -82 54 -136.5t136 -54.5q30 0 65.5 7
t63.5 29h4zM410 651h-138l-117 147h117l67 -84l68 84h120z" />
    <glyph glyph-name="s.salt_low" horiz-adv-x="439" 
d="M224 593q49 0 90.5 -13t72.5 -27l-52 -101q-28 15 -54.5 21.5t-44.5 6.5q-31 0 -50 -13.5t-19 -32.5q0 -18 19.5 -35t65.5 -46q49 -33 81 -58.5t51 -47t26.5 -42t7.5 -44.5q0 -77 -57.5 -128.5t-157.5 -52.5q-52 0 -101.5 16t-94.5 42l48 103q42 -22 71 -33.5t58 -11.5
q47 1 69.5 18t22.5 36q0 14 -19.5 34.5t-87.5 64.5q-44 29 -72.5 52t-44 43.5t-21 42t-5.5 47.5q0 27 11 55.5t35 51.5t61.5 38t90.5 14z" />
    <glyph glyph-name="sacute.salt_low" horiz-adv-x="439" 
d="M224 593q49 0 90.5 -13t72.5 -27l-52 -101q-28 15 -54.5 21.5t-44.5 6.5q-31 0 -50 -13.5t-19 -32.5q0 -18 19.5 -35t65.5 -46q49 -33 81 -58.5t51 -47t26.5 -42t7.5 -44.5q0 -77 -57.5 -128.5t-157.5 -52.5q-52 0 -101.5 16t-94.5 42l48 103q42 -22 71 -33.5t58 -11.5
q47 1 69.5 18t22.5 36q0 14 -19.5 34.5t-87.5 64.5q-44 29 -72.5 52t-44 43.5t-21 42t-5.5 47.5q0 27 11 55.5t35 51.5t61.5 38t90.5 14zM408 798l-132 -147h-107l81 147h158z" />
    <glyph glyph-name="scircumflex.salt_low" horiz-adv-x="439" 
d="M224 593q49 0 90.5 -13t72.5 -27l-52 -101q-28 15 -54.5 21.5t-44.5 6.5q-31 0 -50 -13.5t-19 -32.5q0 -18 19.5 -35t65.5 -46q49 -33 81 -58.5t51 -47t26.5 -42t7.5 -44.5q0 -77 -57.5 -128.5t-157.5 -52.5q-52 0 -101.5 16t-94.5 42l48 103q42 -22 71 -33.5t58 -11.5
q47 1 69.5 18t22.5 36q0 14 -19.5 34.5t-87.5 64.5q-44 29 -72.5 52t-44 43.5t-21 42t-5.5 47.5q0 27 11 55.5t35 51.5t61.5 38t90.5 14zM290 651l-68 83l-67 -83h-118l117 147h138l117 -147h-119z" />
    <glyph glyph-name="scedilla.salt_low" horiz-adv-x="439" 
d="M224 593q49 0 90.5 -13t72.5 -27l-52 -101q-28 15 -54.5 21.5t-44.5 6.5q-31 0 -50 -13.5t-19 -32.5q0 -18 19.5 -35t65.5 -46q49 -33 81 -58.5t51 -47t26.5 -42t7.5 -44.5q0 -77 -57.5 -128.5t-157.5 -52.5q-52 0 -101.5 16t-94.5 42l48 103q42 -22 71 -33.5t58 -11.5
q47 1 69.5 18t22.5 36q0 14 -19.5 34.5t-87.5 64.5q-44 29 -72.5 52t-44 43.5t-21 42t-5.5 47.5q0 27 11 55.5t35 51.5t61.5 38t90.5 14zM179 -228q-14 0 -36 3t-41 10v65h1q19 -7 38 -10t29 -3q25 0 40 8.5t15 23.5q0 14 -18.5 23.5t-45.5 9.5h-21l-4 10l28 79h62l-13 -35
q49 -7 74 -31t25 -60q0 -38 -36.5 -65.5t-96.5 -27.5z" />
    <glyph glyph-name="scaron.salt_low" horiz-adv-x="439" 
d="M224 593q49 0 90.5 -13t72.5 -27l-52 -101q-28 15 -54.5 21.5t-44.5 6.5q-31 0 -50 -13.5t-19 -32.5q0 -18 19.5 -35t65.5 -46q49 -33 81 -58.5t51 -47t26.5 -42t7.5 -44.5q0 -77 -57.5 -128.5t-157.5 -52.5q-52 0 -101.5 16t-94.5 42l48 103q42 -22 71 -33.5t58 -11.5
q47 1 69.5 18t22.5 36q0 14 -19.5 34.5t-87.5 64.5q-44 29 -72.5 52t-44 43.5t-21 42t-5.5 47.5q0 27 11 55.5t35 51.5t61.5 38t90.5 14zM293 651h-138l-117 147h117l67 -84l68 84h120z" />
    <glyph glyph-name="scommaaccent.salt_low" horiz-adv-x="439" 
d="M224 593q49 0 90.5 -13t72.5 -27l-52 -101q-28 15 -54.5 21.5t-44.5 6.5q-31 0 -50 -13.5t-19 -32.5q0 -18 19.5 -35t65.5 -46q49 -33 81 -58.5t51 -47t26.5 -42t7.5 -44.5q0 -77 -57.5 -128.5t-157.5 -52.5q-52 0 -101.5 16t-94.5 42l48 103q42 -22 71 -33.5t58 -11.5
q47 1 69.5 18t22.5 36q0 14 -19.5 34.5t-87.5 64.5q-44 29 -72.5 52t-44 43.5t-21 42t-5.5 47.5q0 27 11 55.5t35 51.5t61.5 38t90.5 14zM269 -56l-63 -172h-100l28 172h135z" />
    <glyph glyph-name="ae.salt_low" horiz-adv-x="986" 
d="M656 488q-63 0 -104.5 -35.5t-56.5 -95.5h321q-15 60 -56 95.5t-104 35.5zM261 56q45 0 74.5 31.5t29.5 82.5q0 41 -28.5 73t-75.5 32q-46 0 -74 -32t-28 -73q0 -49 28 -81.5t74 -32.5zM960 76q-47 -43 -112.5 -74t-163.5 -31q-81 0 -146 29.5t-107 80.5q-17 -42 -65 -76
t-133 -34q-96 0 -155.5 56t-59.5 139q0 39 14.5 74.5t41.5 62t66 42t87 15.5q38 0 69 -8.5t56 -21.5v17q0 75 -27.5 102.5t-88.5 26.5q-29 0 -56.5 -4t-79.5 -14l-4 114q51 10 82 14t74 4q72 0 120.5 -19t76.5 -54q39 40 92 63t115 23q66 0 123.5 -24t98.5 -66t64.5 -100
t23.5 -126v-34h-477q9 -77 58.5 -122t136.5 -45q66 0 114 21t81 54z" />
    <glyph glyph-name="aeacute.salt_low" horiz-adv-x="986" 
d="M656 488q-63 0 -104.5 -35.5t-56.5 -95.5h321q-15 60 -56 95.5t-104 35.5zM261 56q45 0 74.5 31.5t29.5 82.5q0 41 -28.5 73t-75.5 32q-46 0 -74 -32t-28 -73q0 -49 28 -81.5t74 -32.5zM960 76q-47 -43 -112.5 -74t-163.5 -31q-81 0 -146 29.5t-107 80.5q-17 -42 -65 -76
t-133 -34q-96 0 -155.5 56t-59.5 139q0 39 14.5 74.5t41.5 62t66 42t87 15.5q38 0 69 -8.5t56 -21.5v17q0 75 -27.5 102.5t-88.5 26.5q-29 0 -56.5 -4t-79.5 -14l-4 114q51 10 82 14t74 4q72 0 120.5 -19t76.5 -54q39 40 92 63t115 23q66 0 123.5 -24t98.5 -66t64.5 -100
t23.5 -126v-34h-477q9 -77 58.5 -122t136.5 -45q66 0 114 21t81 54zM654 798l-132 -147h-107l81 147h158z" />
    <glyph glyph-name="K.salt_tall" horiz-adv-x="679" 
d="M493 0l-234 317l-65 -75v-242h-145v746h145v-299l256 299h176l-273 -318l317 -428h-177z" />
    <glyph glyph-name="Kcommaaccent.salt_tall" horiz-adv-x="679" 
d="M493 0l-234 317l-65 -75v-242h-145v746h145v-299l256 299h176l-273 -318l317 -428h-177zM401 -56l-63 -172h-100l28 172h135z" />
    <glyph glyph-name="P.salt_tall" horiz-adv-x="559" 
d="M250 257h-56v-257h-145v746h205q59 0 111.5 -11.5t91 -39.5t61 -76t22.5 -120q0 -63 -25.5 -109t-66.5 -75t-93 -43.5t-105 -14.5zM265 610h-71v-217h71q57 0 93 28.5t36 77.5q0 50 -31 80.5t-98 30.5z" />
    <glyph glyph-name="R.salt_tall" horiz-adv-x="594" 
d="M242 610h-48v-219h48q58 0 91 30t33 80t-33 79.5t-91 29.5zM407 0l-203 260h-10v-260h-145v746h193q55 0 104.5 -14t86 -43.5t58 -76t21.5 -111.5q0 -81 -43 -134.5t-105 -80.5l219 -286h-176z" />
    <glyph glyph-name="Racute.salt_tall" horiz-adv-x="594" 
d="M242 610h-48v-219h48q58 0 91 30t33 80t-33 79.5t-91 29.5zM407 0l-203 260h-10v-260h-145v746h193q55 0 104.5 -14t86 -43.5t58 -76t21.5 -111.5q0 -81 -43 -134.5t-105 -80.5l219 -286h-176zM447 954l-132 -147h-107l81 147h158z" />
    <glyph glyph-name="Rcommaaccent.salt_tall" horiz-adv-x="594" 
d="M242 610h-48v-219h48q58 0 91 30t33 80t-33 79.5t-91 29.5zM407 0l-203 260h-10v-260h-145v746h193q55 0 104.5 -14t86 -43.5t58 -76t21.5 -111.5q0 -81 -43 -134.5t-105 -80.5l219 -286h-176zM362 -56l-63 -172h-100l28 172h135z" />
    <glyph glyph-name="Rcaron.salt_tall" horiz-adv-x="594" 
d="M242 610h-48v-219h48q58 0 91 30t33 80t-33 79.5t-91 29.5zM407 0l-203 260h-10v-260h-145v746h193q55 0 104.5 -14t86 -43.5t58 -76t21.5 -111.5q0 -81 -43 -134.5t-105 -80.5l219 -286h-176zM332 807h-138l-117 147h117l67 -84l68 84h120z" />
    <glyph glyph-name="S.salt_tall" horiz-adv-x="472" 
d="M410 745l-2 -131q-25 10 -59 17t-65 7q-56 0 -81 -16.5t-25 -44.5q0 -32 29.5 -59.5t87.5 -81.5q86 -78 121 -136t35 -111q0 -87 -70.5 -144t-184.5 -57q-18 0 -41.5 2t-46.5 5.5t-44 7.5t-34 7l2 132q25 -10 75.5 -20.5t97.5 -10.5q50 0 75.5 22t25.5 50q0 33 -25 64.5
t-82 83.5q-44 40 -75.5 71t-51.5 58.5t-29.5 55t-9.5 60.5q0 35 14.5 68.5t44.5 59.5t78 41.5t114 15.5q32 0 66 -4.5t60 -11.5z" />
    <glyph glyph-name="Sacute.salt_tall" horiz-adv-x="472" 
d="M410 745l-2 -131q-25 10 -59 17t-65 7q-56 0 -81 -16.5t-25 -44.5q0 -32 29.5 -59.5t87.5 -81.5q86 -78 121 -136t35 -111q0 -87 -70.5 -144t-184.5 -57q-18 0 -41.5 2t-46.5 5.5t-44 7.5t-34 7l2 132q25 -10 75.5 -20.5t97.5 -10.5q50 0 75.5 22t25.5 50q0 33 -25 64.5
t-82 83.5q-44 40 -75.5 71t-51.5 58.5t-29.5 55t-9.5 60.5q0 35 14.5 68.5t44.5 59.5t78 41.5t114 15.5q32 0 66 -4.5t60 -11.5zM460 954l-132 -147h-107l81 147h158z" />
    <glyph glyph-name="Scircumflex.salt_tall" horiz-adv-x="472" 
d="M410 745l-2 -131q-25 10 -59 17t-65 7q-56 0 -81 -16.5t-25 -44.5q0 -32 29.5 -59.5t87.5 -81.5q86 -78 121 -136t35 -111q0 -87 -70.5 -144t-184.5 -57q-18 0 -41.5 2t-46.5 5.5t-44 7.5t-34 7l2 132q25 -10 75.5 -20.5t97.5 -10.5q50 0 75.5 22t25.5 50q0 33 -25 64.5
t-82 83.5q-44 40 -75.5 71t-51.5 58.5t-29.5 55t-9.5 60.5q0 35 14.5 68.5t44.5 59.5t78 41.5t114 15.5q32 0 66 -4.5t60 -11.5zM342 807l-68 83l-67 -83h-118l117 147h138l117 -147h-119z" />
    <glyph glyph-name="Scedilla.salt_tall" horiz-adv-x="472" 
d="M410 745l-2 -131q-25 10 -59 17t-65 7q-56 0 -81 -16.5t-25 -44.5q0 -32 29.5 -59.5t87.5 -81.5q86 -78 121 -136t35 -111q0 -87 -70.5 -144t-184.5 -57q-18 0 -41.5 2t-46.5 5.5t-44 7.5t-34 7l2 132q25 -10 75.5 -20.5t97.5 -10.5q50 0 75.5 22t25.5 50q0 33 -25 64.5
t-82 83.5q-44 40 -75.5 71t-51.5 58.5t-29.5 55t-9.5 60.5q0 35 14.5 68.5t44.5 59.5t78 41.5t114 15.5q32 0 66 -4.5t60 -11.5zM172 -221q-14 0 -36 3t-41 10v65h1q19 -7 38 -10t29 -3q25 0 40 8.5t15 23.5q0 14 -18.5 23.5t-45.5 9.5h-21l-4 10l28 79h62l-13 -35
q49 -7 74 -31t25 -60q0 -38 -36.5 -65.5t-96.5 -27.5z" />
    <glyph glyph-name="Scaron.salt_tall" horiz-adv-x="472" 
d="M410 745l-2 -131q-25 10 -59 17t-65 7q-56 0 -81 -16.5t-25 -44.5q0 -32 29.5 -59.5t87.5 -81.5q86 -78 121 -136t35 -111q0 -87 -70.5 -144t-184.5 -57q-18 0 -41.5 2t-46.5 5.5t-44 7.5t-34 7l2 132q25 -10 75.5 -20.5t97.5 -10.5q50 0 75.5 22t25.5 50q0 33 -25 64.5
t-82 83.5q-44 40 -75.5 71t-51.5 58.5t-29.5 55t-9.5 60.5q0 35 14.5 68.5t44.5 59.5t78 41.5t114 15.5q32 0 66 -4.5t60 -11.5zM345 807h-138l-117 147h117l67 -84l68 84h120z" />
    <glyph glyph-name="Scommaaccent.salt_tall" horiz-adv-x="472" 
d="M410 745l-2 -131q-25 10 -59 17t-65 7q-56 0 -81 -16.5t-25 -44.5q0 -32 29.5 -59.5t87.5 -81.5q86 -78 121 -136t35 -111q0 -87 -70.5 -144t-184.5 -57q-18 0 -41.5 2t-46.5 5.5t-44 7.5t-34 7l2 132q25 -10 75.5 -20.5t97.5 -10.5q50 0 75.5 22t25.5 50q0 33 -25 64.5
t-82 83.5q-44 40 -75.5 71t-51.5 58.5t-29.5 55t-9.5 60.5q0 35 14.5 68.5t44.5 59.5t78 41.5t114 15.5q32 0 66 -4.5t60 -11.5zM262 -56l-63 -172h-100l28 172h135z" />
    <glyph glyph-name="T.salt_tall" horiz-adv-x="439" 
d="M147 0v616h-138v130h421v-130h-138v-616h-145z" />
    <glyph glyph-name="Tcaron.salt_tall" horiz-adv-x="439" 
d="M147 0v616h-138v130h421v-130h-138v-616h-145zM291 807h-138l-117 147h117l67 -84l68 84h120z" />
    <glyph glyph-name="Tcommaaccent.salt_tall" horiz-adv-x="439" 
d="M147 0v616h-138v130h421v-130h-138v-616h-145zM286 -56l-63 -172h-100l28 172h135z" />
    <glyph glyph-name="Tbar.salt_tall" horiz-adv-x="439" 
d="M368 301h-76v-301h-145v301h-76v115h76v200h-138v130h421v-130h-138v-200h76v-115z" />
    <glyph glyph-name="a.salt_ss" horiz-adv-x="717" 
d="M542 287q0 38 -14.5 72t-40 60t-60.5 41t-76 15t-75.5 -15t-59 -40.5t-38.5 -59.5t-14 -72t14 -72.5t38.5 -60t59 -41t75.5 -15.5t76 15.5t60.5 41t40 60t14.5 71.5zM545 0v78q-41 -45 -100.5 -71t-130.5 -26q-62 0 -115.5 24t-92.5 65t-61.5 96.5t-22.5 118.5
t22.5 119.5t61.5 98t92.5 66t115.5 24.5q67 0 125 -25t99 -67v73h135v-574h-128z" />
    <glyph glyph-name="agrave.salt_ss" horiz-adv-x="717" 
d="M542 287q0 38 -14.5 72t-40 60t-60.5 41t-76 15t-75.5 -15t-59 -40.5t-38.5 -59.5t-14 -72t14 -72.5t38.5 -60t59 -41t75.5 -15.5t76 15.5t60.5 41t40 60t14.5 71.5zM545 0v78q-41 -45 -100.5 -71t-130.5 -26q-62 0 -115.5 24t-92.5 65t-61.5 96.5t-22.5 118.5
t22.5 119.5t61.5 98t92.5 66t115.5 24.5q67 0 125 -25t99 -67v73h135v-574h-128zM170 798h161l82 -147h-111z" />
    <glyph glyph-name="aacute.salt_ss" horiz-adv-x="717" 
d="M542 287q0 38 -14.5 72t-40 60t-60.5 41t-76 15t-75.5 -15t-59 -40.5t-38.5 -59.5t-14 -72t14 -72.5t38.5 -60t59 -41t75.5 -15.5t76 15.5t60.5 41t40 60t14.5 71.5zM545 0v78q-41 -45 -100.5 -71t-130.5 -26q-62 0 -115.5 24t-92.5 65t-61.5 96.5t-22.5 118.5
t22.5 119.5t61.5 98t92.5 66t115.5 24.5q67 0 125 -25t99 -67v73h135v-574h-128zM547 798l-132 -147h-107l81 147h158z" />
    <glyph glyph-name="acircumflex.salt_ss" horiz-adv-x="717" 
d="M542 287q0 38 -14.5 72t-40 60t-60.5 41t-76 15t-75.5 -15t-59 -40.5t-38.5 -59.5t-14 -72t14 -72.5t38.5 -60t59 -41t75.5 -15.5t76 15.5t60.5 41t40 60t14.5 71.5zM545 0v78q-41 -45 -100.5 -71t-130.5 -26q-62 0 -115.5 24t-92.5 65t-61.5 96.5t-22.5 118.5
t22.5 119.5t61.5 98t92.5 66t115.5 24.5q67 0 125 -25t99 -67v73h135v-574h-128zM429 651l-68 83l-67 -83h-118l117 147h138l117 -147h-119z" />
    <glyph glyph-name="atilde.salt_ss" horiz-adv-x="717" 
d="M542 287q0 38 -14.5 72t-40 60t-60.5 41t-76 15t-75.5 -15t-59 -40.5t-38.5 -59.5t-14 -72t14 -72.5t38.5 -60t59 -41t75.5 -15.5t76 15.5t60.5 41t40 60t14.5 71.5zM545 0v78q-41 -45 -100.5 -71t-130.5 -26q-62 0 -115.5 24t-92.5 65t-61.5 96.5t-22.5 118.5
t22.5 119.5t61.5 98t92.5 66t115.5 24.5q67 0 125 -25t99 -67v73h135v-574h-128zM248 651l-108 3q-4 46 4.5 77t26.5 50t42 27t49 8q24 0 48.5 -7.5t47 -17t42.5 -17t35 -7.5q16 0 28 10t11 38l109 -3q7 -78 -28.5 -117t-94.5 -39q-24 0 -48.5 7.5t-47.5 17t-42.5 17
t-34.5 7.5q-16 0 -28 -10t-11 -44z" />
    <glyph glyph-name="adieresis.salt_ss" horiz-adv-x="717" 
d="M542 287q0 38 -14.5 72t-40 60t-60.5 41t-76 15t-75.5 -15t-59 -40.5t-38.5 -59.5t-14 -72t14 -72.5t38.5 -60t59 -41t75.5 -15.5t76 15.5t60.5 41t40 60t14.5 71.5zM545 0v78q-41 -45 -100.5 -71t-130.5 -26q-62 0 -115.5 24t-92.5 65t-61.5 96.5t-22.5 118.5
t22.5 119.5t61.5 98t92.5 66t115.5 24.5q67 0 125 -25t99 -67v73h135v-574h-128zM531 758v-107h-121v107h121zM312 758v-107h-121v107h121z" />
    <glyph glyph-name="aring.salt_ss" horiz-adv-x="717" 
d="M542 287q0 38 -14.5 72t-40 60t-60.5 41t-76 15t-75.5 -15t-59 -40.5t-38.5 -59.5t-14 -72t14 -72.5t38.5 -60t59 -41t75.5 -15.5t76 15.5t60.5 41t40 60t14.5 71.5zM545 0v78q-41 -45 -100.5 -71t-130.5 -26q-62 0 -115.5 24t-92.5 65t-61.5 96.5t-22.5 118.5
t22.5 119.5t61.5 98t92.5 66t115.5 24.5q67 0 125 -25t99 -67v73h135v-574h-128zM361 892q53 0 90.5 -37t37.5 -86t-37.5 -86t-90.5 -37t-90.5 37.5t-37.5 85.5t37.5 85.5t90.5 37.5zM361 831q-25 0 -43.5 -18.5t-18.5 -43.5q0 -26 18.5 -44t43.5 -18t43.5 18t18.5 44
q0 25 -18.5 43.5t-43.5 18.5z" />
    <glyph glyph-name="amacron.salt_ss" horiz-adv-x="717" 
d="M542 287q0 38 -14.5 72t-40 60t-60.5 41t-76 15t-75.5 -15t-59 -40.5t-38.5 -59.5t-14 -72t14 -72.5t38.5 -60t59 -41t75.5 -15.5t76 15.5t60.5 41t40 60t14.5 71.5zM545 0v78q-41 -45 -100.5 -71t-130.5 -26q-62 0 -115.5 24t-92.5 65t-61.5 96.5t-22.5 118.5
t22.5 119.5t61.5 98t92.5 66t115.5 24.5q67 0 125 -25t99 -67v73h135v-574h-128zM505 751v-100h-288v100h288z" />
    <glyph glyph-name="abreve.salt_ss" horiz-adv-x="717" 
d="M542 287q0 38 -14.5 72t-40 60t-60.5 41t-76 15t-75.5 -15t-59 -40.5t-38.5 -59.5t-14 -72t14 -72.5t38.5 -60t59 -41t75.5 -15.5t76 15.5t60.5 41t40 60t14.5 71.5zM545 0v78q-41 -45 -100.5 -71t-130.5 -26q-62 0 -115.5 24t-92.5 65t-61.5 96.5t-22.5 118.5
t22.5 119.5t61.5 98t92.5 66t115.5 24.5q67 0 125 -25t99 -67v73h135v-574h-128zM528 801q-13 -69 -57 -112t-110 -43t-110 43t-57 112l87 3q13 -37 35.5 -56t44.5 -19t44.5 19t35.5 56z" />
    <glyph glyph-name="aogonek.salt_ss" horiz-adv-x="717" 
d="M575 -177q-54 0 -78.5 24.5t-24.5 56.5q0 27 16.5 49t43.5 37l13 7v81q-41 -45 -100.5 -71t-130.5 -26q-62 0 -115.5 24t-92.5 65t-61.5 96.5t-22.5 118.5t22.5 119.5t61.5 98t92.5 66t115.5 24.5q67 0 125 -25t99 -67v73h135v-574l-58 -32q-22 -12 -29 -22t-7 -19
q0 -13 8 -21t22 -8q12 0 21 4.5t14 9.5l39 -49q-16 -14 -42.5 -26.5t-65.5 -13.5zM542 287q0 38 -14.5 72t-40 60t-60.5 41t-76 15t-75.5 -15t-59 -40.5t-38.5 -59.5t-14 -72t14 -72.5t38.5 -60t59 -41t75.5 -15.5t76 15.5t60.5 41t40 60t14.5 71.5z" />
    <glyph glyph-name="aringacute.salt_ss" horiz-adv-x="717" 
d="M542 287q0 38 -14.5 72t-40 60t-60.5 41t-76 15t-75.5 -15t-59 -40.5t-38.5 -59.5t-14 -72t14 -72.5t38.5 -60t59 -41t75.5 -15.5t76 15.5t60.5 41t40 60t14.5 71.5zM545 0v78q-41 -45 -100.5 -71t-130.5 -26q-62 0 -115.5 24t-92.5 65t-61.5 96.5t-22.5 118.5
t22.5 119.5t61.5 98t92.5 66t115.5 24.5q67 0 125 -25t99 -67v73h135v-574h-128zM361 892q53 0 90.5 -37t37.5 -86t-37.5 -86t-90.5 -37t-90.5 37.5t-37.5 85.5t37.5 85.5t90.5 37.5zM361 831q-25 0 -43.5 -18.5t-18.5 -43.5q0 -26 18.5 -44t43.5 -18t43.5 18t18.5 44
q0 25 -18.5 43.5t-43.5 18.5zM547 1062l-132 -147h-107l81 147h158z" />
    <glyph glyph-name="Adieresis.salt" horiz-adv-x="723" 
d="M651 746v-126h-141v126h141zM214 746v-126h-141v126h141zM475 246l-115 309l-115 -309h230zM567 0l-47 125h-320l-47 -125h-151l288 746h144l287 -746h-154z" />
    <glyph glyph-name="Odieresis.salt" horiz-adv-x="863" 
d="M432 637q-56 0 -104 -21t-83 -56.5t-55 -83.5t-20 -102t20 -102.5t55 -84.5t83 -57t104 -21q55 0 103 21t83 57t55 84.5t20 102.5t-20 102t-55 83.5t-83 56.5t-103 21zM839 374q0 -82 -31.5 -155t-86 -126.5t-129.5 -85t-160 -31.5q-86 0 -161 31.5t-129.5 85t-86 126.5
t-31.5 155q0 69 23 132t63 114h-66v126h141v-55q51 37 114 58t133 21q69 0 132 -21t114 -58v55h141v-126h-67q41 -51 64 -114t23 -132z" />
    <glyph glyph-name="Udieresis.salt" horiz-adv-x="681" 
d="M632 746v-107h-145v107h145zM194 746v-107h-145v107h145zM632 308q0 -156 -75 -244t-217 -88q-140 0 -215.5 88t-75.5 244v311h145v-340q0 -42 12.5 -74t32.5 -53.5t46.5 -32t54.5 -10.5q29 0 56 10.5t47 32t32 53.5t12 74v340h145v-311z" />
    <glyph glyph-name="asterisk.salt1" horiz-adv-x="354" 
d="M318 510l-108 18l-47 -95l-20 2l-16 109l-105 15l-4 19l98 49l-18 105l17 10l77 -79l94 50l15 -13l-51 -97l76 -75z" />
    <glyph glyph-name="space.em" horiz-adv-x="1000" 
 />
    <glyph glyph-name="space.en" horiz-adv-x="500" 
 />
    <glyph glyph-name="space.frac" horiz-adv-x="85" 
 />
    <glyph glyph-name="space.thin" horiz-adv-x="150" 
 />
    </font>
</defs>
</svg>
