<?xml version="1.0" standalone="no"?>
<!DOCTYPE svg PUBLIC "-//W3C//DTD SVG 1.1//EN" "http://www.w3.org/Graphics/SVG/1.1/DTD/svg11.dtd" >
<svg xmlns="http://www.w3.org/2000/svg" xmlns:xlink="http://www.w3.org/1999/xlink" version="1.1">
<metadata>
Created by FontForge 20190801 at Fri Oct 14 02:39:40 2016
 By root
Copyright (c) 2015 CJ Type. All rights reserved.
</metadata>
<defs>
<font id="DunbarTall-Bold" horiz-adv-x="0" >
  <font-face 
    font-family="DunbarTall"
    font-weight="700"
    font-stretch="normal"
    units-per-em="1000"
    panose-1="0 0 0 0 0 0 0 2 0 0"
    ascent="780"
    descent="-220"
    x-height="574"
    cap-height="746"
    bbox="-231.791 -307 1299 1108"
    underline-thickness="0"
    underline-position="0"
    unicode-range="U+0020-FEFF"
  />
<missing-glyph 
 />
    <glyph glyph-name="f_f" unicode="ff" horiz-adv-x="610" 
d="M244 0h-165v435h-66v139h66v27q0 68 21.5 108.5t55.5 62t77 28t85 6.5v-142q-31 0 -52.5 -13.5t-21.5 -62.5v-14h123v27q0 68 21.5 108.5t55.5 62t77 28t85 6.5v-142q-31 0 -52.5 -13.5t-21.5 -62.5v-14h65v-139h-65v-435h-165v435h-123v-435z" />
    <glyph glyph-name="f_i" unicode="fi" horiz-adv-x="565" 
d="M303 435h-59v-435h-165v435h-66v139h66v27q0 68 21.5 108.5t55 62t76 28t84.5 6.5v-142q-31 0 -51.5 -13.5t-20.5 -62.5v-14h59v-139zM525 780v-133h-168v133h168zM523 574v-574h-165v574h165z" />
    <glyph glyph-name="f_l" unicode="fl" horiz-adv-x="565" 
d="M303 435h-59v-435h-165v435h-66v139h66v27q0 68 21.5 108.5t55 62t76 28t84.5 6.5v-142q-31 0 -51.5 -13.5t-20.5 -62.5v-14h59v-139zM523 780v-780h-165v780h165z" />
    <glyph glyph-name="f_f_i" unicode="ffi" horiz-adv-x="853" 
d="M813 780v-133h-168v133h168zM811 574v-574h-165v574h165zM244 0h-165v435h-66v139h66v27q0 68 21.5 108.5t55.5 62t77 28t85 6.5v-142q-31 0 -52.5 -13.5t-21.5 -62.5v-14h123v27q0 68 21.5 108.5t55 62t76 28t84.5 6.5v-142q-31 0 -51.5 -13.5t-20.5 -62.5v-14h59v-139
h-59v-435h-165v435h-123v-435z" />
    <glyph glyph-name="f_f_l" unicode="ffl" horiz-adv-x="853" 
d="M811 780v-780h-165v780h165zM244 0h-165v435h-66v139h66v27q0 68 21.5 108.5t55.5 62t77 28t85 6.5v-142q-31 0 -52.5 -13.5t-21.5 -62.5v-14h123v27q0 68 21.5 108.5t55 62t76 28t84.5 6.5v-142q-31 0 -51.5 -13.5t-20.5 -62.5v-14h59v-139h-59v-435h-165v435h-123v-435
z" />
    <glyph glyph-name=".notdef" 
 />
    <glyph glyph-name=".null" 
 />
    <glyph glyph-name="nonmarkingreturn" horiz-adv-x="333" 
 />
    <glyph glyph-name="space" unicode=" " horiz-adv-x="170" 
 />
    <glyph glyph-name="exclam" unicode="!" horiz-adv-x="335" 
d="M238 221h-141l-31 525h203zM75 0v154h184v-154h-184z" />
    <glyph glyph-name="quotedbl" unicode="&#x22;" horiz-adv-x="570" 
d="M48 439l68 307h183l-123 -307h-128zM283 439l68 307h183l-123 -307h-128z" />
    <glyph glyph-name="numbersign" unicode="#" horiz-adv-x="807" 
d="M459 306l25 134h-125l-26 -134h126zM400 0l34 176h-126l-34 -176h-134l34 176h-128v130h153l25 134h-139v130h164l34 176h135l-34 -176h125l34 176h135l-34 -176h117v-130h-142l-26 -134h128v-130h-153l-34 -176h-134z" />
    <glyph glyph-name="dollar" unicode="$" horiz-adv-x="540" 
d="M332 -116h-103v114q-52 1 -103 11.5t-85 31.5v149q47 -28 90 -41t96 -13q51 0 80 19.5t29 44.5q0 28 -35 57.5t-100 75.5q-94 66 -129 113t-35 108t48.5 113t143.5 66v117h103v-113q34 -3 70.5 -11t67.5 -24v-146q-31 20 -71.5 32t-83.5 12q-49 0 -71.5 -16t-22.5 -31
q0 -28 29 -54t84 -65q48 -37 82 -65.5t55 -54t31 -53t10 -62.5q0 -41 -14.5 -73.5t-38.5 -56t-57 -39t-70 -23.5v-123z" />
    <glyph glyph-name="percent" unicode="%" horiz-adv-x="910" 
d="M769 746l-490 -746h-136l488 746h138zM210 746q81 0 133.5 -47.5t52.5 -140.5v-27q0 -92 -53 -139.5t-133 -47.5t-133.5 47.5t-53.5 139.5v27q0 93 54 140.5t133 47.5zM269 532v25q0 51 -16.5 76.5t-42.5 25.5t-43 -25.5t-17 -76.5v-25q0 -51 17 -76t43 -25q25 0 42 25
t17 76zM701 402q80 0 133 -47.5t53 -140.5v-27q0 -92 -53 -139.5t-133 -47.5q-79 0 -133 47.5t-54 139.5v27q0 93 54 140.5t133 47.5zM759 188v25q0 51 -16 76.5t-42 25.5t-43 -25.5t-17 -76.5v-25q0 -51 17 -76t43 -25q25 0 41.5 25t16.5 76z" />
    <glyph glyph-name="ampersand" unicode="&#x26;" horiz-adv-x="821" 
d="M306 579q0 -31 15 -51.5t41 -47.5q51 31 72 53t21 50q0 25 -19.5 45.5t-56.5 20.5q-30 0 -51.5 -19.5t-21.5 -50.5zM329 113q31 0 63 13.5t64 36.5q-35 39 -71 77.5t-64 69.5q-47 -32 -68.5 -59t-21.5 -61q0 -32 29.5 -54t68.5 -23zM613 0q-8 7 -22 21.5t-32 33.5
q-51 -36 -112 -57.5t-140 -21.5q-131 1 -201 55t-70 141q0 83 54.5 133.5t140.5 99.5q-46 48 -75 86t-28 89q0 41 19.5 76t53 60t79.5 39.5t97 14.5q113 0 182 -50.5t69 -132.5q0 -55 -38 -98t-112 -86q-7 -4 -13.5 -7.5t-12.5 -7.5q27 -28 56.5 -60t60.5 -65q25 26 51 53.5
t52 55.5l100 -114q-27 -27 -52 -53.5t-50 -51.5q43 -46 78 -84.5t54 -58.5l-4 -10h-185z" />
    <glyph glyph-name="quotesingle" unicode="'" horiz-adv-x="338" 
d="M49 439l68 307h183l-123 -307h-128z" />
    <glyph glyph-name="parenleft" unicode="(" horiz-adv-x="423" 
d="M284 788l92 -92q-24 -25 -49 -63.5t-46 -88t-34.5 -109.5t-13.5 -127v-14q0 -66 13.5 -126.5t34 -110t46 -87.5t49.5 -62l-92 -93q-35 28 -72.5 72.5t-68.5 104.5t-51.5 135.5t-20.5 163.5v20q0 89 20.5 164t51.5 134.5t68.5 104.5t72.5 74z" />
    <glyph glyph-name="parenright" unicode=")" horiz-adv-x="423" 
d="M139 788q34 -29 72 -74t69 -104.5t51.5 -134.5t20.5 -164v-20q0 -88 -20.5 -163.5t-51.5 -135.5t-69 -104.5t-73 -72.5l-91 93q24 24 49.5 62t46 87.5t34 110t13.5 126.5v14q0 67 -13.5 127t-34.5 109.5t-46.5 88t-48.5 63.5z" />
    <glyph glyph-name="asterisk" unicode="*" horiz-adv-x="388" 
d="M258 397l-62 138l-63 -140l-89 64l110 97l-133 13l33 104l117 -69l-31 142h109l-30 -140l114 68l34 -104l-130 -13l109 -97z" />
    <glyph glyph-name="plus" unicode="+" horiz-adv-x="628" 
d="M591 286h-202v-222h-150v222h-202v132h202v207h150v-207h202v-132z" />
    <glyph glyph-name="comma" unicode="," horiz-adv-x="313" 
d="M85 147h186l-120 -301h-129z" />
    <glyph glyph-name="hyphen" unicode="-" horiz-adv-x="404" 
d="M364 392v-149h-324v149h324z" />
    <glyph glyph-name="period" unicode="." horiz-adv-x="282" 
d="M48 163h186v-163h-186v163z" />
    <glyph glyph-name="slash" unicode="/" horiz-adv-x="575" 
d="M564 780l-480 -1000h-162l478 1000h164z" />
    <glyph glyph-name="zero" unicode="0" horiz-adv-x="675" 
d="M337 770q65 0 120 -23.5t94.5 -70t62 -116.5t22.5 -162v-52q0 -91 -22.5 -160.5t-62.5 -116t-95 -70t-119 -23.5q-63 0 -118 23.5t-94.5 70t-62.5 116t-23 160.5v52q0 92 23 162t62.5 116.5t94.5 70t118 23.5zM470 344v52q0 118 -37 175t-96 57q-57 0 -95 -57t-38 -175
v-52q0 -118 38 -174.5t95 -56.5q58 0 95.5 56.5t37.5 174.5z" />
    <glyph glyph-name="one" unicode="1" horiz-adv-x="393" 
d="M334 0h-166v509l-134 -131v212l170 156h130v-746z" />
    <glyph glyph-name="two" unicode="2" horiz-adv-x="601" 
d="M523 0h-497l-11 23q17 21 57 70.5t83.5 103t82.5 102t54 67.5q40 49 57 82.5t17 71.5q0 42 -33.5 74t-90.5 32q-37 0 -77 -13.5t-83 -47.5l1 165q42 21 89 30.5t92 9.5q62 0 113 -19t86.5 -51t55 -76t19.5 -95q0 -73 -33.5 -124t-82.5 -111q-19 -24 -58 -69t-78 -88h293z
" />
    <glyph glyph-name="three" unicode="3" horiz-adv-x="538" 
d="M215 -24q-21 0 -47.5 2t-53 6t-51.5 11.5t-43 17.5v140q15 -10 35.5 -18t41 -13t39.5 -8t31 -3q81 -1 131.5 31t50.5 82t-47.5 79.5t-119.5 29.5h-50l6 130h44q56 0 92.5 27t36.5 66q0 37 -33 58.5t-87 21.5q-30 0 -64.5 -5.5t-66.5 -21.5l10 141q28 9 63.5 14.5
t89.5 5.5t101 -14t80.5 -39.5t52.5 -61t19 -76.5q-1 -49 -28 -94t-73 -73q60 -25 99.5 -76.5t39.5 -117.5q0 -52 -22 -97t-61 -77t-94.5 -50t-121.5 -18z" />
    <glyph glyph-name="four" unicode="4" horiz-adv-x="643" 
d="M374 261v241l-158 -241h158zM595 127h-56v-127h-165v127h-352l-13 31l390 588h140v-485h93z" />
    <glyph glyph-name="five" unicode="5" horiz-adv-x="604" 
d="M219 -24q-43 0 -98 11t-96 33v141q43 -23 90 -35t104 -12q74 0 121.5 36.5t47.5 95.5q0 51 -50.5 85.5t-136.5 34.5q-39 0 -73 -5.5t-66 -15.5l94 401h427l-43 -141h-272l-30 -112h9h9q74 0 130.5 -18t94 -50.5t57 -77.5t19.5 -99q0 -60 -23.5 -110t-67.5 -86t-106.5 -56
t-140.5 -20z" />
    <glyph glyph-name="six" unicode="6" horiz-adv-x="628" 
d="M317 -24q-63 0 -117.5 18.5t-94 53t-62 84.5t-22.5 113q0 62 24.5 126.5t64 127.5t89.5 125.5t101 121.5h206q-66 -70 -130 -142.5t-113 -139.5l3 -2q25 13 52 20t58 7q49 0 92 -19t75 -52t50.5 -77.5t18.5 -94.5q0 -55 -21.5 -104.5t-60.5 -86t-93.5 -58t-119.5 -21.5z
M317 370q-54 0 -93 -37.5t-39 -91.5q0 -52 39 -90t93 -38t92 38t38 90q0 54 -38 91.5t-92 37.5z" />
    <glyph glyph-name="seven" unicode="7" horiz-adv-x="599" 
d="M276 0h-183l261 598h-332l45 148h528z" />
    <glyph glyph-name="eight" unicode="8" horiz-adv-x="620" 
d="M309 -24q-69 0 -124 18t-93 49.5t-58.5 76t-20.5 96.5q0 62 33.5 112t95.5 79q-43 26 -66.5 66t-23.5 87q0 43 17.5 81.5t50.5 67t81 45t108 16.5q62 0 110 -16.5t81 -45t50 -67t17 -81.5q0 -47 -23 -87t-66 -66q61 -29 95 -79.5t34 -111.5q0 -52 -20.5 -96.5t-59 -76
t-94 -49.5t-124.5 -18zM309 450q40 0 70.5 28t30.5 68t-30 66t-71 26t-70.5 -26t-29.5 -66t29.5 -68t70.5 -28zM309 105q56 0 95.5 35t39.5 86t-39.5 84.5t-95.5 33.5q-54 0 -93.5 -33.5t-39.5 -84.5t39.5 -86t93.5 -35z" />
    <glyph glyph-name="nine" unicode="9" horiz-adv-x="628" 
d="M328 0h-206q67 70 131 143t112 139l-2 2q-25 -13 -52 -20t-58 -7q-49 0 -92.5 19t-75.5 52t-50.5 77.5t-18.5 94.5q0 55 21.5 104.5t60.5 86t94 58t120 21.5q63 0 117.5 -18.5t94 -53t62 -84.5t22.5 -113q0 -62 -24.5 -126.5t-64.5 -127.5t-90 -125.5t-101 -121.5z
M312 376q53 0 92 37.5t39 91.5q0 52 -39 90t-92 38q-54 0 -92.5 -38t-38.5 -90q0 -54 38.5 -91.5t92.5 -37.5z" />
    <glyph glyph-name="colon" unicode=":" horiz-adv-x="274" 
d="M49 523h177v-168h-177v168zM49 168h177v-168h-177v168z" />
    <glyph glyph-name="semicolon" unicode=";" horiz-adv-x="312" 
d="M79 523h177v-168h-177v168zM78 130h180l-101 -283h-134z" />
    <glyph glyph-name="less" unicode="&#x3c;" horiz-adv-x="561" 
d="M539 -6l-518 240v135l518 242v-146l-377 -162l377 -158v-151z" />
    <glyph glyph-name="equal" unicode="=" horiz-adv-x="563" 
d="M528 512v-121h-492v121h492zM528 288v-121h-492v121h492z" />
    <glyph glyph-name="greater" unicode="&#x3e;" horiz-adv-x="561" 
d="M22 -6v151l378 158l-378 162v146l519 -242v-135z" />
    <glyph glyph-name="question" unicode="?" horiz-adv-x="561" 
d="M324 204h-152v197h35q57 0 100.5 28.5t43.5 88.5q0 41 -37 73.5t-106 32.5q-37 0 -75 -11.5t-78 -39.5l-3 138q46 25 97 37.5t100 12.5q120 0 191.5 -64.5t71.5 -166.5q0 -51 -15 -91.5t-40 -69.5t-59.5 -47t-73.5 -25v-93zM169 0v138h158v-138h-158z" />
    <glyph glyph-name="at" unicode="@" horiz-adv-x="999" 
d="M524 -192q-109 0 -198.5 36t-152.5 99.5t-98 150t-35 186.5q0 93 33 176.5t93.5 146t147 99.5t191.5 37q104 0 188.5 -35t144 -93.5t92 -136.5t32.5 -162q0 -78 -19.5 -132.5t-49.5 -87.5t-65.5 -48t-67.5 -15q-52 0 -85 22.5t-43 56.5q-30 -34 -72 -57t-93 -24
q-50 -1 -93.5 15.5t-75 47.5t-49.5 74.5t-18 94.5q0 53 18.5 97t50.5 75.5t75 49t92 18.5t91 -19.5t73 -54.5v49h123v-316q0 -34 11.5 -40.5t20.5 -6.5q11 0 27.5 11.5t31.5 36t26 63t11 91.5q0 69 -26.5 133t-75.5 112.5t-119 78t-156 29.5q-87 0 -158.5 -32.5t-121.5 -86
t-77.5 -123t-27.5 -143.5q0 -78 27.5 -150.5t79.5 -128t127.5 -88.5t169.5 -33q42 0 85.5 5.5t84 16t76.5 25.5t62 34l38 -64q-29 -21 -69.5 -38t-86 -28.5t-94.5 -17.5t-96 -6zM491 146q47 0 80 35t33 82q0 42 -31.5 77t-81.5 35q-45 0 -80 -29.5t-35 -86.5t35 -85t80 -28z
" />
    <glyph glyph-name="A" unicode="A" horiz-adv-x="758" 
d="M475 251l-98 273l-99 -273h197zM565 0l-40 111h-298l-40 -111h-185l289 746h176l289 -746h-191z" />
    <glyph glyph-name="B" unicode="B" horiz-adv-x="603" 
d="M342 0h-295v746h274q63 0 107 -15t70.5 -41.5t38 -62.5t11.5 -77q0 -43 -22 -84.5t-62 -69.5q54 -29 84.5 -79t30.5 -110q0 -40 -14.5 -77.5t-43.5 -66t-74 -46t-105 -17.5zM278 604h-53v-161h50q55 0 84.5 20.5t29.5 60.5q0 38 -23.5 59t-87.5 21zM285 320h-60v-178h62
q66 0 89.5 24t23.5 63q0 46 -29 68.5t-86 22.5z" />
    <glyph glyph-name="C" unicode="C" horiz-adv-x="624" 
d="M589 734v-170q-31 20 -69.5 30t-79.5 10q-50 0 -94 -18.5t-76.5 -49.5t-51 -73t-18.5 -88q0 -47 18.5 -90t51 -74.5t76.5 -50t94 -18.5q41 0 79.5 10t69.5 30v-171q-36 -17 -76.5 -25t-83.5 -8q-88 0 -163 31t-129.5 84.5t-85 126t-30.5 154.5q0 81 30.5 153.5t85 125.5
t129.5 84t163 31q43 0 83.5 -8.5t76.5 -25.5z" />
    <glyph glyph-name="D" unicode="D" horiz-adv-x="695" 
d="M47 0v746h225q77 0 149 -21.5t126.5 -66.5t87.5 -116t33 -168q0 -99 -32.5 -170t-86.5 -116t-125.5 -66.5t-149.5 -21.5h-227zM225 585v-424h57q41 0 79 13t66.5 39.5t45.5 67t17 93.5t-17 92.5t-45.5 65.5t-66.5 39.5t-79 13.5h-57z" />
    <glyph glyph-name="E" unicode="E" horiz-adv-x="526" 
d="M47 0v746h432v-157h-254v-137h228v-143h-228v-152h262v-157h-440z" />
    <glyph glyph-name="F" unicode="F" horiz-adv-x="529" 
d="M47 0v746h455v-157h-277v-159h243v-157h-243v-273h-178z" />
    <glyph glyph-name="G" unicode="G" horiz-adv-x="833" 
d="M813 375q0 -84 -29.5 -157t-80 -126.5t-120 -84.5t-148.5 -31q-87 0 -163 31.5t-131.5 85t-87.5 126.5t-32 155t32 154.5t87.5 126t131.5 84.5t163 31q81 0 155.5 -29t126.5 -76l-114 -127q-33 33 -76.5 51t-91.5 18q-50 0 -93 -18.5t-74.5 -50t-49.5 -74t-18 -90.5
q0 -49 18 -92t49.5 -74.5t74.5 -50t93 -18.5q68 0 119 41t70 102h-184l59 143h314v-50z" />
    <glyph glyph-name="H" unicode="H" horiz-adv-x="698" 
d="M47 0v746h178v-268h248v268h178v-746h-178v317h-248v-317h-178z" />
    <glyph glyph-name="I" unicode="I" horiz-adv-x="272" 
d="M47 0v746h178v-746h-178z" />
    <glyph glyph-name="J" unicode="J" horiz-adv-x="391" 
d="M9 0v166q19 -10 39 -15.5t38 -5.5q37 0 58.5 32t21.5 113v456h178v-521q0 -113 -52.5 -178t-179.5 -65q-28 0 -54.5 4t-48.5 14z" />
    <glyph glyph-name="K" unicode="K" horiz-adv-x="703" 
d="M462 0l-237 338v-338h-178v746h178v-328l230 328h206l-263 -354l290 -392h-226z" />
    <glyph glyph-name="L" unicode="L" horiz-adv-x="492" 
d="M47 746h178v-585h252v-161h-430v746z" />
    <glyph glyph-name="M" unicode="M" horiz-adv-x="900" 
d="M223 419v-419h-176v746h183l227 -323l215 323h181v-746h-176v418l1 35l-215 -310h-17l-224 313z" />
    <glyph glyph-name="N" unicode="N" horiz-adv-x="767" 
d="M550 0l-325 445v-445h-178v746h171l324 -446v446h178v-746h-170z" />
    <glyph glyph-name="O" unicode="O" horiz-adv-x="869" 
d="M435 770q86 0 162 -31t131.5 -84.5t87.5 -126t32 -154.5t-32 -155t-87.5 -126.5t-131.5 -85t-162 -31.5q-87 0 -163 31.5t-131.5 85t-87.5 126.5t-32 155t32 154.5t87.5 126t131.5 84.5t163 31zM435 607q-50 0 -93 -18.5t-74.5 -50t-49.5 -74t-18 -91.5q0 -48 18 -91
t49.5 -74.5t74.5 -50t93 -18.5q49 0 92 18.5t74.5 50t49.5 74.5t18 91q0 49 -18 91.5t-49.5 74t-74.5 50t-92 18.5z" />
    <glyph glyph-name="P" unicode="P" horiz-adv-x="596" 
d="M263 211h-38v-211h-178v746h219q60 0 117 -12t101 -42t71 -81.5t27 -128.5q0 -72 -29.5 -123.5t-75 -84t-102.5 -48t-112 -15.5zM266 588h-41v-222h41q63 0 100.5 30.5t37.5 85.5q0 51 -34 78.5t-104 27.5z" />
    <glyph glyph-name="Q" unicode="Q" horiz-adv-x="869" 
d="M435 607q-50 0 -93 -18.5t-74.5 -50t-49.5 -74t-18 -91.5q0 -48 18 -91t49.5 -74.5t74.5 -50t93 -18.5q49 0 92 18.5t74.5 50t49.5 74.5t18 91q0 49 -18 91.5t-49.5 74t-74.5 50t-92 18.5zM845 -23h-382q-7 -1 -14 -1h-14q-87 0 -163 31.5t-131.5 85t-87.5 126.5t-32 155
t32 154.5t87.5 126t131.5 84.5t163 31q86 0 162 -31t131.5 -84t87.5 -124t32 -150q0 -77 -39 -149.5t-107 -122.5l156 23z" />
    <glyph glyph-name="R" unicode="R" horiz-adv-x="626" 
d="M269 588h-44v-208h46q59 0 96.5 29t37.5 81q0 49 -35 73.5t-101 24.5zM398 0l-171 240h-2v-240h-178v746h208q62 0 121 -12t104.5 -40.5t73 -77.5t27.5 -123q0 -82 -48.5 -137.5t-117.5 -83.5l196 -272h-213z" />
    <glyph glyph-name="S" unicode="S" horiz-adv-x="521" 
d="M452 738l-1 -151q-28 13 -67.5 21.5t-76.5 8.5q-49 0 -72 -15.5t-23 -41.5t28.5 -52.5t86.5 -68.5q86 -65 129.5 -117t43.5 -121q0 -50 -22 -90t-59.5 -67t-89 -41.5t-110.5 -14.5q-22 0 -47.5 2t-50.5 5.5t-47 8.5t-37 11l1 154q32 -13 81.5 -25t98.5 -12q47 0 73 20
t26 46q0 27 -31.5 56t-93.5 73q-96 68 -131 118.5t-35 114.5q0 39 16 75.5t49.5 64t85 44.5t122.5 17q37 0 79 -5.5t74 -17.5z" />
    <glyph glyph-name="T" unicode="T" horiz-adv-x="480" 
d="M151 0v586h-142v160h462v-160h-142v-586h-178z" />
    <glyph glyph-name="U" unicode="U" horiz-adv-x="712" 
d="M665 322q0 -165 -80 -255.5t-229 -90.5q-148 0 -228.5 90.5t-80.5 255.5v424h178v-456q0 -74 40 -113.5t91 -39.5t91 39.5t40 113.5v456h178v-424z" />
    <glyph glyph-name="V" unicode="V" horiz-adv-x="757" 
d="M474 0h-192l-280 746h192l189 -530l189 530h183z" />
    <glyph glyph-name="W" unicode="W" horiz-adv-x="1008" 
d="M632 0l-127 471l-130 -471h-166l-207 746h185l120 -484l124 484h154l123 -484l121 484h177l-208 -746h-166z" />
    <glyph glyph-name="X" unicode="X" horiz-adv-x="710" 
d="M508 0l-156 270l-148 -270h-196l226 388l-210 358h197l133 -232l135 232h192l-211 -358l232 -388h-194z" />
    <glyph glyph-name="Y" unicode="Y" horiz-adv-x="700" 
d="M439 0h-178v235l-259 511h194l156 -344l166 344h180l-259 -509v-237z" />
    <glyph glyph-name="Z" unicode="Z" horiz-adv-x="649" 
d="M579 0h-562l-4 24l334 568h-291l65 154h496l4 -25l-335 -567h354z" />
    <glyph glyph-name="bracketleft" unicode="[" horiz-adv-x="436" 
d="M106 -214v960h290v-101h-127v-758h135v-101h-298z" />
    <glyph glyph-name="backslash" unicode="\" horiz-adv-x="578" 
d="M11 780h165l480 -1000h-164z" />
    <glyph glyph-name="bracketright" unicode="]" horiz-adv-x="436" 
d="M330 -214h-298v101h135v758h-127v101h290v-960z" />
    <glyph glyph-name="asciicircum" unicode="^" horiz-adv-x="638" 
d="M456 369l-138 239l-138 -239h-150l224 377h127l227 -377h-152z" />
    <glyph glyph-name="underscore" unicode="_" horiz-adv-x="500" 
d="M500 -46v-128h-500v128h500z" />
    <glyph glyph-name="grave" unicode="`" horiz-adv-x="500" 
d="M89 790h193l78 -147h-134z" />
    <glyph glyph-name="a" unicode="a" horiz-adv-x="563" 
d="M272 76q38 0 62.5 27t24.5 66q0 35 -23.5 61t-63.5 26t-63.5 -26t-23.5 -61q0 -38 23.5 -65.5t63.5 -27.5zM371 0v53q-27 -31 -68.5 -52t-98.5 -21q-84 0 -136.5 52.5t-52.5 132.5q0 38 14 72.5t40 59.5t64 39.5t85 14.5q44 0 79.5 -11t60.5 -30v27q0 69 -31 93.5
t-91 24.5q-27 0 -59 -4.5t-83 -14.5l-3 135q52 10 90 14t85 4q128 0 192.5 -55.5t64.5 -152.5v-381h-152z" />
    <glyph glyph-name="b" unicode="b" horiz-adv-x="716" 
d="M416 -19q-69 0 -125.5 27t-94.5 73v-81h-156v780h165v-281q37 43 92 68.5t119 25.5q59 0 110.5 -24t89 -66t59 -98.5t21.5 -120.5t-21.5 -120t-59 -96t-89 -63.5t-110.5 -23.5zM200 287q0 -33 12.5 -62.5t34.5 -52t52 -35.5t64 -13t63.5 13t51 35.5t33.5 52.5t12 63
q0 66 -45.5 114t-114.5 48q-34 0 -64 -13t-52 -35t-34.5 -52t-12.5 -63z" />
    <glyph glyph-name="c" unicode="c" horiz-adv-x="529" 
d="M498 156v-148q-21 -14 -62 -20t-73 -6q-73 0 -136 22.5t-109 63t-72 96.5t-26 123t26 123t72 96.5t109 63t136 22.5q32 0 72.5 -6t62.5 -20v-148h-5q-23 20 -57.5 27t-68.5 7q-75 0 -124.5 -47t-49.5 -118q0 -72 49.5 -118.5t124.5 -46.5q34 0 68.5 7.5t57.5 26.5h5z" />
    <glyph glyph-name="d" unicode="d" horiz-adv-x="716" 
d="M516 287q0 33 -12.5 63t-34.5 52t-52 35t-64 13q-69 0 -114.5 -48t-45.5 -114q0 -33 12 -63t33.5 -52.5t51 -35.5t63.5 -13t64 13t52 35.5t34.5 52t12.5 62.5zM521 0v82q-38 -46 -94.5 -73.5t-126.5 -27.5q-59 0 -110.5 23.5t-89 63.5t-59 96t-21.5 120t21.5 120.5
t59 98.5t89 66t110.5 24q64 0 119 -25.5t92 -68.5v281h165v-780h-155z" />
    <glyph glyph-name="e" unicode="e" horiz-adv-x="667" 
d="M337 467q-52 0 -87.5 -30t-48.5 -83h272q-13 53 -48 83t-88 30zM646 73q-47 -43 -115 -72t-162 -29q-81 0 -146 23.5t-110 65.5t-69 100t-24 126t23.5 126t65.5 100t101 65.5t129 23.5q66 0 123 -23.5t98.5 -65.5t65.5 -100.5t24 -126.5v-43h-454q10 -67 55 -102.5
t120 -35.5q61 0 105 19t77 48z" />
    <glyph glyph-name="f" unicode="f" horiz-adv-x="322" 
d="M309 435h-65v-435h-165v435h-66v139h66v27q0 68 21.5 108.5t55.5 62t77 28t85 6.5v-142q-31 0 -52.5 -13.5t-21.5 -62.5v-14h65v-139z" />
    <glyph glyph-name="g" unicode="g" horiz-adv-x="684" 
d="M336 166q59 0 101 42t42 100q0 60 -42 102.5t-101 42.5q-58 0 -101 -42.5t-43 -102.5q0 -58 43 -100t101 -42zM312 -228q-45 0 -92 4.5t-98 14.5v142q56 -12 99.5 -16.5t85.5 -4.5q76 0 124 34.5t48 130.5v30q-37 -37 -86.5 -59.5t-101.5 -22.5q-53 0 -102.5 20.5
t-87 57.5t-60 90t-22.5 116q0 65 22.5 118.5t60 91t87 58t102.5 20.5q54 0 105 -25t89 -66v68h159v-491q0 -166 -83 -238.5t-249 -72.5z" />
    <glyph glyph-name="h" unicode="h" horiz-adv-x="629" 
d="M205 335v-335h-165v780h157v-280q25 31 73.5 59.5t114.5 28.5q44 0 82 -15t65.5 -42t43 -66.5t15.5 -88.5v-376h-166v325q0 64 -31.5 90.5t-76.5 26.5q-19 0 -39 -7t-36.5 -21t-26.5 -34t-10 -45z" />
    <glyph glyph-name="i" unicode="i" horiz-adv-x="249" 
d="M209 780v-133h-168v133h168zM207 574v-574h-165v574h165z" />
    <glyph glyph-name="j" unicode="j" horiz-adv-x="249" 
d="M209 780v-133h-168v133h168zM-62 -84h15q44 0 66.5 18.5t22.5 65.5v574h165v-575q0 -133 -59 -181.5t-196 -48.5h-14v147z" />
    <glyph glyph-name="k" unicode="k" horiz-adv-x="614" 
d="M414 0l-154 237l-55 -61v-176h-165v780h165v-400l188 194h205l-217 -226l231 -348h-198z" />
    <glyph glyph-name="l" unicode="l" horiz-adv-x="249" 
d="M207 780v-780h-165v780h165z" />
    <glyph glyph-name="m" unicode="m" horiz-adv-x="944" 
d="M206 336v-336h-166v574h159v-84q10 16 25.5 34t36.5 32t48 23.5t59 9.5q57 0 101.5 -29t66.5 -80q9 17 24 36t36.5 35.5t51 27t66.5 10.5q85 0 138.5 -57t53.5 -156v-376h-166v326q0 64 -24.5 90.5t-65.5 26.5q-36 0 -65 -27t-29 -86v-330h-166v326q0 64 -25.5 90.5
t-65.5 26.5t-66.5 -28.5t-26.5 -78.5z" />
    <glyph glyph-name="n" unicode="n" horiz-adv-x="629" 
d="M205 336v-336h-165v574h157v-70q26 31 74 58t114 27q44 0 82 -15t65.5 -42t43 -67t15.5 -89v-376h-166v326q0 63 -31.5 90t-76.5 27q-19 0 -39 -7.5t-36.5 -21t-26.5 -33.5t-10 -45z" />
    <glyph glyph-name="o" unicode="o" horiz-adv-x="715" 
d="M357 602q72 0 134.5 -24.5t107.5 -67t70.5 -100t25.5 -123.5t-25.5 -123.5t-70.5 -100t-107.5 -67t-134.5 -24.5t-134 24.5t-107 67t-70.5 100t-25.5 123.5t25.5 123.5t70.5 100t107 67t134 24.5zM357 460q-70 0 -117 -50.5t-47 -122.5t47 -122.5t117 -50.5
q71 0 118 50.5t47 122.5t-47 122.5t-118 50.5z" />
    <glyph glyph-name="p" unicode="p" horiz-adv-x="716" 
d="M200 287q0 -33 12.5 -63t34.5 -52t52 -35t64 -13q69 0 114.5 48t45.5 114q0 33 -12 63t-33.5 52.5t-51 35.5t-63.5 13t-64 -13t-52 -35.5t-34.5 -52t-12.5 -62.5zM416 -19q-64 0 -119 25.5t-92 68.5v-295h-165v794h156v-81q38 46 94.5 73t125.5 27q59 0 110.5 -23.5
t89 -63.5t59 -96t21.5 -120t-21.5 -120.5t-59 -98.5t-89 -66t-110.5 -24z" />
    <glyph glyph-name="q" unicode="q" horiz-adv-x="716" 
d="M676 -220h-165v295q-37 -43 -92 -68.5t-119 -25.5q-59 0 -110.5 24t-89 66t-59 98.5t-21.5 120.5t21.5 120t59 96t89 63.5t110.5 23.5q70 0 126.5 -27.5t94.5 -73.5v82h155v-794zM516 287q0 33 -12.5 62.5t-34.5 52t-52 35.5t-64 13t-63.5 -13t-51 -35.5t-33.5 -52.5
t-12 -63q0 -66 45.5 -114t114.5 -48q34 0 64 13t52 35t34.5 52t12.5 63z" />
    <glyph glyph-name="r" unicode="r" horiz-adv-x="394" 
d="M205 297v-297h-165v574h157v-124q7 16 22 38t36.5 42t48.5 33.5t59 13.5h19v-181q-5 2 -15 3.5t-17 1.5q-33 0 -60 -10t-45.5 -25.5t-29 -34t-10.5 -34.5z" />
    <glyph glyph-name="s" unicode="s" horiz-adv-x="449" 
d="M240 594q39 0 73 -6.5t61 -16.5v-139q-35 16 -67.5 23t-51.5 7q-28 0 -43.5 -10t-15.5 -26q0 -13 16.5 -28t51.5 -38q101 -67 135 -113.5t34 -94.5q0 -73 -58 -121.5t-164 -49.5q-41 0 -88.5 10.5t-83.5 25.5v139q45 -22 84.5 -32t64.5 -10q37 0 52.5 12.5t15.5 28.5
q0 13 -17.5 31.5t-74.5 55.5q-45 30 -73 54t-43 46t-20.5 44t-5.5 47q0 30 12 59.5t38.5 52t68 36t99.5 13.5z" />
    <glyph glyph-name="t" unicode="t" horiz-adv-x="325" 
d="M312 435h-67v-435h-165v435h-67v139h67v139l165 30v-169h67v-139z" />
    <glyph glyph-name="u" unicode="u" horiz-adv-x="629" 
d="M432 0v70q-26 -31 -74 -58t-114 -27q-88 0 -146.5 57t-58.5 156v376h165v-326q0 -63 31.5 -90t76.5 -27q20 0 40 7.5t36 21t26 33.5t10 45v336h165v-574h-157z" />
    <glyph glyph-name="v" unicode="v" horiz-adv-x="668" 
d="M435 0h-200l-236 574h185l153 -405l159 405h173z" />
    <glyph glyph-name="w" unicode="w" horiz-adv-x="918" 
d="M574 0l-112 344l-110 -344h-157l-196 574h173l104 -358l112 358h150l112 -360l104 360h165l-192 -574h-153z" />
    <glyph glyph-name="x" unicode="x" horiz-adv-x="653" 
d="M450 0l-130 196l-137 -196h-173l212 298l-189 276h184l118 -188l128 188h174l-203 -279l191 -295h-175z" />
    <glyph glyph-name="y" unicode="y" horiz-adv-x="656" 
d="M359 -220h-170l74 205l-264 589h187l158 -397l141 397h172z" />
    <glyph glyph-name="z" unicode="z" horiz-adv-x="574" 
d="M495 0h-485l-8 14l288 421h-237l57 139h435l7 -14l-284 -421h284z" />
    <glyph glyph-name="braceleft" unicode="{" horiz-adv-x="453" 
d="M390 -214h-98q-68 0 -109.5 28.5t-41.5 109.5v192q0 46 -15.5 69.5t-40.5 30.5q-1 1 -4.5 1.5t-4.5 1.5v92q2 1 5 1.5t4 1.5q25 7 40.5 30.5t15.5 68.5v195q0 81 41.5 109.5t109.5 28.5h98v-101h-31q-28 0 -41.5 -15t-13.5 -64v-149q0 -48 -21.5 -84t-67.5 -57v-21
q46 -21 67.5 -54.5t21.5 -82.5v-162q0 -50 13.5 -59.5t41.5 -9.5h31v-101z" />
    <glyph glyph-name="bar" unicode="|" horiz-adv-x="226" 
d="M61 746h103v-906h-103v906z" />
    <glyph glyph-name="braceright" unicode="}" horiz-adv-x="453" 
d="M161 -214h-98v91h31q28 0 41.5 9.5t13.5 59.5v172q0 49 21 83t68 54v21q-47 21 -68 57t-21 84v159q0 49 -13.5 64t-41.5 15h-31v91h98q67 0 108.5 -28.5t41.5 -109.5v-195q0 -45 15.5 -68.5t40.5 -30.5q2 -1 5.5 -1.5t4.5 -1.5v-92q-1 -1 -5 -1.5t-5 -1.5
q-25 -7 -40.5 -30.5t-15.5 -69.5v-192q0 -81 -41.5 -109.5t-108.5 -28.5z" />
    <glyph glyph-name="asciitilde" unicode="~" horiz-adv-x="665" 
d="M181 213l-137 9q0 113 45 164.5t118 51.5q28 0 59 -14.5t61.5 -32.5t59.5 -32.5t51 -14.5q20 0 33 13.5t13 61.5l137 -9q0 -96 -36.5 -153t-114.5 -57q-29 0 -62 14.5t-65.5 31.5t-62.5 31.5t-53 14.5q-17 0 -31.5 -15t-14.5 -64z" />
    <glyph glyph-name="exclamdown" unicode="&#xa1;" horiz-adv-x="335" 
d="M75 746h184v-154h-184v154zM238 525l31 -525h-203l31 525h141z" />
    <glyph glyph-name="cent" unicode="&#xa2;" horiz-adv-x="511" 
d="M492 1q-22 -10 -50 -15t-55 -6v-97h-103v103q-57 10 -106 36t-84 65t-54.5 89.5t-19.5 110.5t19.5 110.5t54.5 89.5t84 65t106 36v107h103v-101q26 -1 53.5 -6.5t51.5 -16.5v-150h-5q-23 18 -54.5 26.5t-62.5 8.5q-37 0 -69.5 -13t-56.5 -36t-38 -54t-14 -66t14 -66
t38 -54t56.5 -36t69.5 -13q31 0 60.5 7.5t56.5 24.5h5v-149z" />
    <glyph glyph-name="sterling" unicode="&#xa3;" horiz-adv-x="614" 
d="M572 129v-129h-533v130h26q38 0 56 23.5t18 73.5v106h-76v99h76v121q0 49 22 88t58.5 65.5t84.5 40.5t99 14q34 0 67.5 -3.5t65.5 -17.5v-142q-26 14 -52.5 20t-53.5 6q-46 0 -83.5 -23.5t-37.5 -63.5v-105h168v-99h-168v-106q0 -33 -8.5 -57.5t-22.5 -39.5z" />
    <glyph glyph-name="currency" unicode="&#xa4;" horiz-adv-x="572" 
d="M468 140l-84 83q-22 -12 -46.5 -19t-51.5 -7t-51.5 7t-46.5 19l-84 -83l-80 82l85 83q-11 21 -17 44.5t-6 47.5t6 47t16 44l-84 84l80 82l84 -83q21 13 46 19.5t52 6.5t52 -6.5t46 -19.5l84 83l80 -81l-85 -85q10 -20 16 -43.5t6 -47.5t-6 -46.5t-16 -43.5l85 -84z
M286 498q-43 0 -71 -30.5t-28 -70.5t28 -70.5t71 -30.5t71 30.5t28 70.5t-28 70.5t-71 30.5z" />
    <glyph glyph-name="yen" unicode="&#xa5;" horiz-adv-x="702" 
d="M645 147h-206v-147h-178v147h-196v99h196v24l-23 45h-173v99h122l-171 332h192l145 -312l153 312h180l-172 -332h131v-99h-183l-23 -45v-24h206v-99z" />
    <glyph glyph-name="brokenbar" unicode="&#xa6;" horiz-adv-x="226" 
d="M61 746h103v-409h-103v409zM61 249h103v-409h-103v409z" />
    <glyph glyph-name="section" unicode="&#xa7;" horiz-adv-x="580" 
d="M302 198q21 -9 38.5 -18t33.5 -19q16 10 26.5 26.5t10.5 37.5q0 22 -22 53.5t-98 67.5q-16 7 -31 14t-28 14q-30 -5 -46.5 -21.5t-16.5 -41.5q0 -12 5 -24.5t19 -26.5t40.5 -29t68.5 -33zM244 -226q-41 0 -85 10t-78 29l2 148q40 -23 79.5 -36.5t81.5 -13.5q40 0 68 16
t28 45q0 12 -4 23t-17.5 23.5t-39 27.5t-68.5 34q-95 37 -138.5 83t-43.5 109q0 49 28.5 96.5t82.5 73.5q-26 28 -36 58t-10 61q0 38 15 75.5t43 67t70 48t96 18.5q33 0 66.5 -6.5t67.5 -25.5l-1 -136q-31 17 -64 24.5t-70 7.5q-30 0 -54.5 -15.5t-24.5 -40.5t32.5 -45.5
t91.5 -51.5q57 -28 94.5 -56.5t59 -57t30 -58t8.5 -59.5q0 -63 -27.5 -104.5t-69.5 -63.5q16 -25 23 -51t7 -51q0 -55 -22 -94t-56.5 -63.5t-78 -36.5t-86.5 -12z" />
    <glyph glyph-name="dieresis" unicode="&#xa8;" horiz-adv-x="500" 
d="M435 796v-121h-139v121h139zM204 796v-121h-139v121h139z" />
    <glyph glyph-name="copyright" unicode="&#xa9;" horiz-adv-x="865" 
d="M433 756q83 0 154.5 -30t123.5 -82t81.5 -122t29.5 -149t-29.5 -149t-81.5 -122t-123.5 -82t-154.5 -30t-155 30t-124 82t-81.5 122t-29.5 149t29.5 149t81.5 122t124 82t155 30zM433 709q-69 0 -131 -26.5t-107.5 -72t-72.5 -107t-27 -130.5t27 -130.5t72.5 -107
t107.5 -72t131 -26.5t130 26.5t107 72t72.5 107t26.5 130.5t-26.5 130.5t-72.5 107t-107 72t-130 26.5zM605 555l-62 -97q-21 14 -42.5 22t-45.5 8q-49 0 -82.5 -32.5t-33.5 -79.5t33.5 -80t82.5 -33q24 0 45.5 8t42.5 22l62 -97q-35 -30 -75.5 -45t-81.5 -15
q-53 0 -98.5 19t-78.5 51.5t-51.5 76.5t-18.5 93t18.5 93t51.5 76t78.5 51t98.5 19q41 0 82 -15t75 -45z" />
    <glyph glyph-name="ordfeminine" unicode="&#xaa;" horiz-adv-x="426" 
d="M202 411q21 0 33.5 15.5t12.5 37.5q0 19 -12 33.5t-34 14.5t-34.5 -14.5t-12.5 -33.5q0 -22 12.5 -37.5t34.5 -15.5zM260 345v36q-19 -20 -48.5 -35t-71.5 -15q-60 0 -96.5 36.5t-36.5 93.5q0 54 37.5 92.5t107.5 38.5q30 0 54 -6.5t41 -16.5v7q0 40 -19.5 54t-62.5 13
q-19 0 -43 -3t-60 -10l-1 123q37 7 67 10t69 3q100 0 152 -40.5t52 -112.5v-268h-141z" />
    <glyph glyph-name="guillemotleft" unicode="&#xab;" horiz-adv-x="629" 
d="M364 0h-138l-185 285v3l185 286h139l-186 -285zM585 0h-138l-185 285v3l185 286h139l-186 -285z" />
    <glyph glyph-name="logicalnot" unicode="&#xac;" horiz-adv-x="654" 
d="M614 117h-166v187h-418v143h584v-330z" />
    <glyph glyph-name="registered" unicode="&#xae;" horiz-adv-x="527" 
d="M264 756q50 0 92.5 -18t73.5 -49t49 -73t18 -89q0 -48 -18 -90t-49 -73t-73.5 -49t-92.5 -18t-93 18t-74 49t-49 73t-18 90q0 47 18 89t49 73t74 49t93 18zM264 728q-41 0 -78.5 -16t-65 -43t-43.5 -64t-16 -78t16 -78t43.5 -64.5t65 -43.5t78.5 -16t78 16t64 43.5
t43 64.5t16 78t-16 78t-43 64t-64 43t-78 16zM265 590h-10v-57h11q14 0 21 7t7 21q0 17 -8.5 23t-20.5 6zM302 400l-42 75h-3v-75h-83v260h87q18 0 37.5 -3.5t36 -13.5t27.5 -28.5t11 -47.5q0 -24 -10.5 -41.5t-26.5 -28.5l55 -91l-5 -6h-84z" />
    <glyph glyph-name="macron" unicode="&#xaf;" horiz-adv-x="500" 
d="M407 786v-117h-314v117h314z" />
    <glyph glyph-name="degree" unicode="&#xb0;" horiz-adv-x="388" 
d="M194 765q36 0 67 -13t54 -35t36 -51.5t13 -62.5t-13 -63t-36 -52t-54 -35t-67 -13t-67 13t-54 35t-36 52t-13 63t13 62.5t36 51.5t54 35t67 13zM194 687q-36 0 -60 -25t-24 -60q0 -34 24 -59t60 -25t60 25t24 59q0 35 -24 60t-60 25z" />
    <glyph glyph-name="plusminus" unicode="&#xb1;" horiz-adv-x="618" 
d="M578 310h-193v-158h-150v158h-195v133h195v184h150v-184h193v-133zM581 117v-118h-544v118h544z" />
    <glyph glyph-name="two.sups" unicode="&#xb2;" horiz-adv-x="428" 
d="M357 279h-323l-9 19q13 16 37.5 47.5t51 64.5t50.5 62.5t34 43.5q19 24 27 40.5t8 36.5q0 22 -17 39t-50 17q-22 0 -46.5 -8.5t-50.5 -27.5v125q28 12 58 17.5t57 5.5q85 -1 134.5 -44t49.5 -108q-1 -50 -24.5 -82t-49.5 -66q-11 -14 -28.5 -34.5t-36.5 -41.5h171z" />
    <glyph glyph-name="three.sups" unicode="&#xb3;" horiz-adv-x="390" 
d="M165 264q-31 0 -69.5 5t-62.5 18v104q20 -13 47.5 -18t43.5 -5q49 -1 77.5 13.5t28.5 39.5q0 24 -26.5 38.5t-69.5 14.5h-29l5 99h24q32 0 53 12.5t21 33.5q0 19 -19 28.5t-50 9.5q-19 0 -42 -3.5t-42 -12.5l6 108q19 5 42.5 8.5t62.5 3.5q74 1 122.5 -34.5t48.5 -88.5
q-1 -31 -17.5 -59t-44.5 -46q37 -17 60 -48t23 -70q0 -66 -53.5 -109t-139.5 -42z" />
    <glyph glyph-name="acute" unicode="&#xb4;" horiz-adv-x="500" 
d="M416 790l-136 -147h-131l77 147h190z" />
    <glyph glyph-name="paragraph" unicode="&#xb6;" horiz-adv-x="652" 
d="M418 -207h-103v479h-25q-58 0 -106 18t-82 49t-53 74t-19 93q0 46 19 89.5t54 77t85 53.5t111 20h299v-953h-102v844h-78v-844z" />
    <glyph glyph-name="periodcentered" unicode="&#xb7;" horiz-adv-x="282" 
d="M48 427h186v-162h-186v162z" />
    <glyph glyph-name="cedilla" unicode="&#xb8;" horiz-adv-x="500" 
d="M222 -207q-17 0 -40.5 3t-44.5 10v65h1q20 -6 41 -9t31 -3q25 0 39 8t14 22t-19 23t-50 9h-18l-3 8l29 84l63 -2l-14 -38q51 -5 80.5 -28t29.5 -61q0 -39 -38 -65t-101 -26z" />
    <glyph glyph-name="one.sups" unicode="&#xb9;" horiz-adv-x="310" 
d="M254 279h-129v286l-82 -77v164l111 94h100v-467z" />
    <glyph glyph-name="ordmasculine" unicode="&#xba;" horiz-adv-x="520" 
d="M260 770q53 0 98.5 -17t78.5 -46.5t52 -70.5t19 -89q0 -49 -19 -90t-52 -71t-78.5 -47t-98.5 -17t-98.5 17t-78.5 47t-52 71t-19 90q0 48 19 89t52 70.5t78.5 46.5t98.5 17zM260 642q-39 0 -65 -27t-26 -68q0 -43 26 -70t65 -27t65.5 27t26.5 70q0 41 -26.5 68t-65.5 27z
" />
    <glyph glyph-name="guillemotright" unicode="&#xbb;" horiz-adv-x="629" 
d="M182 0h-138l185 289l-185 285h138l185 -286v-3zM403 0h-138l185 289l-185 285h138l185 -286v-3z" />
    <glyph glyph-name="onequarter" unicode="&#xbc;" horiz-adv-x="899" 
d="M235 279h-129v286l-82 -77v164l111 94h100v-467zM592 746h146l-458 -746h-144zM708 176v120l-80 -120h80zM868 72h-31v-72h-129v72h-216l-12 26l244 369h113v-291h59z" />
    <glyph glyph-name="onehalf" unicode="&#xbd;" horiz-adv-x="971" 
d="M235 279h-129v286l-82 -77v164l111 94h100v-467zM592 746h146l-458 -746h-144zM918 0h-323l-9 19q13 16 37.5 47.5t51 64.5t50.5 62.5t34 43.5q19 24 27 40.5t8 36.5q0 22 -17 39t-50 17q-22 0 -46.5 -8.5t-50.5 -27.5v125q28 12 58 17.5t57 5.5q85 -1 134.5 -44
t49.5 -108q-1 -50 -24.5 -82t-49.5 -66q-11 -14 -28.5 -34.5t-36.5 -41.5h171z" />
    <glyph glyph-name="threequarters" unicode="&#xbe;" horiz-adv-x="966" 
d="M146 264q-31 0 -69.5 5t-62.5 18v104q20 -13 47.5 -18t43.5 -5q49 -1 77.5 13.5t28.5 39.5q0 24 -26.5 38.5t-69.5 14.5h-29l5 99h24q32 0 53 12.5t21 33.5q0 19 -19 28.5t-50 9.5q-19 0 -42 -3.5t-42 -12.5l6 108q19 5 42.5 8.5t62.5 3.5q74 1 122.5 -34.5t48.5 -88.5
q-1 -31 -17.5 -59t-44.5 -46q37 -17 60 -48t23 -70q0 -66 -53.5 -109t-139.5 -42zM660 746h146l-458 -746h-144zM776 176v120l-80 -120h80zM936 72h-31v-72h-129v72h-216l-12 26l244 369h113v-291h59z" />
    <glyph glyph-name="questiondown" unicode="&#xbf;" horiz-adv-x="561" 
d="M393 746v-138h-158v138h158zM313 -15q-120 0 -191.5 63t-71.5 164q0 53 15 92.5t40.5 66.5t60 42.5t73.5 21.5v109h150v-183h-34q-58 0 -101 -31t-43 -91q0 -49 36.5 -83t106.5 -34q37 0 75 11.5t78 39.5l4 -137q-46 -25 -97.5 -38t-100.5 -13z" />
    <glyph glyph-name="Agrave" unicode="&#xc0;" horiz-adv-x="758" 
d="M475 251l-98 273l-99 -273h197zM565 0l-40 111h-298l-40 -111h-185l289 746h176l289 -746h-191zM169 954h193l78 -147h-134z" />
    <glyph glyph-name="Aacute" unicode="&#xc1;" horiz-adv-x="758" 
d="M475 251l-98 273l-99 -273h197zM565 0l-40 111h-298l-40 -111h-185l289 746h176l289 -746h-191zM579 954l-136 -147h-131l77 147h190z" />
    <glyph glyph-name="Acircumflex" unicode="&#xc2;" horiz-adv-x="758" 
d="M475 251l-98 273l-99 -273h197zM565 0l-40 111h-298l-40 -111h-185l289 746h176l289 -746h-191zM437 807l-61 75l-60 -75h-146l125 147h163l125 -147h-146z" />
    <glyph glyph-name="Atilde" unicode="&#xc3;" horiz-adv-x="758" 
d="M475 251l-98 273l-99 -273h197zM565 0l-40 111h-298l-40 -111h-185l289 746h176l289 -746h-191zM268 808l-122 4q-6 93 33.5 130.5t96.5 37.5q25 0 49.5 -7.5t46.5 -17t41 -17t33 -7.5q16 0 27.5 8.5t11.5 35.5l122 -4q4 -77 -28.5 -118.5t-98.5 -41.5q-25 0 -50.5 7
t-48 16t-41.5 16t-33 7q-16 0 -28 -9.5t-11 -39.5z" />
    <glyph glyph-name="Adieresis" unicode="&#xc4;" horiz-adv-x="758" 
d="M475 251l-98 273l-99 -273h197zM565 0l-40 111h-298l-40 -111h-185l289 746h176l289 -746h-191zM562 928v-121h-139v121h139zM331 928v-121h-139v121h139z" />
    <glyph glyph-name="Aring" unicode="&#xc5;" horiz-adv-x="758" 
d="M475 251l-98 273l-99 -273h197zM565 0l-40 111h-298l-40 -111h-185l289 746h176l289 -746h-191zM377 938q57 0 97 -39.5t40 -91.5t-40 -91.5t-97 -39.5t-97 40t-40 91t40 91t97 40zM377 867q-25 0 -42.5 -17.5t-17.5 -42.5t17.5 -42.5t42.5 -17.5t42.5 17.5t17.5 42.5
t-17.5 42.5t-42.5 17.5z" />
    <glyph glyph-name="AE" unicode="&#xc6;" horiz-adv-x="956" 
d="M465 251l-97 298l-98 -298h195zM547 0l-36 111h-287l-37 -111h-185l280 746h494v-157h-259l51 -137h278v-143h-227l56 -152h279v-157h-407z" />
    <glyph glyph-name="Ccedilla" unicode="&#xc7;" horiz-adv-x="624" 
d="M589 734v-170q-31 20 -69.5 30t-79.5 10q-50 0 -94 -18.5t-76.5 -49.5t-51 -73t-18.5 -88q0 -47 18.5 -90t51 -74.5t76.5 -50t94 -18.5q41 0 79.5 10t69.5 30v-171q-36 -17 -76.5 -25t-83.5 -8q-88 0 -163 31t-129.5 84.5t-85 126t-30.5 154.5q0 81 30.5 153.5t85 125.5
t129.5 84t163 31q43 0 83.5 -8.5t76.5 -25.5zM368 -229q-17 0 -40.5 3t-44.5 10v65h1q20 -6 41 -9t31 -3q25 0 39 8t14 22t-19 23t-50 9h-18l-3 8l29 84l63 -2l-14 -38q51 -5 80.5 -28t29.5 -61q0 -39 -38 -65t-101 -26z" />
    <glyph glyph-name="Egrave" unicode="&#xc8;" horiz-adv-x="526" 
d="M47 0v746h432v-157h-254v-137h228v-143h-228v-152h262v-157h-440zM63 954h193l78 -147h-134z" />
    <glyph glyph-name="Eacute" unicode="&#xc9;" horiz-adv-x="526" 
d="M47 0v746h432v-157h-254v-137h228v-143h-228v-152h262v-157h-440zM473 954l-136 -147h-131l77 147h190z" />
    <glyph glyph-name="Ecircumflex" unicode="&#xca;" horiz-adv-x="526" 
d="M47 0v746h432v-157h-254v-137h228v-143h-228v-152h262v-157h-440zM331 807l-61 75l-60 -75h-146l125 147h163l125 -147h-146z" />
    <glyph glyph-name="Edieresis" unicode="&#xcb;" horiz-adv-x="526" 
d="M47 0v746h432v-157h-254v-137h228v-143h-228v-152h262v-157h-440zM456 928v-121h-139v121h139zM225 928v-121h-139v121h139z" />
    <glyph glyph-name="Igrave" unicode="&#xcc;" horiz-adv-x="272" 
d="M47 0v746h178v-746h-178zM-72 954h193l78 -147h-134z" />
    <glyph glyph-name="Iacute" unicode="&#xcd;" horiz-adv-x="272" 
d="M47 0v746h178v-746h-178zM338 954l-136 -147h-131l77 147h190z" />
    <glyph glyph-name="Icircumflex" unicode="&#xce;" horiz-adv-x="272" 
d="M47 0v746h178v-746h-178zM196 807l-61 75l-60 -75h-146l125 147h163l125 -147h-146z" />
    <glyph glyph-name="Idieresis" unicode="&#xcf;" horiz-adv-x="272" 
d="M47 0v746h178v-746h-178zM321 928v-121h-139v121h139zM90 928v-121h-139v121h139z" />
    <glyph glyph-name="Eth" unicode="&#xd0;" horiz-adv-x="701" 
d="M280 0h-227v312h-47v132h47v302h224q77 0 149 -21.5t127 -66.5t88 -116t33 -168q0 -99 -32.5 -170t-86.5 -116t-125.5 -66.5t-149.5 -21.5zM231 161h56q41 0 79 13t66.5 39.5t45.5 67t17 93.5t-17 92.5t-45.5 65.5t-66.5 39.5t-79 13.5h-56v-141h106v-132h-106v-151z" />
    <glyph glyph-name="Ntilde" unicode="&#xd1;" horiz-adv-x="767" 
d="M550 0l-325 445v-445h-178v746h171l324 -446v446h178v-746h-170zM259 808l-122 4q-6 93 33.5 130.5t96.5 37.5q25 0 49.5 -7.5t46.5 -17t41 -17t33 -7.5q16 0 27.5 8.5t11.5 35.5l122 -4q4 -77 -28.5 -118.5t-98.5 -41.5q-25 0 -50.5 7t-48 16t-41.5 16t-33 7
q-16 0 -28 -9.5t-11 -39.5z" />
    <glyph glyph-name="Ograve" unicode="&#xd2;" horiz-adv-x="869" 
d="M435 770q86 0 162 -31t131.5 -84.5t87.5 -126t32 -154.5t-32 -155t-87.5 -126.5t-131.5 -85t-162 -31.5q-87 0 -163 31.5t-131.5 85t-87.5 126.5t-32 155t32 154.5t87.5 126t131.5 84.5t163 31zM435 607q-50 0 -93 -18.5t-74.5 -50t-49.5 -74t-18 -91.5q0 -48 18 -91
t49.5 -74.5t74.5 -50t93 -18.5q49 0 92 18.5t74.5 50t49.5 74.5t18 91q0 49 -18 91.5t-49.5 74t-74.5 50t-92 18.5zM227 954h193l78 -147h-134z" />
    <glyph glyph-name="Oacute" unicode="&#xd3;" horiz-adv-x="869" 
d="M435 770q86 0 162 -31t131.5 -84.5t87.5 -126t32 -154.5t-32 -155t-87.5 -126.5t-131.5 -85t-162 -31.5q-87 0 -163 31.5t-131.5 85t-87.5 126.5t-32 155t32 154.5t87.5 126t131.5 84.5t163 31zM435 607q-50 0 -93 -18.5t-74.5 -50t-49.5 -74t-18 -91.5q0 -48 18 -91
t49.5 -74.5t74.5 -50t93 -18.5q49 0 92 18.5t74.5 50t49.5 74.5t18 91q0 49 -18 91.5t-49.5 74t-74.5 50t-92 18.5zM637 954l-136 -147h-131l77 147h190z" />
    <glyph glyph-name="Ocircumflex" unicode="&#xd4;" horiz-adv-x="869" 
d="M435 770q86 0 162 -31t131.5 -84.5t87.5 -126t32 -154.5t-32 -155t-87.5 -126.5t-131.5 -85t-162 -31.5q-87 0 -163 31.5t-131.5 85t-87.5 126.5t-32 155t32 154.5t87.5 126t131.5 84.5t163 31zM435 607q-50 0 -93 -18.5t-74.5 -50t-49.5 -74t-18 -91.5q0 -48 18 -91
t49.5 -74.5t74.5 -50t93 -18.5q49 0 92 18.5t74.5 50t49.5 74.5t18 91q0 49 -18 91.5t-49.5 74t-74.5 50t-92 18.5zM495 807l-61 75l-60 -75h-146l125 147h163l125 -147h-146z" />
    <glyph glyph-name="Otilde" unicode="&#xd5;" horiz-adv-x="869" 
d="M435 770q86 0 162 -31t131.5 -84.5t87.5 -126t32 -154.5t-32 -155t-87.5 -126.5t-131.5 -85t-162 -31.5q-87 0 -163 31.5t-131.5 85t-87.5 126.5t-32 155t32 154.5t87.5 126t131.5 84.5t163 31zM435 607q-50 0 -93 -18.5t-74.5 -50t-49.5 -74t-18 -91.5q0 -48 18 -91
t49.5 -74.5t74.5 -50t93 -18.5q49 0 92 18.5t74.5 50t49.5 74.5t18 91q0 49 -18 91.5t-49.5 74t-74.5 50t-92 18.5zM326 808l-122 4q-6 93 33.5 130.5t96.5 37.5q25 0 49.5 -7.5t46.5 -17t41 -17t33 -7.5q16 0 27.5 8.5t11.5 35.5l122 -4q4 -77 -28.5 -118.5t-98.5 -41.5
q-25 0 -50.5 7t-48 16t-41.5 16t-33 7q-16 0 -28 -9.5t-11 -39.5z" />
    <glyph glyph-name="Odieresis" unicode="&#xd6;" horiz-adv-x="869" 
d="M435 770q86 0 162 -31t131.5 -84.5t87.5 -126t32 -154.5t-32 -155t-87.5 -126.5t-131.5 -85t-162 -31.5q-87 0 -163 31.5t-131.5 85t-87.5 126.5t-32 155t32 154.5t87.5 126t131.5 84.5t163 31zM435 607q-50 0 -93 -18.5t-74.5 -50t-49.5 -74t-18 -91.5q0 -48 18 -91
t49.5 -74.5t74.5 -50t93 -18.5q49 0 92 18.5t74.5 50t49.5 74.5t18 91q0 49 -18 91.5t-49.5 74t-74.5 50t-92 18.5zM620 928v-121h-139v121h139zM389 928v-121h-139v121h139z" />
    <glyph glyph-name="multiply" unicode="&#xd7;" horiz-adv-x="568" 
d="M447 88l-167 167l-162 -162l-89 90l162 162l-160 159l93 92l159 -159l151 151l91 -89l-152 -152l167 -166z" />
    <glyph glyph-name="Oslash" unicode="&#xd8;" horiz-adv-x="883" 
d="M200 373q0 -44 15 -83.5t42 -70.5l258 374q-19 7 -39 10.5t-41 3.5q-50 0 -93 -18.5t-74.5 -50t-49.5 -74t-18 -91.5zM435 139q49 0 92 18.5t74.5 50t49.5 74.5t18 91q0 44 -15 84t-42 71l-258 -375q19 -7 39 -10.5t42 -3.5zM435 -24q-48 0 -92.5 9.5t-84.5 27.5l-42 -61
h-143l86 124q-63 54 -100.5 131.5t-37.5 166.5q0 82 32 154.5t87.5 126t131.5 84.5t163 31q47 0 91.5 -9.5t84.5 -27.5l42 61h142l-85 -124q63 -54 100.5 -131t37.5 -165q0 -82 -32 -155t-87.5 -126.5t-131.5 -85t-162 -31.5z" />
    <glyph glyph-name="Ugrave" unicode="&#xd9;" horiz-adv-x="712" 
d="M665 322q0 -165 -80 -255.5t-229 -90.5q-148 0 -228.5 90.5t-80.5 255.5v424h178v-456q0 -74 40 -113.5t91 -39.5t91 39.5t40 113.5v456h178v-424zM147 954h193l78 -147h-134z" />
    <glyph glyph-name="Uacute" unicode="&#xda;" horiz-adv-x="712" 
d="M665 322q0 -165 -80 -255.5t-229 -90.5q-148 0 -228.5 90.5t-80.5 255.5v424h178v-456q0 -74 40 -113.5t91 -39.5t91 39.5t40 113.5v456h178v-424zM557 954l-136 -147h-131l77 147h190z" />
    <glyph glyph-name="Ucircumflex" unicode="&#xdb;" horiz-adv-x="712" 
d="M665 322q0 -165 -80 -255.5t-229 -90.5q-148 0 -228.5 90.5t-80.5 255.5v424h178v-456q0 -74 40 -113.5t91 -39.5t91 39.5t40 113.5v456h178v-424zM416 807l-61 75l-60 -75h-146l125 147h163l125 -147h-146z" />
    <glyph glyph-name="Udieresis" unicode="&#xdc;" horiz-adv-x="712" 
d="M665 322q0 -165 -80 -255.5t-229 -90.5q-148 0 -228.5 90.5t-80.5 255.5v424h178v-456q0 -74 40 -113.5t91 -39.5t91 39.5t40 113.5v456h178v-424zM541 928v-121h-139v121h139zM310 928v-121h-139v121h139z" />
    <glyph glyph-name="Yacute" unicode="&#xdd;" horiz-adv-x="700" 
d="M439 0h-178v235l-259 511h194l156 -344l166 344h180l-259 -509v-237zM553 954l-136 -147h-131l77 147h190z" />
    <glyph glyph-name="Thorn" unicode="&#xde;" horiz-adv-x="588" 
d="M287 490h-62v-192h62q50 0 81 24.5t31 69.5q0 49 -28.5 73.5t-83.5 24.5zM269 143h-44v-143h-178v746h178v-98h48q57 0 112 -10t97 -37.5t67.5 -78t25.5 -130.5q0 -69 -28 -116.5t-72 -77t-98.5 -42.5t-107.5 -13z" />
    <glyph glyph-name="germandbls" unicode="&#xdf;" horiz-adv-x="644" 
d="M312 -148v165q72 38 102 81t30 85q0 48 -35 78t-89 41l70 133h-185v-435h-165v601q0 68 21.5 108.5t55.5 62t76.5 28t85.5 6.5v-142q-31 0 -52.5 -13.5t-21.5 -62.5v-92l47 78h360l4 -6l-107 -211q52 -29 79 -74.5t27 -99.5q0 -57 -22.5 -105.5t-62.5 -89t-96 -74.5
t-122 -62z" />
    <glyph glyph-name="agrave" unicode="&#xe0;" horiz-adv-x="563" 
d="M272 76q38 0 62.5 27t24.5 66q0 35 -23.5 61t-63.5 26t-63.5 -26t-23.5 -61q0 -38 23.5 -65.5t63.5 -27.5zM371 0v53q-27 -31 -68.5 -52t-98.5 -21q-84 0 -136.5 52.5t-52.5 132.5q0 38 14 72.5t40 59.5t64 39.5t85 14.5q44 0 79.5 -11t60.5 -30v27q0 69 -31 93.5
t-91 24.5q-27 0 -59 -4.5t-83 -14.5l-3 135q52 10 90 14t85 4q128 0 192.5 -55.5t64.5 -152.5v-381h-152zM70 797h193l78 -147h-134z" />
    <glyph glyph-name="aacute" unicode="&#xe1;" horiz-adv-x="563" 
d="M272 76q38 0 62.5 27t24.5 66q0 35 -23.5 61t-63.5 26t-63.5 -26t-23.5 -61q0 -38 23.5 -65.5t63.5 -27.5zM371 0v53q-27 -31 -68.5 -52t-98.5 -21q-84 0 -136.5 52.5t-52.5 132.5q0 38 14 72.5t40 59.5t64 39.5t85 14.5q44 0 79.5 -11t60.5 -30v27q0 69 -31 93.5
t-91 24.5q-27 0 -59 -4.5t-83 -14.5l-3 135q52 10 90 14t85 4q128 0 192.5 -55.5t64.5 -152.5v-381h-152zM480 797l-136 -147h-131l77 147h190z" />
    <glyph glyph-name="acircumflex" unicode="&#xe2;" horiz-adv-x="563" 
d="M272 76q38 0 62.5 27t24.5 66q0 35 -23.5 61t-63.5 26t-63.5 -26t-23.5 -61q0 -38 23.5 -65.5t63.5 -27.5zM371 0v53q-27 -31 -68.5 -52t-98.5 -21q-84 0 -136.5 52.5t-52.5 132.5q0 38 14 72.5t40 59.5t64 39.5t85 14.5q44 0 79.5 -11t60.5 -30v27q0 69 -31 93.5
t-91 24.5q-27 0 -59 -4.5t-83 -14.5l-3 135q52 10 90 14t85 4q128 0 192.5 -55.5t64.5 -152.5v-381h-152zM338 650l-61 75l-60 -75h-146l125 147h163l125 -147h-146z" />
    <glyph glyph-name="atilde" unicode="&#xe3;" horiz-adv-x="563" 
d="M272 76q38 0 62.5 27t24.5 66q0 35 -23.5 61t-63.5 26t-63.5 -26t-23.5 -61q0 -38 23.5 -65.5t63.5 -27.5zM371 0v53q-27 -31 -68.5 -52t-98.5 -21q-84 0 -136.5 52.5t-52.5 132.5q0 38 14 72.5t40 59.5t64 39.5t85 14.5q44 0 79.5 -11t60.5 -30v27q0 69 -31 93.5
t-91 24.5q-27 0 -59 -4.5t-83 -14.5l-3 135q52 10 90 14t85 4q128 0 192.5 -55.5t64.5 -152.5v-381h-152zM169 650l-122 4q-6 93 33.5 130.5t96.5 37.5q25 0 49.5 -7.5t46.5 -17t41 -17t33 -7.5q16 0 27.5 8.5t11.5 35.5l122 -4q4 -77 -28.5 -118.5t-98.5 -41.5
q-25 0 -50.5 7t-48 16t-41.5 16t-33 7q-16 0 -28 -9.5t-11 -39.5z" />
    <glyph glyph-name="adieresis" unicode="&#xe4;" horiz-adv-x="563" 
d="M272 76q38 0 62.5 27t24.5 66q0 35 -23.5 61t-63.5 26t-63.5 -26t-23.5 -61q0 -38 23.5 -65.5t63.5 -27.5zM371 0v53q-27 -31 -68.5 -52t-98.5 -21q-84 0 -136.5 52.5t-52.5 132.5q0 38 14 72.5t40 59.5t64 39.5t85 14.5q44 0 79.5 -11t60.5 -30v27q0 69 -31 93.5
t-91 24.5q-27 0 -59 -4.5t-83 -14.5l-3 135q52 10 90 14t85 4q128 0 192.5 -55.5t64.5 -152.5v-381h-152zM466 771v-121h-139v121h139zM235 771v-121h-139v121h139z" />
    <glyph glyph-name="aring" unicode="&#xe5;" horiz-adv-x="563" 
d="M272 76q38 0 62.5 27t24.5 66q0 35 -23.5 61t-63.5 26t-63.5 -26t-23.5 -61q0 -38 23.5 -65.5t63.5 -27.5zM371 0v53q-27 -31 -68.5 -52t-98.5 -21q-84 0 -136.5 52.5t-52.5 132.5q0 38 14 72.5t40 59.5t64 39.5t85 14.5q44 0 79.5 -11t60.5 -30v27q0 69 -31 93.5
t-91 24.5q-27 0 -59 -4.5t-83 -14.5l-3 135q52 10 90 14t85 4q128 0 192.5 -55.5t64.5 -152.5v-381h-152zM278 906q57 0 97 -39.5t40 -91.5t-40 -91.5t-97 -39.5t-97 40t-40 91t40 91t97 40zM278 835q-25 0 -42.5 -17.5t-17.5 -42.5t17.5 -42.5t42.5 -17.5t42.5 17.5
t17.5 42.5t-17.5 42.5t-42.5 17.5z" />
    <glyph glyph-name="ae" unicode="&#xe6;" horiz-adv-x="989" 
d="M659 467q-53 0 -88 -30t-48 -83h271q-13 53 -47.5 83t-87.5 30zM272 69q39 0 64.5 27t25.5 70q0 36 -24.5 63t-65.5 27q-40 0 -64 -27t-24 -63q0 -41 24 -69t64 -28zM967 73q-46 -42 -114 -71.5t-163 -29.5q-82 0 -146 27.5t-107 74.5q-22 -38 -71.5 -70t-131.5 -32
q-50 0 -90.5 14.5t-69 40t-44 60.5t-15.5 75q0 38 14 72.5t40 60.5t64 41t85 15q42 0 75.5 -10t58.5 -26v22q0 69 -29.5 93.5t-89.5 24.5q-28 0 -58 -4.5t-81 -14.5l-3 135q52 10 87.5 14t83.5 4q67 0 115.5 -17t78.5 -48q39 37 91 57.5t113 20.5q66 0 123.5 -23.5t99 -65.5
t65.5 -100.5t24 -126.5v-43h-454q10 -67 55 -102.5t120 -35.5q61 0 104.5 18.5t76.5 48.5z" />
    <glyph glyph-name="ccedilla" unicode="&#xe7;" horiz-adv-x="529" 
d="M498 156v-148q-21 -14 -62 -20t-73 -6q-73 0 -136 22.5t-109 63t-72 96.5t-26 123t26 123t72 96.5t109 63t136 22.5q32 0 72.5 -6t62.5 -20v-148h-5q-23 20 -57.5 27t-68.5 7q-75 0 -124.5 -47t-49.5 -118q0 -72 49.5 -118.5t124.5 -46.5q34 0 68.5 7.5t57.5 26.5h5z
M305 -225q-17 0 -40.5 3.5t-44.5 10.5v64h1q20 -6 41 -9t31 -3q24 0 38.5 8t14.5 22t-19 23t-50 9h-18l-3 8l29 84l63 -2l-14 -38q51 -5 80.5 -28t29.5 -61q0 -39 -38 -65t-101 -26z" />
    <glyph glyph-name="egrave" unicode="&#xe8;" horiz-adv-x="667" 
d="M337 467q-52 0 -87.5 -30t-48.5 -83h272q-13 53 -48 83t-88 30zM646 73q-47 -43 -115 -72t-162 -29q-81 0 -146 23.5t-110 65.5t-69 100t-24 126t23.5 126t65.5 100t101 65.5t129 23.5q66 0 123 -23.5t98.5 -65.5t65.5 -100.5t24 -126.5v-43h-454q10 -67 55 -102.5
t120 -35.5q61 0 105 19t77 48zM131 797h193l78 -147h-134z" />
    <glyph glyph-name="eacute" unicode="&#xe9;" horiz-adv-x="667" 
d="M337 467q-52 0 -87.5 -30t-48.5 -83h272q-13 53 -48 83t-88 30zM646 73q-47 -43 -115 -72t-162 -29q-81 0 -146 23.5t-110 65.5t-69 100t-24 126t23.5 126t65.5 100t101 65.5t129 23.5q66 0 123 -23.5t98.5 -65.5t65.5 -100.5t24 -126.5v-43h-454q10 -67 55 -102.5
t120 -35.5q61 0 105 19t77 48zM540 797l-136 -147h-131l77 147h190z" />
    <glyph glyph-name="ecircumflex" unicode="&#xea;" horiz-adv-x="667" 
d="M337 467q-52 0 -87.5 -30t-48.5 -83h272q-13 53 -48 83t-88 30zM646 73q-47 -43 -115 -72t-162 -29q-81 0 -146 23.5t-110 65.5t-69 100t-24 126t23.5 126t65.5 100t101 65.5t129 23.5q66 0 123 -23.5t98.5 -65.5t65.5 -100.5t24 -126.5v-43h-454q10 -67 55 -102.5
t120 -35.5q61 0 105 19t77 48zM399 650l-61 75l-60 -75h-146l125 147h163l125 -147h-146z" />
    <glyph glyph-name="edieresis" unicode="&#xeb;" horiz-adv-x="667" 
d="M337 467q-52 0 -87.5 -30t-48.5 -83h272q-13 53 -48 83t-88 30zM646 73q-47 -43 -115 -72t-162 -29q-81 0 -146 23.5t-110 65.5t-69 100t-24 126t23.5 126t65.5 100t101 65.5t129 23.5q66 0 123 -23.5t98.5 -65.5t65.5 -100.5t24 -126.5v-43h-454q10 -67 55 -102.5
t120 -35.5q61 0 105 19t77 48zM524 771v-121h-139v121h139zM293 771v-121h-139v121h139z" />
    <glyph glyph-name="igrave" unicode="&#xec;" horiz-adv-x="248" 
d="M206 574v-574h-165v574h165zM-84 797h193l78 -147h-134z" />
    <glyph glyph-name="iacute" unicode="&#xed;" horiz-adv-x="248" 
d="M206 574v-574h-165v574h165zM326 797l-136 -147h-131l77 147h190z" />
    <glyph glyph-name="icircumflex" unicode="&#xee;" horiz-adv-x="248" 
d="M206 574v-574h-165v574h165zM184 650l-61 75l-60 -75h-146l125 147h163l125 -147h-146z" />
    <glyph glyph-name="idieresis" unicode="&#xef;" horiz-adv-x="248" 
d="M206 574v-574h-165v574h165zM309 771v-121h-139v121h139zM78 771v-121h-139v121h139z" />
    <glyph glyph-name="eth" unicode="&#xf0;" horiz-adv-x="710" 
d="M355 -26q-71 0 -132.5 24.5t-106.5 66t-70.5 98.5t-25.5 121q0 60 25 113.5t69.5 93t106.5 62.5t134 23q14 0 28.5 -1t27.5 -3q-15 16 -31.5 31t-33.5 29l-175 -42l-48 74l137 33q-32 22 -66 43t-68 40h236q16 -10 32.5 -21t32.5 -22l164 39l48 -73l-132 -32
q81 -76 132 -170t51 -193v-15q0 -68 -25.5 -126.5t-70.5 -101t-106.5 -67t-132.5 -24.5zM355 456q-35 0 -65 -13.5t-51.5 -36.5t-34 -54t-12.5 -65q0 -35 12.5 -66t34 -53.5t51.5 -36t65 -13.5t64.5 13.5t51 36t34 53.5t12.5 66q0 34 -12.5 65t-34 54t-51 36.5t-64.5 13.5z
" />
    <glyph glyph-name="ntilde" unicode="&#xf1;" horiz-adv-x="629" 
d="M205 336v-336h-165v574h157v-70q26 31 74 58t114 27q44 0 82 -15t65.5 -42t43 -67t15.5 -89v-376h-166v326q0 63 -31.5 90t-76.5 27q-19 0 -39 -7.5t-36.5 -21t-26.5 -33.5t-10 -45zM201 650l-122 4q-6 93 33.5 130.5t96.5 37.5q25 0 49.5 -7.5t46.5 -17t41 -17t33 -7.5
q16 0 27.5 8.5t11.5 35.5l122 -4q4 -77 -28.5 -118.5t-98.5 -41.5q-25 0 -50.5 7t-48 16t-41.5 16t-33 7q-16 0 -28 -9.5t-11 -39.5z" />
    <glyph glyph-name="ograve" unicode="&#xf2;" horiz-adv-x="715" 
d="M357 602q72 0 134.5 -24.5t107.5 -67t70.5 -100t25.5 -123.5t-25.5 -123.5t-70.5 -100t-107.5 -67t-134.5 -24.5t-134 24.5t-107 67t-70.5 100t-25.5 123.5t25.5 123.5t70.5 100t107 67t134 24.5zM357 460q-70 0 -117 -50.5t-47 -122.5t47 -122.5t117 -50.5
q71 0 118 50.5t47 122.5t-47 122.5t-118 50.5zM149 797h193l78 -147h-134z" />
    <glyph glyph-name="oacute" unicode="&#xf3;" horiz-adv-x="715" 
d="M357 602q72 0 134.5 -24.5t107.5 -67t70.5 -100t25.5 -123.5t-25.5 -123.5t-70.5 -100t-107.5 -67t-134.5 -24.5t-134 24.5t-107 67t-70.5 100t-25.5 123.5t25.5 123.5t70.5 100t107 67t134 24.5zM357 460q-70 0 -117 -50.5t-47 -122.5t47 -122.5t117 -50.5
q71 0 118 50.5t47 122.5t-47 122.5t-118 50.5zM559 797l-136 -147h-131l77 147h190z" />
    <glyph glyph-name="ocircumflex" unicode="&#xf4;" horiz-adv-x="715" 
d="M357 602q72 0 134.5 -24.5t107.5 -67t70.5 -100t25.5 -123.5t-25.5 -123.5t-70.5 -100t-107.5 -67t-134.5 -24.5t-134 24.5t-107 67t-70.5 100t-25.5 123.5t25.5 123.5t70.5 100t107 67t134 24.5zM357 460q-70 0 -117 -50.5t-47 -122.5t47 -122.5t117 -50.5
q71 0 118 50.5t47 122.5t-47 122.5t-118 50.5zM417 650l-61 75l-60 -75h-146l125 147h163l125 -147h-146z" />
    <glyph glyph-name="otilde" unicode="&#xf5;" horiz-adv-x="715" 
d="M357 602q72 0 134.5 -24.5t107.5 -67t70.5 -100t25.5 -123.5t-25.5 -123.5t-70.5 -100t-107.5 -67t-134.5 -24.5t-134 24.5t-107 67t-70.5 100t-25.5 123.5t25.5 123.5t70.5 100t107 67t134 24.5zM357 460q-70 0 -117 -50.5t-47 -122.5t47 -122.5t117 -50.5
q71 0 118 50.5t47 122.5t-47 122.5t-118 50.5zM248 650l-122 4q-6 93 33.5 130.5t96.5 37.5q25 0 49.5 -7.5t46.5 -17t41 -17t33 -7.5q16 0 27.5 8.5t11.5 35.5l122 -4q4 -77 -28.5 -118.5t-98.5 -41.5q-25 0 -50.5 7t-48 16t-41.5 16t-33 7q-16 0 -28 -9.5t-11 -39.5z" />
    <glyph glyph-name="odieresis" unicode="&#xf6;" horiz-adv-x="715" 
d="M357 602q72 0 134.5 -24.5t107.5 -67t70.5 -100t25.5 -123.5t-25.5 -123.5t-70.5 -100t-107.5 -67t-134.5 -24.5t-134 24.5t-107 67t-70.5 100t-25.5 123.5t25.5 123.5t70.5 100t107 67t134 24.5zM357 460q-70 0 -117 -50.5t-47 -122.5t47 -122.5t117 -50.5
q71 0 118 50.5t47 122.5t-47 122.5t-118 50.5zM542 771v-121h-139v121h139zM311 771v-121h-139v121h139z" />
    <glyph glyph-name="divide" unicode="&#xf7;" horiz-adv-x="600" 
d="M225 491v147h150v-147h-150zM566 415v-131h-532v131h532zM225 61v147h150v-147h-150z" />
    <glyph glyph-name="oslash" unicode="&#xf8;" horiz-adv-x="710" 
d="M193 287q0 -26 6.5 -50.5t19.5 -44.5l152 267q-3 1 -6.5 1h-7.5q-70 0 -117 -50.5t-47 -122.5zM357 114q71 0 118 50.5t47 122.5q0 28 -8 53.5t-21 46.5l-155 -272q4 -1 9.5 -1h9.5zM357 -28q-25 0 -48.5 3t-45.5 9l-18 -32h-163l54 94q-54 43 -85 106t-31 135
q0 66 25.5 123.5t70.5 100t107 67t134 24.5q23 0 45.5 -3t44.5 -7l17 30h163l-52 -91q55 -43 87.5 -106.5t32.5 -137.5q0 -66 -25.5 -123.5t-70.5 -100t-107.5 -67t-134.5 -24.5z" />
    <glyph glyph-name="ugrave" unicode="&#xf9;" horiz-adv-x="629" 
d="M432 0v70q-26 -31 -74 -58t-114 -27q-88 0 -146.5 57t-58.5 156v376h165v-326q0 -63 31.5 -90t76.5 -27q20 0 40 7.5t36 21t26 33.5t10 45v336h165v-574h-157zM105 797h193l78 -147h-134z" />
    <glyph glyph-name="uacute" unicode="&#xfa;" horiz-adv-x="629" 
d="M432 0v70q-26 -31 -74 -58t-114 -27q-88 0 -146.5 57t-58.5 156v376h165v-326q0 -63 31.5 -90t76.5 -27q20 0 40 7.5t36 21t26 33.5t10 45v336h165v-574h-157zM515 797l-136 -147h-131l77 147h190z" />
    <glyph glyph-name="ucircumflex" unicode="&#xfb;" horiz-adv-x="629" 
d="M432 0v70q-26 -31 -74 -58t-114 -27q-88 0 -146.5 57t-58.5 156v376h165v-326q0 -63 31.5 -90t76.5 -27q20 0 40 7.5t36 21t26 33.5t10 45v336h165v-574h-157zM374 650l-61 75l-60 -75h-146l125 147h163l125 -147h-146z" />
    <glyph glyph-name="udieresis" unicode="&#xfc;" horiz-adv-x="629" 
d="M432 0v70q-26 -31 -74 -58t-114 -27q-88 0 -146.5 57t-58.5 156v376h165v-326q0 -63 31.5 -90t76.5 -27q20 0 40 7.5t36 21t26 33.5t10 45v336h165v-574h-157zM498 771v-121h-139v121h139zM267 771v-121h-139v121h139z" />
    <glyph glyph-name="yacute" unicode="&#xfd;" horiz-adv-x="656" 
d="M359 -220h-170l74 205l-264 589h187l158 -397l141 397h172zM535 797l-136 -147h-131l77 147h190z" />
    <glyph glyph-name="thorn" unicode="&#xfe;" horiz-adv-x="716" 
d="M200 287q0 -33 12.5 -63t34.5 -52t52 -35t64 -13q69 0 114.5 48.5t45.5 115.5q0 33 -12 62.5t-33.5 51.5t-51 35t-63.5 13t-64 -13t-52 -35.5t-34.5 -52t-12.5 -62.5zM416 -19q-64 0 -118.5 25t-92.5 68v-294h-165v1000h165v-279q37 43 91.5 67.5t119.5 24.5
q59 0 110.5 -23.5t89 -65t59 -97.5t21.5 -120t-21.5 -120t-59 -97.5t-89 -65t-110.5 -23.5z" />
    <glyph glyph-name="ydieresis" unicode="&#xff;" horiz-adv-x="656" 
d="M359 -220h-170l74 205l-264 589h187l158 -397l141 397h172zM518 771v-121h-139v121h139zM287 771v-121h-139v121h139z" />
    <glyph glyph-name="Amacron" unicode="&#x100;" horiz-adv-x="758" 
d="M475 251l-98 273l-99 -273h197zM565 0l-40 111h-298l-40 -111h-185l289 746h176l289 -746h-191zM534 924v-117h-314v117h314z" />
    <glyph glyph-name="amacron" unicode="&#x101;" horiz-adv-x="563" 
d="M272 76q38 0 62.5 27t24.5 66q0 35 -23.5 61t-63.5 26t-63.5 -26t-23.5 -61q0 -38 23.5 -65.5t63.5 -27.5zM371 0v53q-27 -31 -68.5 -52t-98.5 -21q-84 0 -136.5 52.5t-52.5 132.5q0 38 14 72.5t40 59.5t64 39.5t85 14.5q44 0 79.5 -11t60.5 -30v27q0 69 -31 93.5
t-91 24.5q-27 0 -59 -4.5t-83 -14.5l-3 135q52 10 90 14t85 4q128 0 192.5 -55.5t64.5 -152.5v-381h-152zM435 766v-117h-314v117h314z" />
    <glyph glyph-name="Abreve" unicode="&#x102;" horiz-adv-x="758" 
d="M475 251l-98 273l-99 -273h197zM565 0l-40 111h-298l-40 -111h-185l289 746h176l289 -746h-191zM552 963q-10 -71 -56.5 -116t-118.5 -45t-118.5 45t-56.5 116l96 3q12 -34 34 -50.5t45 -16.5t45 16.5t34 50.5z" />
    <glyph glyph-name="abreve" unicode="&#x103;" horiz-adv-x="563" 
d="M272 76q38 0 62.5 27t24.5 66q0 35 -23.5 61t-63.5 26t-63.5 -26t-23.5 -61q0 -38 23.5 -65.5t63.5 -27.5zM371 0v53q-27 -31 -68.5 -52t-98.5 -21q-84 0 -136.5 52.5t-52.5 132.5q0 38 14 72.5t40 59.5t64 39.5t85 14.5q44 0 79.5 -11t60.5 -30v27q0 69 -31 93.5
t-91 24.5q-27 0 -59 -4.5t-83 -14.5l-3 135q52 10 90 14t85 4q128 0 192.5 -55.5t64.5 -152.5v-381h-152zM453 806q-10 -71 -56.5 -116t-118.5 -45t-118.5 45t-56.5 116l96 3q12 -34 34 -50.5t45 -16.5t45 16.5t34 50.5z" />
    <glyph glyph-name="Aogonek" unicode="&#x104;" horiz-adv-x="758" 
d="M643 -191q-60 0 -87 26.5t-27 60.5q0 31 17.5 56.5t42.5 41.5l-21 -1l-42 118h-299l-40 -111h-185l289 746h176l289 -746l-64 -38q-22 -13 -29 -22.5t-7 -19.5q0 -11 8.5 -19t21.5 -8q11 0 21 4.5t16 8.5l43 -55q-17 -16 -48.5 -28.5t-74.5 -13.5zM475 251l-98 273
l-99 -273h197z" />
    <glyph glyph-name="aogonek" unicode="&#x105;" horiz-adv-x="563" 
d="M410 -191q-60 0 -87 26.5t-27 60.5q0 30 18.5 54t44.5 40l12 7v56q-27 -31 -68.5 -52t-98.5 -21q-84 0 -136.5 52.5t-52.5 132.5q0 38 14 72.5t40 59.5t64 39.5t85 14.5q44 0 79.5 -11t60.5 -30v27q0 69 -31 93.5t-91 24.5q-27 0 -59 -4.5t-83 -14.5l-3 135
q52 10 89.5 14t85.5 4q128 0 192.5 -55.5t64.5 -152.5v-381l-64 -38q-20 -13 -28 -22.5t-8 -19.5q0 -11 8.5 -19t21.5 -8q12 0 21.5 4.5t15.5 8.5l43 -55q-17 -16 -48.5 -28.5t-74.5 -13.5zM272 76q38 0 62.5 27t24.5 66q0 35 -23.5 61t-63.5 26t-63.5 -26t-23.5 -61
q0 -38 23.5 -65.5t63.5 -27.5z" />
    <glyph glyph-name="Cacute" unicode="&#x106;" horiz-adv-x="624" 
d="M589 734v-170q-31 20 -69.5 30t-79.5 10q-50 0 -94 -18.5t-76.5 -49.5t-51 -73t-18.5 -88q0 -47 18.5 -90t51 -74.5t76.5 -50t94 -18.5q41 0 79.5 10t69.5 30v-171q-36 -17 -76.5 -25t-83.5 -8q-88 0 -163 31t-129.5 84.5t-85 126t-30.5 154.5q0 81 30.5 153.5t85 125.5
t129.5 84t163 31q43 0 83.5 -8.5t76.5 -25.5zM598 954l-136 -147h-131l77 147h190z" />
    <glyph glyph-name="cacute" unicode="&#x107;" horiz-adv-x="529" 
d="M498 156v-148q-21 -14 -62 -20t-73 -6q-73 0 -136 22.5t-109 63t-72 96.5t-26 123t26 123t72 96.5t109 63t136 22.5q32 0 72.5 -6t62.5 -20v-148h-5q-23 20 -57.5 27t-68.5 7q-75 0 -124.5 -47t-49.5 -118q0 -72 49.5 -118.5t124.5 -46.5q34 0 68.5 7.5t57.5 26.5h5z
M537 797l-136 -147h-131l77 147h190z" />
    <glyph glyph-name="Ccircumflex" unicode="&#x108;" horiz-adv-x="624" 
d="M589 734v-170q-31 20 -69.5 30t-79.5 10q-50 0 -94 -18.5t-76.5 -49.5t-51 -73t-18.5 -88q0 -47 18.5 -90t51 -74.5t76.5 -50t94 -18.5q41 0 79.5 10t69.5 30v-171q-36 -17 -76.5 -25t-83.5 -8q-88 0 -163 31t-129.5 84.5t-85 126t-30.5 154.5q0 81 30.5 153.5t85 125.5
t129.5 84t163 31q43 0 83.5 -8.5t76.5 -25.5zM457 807l-61 75l-60 -75h-146l125 147h163l125 -147h-146z" />
    <glyph glyph-name="ccircumflex" unicode="&#x109;" horiz-adv-x="529" 
d="M498 156v-148q-21 -14 -62 -20t-73 -6q-73 0 -136 22.5t-109 63t-72 96.5t-26 123t26 123t72 96.5t109 63t136 22.5q32 0 72.5 -6t62.5 -20v-148h-5q-23 20 -57.5 27t-68.5 7q-75 0 -124.5 -47t-49.5 -118q0 -72 49.5 -118.5t124.5 -46.5q34 0 68.5 7.5t57.5 26.5h5z
M396 650l-61 75l-60 -75h-146l125 147h163l125 -147h-146z" />
    <glyph glyph-name="Cdotaccent" unicode="&#x10a;" horiz-adv-x="624" 
d="M589 734v-170q-31 20 -69.5 30t-79.5 10q-50 0 -94 -18.5t-76.5 -49.5t-51 -73t-18.5 -88q0 -47 18.5 -90t51 -74.5t76.5 -50t94 -18.5q41 0 79.5 10t69.5 30v-171q-36 -17 -76.5 -25t-83.5 -8q-88 0 -163 31t-129.5 84.5t-85 126t-30.5 154.5q0 81 30.5 153.5t85 125.5
t129.5 84t163 31q43 0 83.5 -8.5t76.5 -25.5zM481 925v-118h-168v118h168z" />
    <glyph glyph-name="cdotaccent" unicode="&#x10b;" horiz-adv-x="529" 
d="M498 156v-148q-21 -14 -62 -20t-73 -6q-73 0 -136 22.5t-109 63t-72 96.5t-26 123t26 123t72 96.5t109 63t136 22.5q32 0 72.5 -6t62.5 -20v-148h-5q-23 20 -57.5 27t-68.5 7q-75 0 -124.5 -47t-49.5 -118q0 -72 49.5 -118.5t124.5 -46.5q34 0 68.5 7.5t57.5 26.5h5z
M420 781v-134h-168v134h168z" />
    <glyph glyph-name="Ccaron" unicode="&#x10c;" horiz-adv-x="624" 
d="M589 734v-170q-31 20 -69.5 30t-79.5 10q-50 0 -94 -18.5t-76.5 -49.5t-51 -73t-18.5 -88q0 -47 18.5 -90t51 -74.5t76.5 -50t94 -18.5q41 0 79.5 10t69.5 30v-171q-36 -17 -76.5 -25t-83.5 -8q-88 0 -163 31t-129.5 84.5t-85 126t-30.5 154.5q0 81 30.5 153.5t85 125.5
t129.5 84t163 31q43 0 83.5 -8.5t76.5 -25.5zM478 807h-163l-125 147h144l60 -76l61 76h148z" />
    <glyph glyph-name="ccaron" unicode="&#x10d;" horiz-adv-x="529" 
d="M498 156v-148q-21 -14 -62 -20t-73 -6q-73 0 -136 22.5t-109 63t-72 96.5t-26 123t26 123t72 96.5t109 63t136 22.5q32 0 72.5 -6t62.5 -20v-148h-5q-23 20 -57.5 27t-68.5 7q-75 0 -124.5 -47t-49.5 -118q0 -72 49.5 -118.5t124.5 -46.5q34 0 68.5 7.5t57.5 26.5h5z
M417 650h-163l-125 147h144l60 -76l61 76h148z" />
    <glyph glyph-name="Dcaron" unicode="&#x10e;" horiz-adv-x="695" 
d="M47 0v746h225q77 0 149 -21.5t126.5 -66.5t87.5 -116t33 -168q0 -99 -32.5 -170t-86.5 -116t-125.5 -66.5t-149.5 -21.5h-227zM225 585v-424h57q41 0 79 13t66.5 39.5t45.5 67t17 93.5t-17 92.5t-45.5 65.5t-66.5 39.5t-79 13.5h-57zM403 807h-163l-125 147h144l60 -76
l61 76h148z" />
    <glyph glyph-name="dcaron" unicode="&#x10f;" horiz-adv-x="716" 
d="M516 287q0 33 -12.5 63t-34.5 52t-52 35t-64 13q-69 0 -114.5 -48t-45.5 -114q0 -33 12 -63t33.5 -52.5t51 -35.5t63.5 -13t64 13t52 35.5t34.5 52t12.5 62.5zM521 0v82q-38 -46 -94.5 -73.5t-126.5 -27.5q-59 0 -110.5 23.5t-89 63.5t-59 96t-21.5 120t21.5 120.5
t59 98.5t89 66t110.5 24q64 0 119 -25.5t92 -68.5v281h165v-780h-155zM869 780l-63 -181h-90l18 181h135z" />
    <glyph glyph-name="Dcroat" unicode="&#x110;" horiz-adv-x="705" 
d="M286 0h-227v312h-47v132h47v302h224q77 0 149 -21.5t127 -66.5t88 -116t33 -168q0 -99 -32.5 -170t-86.5 -116t-125.5 -66.5t-149.5 -21.5zM237 161h56q41 0 79 13t66.5 39.5t45.5 67t17 93.5t-17 92.5t-45.5 65.5t-66.5 39.5t-79 13.5h-56v-141h106v-132h-106v-151z" />
    <glyph glyph-name="dcroat" unicode="&#x111;" horiz-adv-x="716" 
d="M516 287q0 33 -12.5 63t-34.5 52t-52 35t-64 13q-69 0 -114.5 -48t-45.5 -114q0 -33 12 -63t33.5 -52.5t51 -35.5t63.5 -13t64 13t52 35.5t34.5 52t12.5 62.5zM521 0v82q-38 -46 -94.5 -73.5t-126.5 -27.5q-59 0 -110.5 23.5t-89 63.5t-59 96t-21.5 120t21.5 120.5
t59 98.5t89 66t110.5 24q64 0 119 -25.5t92 -68.5v105h-84v98h84v78h165v-78h48v-98h-48v-604h-155z" />
    <glyph glyph-name="Emacron" unicode="&#x112;" horiz-adv-x="526" 
d="M47 0v746h432v-157h-254v-137h228v-143h-228v-152h262v-157h-440zM428 924v-117h-314v117h314z" />
    <glyph glyph-name="emacron" unicode="&#x113;" horiz-adv-x="667" 
d="M337 467q-52 0 -87.5 -30t-48.5 -83h272q-13 53 -48 83t-88 30zM646 73q-47 -43 -115 -72t-162 -29q-81 0 -146 23.5t-110 65.5t-69 100t-24 126t23.5 126t65.5 100t101 65.5t129 23.5q66 0 123 -23.5t98.5 -65.5t65.5 -100.5t24 -126.5v-43h-454q10 -67 55 -102.5
t120 -35.5q61 0 105 19t77 48zM496 766v-117h-314v117h314z" />
    <glyph glyph-name="Ebreve" unicode="&#x114;" horiz-adv-x="526" 
d="M47 0v746h432v-157h-254v-137h228v-143h-228v-152h262v-157h-440zM446 963q-10 -71 -56.5 -116t-118.5 -45t-118.5 45t-56.5 116l96 3q12 -34 34 -50.5t45 -16.5t45 16.5t34 50.5z" />
    <glyph glyph-name="ebreve" unicode="&#x115;" horiz-adv-x="667" 
d="M337 467q-52 0 -87.5 -30t-48.5 -83h272q-13 53 -48 83t-88 30zM646 73q-47 -43 -115 -72t-162 -29q-81 0 -146 23.5t-110 65.5t-69 100t-24 126t23.5 126t65.5 100t101 65.5t129 23.5q66 0 123 -23.5t98.5 -65.5t65.5 -100.5t24 -126.5v-43h-454q10 -67 55 -102.5
t120 -35.5q61 0 105 19t77 48zM514 806q-10 -71 -56.5 -116t-118.5 -45t-118.5 45t-56.5 116l96 3q12 -34 34 -50.5t45 -16.5t45 16.5t34 50.5z" />
    <glyph glyph-name="Edotaccent" unicode="&#x116;" horiz-adv-x="526" 
d="M47 0v746h432v-157h-254v-137h228v-143h-228v-152h262v-157h-440zM355 925v-118h-168v118h168z" />
    <glyph glyph-name="edotaccent" unicode="&#x117;" horiz-adv-x="667" 
d="M337 467q-52 0 -87.5 -30t-48.5 -83h272q-13 53 -48 83t-88 30zM646 73q-47 -43 -115 -72t-162 -29q-81 0 -146 23.5t-110 65.5t-69 100t-24 126t23.5 126t65.5 100t101 65.5t129 23.5q66 0 123 -23.5t98.5 -65.5t65.5 -100.5t24 -126.5v-43h-454q10 -67 55 -102.5
t120 -35.5q61 0 105 19t77 48zM423 781v-134h-168v134h168z" />
    <glyph glyph-name="Eogonek" unicode="&#x118;" horiz-adv-x="526" 
d="M497 -149q-17 -16 -48.5 -28.5t-74.5 -13.5q-60 0 -87 26.5t-27 60.5q0 30 18 54t45 40l17 10h-293v746h432v-157h-254v-137h228v-143h-228v-152h262v-157l-64 -38q-21 -13 -28.5 -22.5t-7.5 -19.5q0 -12 8.5 -19.5t21.5 -7.5q11 0 21 4.5t16 8.5z" />
    <glyph glyph-name="eogonek" unicode="&#x119;" horiz-adv-x="667" 
d="M337 467q-52 0 -87.5 -30t-48.5 -83h272q-13 53 -48 83t-88 30zM645 -149q-17 -16 -48.5 -28.5t-74.5 -13.5q-61 0 -89.5 27t-28.5 63q0 23 9 42t23 36q-16 -2 -32.5 -3.5t-34.5 -1.5q-81 0 -146 23.5t-110 65.5t-69 100t-24 126t23.5 126t65.5 100t101 65.5t129 23.5
q66 0 123 -23.5t98.5 -65.5t65.5 -100.5t24 -126.5v-43h-454q10 -67 55 -102.5t120 -35.5q61 0 105 19t77 48l93 -99q-1 -1 -2.5 -2t-2.5 -2l-76 -85q-18 -19 -25.5 -33t-7.5 -25q0 -14 8.5 -23.5t24.5 -9.5q11 0 21 4.5t16 8.5z" />
    <glyph glyph-name="Ecaron" unicode="&#x11a;" horiz-adv-x="526" 
d="M47 0v746h432v-157h-254v-137h228v-143h-228v-152h262v-157h-440zM353 807h-163l-125 147h144l60 -76l61 76h148z" />
    <glyph glyph-name="ecaron" unicode="&#x11b;" horiz-adv-x="667" 
d="M337 467q-52 0 -87.5 -30t-48.5 -83h272q-13 53 -48 83t-88 30zM646 73q-47 -43 -115 -72t-162 -29q-81 0 -146 23.5t-110 65.5t-69 100t-24 126t23.5 126t65.5 100t101 65.5t129 23.5q66 0 123 -23.5t98.5 -65.5t65.5 -100.5t24 -126.5v-43h-454q10 -67 55 -102.5
t120 -35.5q61 0 105 19t77 48zM421 650h-163l-125 147h144l60 -76l61 76h148z" />
    <glyph glyph-name="Gcircumflex" unicode="&#x11c;" horiz-adv-x="833" 
d="M813 375q0 -84 -29.5 -157t-80 -126.5t-120 -84.5t-148.5 -31q-87 0 -163 31.5t-131.5 85t-87.5 126.5t-32 155t32 154.5t87.5 126t131.5 84.5t163 31q81 0 155.5 -29t126.5 -76l-114 -127q-33 33 -76.5 51t-91.5 18q-50 0 -93 -18.5t-74.5 -50t-49.5 -74t-18 -90.5
q0 -49 18 -92t49.5 -74.5t74.5 -50t93 -18.5q68 0 119 41t70 102h-184l59 143h314v-50zM495 807l-61 75l-60 -75h-146l125 147h163l125 -147h-146z" />
    <glyph glyph-name="gcircumflex" unicode="&#x11d;" horiz-adv-x="684" 
d="M336 166q59 0 101 42t42 100q0 60 -42 102.5t-101 42.5q-58 0 -101 -42.5t-43 -102.5q0 -58 43 -100t101 -42zM312 -228q-45 0 -92 4.5t-98 14.5v142q56 -12 99.5 -16.5t85.5 -4.5q76 0 124 34.5t48 130.5v30q-37 -37 -86.5 -59.5t-101.5 -22.5q-53 0 -102.5 20.5
t-87 57.5t-60 90t-22.5 116q0 65 22.5 118.5t60 91t87 58t102.5 20.5q54 0 105 -25t89 -66v68h159v-491q0 -166 -83 -238.5t-249 -72.5zM389 650l-61 75l-60 -75h-146l125 147h163l125 -147h-146z" />
    <glyph glyph-name="Gbreve" unicode="&#x11e;" horiz-adv-x="833" 
d="M813 375q0 -84 -29.5 -157t-80 -126.5t-120 -84.5t-148.5 -31q-87 0 -163 31.5t-131.5 85t-87.5 126.5t-32 155t32 154.5t87.5 126t131.5 84.5t163 31q81 0 155.5 -29t126.5 -76l-114 -127q-33 33 -76.5 51t-91.5 18q-50 0 -93 -18.5t-74.5 -50t-49.5 -74t-18 -90.5
q0 -49 18 -92t49.5 -74.5t74.5 -50t93 -18.5q68 0 119 41t70 102h-184l59 143h314v-50zM610 963q-10 -71 -56.5 -116t-118.5 -45t-118.5 45t-56.5 116l96 3q12 -34 34 -50.5t45 -16.5t45 16.5t34 50.5z" />
    <glyph glyph-name="gbreve" unicode="&#x11f;" horiz-adv-x="684" 
d="M336 166q59 0 101 42t42 100q0 60 -42 102.5t-101 42.5q-58 0 -101 -42.5t-43 -102.5q0 -58 43 -100t101 -42zM312 -228q-45 0 -92 4.5t-98 14.5v142q56 -12 99.5 -16.5t85.5 -4.5q76 0 124 34.5t48 130.5v30q-37 -37 -86.5 -59.5t-101.5 -22.5q-53 0 -102.5 20.5
t-87 57.5t-60 90t-22.5 116q0 65 22.5 118.5t60 91t87 58t102.5 20.5q54 0 105 -25t89 -66v68h159v-491q0 -166 -83 -238.5t-249 -72.5zM504 806q-10 -71 -56.5 -116t-118.5 -45t-118.5 45t-56.5 116l96 3q12 -34 34 -50.5t45 -16.5t45 16.5t34 50.5z" />
    <glyph glyph-name="Gdotaccent" unicode="&#x120;" horiz-adv-x="833" 
d="M813 375q0 -84 -29.5 -157t-80 -126.5t-120 -84.5t-148.5 -31q-87 0 -163 31.5t-131.5 85t-87.5 126.5t-32 155t32 154.5t87.5 126t131.5 84.5t163 31q81 0 155.5 -29t126.5 -76l-114 -127q-33 33 -76.5 51t-91.5 18q-50 0 -93 -18.5t-74.5 -50t-49.5 -74t-18 -90.5
q0 -49 18 -92t49.5 -74.5t74.5 -50t93 -18.5q68 0 119 41t70 102h-184l59 143h314v-50zM519 925v-118h-168v118h168z" />
    <glyph glyph-name="gdotaccent" unicode="&#x121;" horiz-adv-x="684" 
d="M336 166q59 0 101 42t42 100q0 60 -42 102.5t-101 42.5q-58 0 -101 -42.5t-43 -102.5q0 -58 43 -100t101 -42zM312 -228q-45 0 -92 4.5t-98 14.5v142q56 -12 99.5 -16.5t85.5 -4.5q76 0 124 34.5t48 130.5v30q-37 -37 -86.5 -59.5t-101.5 -22.5q-53 0 -102.5 20.5
t-87 57.5t-60 90t-22.5 116q0 65 22.5 118.5t60 91t87 58t102.5 20.5q54 0 105 -25t89 -66v68h159v-491q0 -166 -83 -238.5t-249 -72.5zM413 781v-134h-168v134h168z" />
    <glyph glyph-name="Gcommaaccent" unicode="&#x122;" horiz-adv-x="833" 
d="M813 375q0 -84 -29.5 -157t-80 -126.5t-120 -84.5t-148.5 -31q-87 0 -163 31.5t-131.5 85t-87.5 126.5t-32 155t32 154.5t87.5 126t131.5 84.5t163 31q81 0 155.5 -29t126.5 -76l-114 -127q-33 33 -76.5 51t-91.5 18q-50 0 -93 -18.5t-74.5 -50t-49.5 -74t-18 -90.5
q0 -49 18 -92t49.5 -74.5t74.5 -50t93 -18.5q68 0 119 41t70 102h-184l59 143h314v-50zM515 -72l-76 -181h-118l34 181h160z" />
    <glyph glyph-name="gcommaaccent" unicode="&#x123;" horiz-adv-x="684" 
d="M336 166q59 0 101 42t42 100q0 60 -42 102.5t-101 42.5q-58 0 -101 -42.5t-43 -102.5q0 -58 43 -100t101 -42zM312 -228q-45 0 -92 4.5t-98 14.5v142q56 -12 99.5 -16.5t85.5 -4.5q76 0 124 34.5t48 130.5v30q-37 -37 -86.5 -59.5t-101.5 -22.5q-53 0 -102.5 20.5
t-87 57.5t-60 90t-22.5 116q0 65 22.5 118.5t60 91t87 58t102.5 20.5q54 0 105 -25t89 -66v68h159v-491q0 -166 -83 -238.5t-249 -72.5z" />
    <glyph glyph-name="Hcircumflex" unicode="&#x124;" horiz-adv-x="698" 
d="M47 0v746h178v-268h248v268h178v-746h-178v317h-248v-317h-178zM409 807l-61 75l-60 -75h-146l125 147h163l125 -147h-146z" />
    <glyph glyph-name="hcircumflex" unicode="&#x125;" horiz-adv-x="629" 
d="M205 335v-335h-165v780h157v-280q25 31 73.5 59.5t114.5 28.5q44 0 82 -15t65.5 -42t43 -66.5t15.5 -88.5v-376h-166v325q0 64 -31.5 90.5t-76.5 26.5q-19 0 -39 -7t-36.5 -21t-26.5 -34t-10 -45zM179 840l-61 75l-60 -75h-146l125 147h163l125 -147h-146z" />
    <glyph glyph-name="Hbar" unicode="&#x126;" horiz-adv-x="711" 
d="M231 478h249v72h-249v-72zM231 317v-317h-178v550h-47v115h47v81h178v-81h249v81h177v-81h48v-115h-48v-550h-177v317h-249z" />
    <glyph glyph-name="hbar" unicode="&#x127;" horiz-adv-x="626" 
d="M205 335v-335h-165v604h-48v98h48v78h157v-78h92v-98h-92v-104q25 31 73.5 59.5t114.5 28.5q44 0 82 -15t65.5 -42t43 -66.5t15.5 -88.5v-376h-166v325q0 64 -31.5 90.5t-76.5 26.5q-19 0 -39 -7t-36.5 -21t-26.5 -34t-10 -45z" />
    <glyph glyph-name="Itilde" unicode="&#x128;" horiz-adv-x="272" 
d="M47 0v746h178v-746h-178zM27 808l-122 4q-6 93 33.5 130.5t96.5 37.5q25 0 49.5 -7.5t46.5 -17t41 -17t33 -7.5q16 0 27.5 8.5t11.5 35.5l122 -4q4 -77 -28.5 -118.5t-98.5 -41.5q-25 0 -50.5 7t-48 16t-41.5 16t-33 7q-16 0 -28 -9.5t-11 -39.5z" />
    <glyph glyph-name="itilde" unicode="&#x129;" horiz-adv-x="248" 
d="M206 574v-574h-165v574h165zM15 650l-122 4q-6 93 33.5 130.5t96.5 37.5q25 0 49.5 -7.5t46.5 -17t41 -17t33 -7.5q16 0 27.5 8.5t11.5 35.5l122 -4q4 -77 -28.5 -118.5t-98.5 -41.5q-25 0 -50.5 7t-48 16t-41.5 16t-33 7q-16 0 -28 -9.5t-11 -39.5z" />
    <glyph glyph-name="Imacron" unicode="&#x12a;" horiz-adv-x="272" 
d="M47 0v746h178v-746h-178zM293 924v-117h-314v117h314z" />
    <glyph glyph-name="imacron" unicode="&#x12b;" horiz-adv-x="248" 
d="M206 574v-574h-165v574h165zM281 766v-117h-314v117h314z" />
    <glyph glyph-name="Ibreve" unicode="&#x12c;" horiz-adv-x="272" 
d="M47 0v746h178v-746h-178zM311 963q-10 -71 -56.5 -116t-118.5 -45t-118.5 45t-56.5 116l96 3q12 -34 34 -50.5t45 -16.5t45 16.5t34 50.5z" />
    <glyph glyph-name="ibreve" unicode="&#x12d;" horiz-adv-x="248" 
d="M206 574v-574h-165v574h165zM299 806q-10 -71 -56.5 -116t-118.5 -45t-118.5 45t-56.5 116l96 3q12 -34 34 -50.5t45 -16.5t45 16.5t34 50.5z" />
    <glyph glyph-name="Iogonek" unicode="&#x12e;" horiz-adv-x="272" 
d="M112 -191q-60 0 -87 26.5t-27 60.5q0 28 14 51.5t35 39.5v759h178v-746l-64 -38q-21 -13 -28.5 -22.5t-7.5 -19.5q0 -11 8.5 -19t21.5 -8q11 0 21 4.5t16 8.5l43 -55q-17 -16 -48.5 -28.5t-74.5 -13.5z" />
    <glyph glyph-name="iogonek" unicode="&#x12f;" horiz-adv-x="249" 
d="M209 780v-133h-168v133h168zM217 -149q-17 -16 -48.5 -28.5t-74.5 -13.5q-60 0 -87 26.5t-27 60.5q0 30 20 56.5t46 42.5l9 5h-13v574h165v-574l-64 -38q-20 -13 -28 -22.5t-8 -19.5q0 -11 8.5 -19t21.5 -8q12 0 21.5 4.5t15.5 8.5z" />
    <glyph glyph-name="Idotaccent" unicode="&#x130;" horiz-adv-x="272" 
d="M47 0v746h178v-746h-178zM220 925v-118h-168v118h168z" />
    <glyph glyph-name="dotlessi" unicode="&#x131;" horiz-adv-x="248" 
d="M206 574v-574h-165v574h165z" />
    <glyph glyph-name="IJ" unicode="&#x132;" horiz-adv-x="663" 
d="M47 0v746h178v-746h-178zM281 0v166q19 -10 39 -15.5t38 -5.5q37 0 58.5 32t21.5 113v456h178v-521q0 -113 -52.5 -178t-179.5 -65q-28 0 -54.5 4t-48.5 14z" />
    <glyph glyph-name="ij" unicode="&#x133;" horiz-adv-x="498" 
d="M209 780v-133h-168v133h168zM207 574v-574h-165v574h165zM458 780v-133h-168v133h168zM187 -84h15q44 0 66.5 18.5t22.5 65.5v574h165v-575q0 -133 -59 -181.5t-196 -48.5h-14v147z" />
    <glyph glyph-name="Jcircumflex" unicode="&#x134;" horiz-adv-x="391" 
d="M9 0v166q19 -10 39 -15.5t38 -5.5q37 0 58.5 32t21.5 113v456h178v-521q0 -113 -52.5 -178t-179.5 -65q-28 0 -54.5 4t-48.5 14zM314 807l-61 75l-60 -75h-146l125 147h163l125 -147h-146z" />
    <glyph glyph-name="jcircumflex" unicode="&#x135;" horiz-adv-x="244" 
d="M-49 -89h12q34 0 55.5 24.5t21.5 70.5v568h164v-571q0 -122 -61 -177.5t-178 -56.5h-14v142zM185 650l-61 75l-60 -75h-146l125 147h163l125 -147h-146z" />
    <glyph glyph-name="Kcommaaccent" unicode="&#x136;" horiz-adv-x="703" 
d="M462 0l-237 338v-338h-178v746h178v-328l230 328h206l-263 -354l290 -392h-226zM422 -55l-76 -181h-118l34 181h160z" />
    <glyph glyph-name="kcommaaccent" unicode="&#x137;" horiz-adv-x="614" 
d="M414 0l-154 237l-55 -61v-176h-165v780h165v-400l188 194h205l-217 -226l231 -348h-198zM406 -55l-76 -181h-118l34 181h160z" />
    <glyph glyph-name="kgreenlandic" unicode="&#x138;" horiz-adv-x="614" 
d="M414 0l-154 237l-55 -60v-177h-165v574h165v-194l188 194h205l-217 -226l231 -348h-198z" />
    <glyph glyph-name="Lacute" unicode="&#x139;" horiz-adv-x="492" 
d="M47 746h178v-585h252v-161h-430v746zM335 954l-136 -147h-131l77 147h190z" />
    <glyph glyph-name="lacute" unicode="&#x13a;" horiz-adv-x="249" 
d="M207 780v-780h-165v780h165zM327 987l-136 -147h-131l77 147h190z" />
    <glyph glyph-name="Lcommaaccent" unicode="&#x13b;" horiz-adv-x="492" 
d="M47 746h178v-585h252v-161h-430v746zM366 -55l-76 -181h-118l34 181h160z" />
    <glyph glyph-name="lcommaaccent" unicode="&#x13c;" horiz-adv-x="249" 
d="M207 780v-780h-165v780h165zM205 -55l-76 -181h-118l34 181h160z" />
    <glyph glyph-name="Lcaron" unicode="&#x13d;" horiz-adv-x="492" 
d="M47 746h178v-585h252v-161h-430v746zM460 780l-63 -181h-90l18 181h135z" />
    <glyph glyph-name="lcaron" unicode="&#x13e;" horiz-adv-x="249" 
d="M207 780v-780h-165v780h165zM401 780l-63 -181h-90l18 181h135z" />
    <glyph glyph-name="Ldot" unicode="&#x13f;" horiz-adv-x="492" 
d="M47 746h178v-585h252v-161h-430v746zM448 470v-118h-168v118h168z" />
    <glyph glyph-name="ldot" unicode="&#x140;" horiz-adv-x="358" 
d="M207 780v-780h-165v780h165zM387 472v-134h-168v134h168z" />
    <glyph glyph-name="Lslash" unicode="&#x141;" horiz-adv-x="499" 
d="M477 0h-430v283l-44 -21l-1 128l45 21v335h178v-251l166 79v-130l-166 -78v-205h252v-161z" />
    <glyph glyph-name="lslash" unicode="&#x142;" horiz-adv-x="270" 
d="M219 0h-165v323l-51 -27v118l51 27v339h165v-252l50 27v-118l-50 -27v-410z" />
    <glyph glyph-name="Nacute" unicode="&#x143;" horiz-adv-x="767" 
d="M550 0l-325 445v-445h-178v746h171l324 -446v446h178v-746h-170zM570 954l-136 -147h-131l77 147h190z" />
    <glyph glyph-name="nacute" unicode="&#x144;" horiz-adv-x="629" 
d="M205 336v-336h-165v574h157v-70q26 31 74 58t114 27q44 0 82 -15t65.5 -42t43 -67t15.5 -89v-376h-166v326q0 63 -31.5 90t-76.5 27q-19 0 -39 -7.5t-36.5 -21t-26.5 -33.5t-10 -45zM512 797l-136 -147h-131l77 147h190z" />
    <glyph glyph-name="Ncommaaccent" unicode="&#x145;" horiz-adv-x="767" 
d="M550 0l-325 445v-445h-178v746h171l324 -446v446h178v-746h-170zM450 -55l-76 -181h-118l34 181h160z" />
    <glyph glyph-name="ncommaaccent" unicode="&#x146;" horiz-adv-x="629" 
d="M205 336v-336h-165v574h157v-70q26 31 74 58t114 27q44 0 82 -15t65.5 -42t43 -67t15.5 -89v-376h-166v326q0 63 -31.5 90t-76.5 27q-19 0 -39 -7.5t-36.5 -21t-26.5 -33.5t-10 -45zM395 -55l-76 -181h-118l34 181h160z" />
    <glyph glyph-name="Ncaron" unicode="&#x147;" horiz-adv-x="767" 
d="M550 0l-325 445v-445h-178v746h171l324 -446v446h178v-746h-170zM450 807h-163l-125 147h144l60 -76l61 76h148z" />
    <glyph glyph-name="ncaron" unicode="&#x148;" horiz-adv-x="629" 
d="M205 336v-336h-165v574h157v-70q26 31 74 58t114 27q44 0 82 -15t65.5 -42t43 -67t15.5 -89v-376h-166v326q0 63 -31.5 90t-76.5 27q-19 0 -39 -7.5t-36.5 -21t-26.5 -33.5t-10 -45zM392 650h-163l-125 147h144l60 -76l61 76h148z" />
    <glyph glyph-name="Eng" unicode="&#x14a;" horiz-adv-x="767" 
d="M474 -231h-22v142h20q34 0 56 24t22 65l-325 445v-445h-178v746h171l324 -446v446h178v-743q0 -122 -62.5 -178t-183.5 -56z" />
    <glyph glyph-name="eng" unicode="&#x14b;" horiz-adv-x="629" 
d="M350 -231h-13v142h12q33 0 54.5 24t21.5 69v322q0 64 -31.5 90.5t-76.5 26.5q-19 0 -39 -7.5t-36.5 -21t-26.5 -33.5t-10 -45v-336h-165v574h157v-70q26 31 74 58t114 27q44 0 82 -15t65.5 -42t43 -67t15.5 -89v-373q0 -122 -61 -177.5t-180 -56.5z" />
    <glyph glyph-name="Omacron" unicode="&#x14c;" horiz-adv-x="869" 
d="M435 770q86 0 162 -31t131.5 -84.5t87.5 -126t32 -154.5t-32 -155t-87.5 -126.5t-131.5 -85t-162 -31.5q-87 0 -163 31.5t-131.5 85t-87.5 126.5t-32 155t32 154.5t87.5 126t131.5 84.5t163 31zM435 607q-50 0 -93 -18.5t-74.5 -50t-49.5 -74t-18 -91.5q0 -48 18 -91
t49.5 -74.5t74.5 -50t93 -18.5q49 0 92 18.5t74.5 50t49.5 74.5t18 91q0 49 -18 91.5t-49.5 74t-74.5 50t-92 18.5zM592 924v-117h-314v117h314z" />
    <glyph glyph-name="omacron" unicode="&#x14d;" horiz-adv-x="715" 
d="M357 602q72 0 134.5 -24.5t107.5 -67t70.5 -100t25.5 -123.5t-25.5 -123.5t-70.5 -100t-107.5 -67t-134.5 -24.5t-134 24.5t-107 67t-70.5 100t-25.5 123.5t25.5 123.5t70.5 100t107 67t134 24.5zM357 460q-70 0 -117 -50.5t-47 -122.5t47 -122.5t117 -50.5
q71 0 118 50.5t47 122.5t-47 122.5t-118 50.5zM514 766v-117h-314v117h314z" />
    <glyph glyph-name="Obreve" unicode="&#x14e;" horiz-adv-x="869" 
d="M435 770q86 0 162 -31t131.5 -84.5t87.5 -126t32 -154.5t-32 -155t-87.5 -126.5t-131.5 -85t-162 -31.5q-87 0 -163 31.5t-131.5 85t-87.5 126.5t-32 155t32 154.5t87.5 126t131.5 84.5t163 31zM435 607q-50 0 -93 -18.5t-74.5 -50t-49.5 -74t-18 -91.5q0 -48 18 -91
t49.5 -74.5t74.5 -50t93 -18.5q49 0 92 18.5t74.5 50t49.5 74.5t18 91q0 49 -18 91.5t-49.5 74t-74.5 50t-92 18.5zM610 963q-10 -71 -56.5 -116t-118.5 -45t-118.5 45t-56.5 116l96 3q12 -34 34 -50.5t45 -16.5t45 16.5t34 50.5z" />
    <glyph glyph-name="obreve" unicode="&#x14f;" horiz-adv-x="715" 
d="M357 602q72 0 134.5 -24.5t107.5 -67t70.5 -100t25.5 -123.5t-25.5 -123.5t-70.5 -100t-107.5 -67t-134.5 -24.5t-134 24.5t-107 67t-70.5 100t-25.5 123.5t25.5 123.5t70.5 100t107 67t134 24.5zM357 460q-70 0 -117 -50.5t-47 -122.5t47 -122.5t117 -50.5
q71 0 118 50.5t47 122.5t-47 122.5t-118 50.5zM532 806q-10 -71 -56.5 -116t-118.5 -45t-118.5 45t-56.5 116l96 3q12 -34 34 -50.5t45 -16.5t45 16.5t34 50.5z" />
    <glyph glyph-name="Ohungarumlaut" unicode="&#x150;" horiz-adv-x="869" 
d="M435 770q86 0 162 -31t131.5 -84.5t87.5 -126t32 -154.5t-32 -155t-87.5 -126.5t-131.5 -85t-162 -31.5q-87 0 -163 31.5t-131.5 85t-87.5 126.5t-32 155t32 154.5t87.5 126t131.5 84.5t163 31zM435 607q-50 0 -93 -18.5t-74.5 -50t-49.5 -74t-18 -91.5q0 -48 18 -91
t49.5 -74.5t74.5 -50t93 -18.5q49 0 92 18.5t74.5 50t49.5 74.5t18 91q0 49 -18 91.5t-49.5 74t-74.5 50t-92 18.5zM561 954h170l-134 -147h-119zM339 954h170l-134 -147h-120z" />
    <glyph glyph-name="ohungarumlaut" unicode="&#x151;" horiz-adv-x="715" 
d="M357 602q72 0 134.5 -24.5t107.5 -67t70.5 -100t25.5 -123.5t-25.5 -123.5t-70.5 -100t-107.5 -67t-134.5 -24.5t-134 24.5t-107 67t-70.5 100t-25.5 123.5t25.5 123.5t70.5 100t107 67t134 24.5zM357 460q-70 0 -117 -50.5t-47 -122.5t47 -122.5t117 -50.5
q71 0 118 50.5t47 122.5t-47 122.5t-118 50.5zM483 797h170l-134 -147h-119zM261 797h170l-134 -147h-120z" />
    <glyph glyph-name="OE" unicode="&#x152;" horiz-adv-x="980" 
d="M446 161h55v424h-55q-47 0 -90.5 -13t-76.5 -39.5t-53 -66t-20 -92.5t20 -93.5t53 -67t76.5 -39.5t90.5 -13zM454 0q-84 0 -161.5 21.5t-136 66.5t-94 116t-35.5 170q0 97 36 168t95.5 116t137 66.5t160.5 21.5h470v-157h-253v-137h228v-143h-228v-152h261v-157h-480z
" />
    <glyph glyph-name="oe" unicode="&#x153;" horiz-adv-x="1170" 
d="M840 467q-53 0 -88 -30t-48 -83h271q-13 53 -47.5 83t-87.5 30zM357 460q-70 0 -117 -50.5t-47 -122.5t47 -122.5t117 -50.5q36 0 66.5 13.5t52 37t34 55.5t12.5 67q0 72 -47 122.5t-118 50.5zM1149 73q-47 -42 -115 -71.5t-163 -29.5q-86 0 -153.5 27.5t-111.5 76.5
q-45 -48 -109 -76t-140 -28q-72 0 -134 24.5t-107 67t-70.5 100t-25.5 123.5t25.5 123.5t70.5 100t107 67t134 24.5q75 0 138.5 -27.5t108.5 -74.5q41 48 102 75t135 27q66 0 123.5 -23.5t99 -65.5t65.5 -100.5t24 -126.5v-43h-454q10 -67 55 -102.5t120 -35.5
q61 0 104.5 18.5t76.5 48.5z" />
    <glyph glyph-name="Racute" unicode="&#x154;" horiz-adv-x="626" 
d="M269 588h-44v-208h46q59 0 96.5 29t37.5 81q0 49 -35 73.5t-101 24.5zM398 0l-171 240h-2v-240h-178v746h208q62 0 121 -12t104.5 -40.5t73 -77.5t27.5 -123q0 -82 -48.5 -137.5t-117.5 -83.5l196 -272h-213zM502 954l-136 -147h-131l77 147h190z" />
    <glyph glyph-name="racute" unicode="&#x155;" horiz-adv-x="394" 
d="M205 297v-297h-165v574h157v-124q7 16 22 38t36.5 42t48.5 33.5t59 13.5h19v-181q-5 2 -15 3.5t-17 1.5q-33 0 -60 -10t-45.5 -25.5t-29 -34t-10.5 -34.5zM439 797l-136 -147h-131l77 147h190z" />
    <glyph glyph-name="Rcommaaccent" unicode="&#x156;" horiz-adv-x="626" 
d="M269 588h-44v-208h46q59 0 96.5 29t37.5 81q0 49 -35 73.5t-101 24.5zM398 0l-171 240h-2v-240h-178v746h208q62 0 121 -12t104.5 -40.5t73 -77.5t27.5 -123q0 -82 -48.5 -137.5t-117.5 -83.5l196 -272h-213zM386 -55l-76 -181h-118l34 181h160z" />
    <glyph glyph-name="rcommaaccent" unicode="&#x157;" horiz-adv-x="394" 
d="M205 297v-297h-165v574h157v-124q7 16 22 38t36.5 42t48.5 33.5t59 13.5h19v-181q-5 2 -15 3.5t-17 1.5q-33 0 -60 -10t-45.5 -25.5t-29 -34t-10.5 -34.5zM203 -55l-76 -181h-118l34 181h160z" />
    <glyph glyph-name="Rcaron" unicode="&#x158;" horiz-adv-x="626" 
d="M269 588h-44v-208h46q59 0 96.5 29t37.5 81q0 49 -35 73.5t-101 24.5zM398 0l-171 240h-2v-240h-178v746h208q62 0 121 -12t104.5 -40.5t73 -77.5t27.5 -123q0 -82 -48.5 -137.5t-117.5 -83.5l196 -272h-213zM382 807h-163l-125 147h144l60 -76l61 76h148z" />
    <glyph glyph-name="rcaron" unicode="&#x159;" horiz-adv-x="394" 
d="M205 297v-297h-165v574h157v-124q7 16 22 38t36.5 42t48.5 33.5t59 13.5h19v-181q-5 2 -15 3.5t-17 1.5q-33 0 -60 -10t-45.5 -25.5t-29 -34t-10.5 -34.5zM319 650h-163l-125 147h144l60 -76l61 76h148z" />
    <glyph glyph-name="Sacute" unicode="&#x15a;" horiz-adv-x="521" 
d="M452 738l-1 -151q-28 13 -67.5 21.5t-76.5 8.5q-49 0 -72 -15.5t-23 -41.5t28.5 -52.5t86.5 -68.5q86 -65 129.5 -117t43.5 -121q0 -50 -22 -90t-59.5 -67t-89 -41.5t-110.5 -14.5q-22 0 -47.5 2t-50.5 5.5t-47 8.5t-37 11l1 154q32 -13 81.5 -25t98.5 -12q47 0 73 20
t26 46q0 27 -31.5 56t-93.5 73q-96 68 -131 118.5t-35 114.5q0 39 16 75.5t49.5 64t85 44.5t122.5 17q37 0 79 -5.5t74 -17.5zM487 954l-136 -147h-131l77 147h190z" />
    <glyph glyph-name="sacute" unicode="&#x15b;" horiz-adv-x="449" 
d="M240 594q39 0 73 -6.5t61 -16.5v-139q-35 16 -67.5 23t-51.5 7q-28 0 -43.5 -10t-15.5 -26q0 -13 16.5 -28t51.5 -38q101 -67 135 -113.5t34 -94.5q0 -73 -58 -121.5t-164 -49.5q-41 0 -88.5 10.5t-83.5 25.5v139q45 -22 84.5 -32t64.5 -10q37 0 52.5 12.5t15.5 28.5
q0 13 -17.5 31.5t-74.5 55.5q-45 30 -73 54t-43 46t-20.5 44t-5.5 47q0 30 12 59.5t38.5 52t68 36t99.5 13.5zM435 797l-136 -147h-131l77 147h190z" />
    <glyph glyph-name="Scircumflex" unicode="&#x15c;" horiz-adv-x="521" 
d="M452 738l-1 -151q-28 13 -67.5 21.5t-76.5 8.5q-49 0 -72 -15.5t-23 -41.5t28.5 -52.5t86.5 -68.5q86 -65 129.5 -117t43.5 -121q0 -50 -22 -90t-59.5 -67t-89 -41.5t-110.5 -14.5q-22 0 -47.5 2t-50.5 5.5t-47 8.5t-37 11l1 154q32 -13 81.5 -25t98.5 -12q47 0 73 20
t26 46q0 27 -31.5 56t-93.5 73q-96 68 -131 118.5t-35 114.5q0 39 16 75.5t49.5 64t85 44.5t122.5 17q37 0 79 -5.5t74 -17.5zM345 807l-61 75l-60 -75h-146l125 147h163l125 -147h-146z" />
    <glyph glyph-name="scircumflex" unicode="&#x15d;" horiz-adv-x="449" 
d="M240 594q39 0 73 -6.5t61 -16.5v-139q-35 16 -67.5 23t-51.5 7q-28 0 -43.5 -10t-15.5 -26q0 -13 16.5 -28t51.5 -38q101 -67 135 -113.5t34 -94.5q0 -73 -58 -121.5t-164 -49.5q-41 0 -88.5 10.5t-83.5 25.5v139q45 -22 84.5 -32t64.5 -10q37 0 52.5 12.5t15.5 28.5
q0 13 -17.5 31.5t-74.5 55.5q-45 30 -73 54t-43 46t-20.5 44t-5.5 47q0 30 12 59.5t38.5 52t68 36t99.5 13.5zM294 650l-61 75l-60 -75h-146l125 147h163l125 -147h-146z" />
    <glyph glyph-name="Scedilla" unicode="&#x15e;" horiz-adv-x="521" 
d="M452 738l-1 -151q-28 13 -67.5 21.5t-76.5 8.5q-49 0 -72 -15.5t-23 -41.5t28.5 -52.5t86.5 -68.5q86 -65 129.5 -117t43.5 -121q0 -50 -22 -90t-59.5 -67t-89 -41.5t-110.5 -14.5q-22 0 -47.5 2t-50.5 5.5t-47 8.5t-37 11l1 154q32 -13 81.5 -25t98.5 -12q47 0 73 20
t26 46q0 27 -31.5 56t-93.5 73q-96 68 -131 118.5t-35 114.5q0 39 16 75.5t49.5 64t85 44.5t122.5 17q37 0 79 -5.5t74 -17.5zM208 -219q-17 0 -40.5 3t-44.5 10v65h1q20 -6 41 -9t31 -3q25 0 39 8t14 22t-19 23t-50 9h-18l-3 8l29 84l63 -2l-14 -38q51 -5 80.5 -28
t29.5 -61q0 -39 -38 -65t-101 -26z" />
    <glyph glyph-name="scedilla" unicode="&#x15f;" horiz-adv-x="449" 
d="M240 594q39 0 73 -6.5t61 -16.5v-139q-35 16 -67.5 23t-51.5 7q-28 0 -43.5 -10t-15.5 -26q0 -13 16.5 -28t51.5 -38q101 -67 135 -113.5t34 -94.5q0 -73 -58 -121.5t-164 -49.5q-41 0 -88.5 10.5t-83.5 25.5v139q45 -22 84.5 -32t64.5 -10q37 0 52.5 12.5t15.5 28.5
q0 13 -17.5 31.5t-74.5 55.5q-45 30 -73 54t-43 46t-20.5 44t-5.5 47q0 30 12 59.5t38.5 52t68 36t99.5 13.5zM190 -226q-17 0 -40.5 3.5t-44.5 10.5v64h1q20 -6 41 -9t31 -3q24 0 38.5 8t14.5 22t-19 23t-50 9h-18l-3 8l29 84l63 -2l-14 -38q51 -5 80.5 -28t29.5 -61
q0 -39 -38 -65t-101 -26z" />
    <glyph glyph-name="Scaron" unicode="&#x160;" horiz-adv-x="521" 
d="M452 738l-1 -151q-28 13 -67.5 21.5t-76.5 8.5q-49 0 -72 -15.5t-23 -41.5t28.5 -52.5t86.5 -68.5q86 -65 129.5 -117t43.5 -121q0 -50 -22 -90t-59.5 -67t-89 -41.5t-110.5 -14.5q-22 0 -47.5 2t-50.5 5.5t-47 8.5t-37 11l1 154q32 -13 81.5 -25t98.5 -12q47 0 73 20
t26 46q0 27 -31.5 56t-93.5 73q-96 68 -131 118.5t-35 114.5q0 39 16 75.5t49.5 64t85 44.5t122.5 17q37 0 79 -5.5t74 -17.5zM367 807h-163l-125 147h144l60 -76l61 76h148z" />
    <glyph glyph-name="scaron" unicode="&#x161;" horiz-adv-x="449" 
d="M240 594q39 0 73 -6.5t61 -16.5v-139q-35 16 -67.5 23t-51.5 7q-28 0 -43.5 -10t-15.5 -26q0 -13 16.5 -28t51.5 -38q101 -67 135 -113.5t34 -94.5q0 -73 -58 -121.5t-164 -49.5q-41 0 -88.5 10.5t-83.5 25.5v139q45 -22 84.5 -32t64.5 -10q37 0 52.5 12.5t15.5 28.5
q0 13 -17.5 31.5t-74.5 55.5q-45 30 -73 54t-43 46t-20.5 44t-5.5 47q0 30 12 59.5t38.5 52t68 36t99.5 13.5zM316 650h-163l-125 147h144l60 -76l61 76h148z" />
    <glyph glyph-name="Tcaron" unicode="&#x164;" horiz-adv-x="480" 
d="M151 0v586h-142v160h462v-160h-142v-586h-178zM322 807h-163l-125 147h144l60 -76l61 76h148z" />
    <glyph glyph-name="tcaron" unicode="&#x165;" horiz-adv-x="325" 
d="M312 435h-67v-435h-165v435h-67v139h67v139l165 30v-169h67v-139zM421 857l-63 -181h-90l18 181h135z" />
    <glyph glyph-name="Tbar" unicode="&#x166;" horiz-adv-x="480" 
d="M403 295h-74v-295h-178v295h-74v118h74v173h-142v160h462v-160h-142v-173h74v-118z" />
    <glyph glyph-name="tbar" unicode="&#x167;" horiz-adv-x="325" 
d="M312 239h-67v-239h-165v239h-67v99h67v97h-67v139h67v139l165 30v-169h67v-139h-67v-97h67v-99z" />
    <glyph glyph-name="Utilde" unicode="&#x168;" horiz-adv-x="712" 
d="M665 322q0 -165 -80 -255.5t-229 -90.5q-148 0 -228.5 90.5t-80.5 255.5v424h178v-456q0 -74 40 -113.5t91 -39.5t91 39.5t40 113.5v456h178v-424zM247 808l-122 4q-6 93 33.5 130.5t96.5 37.5q25 0 49.5 -7.5t46.5 -17t41 -17t33 -7.5q16 0 27.5 8.5t11.5 35.5l122 -4
q4 -77 -28.5 -118.5t-98.5 -41.5q-25 0 -50.5 7t-48 16t-41.5 16t-33 7q-16 0 -28 -9.5t-11 -39.5z" />
    <glyph glyph-name="utilde" unicode="&#x169;" horiz-adv-x="629" 
d="M432 0v70q-26 -31 -74 -58t-114 -27q-88 0 -146.5 57t-58.5 156v376h165v-326q0 -63 31.5 -90t76.5 -27q20 0 40 7.5t36 21t26 33.5t10 45v336h165v-574h-157zM204 650l-122 4q-6 93 33.5 130.5t96.5 37.5q25 0 49.5 -7.5t46.5 -17t41 -17t33 -7.5q16 0 27.5 8.5
t11.5 35.5l122 -4q4 -77 -28.5 -118.5t-98.5 -41.5q-25 0 -50.5 7t-48 16t-41.5 16t-33 7q-16 0 -28 -9.5t-11 -39.5z" />
    <glyph glyph-name="Umacron" unicode="&#x16a;" horiz-adv-x="712" 
d="M665 322q0 -165 -80 -255.5t-229 -90.5q-148 0 -228.5 90.5t-80.5 255.5v424h178v-456q0 -74 40 -113.5t91 -39.5t91 39.5t40 113.5v456h178v-424zM513 924v-117h-314v117h314z" />
    <glyph glyph-name="umacron" unicode="&#x16b;" horiz-adv-x="629" 
d="M432 0v70q-26 -31 -74 -58t-114 -27q-88 0 -146.5 57t-58.5 156v376h165v-326q0 -63 31.5 -90t76.5 -27q20 0 40 7.5t36 21t26 33.5t10 45v336h165v-574h-157zM470 766v-117h-314v117h314z" />
    <glyph glyph-name="Ubreve" unicode="&#x16c;" horiz-adv-x="712" 
d="M665 322q0 -165 -80 -255.5t-229 -90.5q-148 0 -228.5 90.5t-80.5 255.5v424h178v-456q0 -74 40 -113.5t91 -39.5t91 39.5t40 113.5v456h178v-424zM531 963q-10 -71 -56.5 -116t-118.5 -45t-118.5 45t-56.5 116l96 3q12 -34 34 -50.5t45 -16.5t45 16.5t34 50.5z" />
    <glyph glyph-name="ubreve" unicode="&#x16d;" horiz-adv-x="629" 
d="M432 0v70q-26 -31 -74 -58t-114 -27q-88 0 -146.5 57t-58.5 156v376h165v-326q0 -63 31.5 -90t76.5 -27q20 0 40 7.5t36 21t26 33.5t10 45v336h165v-574h-157zM488 806q-10 -71 -56.5 -116t-118.5 -45t-118.5 45t-56.5 116l96 3q12 -34 34 -50.5t45 -16.5t45 16.5
t34 50.5z" />
    <glyph glyph-name="Uring" unicode="&#x16e;" horiz-adv-x="712" 
d="M665 322q0 -165 -80 -255.5t-229 -90.5q-148 0 -228.5 90.5t-80.5 255.5v424h178v-456q0 -74 40 -113.5t91 -39.5t91 39.5t40 113.5v456h178v-424zM356 1064q57 0 97 -39.5t40 -91.5t-40 -91.5t-97 -39.5t-97 40t-40 91t40 91t97 40zM356 993q-25 0 -42.5 -17.5
t-17.5 -42.5t17.5 -42.5t42.5 -17.5t42.5 17.5t17.5 42.5t-17.5 42.5t-42.5 17.5z" />
    <glyph glyph-name="uring" unicode="&#x16f;" horiz-adv-x="629" 
d="M432 0v70q-26 -31 -74 -58t-114 -27q-88 0 -146.5 57t-58.5 156v376h165v-326q0 -63 31.5 -90t76.5 -27q20 0 40 7.5t36 21t26 33.5t10 45v336h165v-574h-157zM313 906q57 0 97 -39.5t40 -91.5t-40 -91.5t-97 -39.5t-97 40t-40 91t40 91t97 40zM313 835
q-25 0 -42.5 -17.5t-17.5 -42.5t17.5 -42.5t42.5 -17.5t42.5 17.5t17.5 42.5t-17.5 42.5t-42.5 17.5z" />
    <glyph glyph-name="Uhungarumlaut" unicode="&#x170;" horiz-adv-x="712" 
d="M665 322q0 -165 -80 -255.5t-229 -90.5q-148 0 -228.5 90.5t-80.5 255.5v424h178v-456q0 -74 40 -113.5t91 -39.5t91 39.5t40 113.5v456h178v-424zM481 954h170l-134 -147h-119zM259 954h170l-134 -147h-120z" />
    <glyph glyph-name="uhungarumlaut" unicode="&#x171;" horiz-adv-x="629" 
d="M432 0v70q-26 -31 -74 -58t-114 -27q-88 0 -146.5 57t-58.5 156v376h165v-326q0 -63 31.5 -90t76.5 -27q20 0 40 7.5t36 21t26 33.5t10 45v336h165v-574h-157zM439 797h170l-134 -147h-119zM217 797h170l-134 -147h-120z" />
    <glyph glyph-name="Uogonek" unicode="&#x172;" horiz-adv-x="712" 
d="M418 -191q-59 0 -86.5 26.5t-27.5 60.5q0 23 9.5 43.5t25.5 36.5q-140 5 -216 95.5t-76 250.5v424h178v-456q0 -74 40 -113.5t91 -39.5t91 39.5t40 113.5v456h179v-424q0 -110 -36 -187.5t-104 -117.5v0l-59 -42q-20 -14 -27.5 -27t-7.5 -24q0 -13 8 -22t22 -9
q11 0 20.5 4.5t15.5 8.5l43 -55q-17 -16 -48.5 -28.5t-74.5 -13.5z" />
    <glyph glyph-name="uogonek" unicode="&#x173;" horiz-adv-x="629" 
d="M476 -191q-60 0 -87 26.5t-27 60.5q0 30 18.5 55.5t44.5 41.5l7 4v73q-26 -31 -74 -58t-114 -27q-88 0 -146.5 57t-58.5 156v376h165v-326q0 -63 31.5 -90t76.5 -27q20 0 40 7.5t36 21t26 33.5t10 45v336h165v-574l-64 -38q-20 -13 -28 -22.5t-8 -19.5q0 -12 8.5 -19.5
t21.5 -7.5q12 0 21.5 4.5t15.5 8.5l43 -55q-17 -16 -48.5 -28.5t-74.5 -13.5z" />
    <glyph glyph-name="Wcircumflex" unicode="&#x174;" horiz-adv-x="1008" 
d="M632 0l-127 471l-130 -471h-166l-207 746h185l120 -484l124 484h154l123 -484l121 484h177l-208 -746h-166zM565 807l-61 75l-60 -75h-146l125 147h163l125 -147h-146z" />
    <glyph glyph-name="wcircumflex" unicode="&#x175;" horiz-adv-x="918" 
d="M574 0l-112 344l-110 -344h-157l-196 574h173l104 -358l112 358h150l112 -360l104 360h165l-192 -574h-153zM521 650l-61 75l-60 -75h-146l125 147h163l125 -147h-146z" />
    <glyph glyph-name="Ycircumflex" unicode="&#x176;" horiz-adv-x="700" 
d="M439 0h-178v235l-259 511h194l156 -344l166 344h180l-259 -509v-237zM412 807l-61 75l-60 -75h-146l125 147h163l125 -147h-146z" />
    <glyph glyph-name="ycircumflex" unicode="&#x177;" horiz-adv-x="656" 
d="M359 -220h-170l74 205l-264 589h187l158 -397l141 397h172zM393 650l-61 75l-60 -75h-146l125 147h163l125 -147h-146z" />
    <glyph glyph-name="Ydieresis" unicode="&#x178;" horiz-adv-x="700" 
d="M439 0h-178v235l-259 511h194l156 -344l166 344h180l-259 -509v-237zM536 928v-121h-139v121h139zM305 928v-121h-139v121h139z" />
    <glyph glyph-name="Zacute" unicode="&#x179;" horiz-adv-x="649" 
d="M579 0h-562l-4 24l334 568h-291l65 154h496l4 -25l-335 -567h354zM541 954l-136 -147h-131l77 147h190z" />
    <glyph glyph-name="zacute" unicode="&#x17a;" horiz-adv-x="574" 
d="M495 0h-485l-8 14l288 421h-237l57 139h435l7 -14l-284 -421h284zM499 797l-136 -147h-131l77 147h190z" />
    <glyph glyph-name="Zdotaccent" unicode="&#x17b;" horiz-adv-x="649" 
d="M579 0h-562l-4 24l334 568h-291l65 154h496l4 -25l-335 -567h354zM423 925v-118h-168v118h168z" />
    <glyph glyph-name="zdotaccent" unicode="&#x17c;" horiz-adv-x="574" 
d="M495 0h-485l-8 14l288 421h-237l57 139h435l7 -14l-284 -421h284zM381 781v-134h-168v134h168z" />
    <glyph glyph-name="Zcaron" unicode="&#x17d;" horiz-adv-x="649" 
d="M579 0h-562l-4 24l334 568h-291l65 154h496l4 -25l-335 -567h354zM421 807h-163l-125 147h144l60 -76l61 76h148z" />
    <glyph glyph-name="zcaron" unicode="&#x17e;" horiz-adv-x="574" 
d="M495 0h-485l-8 14l288 421h-237l57 139h435l7 -14l-284 -421h284zM379 650h-163l-125 147h144l60 -76l61 76h148z" />
    <glyph glyph-name="florin" unicode="&#x192;" horiz-adv-x="504" 
d="M301 29q-11 -72 -31 -120t-52.5 -76.5t-80 -40.5t-113.5 -12v142q24 0 42.5 3t32 14t22.5 32.5t14 57.5q2 13 6 41.5t9.5 66.5t11.5 83l12 90h-71v139h91q3 24 6 44.5t5 36.5q9 68 33.5 110.5t59.5 66t79 31.5t91 8v-142q-32 0 -61 -12t-36 -63q-2 -16 -5 -36t-6 -44h71
v-139h-90q-6 -45 -12.5 -90t-12 -83t-9.5 -66.5t-6 -41.5z" />
    <glyph glyph-name="Aringacute" unicode="&#x1fa;" horiz-adv-x="758" 
d="M475 251l-98 273l-99 -273h197zM565 0l-40 111h-298l-40 -111h-185l289 746h176l289 -746h-191zM377 938q57 0 97 -39.5t40 -91.5t-40 -91.5t-97 -39.5t-97 40t-40 91t40 91t97 40zM377 867q-25 0 -42.5 -17.5t-17.5 -42.5t17.5 -42.5t42.5 -17.5t42.5 17.5t17.5 42.5
t-17.5 42.5t-42.5 17.5zM579 1108l-136 -147h-131l77 147h190z" />
    <glyph glyph-name="aringacute" unicode="&#x1fb;" horiz-adv-x="563" 
d="M272 76q38 0 62.5 27t24.5 66q0 35 -23.5 61t-63.5 26t-63.5 -26t-23.5 -61q0 -38 23.5 -65.5t63.5 -27.5zM371 0v53q-27 -31 -68.5 -52t-98.5 -21q-84 0 -136.5 52.5t-52.5 132.5q0 38 14 72.5t40 59.5t64 39.5t85 14.5q44 0 79.5 -11t60.5 -30v27q0 69 -31 93.5
t-91 24.5q-27 0 -59 -4.5t-83 -14.5l-3 135q52 10 90 14t85 4q128 0 192.5 -55.5t64.5 -152.5v-381h-152zM278 906q57 0 97 -39.5t40 -91.5t-40 -91.5t-97 -39.5t-97 40t-40 91t40 91t97 40zM278 835q-25 0 -42.5 -17.5t-17.5 -42.5t17.5 -42.5t42.5 -17.5t42.5 17.5
t17.5 42.5t-17.5 42.5t-42.5 17.5zM480 1076l-136 -147h-131l77 147h190z" />
    <glyph glyph-name="AEacute" unicode="&#x1fc;" horiz-adv-x="956" 
d="M465 251l-97 298l-98 -298h195zM547 0l-36 111h-287l-37 -111h-185l280 746h494v-157h-259l51 -137h278v-143h-227l56 -152h279v-157h-407zM595 954l-136 -147h-131l77 147h190z" />
    <glyph glyph-name="aeacute" unicode="&#x1fd;" horiz-adv-x="989" 
d="M659 467q-53 0 -88 -30t-48 -83h271q-13 53 -47.5 83t-87.5 30zM272 69q39 0 64.5 27t25.5 70q0 36 -24.5 63t-65.5 27q-40 0 -64 -27t-24 -63q0 -41 24 -69t64 -28zM967 73q-46 -42 -114 -71.5t-163 -29.5q-82 0 -146 27.5t-107 74.5q-22 -38 -71.5 -70t-131.5 -32
q-50 0 -90.5 14.5t-69 40t-44 60.5t-15.5 75q0 38 14 72.5t40 60.5t64 41t85 15q42 0 75.5 -10t58.5 -26v22q0 69 -29.5 93.5t-89.5 24.5q-28 0 -58 -4.5t-81 -14.5l-3 135q52 10 87.5 14t83.5 4q67 0 115.5 -17t78.5 -48q39 37 91 57.5t113 20.5q66 0 123.5 -23.5t99 -65.5
t65.5 -100.5t24 -126.5v-43h-454q10 -67 55 -102.5t120 -35.5q61 0 104.5 18.5t76.5 48.5zM672 797l-136 -147h-131l77 147h190z" />
    <glyph glyph-name="Oslashacute" unicode="&#x1fe;" horiz-adv-x="883" 
d="M200 373q0 -44 15 -83.5t42 -70.5l258 374q-19 7 -39 10.5t-41 3.5q-50 0 -93 -18.5t-74.5 -50t-49.5 -74t-18 -91.5zM435 139q49 0 92 18.5t74.5 50t49.5 74.5t18 91q0 44 -15 84t-42 71l-258 -375q19 -7 39 -10.5t42 -3.5zM435 -24q-48 0 -92.5 9.5t-84.5 27.5l-42 -61
h-143l86 124q-63 54 -100.5 131.5t-37.5 166.5q0 82 32 154.5t87.5 126t131.5 84.5t163 31q47 0 91.5 -9.5t84.5 -27.5l42 61h142l-85 -124q63 -54 100.5 -131t37.5 -165q0 -82 -32 -155t-87.5 -126.5t-131.5 -85t-162 -31.5zM636 954l-136 -147h-131l77 147h190z" />
    <glyph glyph-name="oslashacute" unicode="&#x1ff;" horiz-adv-x="710" 
d="M193 287q0 -26 6.5 -50.5t19.5 -44.5l152 267q-3 1 -6.5 1h-7.5q-70 0 -117 -50.5t-47 -122.5zM357 114q71 0 118 50.5t47 122.5q0 28 -8 53.5t-21 46.5l-155 -272q4 -1 9.5 -1h9.5zM357 -28q-25 0 -48.5 3t-45.5 9l-18 -32h-163l54 94q-54 43 -85 106t-31 135
q0 66 25.5 123.5t70.5 100t107 67t134 24.5q23 0 45.5 -3t44.5 -7l17 30h163l-52 -91q55 -43 87.5 -106.5t32.5 -137.5q0 -66 -25.5 -123.5t-70.5 -100t-107.5 -67t-134.5 -24.5zM538 797l-136 -147h-131l77 147h190z" />
    <glyph glyph-name="Scommaaccent" unicode="&#x218;" horiz-adv-x="521" 
d="M452 738l-1 -151q-28 13 -67.5 21.5t-76.5 8.5q-49 0 -72 -15.5t-23 -41.5t28.5 -52.5t86.5 -68.5q86 -65 129.5 -117t43.5 -121q0 -50 -22 -90t-59.5 -67t-89 -41.5t-110.5 -14.5q-22 0 -47.5 2t-50.5 5.5t-47 8.5t-37 11l1 154q32 -13 81.5 -25t98.5 -12q47 0 73 20
t26 46q0 27 -31.5 56t-93.5 73q-96 68 -131 118.5t-35 114.5q0 39 16 75.5t49.5 64t85 44.5t122.5 17q37 0 79 -5.5t74 -17.5zM310 -63l-76 -181h-118l34 181h160z" />
    <glyph glyph-name="scommaaccent" unicode="&#x219;" horiz-adv-x="449" 
d="M240 594q39 0 73 -6.5t61 -16.5v-139q-35 16 -67.5 23t-51.5 7q-28 0 -43.5 -10t-15.5 -26q0 -13 16.5 -28t51.5 -38q101 -67 135 -113.5t34 -94.5q0 -73 -58 -121.5t-164 -49.5q-41 0 -88.5 10.5t-83.5 25.5v139q45 -22 84.5 -32t64.5 -10q37 0 52.5 12.5t15.5 28.5
q0 13 -17.5 31.5t-74.5 55.5q-45 30 -73 54t-43 46t-20.5 44t-5.5 47q0 30 12 59.5t38.5 52t68 36t99.5 13.5zM291 -55l-76 -181h-118l34 181h160z" />
    <glyph glyph-name="Tcommaaccent" unicode="&#x21a;" horiz-adv-x="480" 
d="M151 0v586h-142v160h462v-160h-142v-586h-178zM320 -55l-76 -181h-118l34 181h160z" />
    <glyph glyph-name="tcommaaccent" unicode="&#x21b;" horiz-adv-x="325" 
d="M312 435h-67v-435h-165v435h-67v139h67v139l165 30v-169h67v-139zM242 -55l-76 -181h-118l34 181h160z" />
    <glyph glyph-name="dotlessj" unicode="&#x237;" horiz-adv-x="244" 
d="M-49 -89h12q34 0 55.5 24.5t21.5 70.5v568h164v-571q0 -122 -61 -177.5t-178 -56.5h-14v142z" />
    <glyph glyph-name="schwa" unicode="&#x259;" horiz-adv-x="667" 
d="M329 -28q-66 0 -123.5 23.5t-99 65.5t-65.5 100.5t-24 126.5v43h454q-10 67 -55 102.5t-120 35.5q-61 0 -105 -18.5t-76 -48.5l-94 99q47 42 115 71.5t163 29.5q81 0 146 -23.5t110 -65.5t69 -100t24 -126t-23.5 -126t-65.5 -100t-101 -65.5t-129 -23.5zM330 107
q53 0 88 30t48 83h-271q13 -53 47.5 -83t87.5 -30z" />
    <glyph glyph-name="circumflex" unicode="&#x2c6;" horiz-adv-x="500" 
d="M308 643l-61 75l-60 -75h-146l125 147h163l125 -147h-146z" />
    <glyph glyph-name="caron" unicode="&#x2c7;" horiz-adv-x="500" 
d="M329 643h-163l-125 147h144l60 -76l61 76h148z" />
    <glyph glyph-name="breve" unicode="&#x2d8;" horiz-adv-x="500" 
d="M425 798q-10 -71 -56.5 -116t-118.5 -45t-118.5 45t-56.5 116l96 3q12 -34 34 -50.5t45 -16.5t45 16.5t34 50.5z" />
    <glyph glyph-name="dotaccent" unicode="&#x2d9;" horiz-adv-x="500" 
d="M334 737v-118h-168v118h168z" />
    <glyph glyph-name="ring" unicode="&#x2da;" horiz-adv-x="500" 
d="M250 893q57 0 97 -39.5t40 -91.5t-40 -91.5t-97 -39.5t-97 40t-40 91t40 91t97 40zM250 822q-25 0 -42.5 -17.5t-17.5 -42.5t17.5 -42.5t42.5 -17.5t42.5 17.5t17.5 42.5t-17.5 42.5t-42.5 17.5z" />
    <glyph glyph-name="ogonek" unicode="&#x2db;" horiz-adv-x="500" 
d="M280 -32q-20 -13 -27.5 -22.5t-7.5 -19.5q0 -12 8 -19.5t22 -7.5q11 0 20.5 4.5t15.5 8.5l43 -55q-16 -16 -48 -28.5t-75 -13.5q-60 0 -87 26.5t-27 60.5q0 30 18.5 54t45.5 40l38 22l125 -12z" />
    <glyph glyph-name="tilde" unicode="&#x2dc;" horiz-adv-x="500" 
d="M141 642l-122 4q-6 93 33.5 130.5t96.5 37.5q25 0 49.5 -7.5t46.5 -17t41 -17t33 -7.5q16 0 27.5 8.5t11.5 35.5l122 -4q4 -77 -28.5 -118.5t-98.5 -41.5q-25 0 -50.5 7t-48 16t-41.5 16t-33 7q-16 0 -28 -9.5t-11 -39.5z" />
    <glyph glyph-name="hungarumlaut" unicode="&#x2dd;" horiz-adv-x="500" 
d="M362 790h170l-134 -147h-119zM140 790h170l-134 -147h-120z" />
    <glyph glyph-name="acute.cmb" unicode="&#x301;" 
d="M166 790l-136 -147h-131l77 147h190z" />
    <glyph glyph-name="mu" unicode="&#x3bc;" horiz-adv-x="631" 
d="M179 -190l-139 -30v794h165v-333q0 -56 34.5 -83t74.5 -27q19 0 39 7t36 20t26 33.5t10 46.5v336h166v-574h-139v63q-19 -34 -56 -56t-84 -22q-41 0 -77 20t-56 54v-249z" />
    <glyph glyph-name="Wgrave" unicode="&#x1e80;" horiz-adv-x="1008" 
d="M632 0l-127 471l-130 -471h-166l-207 746h185l120 -484l124 484h154l123 -484l121 484h177l-208 -746h-166zM297 954h193l78 -147h-134z" />
    <glyph glyph-name="wgrave" unicode="&#x1e81;" horiz-adv-x="918" 
d="M574 0l-112 344l-110 -344h-157l-196 574h173l104 -358l112 358h150l112 -360l104 360h165l-192 -574h-153zM252 797h193l78 -147h-134z" />
    <glyph glyph-name="Wacute" unicode="&#x1e82;" horiz-adv-x="1008" 
d="M632 0l-127 471l-130 -471h-166l-207 746h185l120 -484l124 484h154l123 -484l121 484h177l-208 -746h-166zM707 954l-136 -147h-131l77 147h190z" />
    <glyph glyph-name="wacute" unicode="&#x1e83;" horiz-adv-x="918" 
d="M574 0l-112 344l-110 -344h-157l-196 574h173l104 -358l112 358h150l112 -360l104 360h165l-192 -574h-153zM662 797l-136 -147h-131l77 147h190z" />
    <glyph glyph-name="Wdieresis" unicode="&#x1e84;" horiz-adv-x="1008" 
d="M632 0l-127 471l-130 -471h-166l-207 746h185l120 -484l124 484h154l123 -484l121 484h177l-208 -746h-166zM690 928v-121h-139v121h139zM459 928v-121h-139v121h139z" />
    <glyph glyph-name="wdieresis" unicode="&#x1e85;" horiz-adv-x="918" 
d="M574 0l-112 344l-110 -344h-157l-196 574h173l104 -358l112 358h150l112 -360l104 360h165l-192 -574h-153zM646 771v-121h-139v121h139zM415 771v-121h-139v121h139z" />
    <glyph glyph-name="Ygrave" unicode="&#x1ef2;" horiz-adv-x="700" 
d="M439 0h-178v235l-259 511h194l156 -344l166 344h180l-259 -509v-237zM143 954h193l78 -147h-134z" />
    <glyph glyph-name="ygrave" unicode="&#x1ef3;" horiz-adv-x="656" 
d="M359 -220h-170l74 205l-264 589h187l158 -397l141 397h172zM125 797h193l78 -147h-134z" />
    <glyph glyph-name="uni2000" unicode="&#x2000;" horiz-adv-x="500" 
 />
    <glyph glyph-name="uni2001" unicode="&#x2001;" horiz-adv-x="1000" 
 />
    <glyph glyph-name="uni2002" unicode="&#x2002;" horiz-adv-x="500" 
 />
    <glyph glyph-name="uni2003" unicode="&#x2003;" horiz-adv-x="1000" 
 />
    <glyph glyph-name="uni2004" unicode="&#x2004;" horiz-adv-x="333" 
 />
    <glyph glyph-name="uni2005" unicode="&#x2005;" horiz-adv-x="250" 
 />
    <glyph glyph-name="uni2009" unicode="&#x2009;" horiz-adv-x="166" 
 />
    <glyph glyph-name="uni200A" unicode="&#x200a;" horiz-adv-x="100" 
 />
    <glyph glyph-name="uni200B" unicode="&#x200b;" 
 />
    <glyph glyph-name="endash" unicode="&#x2013;" horiz-adv-x="524" 
d="M494 381v-127h-464v127h464z" />
    <glyph glyph-name="emdash" unicode="&#x2014;" horiz-adv-x="724" 
d="M694 381v-127h-664v127h664z" />
    <glyph glyph-name="emdash.salt_em" unicode="&#x2015;" horiz-adv-x="1000" 
d="M1000 381v-127h-1000v127h1000z" />
    <glyph glyph-name="quoteleft" unicode="&#x2018;" horiz-adv-x="341" 
d="M297 746l-68 -307h-183l124 307h127z" />
    <glyph glyph-name="quoteright" unicode="&#x2019;" horiz-adv-x="338" 
d="M49 439l68 307h183l-123 -307h-128z" />
    <glyph glyph-name="quotesinglbase" unicode="&#x201a;" horiz-adv-x="340" 
d="M30 -307l68 307h183l-123 -307h-128z" />
    <glyph glyph-name="quotedblleft" unicode="&#x201c;" horiz-adv-x="574" 
d="M297 746l-68 -307h-183l124 307h127zM530 746l-68 -307h-183l124 307h127z" />
    <glyph glyph-name="quotedblright" unicode="&#x201d;" horiz-adv-x="570" 
d="M48 439l68 307h183l-123 -307h-128zM283 439l68 307h183l-123 -307h-128z" />
    <glyph glyph-name="quotedblbase" unicode="&#x201e;" horiz-adv-x="576" 
d="M30 -307l68 307h183l-123 -307h-128zM265 -307l68 307h183l-123 -307h-128z" />
    <glyph glyph-name="dagger" unicode="&#x2020;" horiz-adv-x="461" 
d="M429 443h-116v-553l-165 30v523h-116v127h116v176h165v-176h116v-127z" />
    <glyph glyph-name="daggerdbl" unicode="&#x2021;" horiz-adv-x="461" 
d="M429 192h-116v-302l-165 30v272h-116v127h116v124h-116v127h116v176h165v-176h116v-127h-116v-124h116v-127z" />
    <glyph glyph-name="bullet" unicode="&#x2022;" horiz-adv-x="289" 
d="M49 399h191v-165h-191v165z" />
    <glyph glyph-name="ellipsis" unicode="&#x2026;" horiz-adv-x="832" 
d="M48 163h186v-163h-186v163zM323 163h186v-163h-186v163zM598 163h186v-163h-186v163z" />
    <glyph glyph-name="perthousand" unicode="&#x2030;" horiz-adv-x="1322" 
d="M769 746l-490 -746h-136l488 746h138zM210 746q81 0 133.5 -47.5t52.5 -140.5v-27q0 -92 -53 -139.5t-133 -47.5t-133.5 47.5t-53.5 139.5v27q0 93 54 140.5t133 47.5zM269 532v25q0 51 -16.5 76.5t-42.5 25.5t-43 -25.5t-17 -76.5v-25q0 -51 17 -76t43 -25q25 0 42 25
t17 76zM701 402q80 0 133 -47.5t53 -140.5v-27q0 -92 -53 -139.5t-133 -47.5q-79 0 -133 47.5t-54 139.5v27q0 93 54 140.5t133 47.5zM1114 402q80 0 132.5 -47.5t52.5 -140.5v-27q0 -92 -52.5 -139.5t-132.5 -47.5q-79 0 -132.5 47.5t-53.5 139.5v27q0 93 53.5 140.5
t132.5 47.5zM1173 188v25q0 51 -16.5 77t-42.5 26t-43 -26t-17 -77v-25q0 -52 17 -77t43 -25q25 0 42 25t17 77zM759 188v25q0 51 -16 76.5t-42 25.5t-43 -25.5t-17 -76.5v-25q0 -51 17 -76t43 -25q25 0 41.5 25t16.5 76z" />
    <glyph glyph-name="minute" unicode="&#x2032;" horiz-adv-x="279" 
d="M31 402l61 344h156l-61 -344h-156z" />
    <glyph glyph-name="second" unicode="&#x2033;" horiz-adv-x="511" 
d="M31 402l61 344h156l-61 -344h-156zM263 402l61 344h156l-61 -344h-156z" />
    <glyph glyph-name="guilsinglleft" unicode="&#x2039;" horiz-adv-x="408" 
d="M364 0h-138l-185 285v3l185 286h139l-186 -285z" />
    <glyph glyph-name="guilsinglright" unicode="&#x203a;" horiz-adv-x="408" 
d="M182 0h-138l185 289l-185 285h138l185 -286v-3z" />
    <glyph glyph-name="fraction" unicode="&#x2044;" horiz-adv-x="330" 
d="M320 746h146l-458 -746h-144z" />
    <glyph glyph-name="zero.sups" unicode="&#x2070;" horiz-adv-x="494" 
d="M247 761q88 0 146 -58.5t58 -174.5v-32q0 -114 -58.5 -173t-145.5 -59q-43 0 -80.5 15t-64.5 44t-42.5 72.5t-15.5 100.5v32q0 58 15.5 102t42.5 73t64.5 43.5t80.5 14.5zM321 494v32q0 63 -20.5 93.5t-53.5 30.5q-31 0 -53 -30.5t-22 -93.5v-32q0 -63 22 -93.5t53 -30.5
q32 0 53 30.5t21 93.5z" />
    <glyph glyph-name="four.sups" unicode="&#x2074;" horiz-adv-x="459" 
d="M250 455v120l-80 -120h80zM410 351h-31v-72h-129v72h-216l-12 26l244 369h113v-291h59z" />
    <glyph glyph-name="five.sups" unicode="&#x2075;" horiz-adv-x="431" 
d="M161 264q-28 0 -64.5 7t-61.5 20v108q28 -15 57.5 -21.5t69.5 -6.5t65.5 16.5t25.5 44.5q0 25 -30.5 42.5t-84.5 17.5q-23 0 -43.5 -2.5t-39.5 -7.5l60 264h285l-33 -110h-166l-14 -53q101 -1 149.5 -42.5t48.5 -106.5q0 -75 -60 -122.5t-164 -47.5z" />
    <glyph glyph-name="six.sups" unicode="&#x2076;" horiz-adv-x="453" 
d="M229 264q-86 0 -141 46.5t-55 129.5q0 41 16 82t41.5 80t57 75.5t61.5 68.5h152q-41 -40 -81 -84t-71 -85v-1q16 8 33.5 12.5t36.5 4.5q59 0 102 -43.5t43 -109.5q0 -36 -14 -68t-39.5 -56t-61.5 -38t-80 -14zM229 502q-28 0 -48.5 -19.5t-20.5 -47.5q0 -26 20.5 -45.5
t48.5 -19.5t48 19.5t20 45.5q0 28 -20 47.5t-48 19.5z" />
    <glyph glyph-name="seven.sups" unicode="&#x2077;" horiz-adv-x="439" 
d="M213 279h-143l160 351h-196l34 116h351z" />
    <glyph glyph-name="eight.sups" unicode="&#x2078;" horiz-adv-x="450" 
d="M225 264q-95 0 -145.5 42t-50.5 110q0 37 20 67t58 49q-27 16 -40.5 41t-13.5 54q0 54 44 94t128 40q85 0 128.5 -40t43.5 -94q0 -29 -13.5 -54t-39.5 -42q37 -18 57 -48t20 -67q0 -68 -51.5 -110t-144.5 -42zM225 562q21 0 36.5 15t15.5 37q0 21 -15 34t-37 13
t-37.5 -13t-15.5 -34q0 -22 15.5 -37t37.5 -15zM225 362q28 0 48.5 17.5t20.5 44.5t-20.5 43.5t-48.5 16.5t-48.5 -16.5t-20.5 -43.5t20.5 -44.5t48.5 -17.5z" />
    <glyph glyph-name="nine.sups" unicode="&#x2079;" horiz-adv-x="453" 
d="M246 278h-152q40 40 80 84t71 85v1q-16 -8 -33.5 -12.5t-36.5 -4.5q-59 0 -102 43.5t-43 109.5q0 36 14 68.5t39.5 56t61.5 37.5t80 14q86 0 141 -46t55 -130q0 -41 -16 -82t-41.5 -79.5t-56.5 -75.5t-61 -69zM225 522q28 0 48.5 19.5t20.5 47.5q0 27 -20.5 46.5
t-48.5 19.5t-48 -19.5t-20 -46.5q0 -28 20 -47.5t48 -19.5z" />
    <glyph glyph-name="zero.sinf" unicode="&#x2080;" horiz-adv-x="457" 
d="M228 282q88 0 146 -58.5t58 -174.5v-32q0 -114 -58.5 -173t-145.5 -59q-43 0 -80.5 15t-64.5 44t-42.5 72.5t-15.5 100.5v32q0 58 15.5 102t42.5 73t64.5 43.5t80.5 14.5zM302 15v32q0 63 -20.5 93.5t-53.5 30.5q-31 0 -53 -30.5t-22 -93.5v-32q0 -63 22 -93.5t53 -30.5
q32 0 53 30.5t21 93.5z" />
    <glyph glyph-name="one.sinf" unicode="&#x2081;" horiz-adv-x="272" 
d="M235 -200h-129v286l-82 -77v164l111 94h100v-467z" />
    <glyph glyph-name="two.sinf" unicode="&#x2082;" horiz-adv-x="391" 
d="M338 -200h-323l-9 19q13 16 37.5 47.5t51 64.5t50.5 62.5t34 43.5q19 24 27 40.5t8 36.5q0 22 -17 39t-50 17q-22 0 -46.5 -8.5t-50.5 -27.5v125q28 12 58 17.5t57 5.5q85 -1 134.5 -44t49.5 -108q-1 -50 -24.5 -82t-49.5 -66q-11 -14 -28.5 -34.5t-36.5 -41.5h171z" />
    <glyph glyph-name="three.sinf" unicode="&#x2083;" horiz-adv-x="353" 
d="M146 -215q-31 0 -69.5 5t-62.5 18v104q20 -13 47.5 -18t43.5 -5q49 -1 77.5 13.5t28.5 39.5q0 24 -26.5 38.5t-69.5 14.5h-29l5 99h24q32 0 53 12.5t21 33.5q0 19 -19 28.5t-50 9.5q-19 0 -42 -3.5t-42 -12.5l6 108q19 5 42.5 8.5t62.5 3.5q74 1 122.5 -34.5t48.5 -88.5
q-1 -31 -17.5 -59t-44.5 -46q37 -17 60 -48t23 -70q0 -66 -53.5 -109t-139.5 -42z" />
    <glyph glyph-name="four.sinf" unicode="&#x2084;" horiz-adv-x="422" 
d="M231 -24v120l-80 -120h80zM391 -128h-31v-72h-129v72h-216l-12 26l244 369h113v-291h59z" />
    <glyph glyph-name="five.sinf" unicode="&#x2085;" horiz-adv-x="394" 
d="M142 -215q-28 0 -64.5 7t-61.5 20v108q28 -15 57.5 -21.5t69.5 -6.5t65.5 16.5t25.5 44.5q0 25 -30.5 42.5t-84.5 17.5q-23 0 -43.5 -2.5t-39.5 -7.5l60 264h285l-33 -110h-166l-14 -53q101 -1 149.5 -42.5t48.5 -106.5q0 -75 -60 -122.5t-164 -47.5z" />
    <glyph glyph-name="six.sinf" unicode="&#x2086;" horiz-adv-x="416" 
d="M210 -215q-86 0 -141 46.5t-55 129.5q0 41 16 82t41.5 80t57 75.5t61.5 68.5h152q-41 -40 -81 -84t-71 -85v-1q16 8 33.5 12.5t36.5 4.5q59 0 102 -43.5t43 -109.5q0 -36 -14 -68t-39.5 -56t-61.5 -38t-80 -14zM210 23q-28 0 -48.5 -19.5t-20.5 -47.5q0 -26 20.5 -45.5
t48.5 -19.5t48 19.5t20 45.5q0 28 -20 47.5t-48 19.5z" />
    <glyph glyph-name="seven.sinf" unicode="&#x2087;" horiz-adv-x="402" 
d="M194 -200h-143l160 351h-196l34 116h351z" />
    <glyph glyph-name="eight.sinf" unicode="&#x2088;" horiz-adv-x="412" 
d="M206 -215q-95 0 -145.5 42t-50.5 110q0 37 20 67t58 49q-27 16 -40.5 41t-13.5 54q0 54 44 94t128 40q85 0 128.5 -40t43.5 -94q0 -29 -13.5 -54t-39.5 -42q37 -18 57 -48t20 -67q0 -68 -51.5 -110t-144.5 -42zM206 83q21 0 36.5 15t15.5 37q0 21 -15 34t-37 13
t-37.5 -13t-15.5 -34q0 -22 15.5 -37t37.5 -15zM206 -117q28 0 48.5 17.5t20.5 44.5t-20.5 43.5t-48.5 16.5t-48.5 -16.5t-20.5 -43.5t20.5 -44.5t48.5 -17.5z" />
    <glyph glyph-name="nine.sinf" unicode="&#x2089;" horiz-adv-x="416" 
d="M227 -201h-152q40 40 80 84t71 85v1q-16 -8 -33.5 -12.5t-36.5 -4.5q-59 0 -102 43.5t-43 109.5q0 36 14 68.5t39.5 56t61.5 37.5t80 14q86 0 141 -46t55 -130q0 -41 -16 -82t-41.5 -79.5t-56.5 -75.5t-61 -69zM206 43q28 0 48.5 19.5t20.5 47.5q0 27 -20.5 46.5
t-48.5 19.5t-48 -19.5t-20 -46.5q0 -28 20 -47.5t48 -19.5z" />
    <glyph glyph-name="Euro" unicode="&#x20ac;" horiz-adv-x="620" 
d="M586 6q-29 -14 -62 -19.5t-68 -5.5q-66 0 -123.5 21t-102.5 58t-77 88.5t-48 111.5h-99l17 80h69q-1 8 -1 17v17v12t1 12h-86l17 81h80q15 62 47 114.5t77 90.5t103.5 59.5t125.5 21.5q35 0 67.5 -5.5t62.5 -20.5v-150q-25 15 -51 23t-55 8q-67 0 -120 -39.5t-78 -101.5
h251l-18 -81h-252q-1 -6 -1 -11.5v-11.5q0 -9 0.5 -18t1.5 -17h239l-18 -80h-199q26 -59 77.5 -96.5t116.5 -37.5q29 0 55 8t51 24v-152z" />
    <glyph glyph-name="copyrightsound" unicode="&#x2117;" horiz-adv-x="865" 
d="M433 756q83 0 154.5 -30t123.5 -82t81.5 -122t29.5 -149t-29.5 -149t-81.5 -122t-123.5 -82t-154.5 -30t-155 30t-124 82t-81.5 122t-29.5 149t29.5 149t81.5 122t124 82t155 30zM433 709q-70 0 -132 -26.5t-107.5 -71.5t-72 -106.5t-26.5 -131.5q0 -69 26.5 -130.5
t72 -107t107.5 -72t132 -26.5q69 0 130.5 26.5t107 72t72 107t26.5 130.5q0 70 -26.5 131.5t-72 106.5t-107 71.5t-130.5 26.5zM446 275h-17v-116h-138v436h151q40 0 76 -7t63 -25t43.5 -50t16.5 -82q0 -44 -18.5 -74.5t-47.5 -48.5t-63.5 -25.5t-65.5 -7.5zM458 480h-32
v-92h32q23 0 37.5 11.5t14.5 31.5q1 24 -13 36.5t-39 12.5z" />
    <glyph glyph-name="trademark" unicode="&#x2122;" horiz-adv-x="672" 
d="M74 442v221h-60v83h211v-83h-60v-221h-91zM431 496l-79 118v-172h-88v304h99l80 -126l78 126h97v-304h-89v170l-78 -116h-20z" />
    <glyph glyph-name="arrowleft" unicode="&#x2190;" horiz-adv-x="750" 
d="M545 86v-10h-227l-318 318v18l318 318h227v-10l-228 -228h429v-178h-429z" />
    <glyph glyph-name="arrowup" unicode="&#x2191;" horiz-adv-x="750" 
d="M692 202l-228 228v-430h-178v430l-228 -228h-10v227l318 317h18l318 -317v-227h-10z" />
    <glyph glyph-name="arrowright" unicode="&#x2192;" horiz-adv-x="750" 
d="M432 71h-228v10l229 228h-430v178h430l-229 228v10h228l317 -318v-18z" />
    <glyph glyph-name="arrowdown" unicode="&#x2193;" horiz-adv-x="750" 
d="M384 0h-18l-318 317v227h10l228 -228v430h178v-430l228 228h10v-227z" />
    <glyph glyph-name="uni2196" unicode="&#x2196;" horiz-adv-x="750" 
d="M247 26l-8 -7l-160 160v450l13 13h449l161 -160l-7 -8l-323 1l304 -304l-126 -126l-303 303v-322z" />
    <glyph glyph-name="uni2197" unicode="&#x2197;" horiz-adv-x="750" 
d="M511 20l-7 8v322l-304 -304l-125 126l304 304h-323l-8 7l161 161l449 -1l13 -13l1 -449z" />
    <glyph glyph-name="uni2198" unicode="&#x2198;" horiz-adv-x="750" 
d="M209 57l-161 161l7 7h323l-304 304l126 125l303 -303v322l8 8l160 -161v-449l-13 -13z" />
    <glyph glyph-name="uni2199" unicode="&#x2199;" horiz-adv-x="750" 
d="M541 56l-449 1l-13 13l-1 449l161 161l7 -8v-322l304 304l125 -126l-304 -304h323l8 -7z" />
    <glyph glyph-name="minus" unicode="&#x2212;" horiz-adv-x="572" 
d="M544 416v-132h-516v132h516z" />
    <glyph glyph-name="radical" unicode="&#x221a;" horiz-adv-x="672" 
d="M393 0h-164l-116 325h-82v130h179l101 -299l214 590h143z" />
    <glyph glyph-name="infinity" unicode="&#x221e;" horiz-adv-x="677" 
d="M494 145q-56 0 -92.5 32t-63.5 70q-31 -48 -69.5 -75t-92.5 -27q-36 0 -67 16t-53 43t-34.5 62.5t-12.5 74.5t13 74.5t35.5 62.5t54.5 43t70 16q55 0 92 -30t65 -70q34 51 73 75.5t88 24.5q37 0 68 -16t53 -43t34.5 -62.5t12.5 -74.5t-13 -74.5t-36 -62.5t-55 -43
t-70 -16zM192 268q33 0 53 21.5t33 46.5q-22 34 -39 56t-50 22q-28 0 -46 -22t-18 -51t19 -51t48 -22zM488 268q28 0 46 22t18 51t-19.5 51t-48.5 22q-31 0 -50.5 -19t-34.5 -47q20 -35 37.5 -57.5t51.5 -22.5z" />
    <glyph glyph-name="approxequal" unicode="&#x2248;" horiz-adv-x="594" 
d="M154 379l-117 20q0 49 12.5 82t33 53t47 28t52.5 8q25 0 53 -10.5t55.5 -23t53 -23t44.5 -10.5t35 8t17 37l116 -21q0 -50 -12.5 -83t-33 -52.5t-47 -27.5t-53.5 -8q-25 0 -53 10.5t-55 23t-52.5 23t-44.5 10.5q-19 1 -35 -7.5t-16 -36.5zM154 133l-117 21q0 49 12.5 82
t33 53t47 28t52.5 8q25 0 53 -10.5t55.5 -23t53 -23t44.5 -10.5q19 -1 35 7.5t17 37.5l116 -21q0 -50 -12.5 -83t-33 -53t-47 -28t-53.5 -8q-25 0 -53 10.5t-55 23t-52.5 23.5t-44.5 11t-35 -8t-16 -37z" />
    <glyph glyph-name="notequal" unicode="&#x2260;" horiz-adv-x="558" 
d="M231 4l-141 -1l60 164h-114v121h158l37 103h-195v121h239l60 165h140l-60 -165h107v-121h-151l-37 -103h188v-121h-232z" />
    <glyph glyph-name="lessequal" unicode="&#x2264;" horiz-adv-x="561" 
d="M539 153l-518 161v134l518 163v-135l-370 -95l370 -90v-138zM21 127h518v-111h-518v111z" />
    <glyph glyph-name="greaterequal" unicode="&#x2265;" horiz-adv-x="561" 
d="M22 153v138l370 90l-370 95v135l519 -163v-134zM541 126v-110h-519v110h519z" />
    <glyph glyph-name="lozenge" unicode="&#x25ca;" horiz-adv-x="617" 
d="M577 373l-216 -373h-102l-219 373l218 373h103zM310 134l138 237l-139 242l-139 -238z" />
    <glyph glyph-name="commaaccent" unicode="&#xf6c3;" horiz-adv-x="500" 
d="M328 -30l-76 -181h-118l34 181h160z" />
    <glyph glyph-name="apple" unicode="&#xf8ff;" horiz-adv-x="596" 
d="M10 -101v761h576v-761h-576zM91 560v-560h179q52 0 99.5 18.5t83.5 53.5t57.5 88t21.5 121q0 67 -22 119.5t-58.5 87.5t-84.5 53.5t-99 18.5h-177zM239 17h-140v525h140q43 0 83.5 -17t72 -49.5t50.5 -81.5t19 -113q0 -65 -19 -114.5t-50.5 -82.5t-72 -50t-83.5 -17z
M239 535h-133v-510h133q41 0 80.5 16.5t69.5 49t48.5 80.5t18.5 110t-18.5 109.5t-48.5 79.5t-69.5 48.5t-80.5 16.5zM174 74v411h96q35 0 67.5 -13t57 -38.5t39.5 -64t15 -88.5q0 -51 -15 -90t-39.5 -64.5t-57 -39t-67.5 -13.5h-96z" />
    <glyph glyph-name="uniFEFF" unicode="&#xfeff;" 
 />
    <glyph glyph-name="Jacute" horiz-adv-x="391" 
d="M9 0v166q19 -10 39 -15.5t38 -5.5q37 0 58.5 32t21.5 113v456h178v-521q0 -113 -52.5 -178t-179.5 -65q-28 0 -54.5 4t-48.5 14zM456 954l-136 -147h-131l77 147h190z" />
    <glyph glyph-name="jacute" horiz-adv-x="244" 
d="M-49 -89h12q34 0 55.5 24.5t21.5 70.5v568h164v-571q0 -122 -61 -177.5t-178 -56.5h-14v142zM325 797l-136 -147h-131l77 147h190z" />
    <glyph glyph-name="I_Jacute" horiz-adv-x="663" 
d="M47 0v746h178v-746h-178zM338 954l-136 -147h-131l77 147h190zM281 0v166q19 -10 39 -15.5t38 -5.5q37 0 58.5 32t21.5 113v456h178v-521q0 -113 -52.5 -178t-179.5 -65q-28 0 -54.5 4t-48.5 14zM728 954l-136 -147h-131l77 147h190z" />
    <glyph glyph-name="c_h" horiz-adv-x="1151" 
d="M498 156v-148q-21 -14 -62 -20t-73 -6q-73 0 -136 22.5t-109 63t-72 96.5t-26 123t26 123t72 96.5t109 63t136 22.5q32 0 72.5 -6t62.5 -20v-148h-5q-23 20 -57.5 27t-68.5 7q-75 0 -124.5 -47t-49.5 -118q0 -72 49.5 -118.5t124.5 -46.5q34 0 68.5 7.5t57.5 26.5h5z
M727 335v-335h-165v780h157v-280q25 31 73.5 59.5t114.5 28.5q44 0 82 -15t65.5 -42t43 -66.5t15.5 -88.5v-376h-166v325q0 64 -31.5 90.5t-76.5 26.5q-19 0 -39 -7t-36.5 -21t-26.5 -34t-10 -45z" />
    <glyph glyph-name="c_k" horiz-adv-x="1136" 
d="M498 156v-148q-21 -14 -62 -20t-73 -6q-73 0 -136 22.5t-109 63t-72 96.5t-26 123t26 123t72 96.5t109 63t136 22.5q32 0 72.5 -6t62.5 -20v-148h-5q-23 20 -57.5 27t-68.5 7q-75 0 -124.5 -47t-49.5 -118q0 -72 49.5 -118.5t124.5 -46.5q34 0 68.5 7.5t57.5 26.5h5z
M936 0l-154 237l-55 -61v-176h-165v780h165v-400l188 194h205l-217 -226l231 -348h-198z" />
    <glyph glyph-name="i_jacute" horiz-adv-x="491" 
d="M206 574v-574h-165v574h165zM326 797l-136 -147h-131l77 147h190zM199 -89h12q34 0 55.5 24.5t21.5 70.5v568h164v-571q0 -122 -61 -177.5t-178 -56.5h-14v142zM573 797l-136 -147h-131l77 147h190z" />
    <glyph glyph-name="caron.vertical" orientation="v" 
d="M37 -30l-63 -181h-90l18 181h135z" />
    <glyph glyph-name="endash.salt_en" horiz-adv-x="500" 
d="M500 381v-127h-500v127h500z" />
    <glyph glyph-name="emdash.uc_salt_em" horiz-adv-x="1000" 
d="M1000 437v-127h-1000v127h1000z" />
    <glyph glyph-name="endash.uc_salt_en" horiz-adv-x="500" 
d="M500 437v-127h-500v127h500z" />
    <glyph glyph-name="registered.salt_big" horiz-adv-x="865" 
d="M433 756q83 0 154.5 -30t123.5 -82t81.5 -122t29.5 -149t-29.5 -149t-81.5 -122t-123.5 -82t-154.5 -30t-155 30t-124 82t-81.5 122t-29.5 149t29.5 149t81.5 122t124 82t155 30zM433 709q-69 0 -131 -26.5t-107.5 -72t-72.5 -107t-27 -130.5t27 -130.5t72.5 -107
t107.5 -72t131 -26.5t130 26.5t107 72t72.5 107t26.5 130.5t-26.5 130.5t-72.5 107t-107 72t-130 26.5zM436 480h-17v-96h18q24 0 36 11.5t12 35.5q0 28 -15 38.5t-34 10.5zM497 162l-70 125h-5v-125h-138v433h144q29 0 62.5 -6t61 -22.5t46 -46.5t18.5 -78q0 -41 -18 -70
t-45 -48l93 -152l-9 -10h-140z" />
    <glyph glyph-name="acute.lc" 
d="M166 790l-136 -147h-131l77 147h190z" />
    <glyph glyph-name="grave.lc" 
d="M-161 790h193l78 -147h-134z" />
    <glyph glyph-name="hungarumlaut.lc" 
d="M112 790h170l-134 -147h-119zM-110 790h170l-134 -147h-120z" />
    <glyph glyph-name="circumflex.lc" 
d="M58 643l-61 75l-60 -75h-146l125 147h163l125 -147h-146z" />
    <glyph glyph-name="caron.lc" 
d="M79 643h-163l-125 147h144l60 -76l61 76h148z" />
    <glyph glyph-name="breve.lc" 
d="M175 798q-10 -71 -56.5 -116t-118.5 -45t-118.5 45t-56.5 116l96 3q12 -34 34 -50.5t45 -16.5t45 16.5t34 50.5z" />
    <glyph glyph-name="tilde.lc" 
d="M-109 642l-122 4q-6 93 33.5 130.5t96.5 37.5q25 0 49.5 -7.5t46.5 -17t41 -17t33 -7.5q16 0 27.5 8.5t11.5 35.5l122 -4q4 -77 -28.5 -118.5t-98.5 -41.5q-25 0 -50.5 7t-48 16t-41.5 16t-33 7q-16 0 -28 -9.5t-11 -39.5z" />
    <glyph glyph-name="macron.lc" 
d="M157 786v-117h-314v117h314z" />
    <glyph glyph-name="dieresis.lc" 
d="M185 796v-121h-139v121h139zM-46 796v-121h-139v121h139z" />
    <glyph glyph-name="dotaccent.lc" 
d="M84 753v-134h-168v134h168z" />
    <glyph glyph-name="ring.lc" 
d="M0 893q57 0 97 -39.5t40 -91.5t-40 -91.5t-97 -39.5t-97 40t-40 91t40 91t97 40zM0 822q-25 0 -42.5 -17.5t-17.5 -42.5t17.5 -42.5t42.5 -17.5t42.5 17.5t17.5 42.5t-17.5 42.5t-42.5 17.5z" />
    <glyph glyph-name="cedilla.lc" 
d="M-28 -207q-17 0 -40.5 3.5t-44.5 10.5v64h1q20 -6 41 -9t31 -3q24 0 38.5 8t14.5 22t-19 23t-50 9h-18l-3 8l29 84l63 -2l-14 -38q51 -5 80.5 -28t29.5 -61q0 -39 -38 -65t-101 -26z" />
    <glyph glyph-name="ogonek.lc" 
d="M30 -32q-20 -13 -27.5 -22.5t-7.5 -19.5q0 -12 8 -19.5t22 -7.5q11 0 20.5 4.5t15.5 8.5l43 -55q-16 -16 -48 -28.5t-75 -13.5q-60 0 -87 26.5t-27 60.5q0 30 18.5 54t45.5 40l38 22l125 -12z" />
    <glyph glyph-name="commaaccent.lc" 
d="M78 -30l-76 -181h-118l34 181h160z" />
    <glyph glyph-name="grave.cmb" 
d="M-161 790h193l78 -147h-134z" />
    <glyph glyph-name="hungarumlaut.cmb" 
d="M112 790h170l-134 -147h-119zM-110 790h170l-134 -147h-120z" />
    <glyph glyph-name="circumflex.cmb" 
d="M58 643l-61 75l-60 -75h-146l125 147h163l125 -147h-146z" />
    <glyph glyph-name="caron.cmb" 
d="M79 643h-163l-125 147h144l60 -76l61 76h148z" />
    <glyph glyph-name="breve.cmb" 
d="M175 798q-10 -71 -56.5 -116t-118.5 -45t-118.5 45t-56.5 116l96 3q12 -34 34 -50.5t45 -16.5t45 16.5t34 50.5z" />
    <glyph glyph-name="tilde.cmb" 
d="M-109 642l-122 4q-6 93 33.5 130.5t96.5 37.5q25 0 49.5 -7.5t46.5 -17t41 -17t33 -7.5q16 0 27.5 8.5t11.5 35.5l122 -4q4 -77 -28.5 -118.5t-98.5 -41.5q-25 0 -50.5 7t-48 16t-41.5 16t-33 7q-16 0 -28 -9.5t-11 -39.5z" />
    <glyph glyph-name="macron.cmb" 
d="M157 786v-117h-314v117h314z" />
    <glyph glyph-name="dieresis.cmb" 
d="M185 796v-121h-139v121h139zM-46 796v-121h-139v121h139z" />
    <glyph glyph-name="dotaccent.cmb" 
d="M84 737v-118h-168v118h168z" />
    <glyph glyph-name="ring.cmb" 
d="M0 893q57 0 97 -39.5t40 -91.5t-40 -91.5t-97 -39.5t-97 40t-40 91t40 91t97 40zM0 822q-25 0 -42.5 -17.5t-17.5 -42.5t17.5 -42.5t42.5 -17.5t42.5 17.5t17.5 42.5t-17.5 42.5t-42.5 17.5z" />
    <glyph glyph-name="cedilla.cmb" 
d="M-28 -207q-17 0 -40.5 3t-44.5 10v65h1q20 -6 41 -9t31 -3q25 0 39 8t14 22t-19 23t-50 9h-18l-3 8l29 84l63 -2l-14 -38q51 -5 80.5 -28t29.5 -61q0 -39 -38 -65t-101 -26z" />
    <glyph glyph-name="ogonek.cmb" 
d="M30 -32q-20 -13 -27.5 -22.5t-7.5 -19.5q0 -12 8 -19.5t22 -7.5q11 0 20.5 4.5t15.5 8.5l43 -55q-16 -16 -48 -28.5t-75 -13.5q-60 0 -87 26.5t-27 60.5q0 30 18.5 54t45.5 40l38 22l125 -12z" />
    <glyph glyph-name="commaaccent.cmb" 
d="M78 -30l-76 -181h-118l34 181h160z" />
    <glyph glyph-name="hyphen.uc" horiz-adv-x="404" 
d="M364 448v-149h-324v149h324z" />
    <glyph glyph-name="endash.uc" horiz-adv-x="524" 
d="M494 437v-127h-464v127h464z" />
    <glyph glyph-name="emdash.uc" horiz-adv-x="724" 
d="M694 437v-127h-664v127h664z" />
    <glyph glyph-name="parenleft.uc" horiz-adv-x="410" 
d="M284 852l92 -92q-24 -25 -49 -63.5t-46 -88t-34.5 -109.5t-13.5 -127v-14q0 -66 13.5 -126.5t34 -110t46 -87.5t49.5 -62l-92 -93q-35 28 -72.5 72.5t-68.5 104.5t-51.5 135.5t-20.5 163.5v20q0 89 20.5 164t51.5 134.5t68.5 104.5t72.5 74z" />
    <glyph glyph-name="parenright.uc" horiz-adv-x="423" 
d="M139 852q34 -29 72 -74t69 -104.5t51.5 -134.5t20.5 -164v-20q0 -88 -20.5 -163.5t-51.5 -135.5t-69 -104.5t-73 -72.5l-91 93q24 24 49.5 62t46 87.5t34 110t13.5 126.5v14q0 67 -13.5 127t-34.5 109.5t-46.5 88t-48.5 63.5z" />
    <glyph glyph-name="bracketleft.uc" horiz-adv-x="436" 
d="M106 -122v960h290v-101h-127v-758h135v-101h-298z" />
    <glyph glyph-name="bracketright.uc" horiz-adv-x="436" 
d="M330 -122h-298v101h135v758h-127v101h290v-960z" />
    <glyph glyph-name="braceleft.uc" horiz-adv-x="452" 
d="M390 -122h-98q-68 0 -109.5 28.5t-41.5 109.5v192q0 46 -15.5 69.5t-40.5 30.5q-1 1 -4.5 1.5t-4.5 1.5v92q2 1 5 1.5t4 1.5q25 7 40.5 30.5t15.5 68.5v195q0 81 41.5 109.5t109.5 28.5h98v-101h-31q-28 0 -41.5 -15t-13.5 -64v-149q0 -48 -21.5 -84t-67.5 -57v-21
q46 -21 67.5 -54.5t21.5 -82.5v-162q0 -50 13.5 -59.5t41.5 -9.5h31v-101z" />
    <glyph glyph-name="braceright.uc" horiz-adv-x="453" 
d="M161 -122h-98v91h31q28 0 41.5 9.5t13.5 59.5v172q0 49 21 83t68 54v21q-47 21 -68 57t-21 84v159q0 49 -13.5 64t-41.5 15h-31v91h98q67 0 108.5 -28.5t41.5 -109.5v-195q0 -45 15.5 -68.5t40.5 -30.5q2 -1 5.5 -1.5t4.5 -1.5v-92q-1 -1 -5 -1.5t-5 -1.5
q-25 -7 -40.5 -30.5t-15.5 -69.5v-192q0 -81 -41.5 -109.5t-108.5 -28.5z" />
    <glyph glyph-name="guilsinglleft.uc" horiz-adv-x="408" 
d="M364 46h-138l-185 285v3l185 286h139l-186 -285z" />
    <glyph glyph-name="guilsinglright.uc" horiz-adv-x="408" 
d="M182 46h-138l185 289l-185 285h138l185 -286v-3z" />
    <glyph glyph-name="guillemotleft.uc" horiz-adv-x="629" 
d="M585 46h-139l-185 285v3l185 286h140l-186 -285zM364 46h-138l-185 285v3l185 286h139l-186 -285z" />
    <glyph glyph-name="guillemotright.uc" horiz-adv-x="629" 
d="M403 46h-139l185 289l-184 285h138l185 -286v-3zM182 46h-138l185 289l-185 285h138l185 -286v-3z" />
    <glyph glyph-name="colon.uc" horiz-adv-x="274" 
d="M49 623h177v-168h-177v168zM49 268h177v-168h-177v168z" />
    <glyph glyph-name="semicolon.uc" horiz-adv-x="312" 
d="M79 623h177v-168h-177v168zM78 230h180l-101 -283h-134z" />
    <glyph glyph-name="plus.uc" horiz-adv-x="628" 
d="M591 308h-202v-222h-150v222h-202v132h202v207h150v-207h202v-132z" />
    <glyph glyph-name="minus.uc" horiz-adv-x="572" 
d="M544 438v-132h-516v132h516z" />
    <glyph glyph-name="divide.uc" horiz-adv-x="600" 
d="M225 513v147h150v-147h-150zM566 437v-131h-532v131h532zM225 83v147h150v-147h-150z" />
    <glyph glyph-name="multiply.uc" horiz-adv-x="568" 
d="M447 110l-167 167l-162 -162l-89 90l162 162l-160 159l93 92l159 -159l151 151l91 -89l-152 -152l167 -166z" />
    <glyph glyph-name="equal.uc" horiz-adv-x="563" 
d="M528 534v-121h-492v121h492zM528 310v-121h-492v121h492z" />
    <glyph glyph-name="zero.dnom" horiz-adv-x="457" 
d="M228 482q88 0 146 -58.5t58 -174.5v-32q0 -114 -58.5 -173t-145.5 -59q-43 0 -80.5 15t-64.5 44t-42.5 72.5t-15.5 100.5v32q0 58 15.5 102t42.5 73t64.5 43.5t80.5 14.5zM302 215v32q0 63 -20.5 93.5t-53.5 30.5q-31 0 -53 -30.5t-22 -93.5v-32q0 -63 22 -93.5t53 -30.5
q32 0 53 30.5t21 93.5z" />
    <glyph glyph-name="one.dnom" horiz-adv-x="272" 
d="M235 0h-129v286l-82 -77v164l111 94h100v-467z" />
    <glyph glyph-name="two.dnom" horiz-adv-x="391" 
d="M338 0h-323l-9 19q13 16 37.5 47.5t51 64.5t50.5 62.5t34 43.5q19 24 27 40.5t8 36.5q0 22 -17 39t-50 17q-22 0 -46.5 -8.5t-50.5 -27.5v125q28 12 58 17.5t57 5.5q85 -1 134.5 -44t49.5 -108q-1 -50 -24.5 -82t-49.5 -66q-11 -14 -28.5 -34.5t-36.5 -41.5h171z" />
    <glyph glyph-name="three.dnom" horiz-adv-x="353" 
d="M146 -15q-31 0 -69.5 5t-62.5 18v104q20 -13 47.5 -18t43.5 -5q49 -1 77.5 13.5t28.5 39.5q0 24 -26.5 38.5t-69.5 14.5h-29l5 99h24q32 0 53 12.5t21 33.5q0 19 -19 28.5t-50 9.5q-19 0 -42 -3.5t-42 -12.5l6 108q19 5 42.5 8.5t62.5 3.5q74 1 122.5 -34.5t48.5 -88.5
q-1 -31 -17.5 -59t-44.5 -46q37 -17 60 -48t23 -70q0 -66 -53.5 -109t-139.5 -42z" />
    <glyph glyph-name="four.dnom" horiz-adv-x="422" 
d="M231 176v120l-80 -120h80zM391 72h-31v-72h-129v72h-216l-12 26l244 369h113v-291h59z" />
    <glyph glyph-name="five.dnom" horiz-adv-x="394" 
d="M142 -15q-28 0 -64.5 7t-61.5 20v108q28 -15 57.5 -21.5t69.5 -6.5t65.5 16.5t25.5 44.5q0 25 -30.5 42.5t-84.5 17.5q-23 0 -43.5 -2.5t-39.5 -7.5l60 264h285l-33 -110h-166l-14 -53q101 -1 149.5 -42.5t48.5 -106.5q0 -75 -60 -122.5t-164 -47.5z" />
    <glyph glyph-name="six.dnom" horiz-adv-x="416" 
d="M210 -15q-86 0 -141 46.5t-55 129.5q0 41 16 82t41.5 80t57 75.5t61.5 68.5h152q-41 -40 -81 -84t-71 -85v-1q16 8 33.5 12.5t36.5 4.5q59 0 102 -43.5t43 -109.5q0 -36 -14 -68t-39.5 -56t-61.5 -38t-80 -14zM210 223q-28 0 -48.5 -19.5t-20.5 -47.5q0 -26 20.5 -45.5
t48.5 -19.5t48 19.5t20 45.5q0 28 -20 47.5t-48 19.5z" />
    <glyph glyph-name="seven.dnom" horiz-adv-x="402" 
d="M194 0h-143l160 351h-196l34 116h351z" />
    <glyph glyph-name="eight.dnom" horiz-adv-x="412" 
d="M206 -15q-95 0 -145.5 42t-50.5 110q0 37 20 67t58 49q-27 16 -40.5 41t-13.5 54q0 54 44 94t128 40q85 0 128.5 -40t43.5 -94q0 -29 -13.5 -54t-39.5 -42q37 -18 57 -48t20 -67q0 -68 -51.5 -110t-144.5 -42zM206 283q21 0 36.5 15t15.5 37q0 21 -15 34t-37 13
t-37.5 -13t-15.5 -34q0 -22 15.5 -37t37.5 -15zM206 83q28 0 48.5 17.5t20.5 44.5t-20.5 43.5t-48.5 16.5t-48.5 -16.5t-20.5 -43.5t20.5 -44.5t48.5 -17.5z" />
    <glyph glyph-name="nine.dnom" horiz-adv-x="416" 
d="M227 -1h-152q40 40 80 84t71 85v1q-16 -8 -33.5 -12.5t-36.5 -4.5q-59 0 -102 43.5t-43 109.5q0 36 14 68.5t39.5 56t61.5 37.5t80 14q86 0 141 -46t55 -130q0 -41 -16 -82t-41.5 -79.5t-56.5 -75.5t-61 -69zM206 243q28 0 48.5 19.5t20.5 47.5q0 27 -20.5 46.5
t-48.5 19.5t-48 -19.5t-20 -46.5q0 -28 20 -47.5t48 -19.5z" />
    <glyph glyph-name="zero.numr" horiz-adv-x="457" 
d="M228 761q88 0 146 -58.5t58 -174.5v-32q0 -114 -58.5 -173t-145.5 -59q-43 0 -80.5 15t-64.5 44t-42.5 72.5t-15.5 100.5v32q0 58 15.5 102t42.5 73t64.5 43.5t80.5 14.5zM302 494v32q0 63 -20.5 93.5t-53.5 30.5q-31 0 -53 -30.5t-22 -93.5v-32q0 -63 22 -93.5t53 -30.5
q32 0 53 30.5t21 93.5z" />
    <glyph glyph-name="one.numr" horiz-adv-x="272" 
d="M235 279h-129v286l-82 -77v164l111 94h100v-467z" />
    <glyph glyph-name="two.numr" horiz-adv-x="391" 
d="M338 279h-323l-9 19q13 16 37.5 47.5t51 64.5t50.5 62.5t34 43.5q19 24 27 40.5t8 36.5q0 22 -17 39t-50 17q-22 0 -46.5 -8.5t-50.5 -27.5v125q28 12 58 17.5t57 5.5q85 -1 134.5 -44t49.5 -108q-1 -50 -24.5 -82t-49.5 -66q-11 -14 -28.5 -34.5t-36.5 -41.5h171z" />
    <glyph glyph-name="three.numr" horiz-adv-x="353" 
d="M146 264q-31 0 -69.5 5t-62.5 18v104q20 -13 47.5 -18t43.5 -5q49 -1 77.5 13.5t28.5 39.5q0 24 -26.5 38.5t-69.5 14.5h-29l5 99h24q32 0 53 12.5t21 33.5q0 19 -19 28.5t-50 9.5q-19 0 -42 -3.5t-42 -12.5l6 108q19 5 42.5 8.5t62.5 3.5q74 1 122.5 -34.5t48.5 -88.5
q-1 -31 -17.5 -59t-44.5 -46q37 -17 60 -48t23 -70q0 -66 -53.5 -109t-139.5 -42z" />
    <glyph glyph-name="four.numr" horiz-adv-x="422" 
d="M231 455v120l-80 -120h80zM391 351h-31v-72h-129v72h-216l-12 26l244 369h113v-291h59z" />
    <glyph glyph-name="five.numr" horiz-adv-x="394" 
d="M142 264q-28 0 -64.5 7t-61.5 20v108q28 -15 57.5 -21.5t69.5 -6.5t65.5 16.5t25.5 44.5q0 25 -30.5 42.5t-84.5 17.5q-23 0 -43.5 -2.5t-39.5 -7.5l60 264h285l-33 -110h-166l-14 -53q101 -1 149.5 -42.5t48.5 -106.5q0 -75 -60 -122.5t-164 -47.5z" />
    <glyph glyph-name="six.numr" horiz-adv-x="416" 
d="M210 264q-86 0 -141 46.5t-55 129.5q0 41 16 82t41.5 80t57 75.5t61.5 68.5h152q-41 -40 -81 -84t-71 -85v-1q16 8 33.5 12.5t36.5 4.5q59 0 102 -43.5t43 -109.5q0 -36 -14 -68t-39.5 -56t-61.5 -38t-80 -14zM210 502q-28 0 -48.5 -19.5t-20.5 -47.5q0 -26 20.5 -45.5
t48.5 -19.5t48 19.5t20 45.5q0 28 -20 47.5t-48 19.5z" />
    <glyph glyph-name="seven.numr" horiz-adv-x="402" 
d="M194 279h-143l160 351h-196l34 116h351z" />
    <glyph glyph-name="eight.numr" horiz-adv-x="412" 
d="M206 264q-95 0 -145.5 42t-50.5 110q0 37 20 67t58 49q-27 16 -40.5 41t-13.5 54q0 54 44 94t128 40q85 0 128.5 -40t43.5 -94q0 -29 -13.5 -54t-39.5 -42q37 -18 57 -48t20 -67q0 -68 -51.5 -110t-144.5 -42zM206 562q21 0 36.5 15t15.5 37q0 21 -15 34t-37 13
t-37.5 -13t-15.5 -34q0 -22 15.5 -37t37.5 -15zM206 362q28 0 48.5 17.5t20.5 44.5t-20.5 43.5t-48.5 16.5t-48.5 -16.5t-20.5 -43.5t20.5 -44.5t48.5 -17.5z" />
    <glyph glyph-name="nine.numr" horiz-adv-x="416" 
d="M227 278h-152q40 40 80 84t71 85v1q-16 -8 -33.5 -12.5t-36.5 -4.5q-59 0 -102 43.5t-43 109.5q0 36 14 68.5t39.5 56t61.5 37.5t80 14q86 0 141 -46t55 -130q0 -41 -16 -82t-41.5 -79.5t-56.5 -75.5t-61 -69zM206 522q28 0 48.5 19.5t20.5 47.5q0 27 -20.5 46.5
t-48.5 19.5t-48 -19.5t-20 -46.5q0 -28 20 -47.5t48 -19.5z" />
    <glyph glyph-name="zero.salt_slash" horiz-adv-x="675" 
d="M337 770q65 0 120 -23.5t94.5 -70t62 -116.5t22.5 -162v-52q0 -91 -22.5 -160.5t-62.5 -116t-95 -70t-119 -23.5q-63 0 -118 23.5t-94.5 70t-62.5 116t-23 160.5v52q0 92 23 162t62.5 116.5t94.5 70t118 23.5zM337 628q-11 0 -21.5 -2.5t-20.5 -6.5l159 -400
q7 25 11.5 56.5t4.5 68.5v52q0 118 -37 175t-96 57zM337 113q12 0 23.5 2.5t21.5 7.5l-161 403q-8 -26 -12.5 -58.5t-4.5 -71.5v-52q0 -118 38 -174.5t95 -56.5z" />
    <glyph glyph-name="C.salt_low" horiz-adv-x="679" 
d="M663 696l-79 -132q-33 22 -71.5 32.5t-80.5 10.5q-53 0 -96 -19t-73 -50.5t-46.5 -73.5t-16.5 -89q0 -48 16.5 -91t46.5 -75t73 -51t96 -19q42 0 80.5 10.5t71.5 32.5l79 -132q-59 -39 -116.5 -56.5t-120.5 -17.5q-91 0 -166 31.5t-128 85t-82 126.5t-29 155t29 154.5
t82 126t128 84.5t166 31q63 0 120 -17t117 -57z" />
    <glyph glyph-name="Ccedilla.salt_low" horiz-adv-x="679" 
d="M663 696l-79 -132q-33 22 -71.5 32.5t-80.5 10.5q-53 0 -96 -19t-73 -50.5t-46.5 -73.5t-16.5 -89q0 -48 16.5 -91t46.5 -75t73 -51t96 -19q42 0 80.5 10.5t71.5 32.5l79 -132q-59 -39 -116.5 -56.5t-120.5 -17.5q-91 0 -166 31.5t-128 85t-82 126.5t-29 155t29 154.5
t82 126t128 84.5t166 31q63 0 120 -17t117 -57zM390 -231q-17 0 -40.5 3t-44.5 10v65h1q20 -6 41 -9t31 -3q25 0 39 8t14 22t-19 23t-50 9h-18l-3 8l29 84l63 -2l-14 -38q51 -5 80.5 -28t29.5 -61q0 -39 -38 -65t-101 -26z" />
    <glyph glyph-name="Cacute.salt_low" horiz-adv-x="679" 
d="M663 696l-79 -132q-33 22 -71.5 32.5t-80.5 10.5q-53 0 -96 -19t-73 -50.5t-46.5 -73.5t-16.5 -89q0 -48 16.5 -91t46.5 -75t73 -51t96 -19q42 0 80.5 10.5t71.5 32.5l79 -132q-59 -39 -116.5 -56.5t-120.5 -17.5q-91 0 -166 31.5t-128 85t-82 126.5t-29 155t29 154.5
t82 126t128 84.5t166 31q63 0 120 -17t117 -57zM620 954l-136 -147h-131l77 147h190z" />
    <glyph glyph-name="Ccircumflex.salt_low" horiz-adv-x="679" 
d="M663 696l-79 -132q-33 22 -71.5 32.5t-80.5 10.5q-53 0 -96 -19t-73 -50.5t-46.5 -73.5t-16.5 -89q0 -48 16.5 -91t46.5 -75t73 -51t96 -19q42 0 80.5 10.5t71.5 32.5l79 -132q-59 -39 -116.5 -56.5t-120.5 -17.5q-91 0 -166 31.5t-128 85t-82 126.5t-29 155t29 154.5
t82 126t128 84.5t166 31q63 0 120 -17t117 -57zM479 807l-61 75l-60 -75h-146l125 147h163l125 -147h-146z" />
    <glyph glyph-name="Cdotaccent.salt_low" horiz-adv-x="679" 
d="M663 696l-79 -132q-33 22 -71.5 32.5t-80.5 10.5q-53 0 -96 -19t-73 -50.5t-46.5 -73.5t-16.5 -89q0 -48 16.5 -91t46.5 -75t73 -51t96 -19q42 0 80.5 10.5t71.5 32.5l79 -132q-59 -39 -116.5 -56.5t-120.5 -17.5q-91 0 -166 31.5t-128 85t-82 126.5t-29 155t29 154.5
t82 126t128 84.5t166 31q63 0 120 -17t117 -57zM503 925v-118h-168v118h168z" />
    <glyph glyph-name="Ccaron.salt_low" horiz-adv-x="679" 
d="M663 696l-79 -132q-33 22 -71.5 32.5t-80.5 10.5q-53 0 -96 -19t-73 -50.5t-46.5 -73.5t-16.5 -89q0 -48 16.5 -91t46.5 -75t73 -51t96 -19q42 0 80.5 10.5t71.5 32.5l79 -132q-59 -39 -116.5 -56.5t-120.5 -17.5q-91 0 -166 31.5t-128 85t-82 126.5t-29 155t29 154.5
t82 126t128 84.5t166 31q63 0 120 -17t117 -57zM501 807h-163l-125 147h144l60 -76l61 76h148z" />
    <glyph glyph-name="S.salt_low" horiz-adv-x="500" 
d="M467 713l-63 -136q-24 17 -54.5 28.5t-59.5 11.5q-38 0 -57 -14t-19 -36q0 -28 27 -53t78 -71q90 -81 124.5 -136t34.5 -113q0 -48 -20.5 -86.5t-56 -65t-83.5 -40.5t-102 -14q-50 0 -108.5 13.5t-101.5 38.5l62 137q35 -19 71 -32t76 -13q38 0 60 17.5t22 41.5
q0 28 -27 58t-80 78q-45 39 -76 69t-50 57t-27.5 54t-8.5 60q0 37 15.5 72.5t47 62t80.5 43t115 16.5q44 0 92.5 -13.5t88.5 -34.5z" />
    <glyph glyph-name="Sacute.salt_low" horiz-adv-x="500" 
d="M467 713l-63 -136q-24 17 -54.5 28.5t-59.5 11.5q-38 0 -57 -14t-19 -36q0 -28 27 -53t78 -71q90 -81 124.5 -136t34.5 -113q0 -48 -20.5 -86.5t-56 -65t-83.5 -40.5t-102 -14q-50 0 -108.5 13.5t-101.5 38.5l62 137q35 -19 71 -32t76 -13q38 0 60 17.5t22 41.5
q0 28 -27 58t-80 78q-45 39 -76 69t-50 57t-27.5 54t-8.5 60q0 37 15.5 72.5t47 62t80.5 43t115 16.5q44 0 92.5 -13.5t88.5 -34.5zM481 954l-136 -147h-131l77 147h190z" />
    <glyph glyph-name="Scircumflex.salt_low" horiz-adv-x="500" 
d="M467 713l-63 -136q-24 17 -54.5 28.5t-59.5 11.5q-38 0 -57 -14t-19 -36q0 -28 27 -53t78 -71q90 -81 124.5 -136t34.5 -113q0 -48 -20.5 -86.5t-56 -65t-83.5 -40.5t-102 -14q-50 0 -108.5 13.5t-101.5 38.5l62 137q35 -19 71 -32t76 -13q38 0 60 17.5t22 41.5
q0 28 -27 58t-80 78q-45 39 -76 69t-50 57t-27.5 54t-8.5 60q0 37 15.5 72.5t47 62t80.5 43t115 16.5q44 0 92.5 -13.5t88.5 -34.5zM339 807l-61 75l-60 -75h-146l125 147h163l125 -147h-146z" />
    <glyph glyph-name="Scedilla.salt_low" horiz-adv-x="500" 
d="M467 713l-63 -136q-24 17 -54.5 28.5t-59.5 11.5q-38 0 -57 -14t-19 -36q0 -28 27 -53t78 -71q90 -81 124.5 -136t34.5 -113q0 -48 -20.5 -86.5t-56 -65t-83.5 -40.5t-102 -14q-50 0 -108.5 13.5t-101.5 38.5l62 137q35 -19 71 -32t76 -13q38 0 60 17.5t22 41.5
q0 28 -27 58t-80 78q-45 39 -76 69t-50 57t-27.5 54t-8.5 60q0 37 15.5 72.5t47 62t80.5 43t115 16.5q44 0 92.5 -13.5t88.5 -34.5zM195 -219q-17 0 -40.5 3t-44.5 10v65h1q20 -6 41 -9t31 -3q25 0 39 8t14 22t-19 23t-50 9h-18l-3 8l29 84l63 -2l-14 -38q51 -5 80.5 -28
t29.5 -61q0 -39 -38 -65t-101 -26z" />
    <glyph glyph-name="Scaron.salt_low" horiz-adv-x="500" 
d="M467 713l-63 -136q-24 17 -54.5 28.5t-59.5 11.5q-38 0 -57 -14t-19 -36q0 -28 27 -53t78 -71q90 -81 124.5 -136t34.5 -113q0 -48 -20.5 -86.5t-56 -65t-83.5 -40.5t-102 -14q-50 0 -108.5 13.5t-101.5 38.5l62 137q35 -19 71 -32t76 -13q38 0 60 17.5t22 41.5
q0 28 -27 58t-80 78q-45 39 -76 69t-50 57t-27.5 54t-8.5 60q0 37 15.5 72.5t47 62t80.5 43t115 16.5q44 0 92.5 -13.5t88.5 -34.5zM361 807h-163l-125 147h144l60 -76l61 76h148z" />
    <glyph glyph-name="Scommaaccent.salt_low" horiz-adv-x="500" 
d="M467 713l-63 -136q-24 17 -54.5 28.5t-59.5 11.5q-38 0 -57 -14t-19 -36q0 -28 27 -53t78 -71q90 -81 124.5 -136t34.5 -113q0 -48 -20.5 -86.5t-56 -65t-83.5 -40.5t-102 -14q-50 0 -108.5 13.5t-101.5 38.5l62 137q35 -19 71 -32t76 -13q38 0 60 17.5t22 41.5
q0 28 -27 58t-80 78q-45 39 -76 69t-50 57t-27.5 54t-8.5 60q0 37 15.5 72.5t47 62t80.5 43t115 16.5q44 0 92.5 -13.5t88.5 -34.5zM296 -55l-76 -181h-118l34 181h160z" />
    <glyph glyph-name="a.salt_low" horiz-adv-x="563" 
d="M272 76q38 0 62.5 27t24.5 66q0 35 -23.5 61t-63.5 26t-63.5 -26t-23.5 -61q0 -38 23.5 -65.5t63.5 -27.5zM371 0v53q-27 -31 -68.5 -52t-98.5 -21q-84 0 -136.5 52.5t-52.5 132.5q0 38 14 72.5t40 59.5t64 39.5t85 14.5q44 0 79.5 -11t60.5 -30v27q0 69 -31 93.5
t-91 24.5q-27 0 -56 -4t-73 -12l-31 129q61 13 103.5 17t86.5 4q128 0 192.5 -55.5t64.5 -152.5v-381h-152z" />
    <glyph glyph-name="agrave.salt_low" horiz-adv-x="563" 
d="M272 76q38 0 62.5 27t24.5 66q0 35 -23.5 61t-63.5 26t-63.5 -26t-23.5 -61q0 -38 23.5 -65.5t63.5 -27.5zM371 0v53q-27 -31 -68.5 -52t-98.5 -21q-84 0 -136.5 52.5t-52.5 132.5q0 38 14 72.5t40 59.5t64 39.5t85 14.5q44 0 79.5 -11t60.5 -30v27q0 69 -31 93.5
t-91 24.5q-27 0 -56 -4t-73 -12l-31 129q61 13 103.5 17t86.5 4q128 0 192.5 -55.5t64.5 -152.5v-381h-152zM70 797h193l78 -147h-134z" />
    <glyph glyph-name="aacute.salt_low" horiz-adv-x="563" 
d="M272 76q38 0 62.5 27t24.5 66q0 35 -23.5 61t-63.5 26t-63.5 -26t-23.5 -61q0 -38 23.5 -65.5t63.5 -27.5zM371 0v53q-27 -31 -68.5 -52t-98.5 -21q-84 0 -136.5 52.5t-52.5 132.5q0 38 14 72.5t40 59.5t64 39.5t85 14.5q44 0 79.5 -11t60.5 -30v27q0 69 -31 93.5
t-91 24.5q-27 0 -56 -4t-73 -12l-31 129q61 13 103.5 17t86.5 4q128 0 192.5 -55.5t64.5 -152.5v-381h-152zM480 797l-136 -147h-131l77 147h190z" />
    <glyph glyph-name="acircumflex.salt_low" horiz-adv-x="563" 
d="M272 76q38 0 62.5 27t24.5 66q0 35 -23.5 61t-63.5 26t-63.5 -26t-23.5 -61q0 -38 23.5 -65.5t63.5 -27.5zM371 0v53q-27 -31 -68.5 -52t-98.5 -21q-84 0 -136.5 52.5t-52.5 132.5q0 38 14 72.5t40 59.5t64 39.5t85 14.5q44 0 79.5 -11t60.5 -30v27q0 69 -31 93.5
t-91 24.5q-27 0 -56 -4t-73 -12l-31 129q61 13 103.5 17t86.5 4q128 0 192.5 -55.5t64.5 -152.5v-381h-152zM338 650l-61 75l-60 -75h-146l125 147h163l125 -147h-146z" />
    <glyph glyph-name="atilde.salt_low" horiz-adv-x="563" 
d="M272 76q38 0 62.5 27t24.5 66q0 35 -23.5 61t-63.5 26t-63.5 -26t-23.5 -61q0 -38 23.5 -65.5t63.5 -27.5zM371 0v53q-27 -31 -68.5 -52t-98.5 -21q-84 0 -136.5 52.5t-52.5 132.5q0 38 14 72.5t40 59.5t64 39.5t85 14.5q44 0 79.5 -11t60.5 -30v27q0 69 -31 93.5
t-91 24.5q-27 0 -56 -4t-73 -12l-31 129q61 13 103.5 17t86.5 4q128 0 192.5 -55.5t64.5 -152.5v-381h-152zM169 650l-122 4q-6 93 33.5 130.5t96.5 37.5q25 0 49.5 -7.5t46.5 -17t41 -17t33 -7.5q16 0 27.5 8.5t11.5 35.5l122 -4q4 -77 -28.5 -118.5t-98.5 -41.5
q-25 0 -50.5 7t-48 16t-41.5 16t-33 7q-16 0 -28 -9.5t-11 -39.5z" />
    <glyph glyph-name="adieresis.salt_low" horiz-adv-x="563" 
d="M272 76q38 0 62.5 27t24.5 66q0 35 -23.5 61t-63.5 26t-63.5 -26t-23.5 -61q0 -38 23.5 -65.5t63.5 -27.5zM371 0v53q-27 -31 -68.5 -52t-98.5 -21q-84 0 -136.5 52.5t-52.5 132.5q0 38 14 72.5t40 59.5t64 39.5t85 14.5q44 0 79.5 -11t60.5 -30v27q0 69 -31 93.5
t-91 24.5q-27 0 -56 -4t-73 -12l-31 129q61 13 103.5 17t86.5 4q128 0 192.5 -55.5t64.5 -152.5v-381h-152zM466 771v-121h-139v121h139zM235 771v-121h-139v121h139z" />
    <glyph glyph-name="aring.salt_low" horiz-adv-x="563" 
d="M272 76q38 0 62.5 27t24.5 66q0 35 -23.5 61t-63.5 26t-63.5 -26t-23.5 -61q0 -38 23.5 -65.5t63.5 -27.5zM371 0v53q-27 -31 -68.5 -52t-98.5 -21q-84 0 -136.5 52.5t-52.5 132.5q0 38 14 72.5t40 59.5t64 39.5t85 14.5q44 0 79.5 -11t60.5 -30v27q0 69 -31 93.5
t-91 24.5q-27 0 -56 -4t-73 -12l-31 129q61 13 103.5 17t86.5 4q128 0 192.5 -55.5t64.5 -152.5v-381h-152zM278 906q57 0 97 -39.5t40 -91.5t-40 -91.5t-97 -39.5t-97 40t-40 91t40 91t97 40zM278 835q-25 0 -42.5 -17.5t-17.5 -42.5t17.5 -42.5t42.5 -17.5t42.5 17.5
t17.5 42.5t-17.5 42.5t-42.5 17.5z" />
    <glyph glyph-name="amacron.salt_low" horiz-adv-x="563" 
d="M272 76q38 0 62.5 27t24.5 66q0 35 -23.5 61t-63.5 26t-63.5 -26t-23.5 -61q0 -38 23.5 -65.5t63.5 -27.5zM371 0v53q-27 -31 -68.5 -52t-98.5 -21q-84 0 -136.5 52.5t-52.5 132.5q0 38 14 72.5t40 59.5t64 39.5t85 14.5q44 0 79.5 -11t60.5 -30v27q0 69 -31 93.5
t-91 24.5q-27 0 -56 -4t-73 -12l-31 129q61 13 103.5 17t86.5 4q128 0 192.5 -55.5t64.5 -152.5v-381h-152zM435 766v-117h-314v117h314z" />
    <glyph glyph-name="abreve.salt_low" horiz-adv-x="563" 
d="M272 76q38 0 62.5 27t24.5 66q0 35 -23.5 61t-63.5 26t-63.5 -26t-23.5 -61q0 -38 23.5 -65.5t63.5 -27.5zM371 0v53q-27 -31 -68.5 -52t-98.5 -21q-84 0 -136.5 52.5t-52.5 132.5q0 38 14 72.5t40 59.5t64 39.5t85 14.5q44 0 79.5 -11t60.5 -30v27q0 69 -31 93.5
t-91 24.5q-27 0 -56 -4t-73 -12l-31 129q61 13 103.5 17t86.5 4q128 0 192.5 -55.5t64.5 -152.5v-381h-152zM453 806q-10 -71 -56.5 -116t-118.5 -45t-118.5 45t-56.5 116l96 3q12 -34 34 -50.5t45 -16.5t45 16.5t34 50.5z" />
    <glyph glyph-name="aogonek.salt_low" horiz-adv-x="563" 
d="M410 -191q-60 0 -87 26.5t-27 60.5q0 30 18.5 54t44.5 40l12 7v56q-27 -31 -68.5 -52t-98.5 -21q-84 0 -136.5 52.5t-52.5 132.5q0 38 14 72.5t40 59.5t64 39.5t85 14.5q44 0 79.5 -11t60.5 -30v27q0 69 -31 93.5t-91 24.5q-27 0 -56 -4t-73 -12l-31 129q61 13 103.5 17
t86.5 4q128 0 192.5 -55.5t64.5 -152.5v-381l-64 -38q-20 -13 -28 -22.5t-8 -19.5q0 -11 8.5 -19t21.5 -8q12 0 21.5 4.5t15.5 8.5l43 -55q-17 -16 -48.5 -28.5t-74.5 -13.5zM272 76q38 0 62.5 27t24.5 66q0 35 -23.5 61t-63.5 26t-63.5 -26t-23.5 -61q0 -38 23.5 -65.5
t63.5 -27.5z" />
    <glyph glyph-name="aringacute.salt_low" horiz-adv-x="563" 
d="M272 76q38 0 62.5 27t24.5 66q0 35 -23.5 61t-63.5 26t-63.5 -26t-23.5 -61q0 -38 23.5 -65.5t63.5 -27.5zM371 0v53q-27 -31 -68.5 -52t-98.5 -21q-84 0 -136.5 52.5t-52.5 132.5q0 38 14 72.5t40 59.5t64 39.5t85 14.5q44 0 79.5 -11t60.5 -30v27q0 69 -31 93.5
t-91 24.5q-27 0 -56 -4t-73 -12l-31 129q61 13 103.5 17t86.5 4q128 0 192.5 -55.5t64.5 -152.5v-381h-152zM278 906q57 0 97 -39.5t40 -91.5t-40 -91.5t-97 -39.5t-97 40t-40 91t40 91t97 40zM278 835q-25 0 -42.5 -17.5t-17.5 -42.5t17.5 -42.5t42.5 -17.5t42.5 17.5
t17.5 42.5t-17.5 42.5t-42.5 17.5zM480 1076l-136 -147h-131l77 147h190z" />
    <glyph glyph-name="c.salt_low" horiz-adv-x="546" 
d="M473 155l67 -115q-32 -25 -82.5 -42.5t-106.5 -17.5q-71 0 -131.5 22.5t-104.5 63t-69.5 97t-25.5 123.5q0 66 25.5 122.5t69.5 97t104.5 63t131.5 22.5q56 0 106.5 -17.5t82.5 -42.5l-67 -115h-4q-22 19 -53.5 27t-60.5 8q-69 0 -115.5 -47.5t-46.5 -117.5
q0 -72 46.5 -119t115.5 -47q29 0 60.5 8t53.5 27h4z" />
    <glyph glyph-name="ccedilla.salt_low" horiz-adv-x="546" 
d="M473 155l67 -115q-32 -25 -82.5 -42.5t-106.5 -17.5q-71 0 -131.5 22.5t-104.5 63t-69.5 97t-25.5 123.5q0 66 25.5 122.5t69.5 97t104.5 63t131.5 22.5q56 0 106.5 -17.5t82.5 -42.5l-67 -115h-4q-22 19 -53.5 27t-60.5 8q-69 0 -115.5 -47.5t-46.5 -117.5
q0 -72 46.5 -119t115.5 -47q29 0 60.5 8t53.5 27h4zM305 -225q-17 0 -40.5 3.5t-44.5 10.5v64h1q20 -6 41 -9t31 -3q24 0 38.5 8t14.5 22t-19 23t-50 9h-18l-3 8l29 84l63 -2l-14 -38q51 -5 80.5 -28t29.5 -61q0 -39 -38 -65t-101 -26z" />
    <glyph glyph-name="cacute.salt_low" horiz-adv-x="546" 
d="M473 155l67 -115q-32 -25 -82.5 -42.5t-106.5 -17.5q-71 0 -131.5 22.5t-104.5 63t-69.5 97t-25.5 123.5q0 66 25.5 122.5t69.5 97t104.5 63t131.5 22.5q56 0 106.5 -17.5t82.5 -42.5l-67 -115h-4q-22 19 -53.5 27t-60.5 8q-69 0 -115.5 -47.5t-46.5 -117.5
q0 -72 46.5 -119t115.5 -47q29 0 60.5 8t53.5 27h4zM537 797l-136 -147h-131l77 147h190z" />
    <glyph glyph-name="ccircumflex.salt_low" horiz-adv-x="546" 
d="M473 155l67 -115q-32 -25 -82.5 -42.5t-106.5 -17.5q-71 0 -131.5 22.5t-104.5 63t-69.5 97t-25.5 123.5q0 66 25.5 122.5t69.5 97t104.5 63t131.5 22.5q56 0 106.5 -17.5t82.5 -42.5l-67 -115h-4q-22 19 -53.5 27t-60.5 8q-69 0 -115.5 -47.5t-46.5 -117.5
q0 -72 46.5 -119t115.5 -47q29 0 60.5 8t53.5 27h4zM396 650l-61 75l-60 -75h-146l125 147h163l125 -147h-146z" />
    <glyph glyph-name="cdotaccent.salt_low" horiz-adv-x="546" 
d="M473 155l67 -115q-32 -25 -82.5 -42.5t-106.5 -17.5q-71 0 -131.5 22.5t-104.5 63t-69.5 97t-25.5 123.5q0 66 25.5 122.5t69.5 97t104.5 63t131.5 22.5q56 0 106.5 -17.5t82.5 -42.5l-67 -115h-4q-22 19 -53.5 27t-60.5 8q-69 0 -115.5 -47.5t-46.5 -117.5
q0 -72 46.5 -119t115.5 -47q29 0 60.5 8t53.5 27h4zM420 786v-134h-168v134h168z" />
    <glyph glyph-name="ccaron.salt_low" horiz-adv-x="546" 
d="M473 155l67 -115q-32 -25 -82.5 -42.5t-106.5 -17.5q-71 0 -131.5 22.5t-104.5 63t-69.5 97t-25.5 123.5q0 66 25.5 122.5t69.5 97t104.5 63t131.5 22.5q56 0 106.5 -17.5t82.5 -42.5l-67 -115h-4q-22 19 -53.5 27t-60.5 8q-69 0 -115.5 -47.5t-46.5 -117.5
q0 -72 46.5 -119t115.5 -47q29 0 60.5 8t53.5 27h4zM417 650h-163l-125 147h144l60 -76l61 76h148z" />
    <glyph glyph-name="s.salt_low" horiz-adv-x="448" 
d="M235 593q51 0 93.5 -11.5t75.5 -25.5l-48 -122q-31 15 -60.5 21t-45.5 6q-25 0 -40 -10t-15 -25t16.5 -29.5t54.5 -39.5q99 -68 132 -108.5t33 -87.5q0 -75 -59 -127.5t-166 -53.5q-56 0 -107.5 14.5t-92.5 38.5l45 123q42 -20 73.5 -31t58.5 -11q37 1 54.5 13.5
t17.5 27.5q0 13 -17 31t-73 55q-45 30 -73 54t-43.5 45t-21 42t-5.5 46q0 29 12 59t37.5 53.5t66 38.5t97.5 14z" />
    <glyph glyph-name="sacute.salt_low" horiz-adv-x="448" 
d="M235 593q51 0 93.5 -11.5t75.5 -25.5l-48 -122q-31 15 -60.5 21t-45.5 6q-25 0 -40 -10t-15 -25t16.5 -29.5t54.5 -39.5q99 -68 132 -108.5t33 -87.5q0 -75 -59 -127.5t-166 -53.5q-56 0 -107.5 14.5t-92.5 38.5l45 123q42 -20 73.5 -31t58.5 -11q37 1 54.5 13.5
t17.5 27.5q0 13 -17 31t-73 55q-45 30 -73 54t-43.5 45t-21 42t-5.5 46q0 29 12 59t37.5 53.5t66 38.5t97.5 14zM434 797l-136 -147h-131l77 147h190z" />
    <glyph glyph-name="scircumflex.salt_low" horiz-adv-x="448" 
d="M235 593q51 0 93.5 -11.5t75.5 -25.5l-48 -122q-31 15 -60.5 21t-45.5 6q-25 0 -40 -10t-15 -25t16.5 -29.5t54.5 -39.5q99 -68 132 -108.5t33 -87.5q0 -75 -59 -127.5t-166 -53.5q-56 0 -107.5 14.5t-92.5 38.5l45 123q42 -20 73.5 -31t58.5 -11q37 1 54.5 13.5
t17.5 27.5q0 13 -17 31t-73 55q-45 30 -73 54t-43.5 45t-21 42t-5.5 46q0 29 12 59t37.5 53.5t66 38.5t97.5 14zM292 650l-61 75l-60 -75h-146l125 147h163l125 -147h-146z" />
    <glyph glyph-name="scedilla.salt_low" horiz-adv-x="448" 
d="M235 593q51 0 93.5 -11.5t75.5 -25.5l-48 -122q-31 15 -60.5 21t-45.5 6q-25 0 -40 -10t-15 -25t16.5 -29.5t54.5 -39.5q99 -68 132 -108.5t33 -87.5q0 -75 -59 -127.5t-166 -53.5q-56 0 -107.5 14.5t-92.5 38.5l45 123q42 -20 73.5 -31t58.5 -11q37 1 54.5 13.5
t17.5 27.5q0 13 -17 31t-73 55q-45 30 -73 54t-43.5 45t-21 42t-5.5 46q0 29 12 59t37.5 53.5t66 38.5t97.5 14zM185 -226q-17 0 -40.5 3.5t-44.5 10.5v64h1q20 -6 41 -9t31 -3q24 0 38.5 8t14.5 22t-19 23t-50 9h-18l-3 8l29 84l63 -2l-14 -38q51 -5 80.5 -28t29.5 -61
q0 -39 -38 -65t-101 -26z" />
    <glyph glyph-name="scaron.salt_low" horiz-adv-x="448" 
d="M235 593q51 0 93.5 -11.5t75.5 -25.5l-48 -122q-31 15 -60.5 21t-45.5 6q-25 0 -40 -10t-15 -25t16.5 -29.5t54.5 -39.5q99 -68 132 -108.5t33 -87.5q0 -75 -59 -127.5t-166 -53.5q-56 0 -107.5 14.5t-92.5 38.5l45 123q42 -20 73.5 -31t58.5 -11q37 1 54.5 13.5
t17.5 27.5q0 13 -17 31t-73 55q-45 30 -73 54t-43.5 45t-21 42t-5.5 46q0 29 12 59t37.5 53.5t66 38.5t97.5 14zM314 650h-163l-125 147h144l60 -76l61 76h148z" />
    <glyph glyph-name="scommaaccent.salt_low" horiz-adv-x="448" 
d="M235 593q51 0 93.5 -11.5t75.5 -25.5l-48 -122q-31 15 -60.5 21t-45.5 6q-25 0 -40 -10t-15 -25t16.5 -29.5t54.5 -39.5q99 -68 132 -108.5t33 -87.5q0 -75 -59 -127.5t-166 -53.5q-56 0 -107.5 14.5t-92.5 38.5l45 123q42 -20 73.5 -31t58.5 -11q37 1 54.5 13.5
t17.5 27.5q0 13 -17 31t-73 55q-45 30 -73 54t-43.5 45t-21 42t-5.5 46q0 29 12 59t37.5 53.5t66 38.5t97.5 14zM286 -55l-76 -181h-118l34 181h160z" />
    <glyph glyph-name="ae.salt_low" horiz-adv-x="989" 
d="M659 467q-53 0 -88 -30t-48 -83h271q-13 53 -47.5 83t-87.5 30zM272 69q39 0 64.5 27t25.5 70q0 36 -24.5 63t-65.5 27q-40 0 -64 -27t-24 -63q0 -41 24 -69t64 -28zM967 73q-46 -42 -114 -71.5t-163 -29.5q-82 0 -146 27.5t-107 74.5q-22 -38 -71.5 -70t-131.5 -32
q-50 0 -90.5 14.5t-69 40t-44 60.5t-15.5 75q0 38 14 72.5t40 60.5t64 41t85 15q42 0 75.5 -10t58.5 -26v22q0 69 -29.5 93.5t-89.5 24.5q-28 0 -58 -4.5t-81 -14.5l-3 135q52 10 87.5 14t83.5 4q67 0 115.5 -17t78.5 -48q39 37 91 57.5t113 20.5q66 0 123.5 -23.5t99 -65.5
t65.5 -100.5t24 -126.5v-43h-454q10 -67 55 -102.5t120 -35.5q61 0 104.5 18.5t76.5 48.5z" />
    <glyph glyph-name="aeacute.salt_low" horiz-adv-x="989" 
d="M659 467q-53 0 -88 -30t-48 -83h271q-13 53 -47.5 83t-87.5 30zM272 69q39 0 64.5 27t25.5 70q0 36 -24.5 63t-65.5 27q-40 0 -64 -27t-24 -63q0 -41 24 -69t64 -28zM967 73q-46 -42 -114 -71.5t-163 -29.5q-82 0 -146 27.5t-107 74.5q-22 -38 -71.5 -70t-131.5 -32
q-50 0 -90.5 14.5t-69 40t-44 60.5t-15.5 75q0 38 14 72.5t40 60.5t64 41t85 15q42 0 75.5 -10t58.5 -26v22q0 69 -29.5 93.5t-89.5 24.5q-28 0 -58 -4.5t-81 -14.5l-3 135q52 10 87.5 14t83.5 4q67 0 115.5 -17t78.5 -48q39 37 91 57.5t113 20.5q66 0 123.5 -23.5t99 -65.5
t65.5 -100.5t24 -126.5v-43h-454q10 -67 55 -102.5t120 -35.5q61 0 104.5 18.5t76.5 48.5zM672 797l-136 -147h-131l77 147h190z" />
    <glyph glyph-name="K.salt_tall" horiz-adv-x="714" 
d="M488 0l-201 298l-62 -73v-225h-178v746h178v-284l232 284h217l-264 -312l296 -434h-218z" />
    <glyph glyph-name="Kcommaaccent.salt_tall" horiz-adv-x="714" 
d="M488 0l-201 298l-62 -73v-225h-178v746h178v-284l232 284h217l-264 -312l296 -434h-218zM430 -55l-76 -181h-118l34 181h160z" />
    <glyph glyph-name="P.salt_tall" horiz-adv-x="592" 
d="M270 241h-45v-241h-178v746h226q57 0 111.5 -10t96.5 -37.5t68 -78t26 -130.5q0 -69 -28.5 -116.5t-72.5 -77t-98 -42.5t-106 -13zM287 588h-62v-192h62q50 0 81 24t31 70q0 49 -28.5 73.5t-83.5 24.5z" />
    <glyph glyph-name="R.salt_tall" horiz-adv-x="634" 
d="M266 588h-41v-199h41q52 0 82 26t30 75t-31.5 73.5t-80.5 24.5zM413 0l-177 249h-11v-249h-178v746h214q55 0 108 -11.5t94 -40.5t66 -78t25 -123t-39.5 -126t-96.5 -80l208 -287h-213z" />
    <glyph glyph-name="Racute.salt_tall" horiz-adv-x="634" 
d="M266 588h-41v-199h41q52 0 82 26t30 75t-31.5 73.5t-80.5 24.5zM413 0l-177 249h-11v-249h-178v746h214q55 0 108 -11.5t94 -40.5t66 -78t25 -123t-39.5 -126t-96.5 -80l208 -287h-213zM488 954l-136 -147h-131l77 147h190z" />
    <glyph glyph-name="Rcommaaccent.salt_tall" horiz-adv-x="634" 
d="M266 588h-41v-199h41q52 0 82 26t30 75t-31.5 73.5t-80.5 24.5zM413 0l-177 249h-11v-249h-178v746h214q55 0 108 -11.5t94 -40.5t66 -78t25 -123t-39.5 -126t-96.5 -80l208 -287h-213zM393 -55l-76 -181h-118l34 181h160z" />
    <glyph glyph-name="Rcaron.salt_tall" horiz-adv-x="634" 
d="M266 588h-41v-199h41q52 0 82 26t30 75t-31.5 73.5t-80.5 24.5zM413 0l-177 249h-11v-249h-178v746h214q55 0 108 -11.5t94 -40.5t66 -78t25 -123t-39.5 -126t-96.5 -80l208 -287h-213zM368 807h-163l-125 147h144l60 -76l61 76h148z" />
    <glyph glyph-name="S.salt_tall" horiz-adv-x="498" 
d="M440 740l-1 -153q-27 13 -64.5 21.5t-72.5 8.5q-45 0 -66.5 -14t-21.5 -36q0 -28 27 -53t78 -71q90 -81 124.5 -136t34.5 -113q0 -48 -21 -86.5t-57 -65t-85.5 -40.5t-105.5 -14q-22 0 -47 2t-49 6t-45.5 8.5t-36.5 10.5l1 154q31 -13 79.5 -25t96.5 -12q42 0 65.5 17.5
t23.5 41.5q0 28 -26.5 58t-80.5 78q-45 39 -76 69t-50 57t-27.5 54t-8.5 60q0 37 16 72.5t48 62t82.5 43t118.5 16.5q36 0 76 -5t71 -16z" />
    <glyph glyph-name="Sacute.salt_tall" horiz-adv-x="498" 
d="M440 740l-1 -153q-27 13 -64.5 21.5t-72.5 8.5q-45 0 -66.5 -14t-21.5 -36q0 -28 27 -53t78 -71q90 -81 124.5 -136t34.5 -113q0 -48 -21 -86.5t-57 -65t-85.5 -40.5t-105.5 -14q-22 0 -47 2t-49 6t-45.5 8.5t-36.5 10.5l1 154q31 -13 79.5 -25t96.5 -12q42 0 65.5 17.5
t23.5 41.5q0 28 -26.5 58t-80.5 78q-45 39 -76 69t-50 57t-27.5 54t-8.5 60q0 37 16 72.5t48 62t82.5 43t118.5 16.5q36 0 76 -5t71 -16zM484 954l-136 -147h-131l77 147h190z" />
    <glyph glyph-name="Scircumflex.salt_tall" horiz-adv-x="498" 
d="M440 740l-1 -153q-27 13 -64.5 21.5t-72.5 8.5q-45 0 -66.5 -14t-21.5 -36q0 -28 27 -53t78 -71q90 -81 124.5 -136t34.5 -113q0 -48 -21 -86.5t-57 -65t-85.5 -40.5t-105.5 -14q-22 0 -47 2t-49 6t-45.5 8.5t-36.5 10.5l1 154q31 -13 79.5 -25t96.5 -12q42 0 65.5 17.5
t23.5 41.5q0 28 -26.5 58t-80.5 78q-45 39 -76 69t-50 57t-27.5 54t-8.5 60q0 37 16 72.5t48 62t82.5 43t118.5 16.5q36 0 76 -5t71 -16zM342 807l-61 75l-60 -75h-146l125 147h163l125 -147h-146z" />
    <glyph glyph-name="Scedilla.salt_tall" horiz-adv-x="498" 
d="M440 740l-1 -153q-27 13 -64.5 21.5t-72.5 8.5q-45 0 -66.5 -14t-21.5 -36q0 -28 27 -53t78 -71q90 -81 124.5 -136t34.5 -113q0 -48 -21 -86.5t-57 -65t-85.5 -40.5t-105.5 -14q-22 0 -47 2t-49 6t-45.5 8.5t-36.5 10.5l1 154q31 -13 79.5 -25t96.5 -12q42 0 65.5 17.5
t23.5 41.5q0 28 -26.5 58t-80.5 78q-45 39 -76 69t-50 57t-27.5 54t-8.5 60q0 37 16 72.5t48 62t82.5 43t118.5 16.5q36 0 76 -5t71 -16zM188 -219q-17 0 -40.5 3t-44.5 10v65h1q20 -6 41 -9t31 -3q25 0 39 8t14 22t-19 23t-50 9h-18l-3 8l29 84l63 -2l-14 -38
q51 -5 80.5 -28t29.5 -61q0 -39 -38 -65t-101 -26z" />
    <glyph glyph-name="Scaron.salt_tall" horiz-adv-x="498" 
d="M440 740l-1 -153q-27 13 -64.5 21.5t-72.5 8.5q-45 0 -66.5 -14t-21.5 -36q0 -28 27 -53t78 -71q90 -81 124.5 -136t34.5 -113q0 -48 -21 -86.5t-57 -65t-85.5 -40.5t-105.5 -14q-22 0 -47 2t-49 6t-45.5 8.5t-36.5 10.5l1 154q31 -13 79.5 -25t96.5 -12q42 0 65.5 17.5
t23.5 41.5q0 28 -26.5 58t-80.5 78q-45 39 -76 69t-50 57t-27.5 54t-8.5 60q0 37 16 72.5t48 62t82.5 43t118.5 16.5q36 0 76 -5t71 -16zM364 807h-163l-125 147h144l60 -76l61 76h148z" />
    <glyph glyph-name="Scommaaccent.salt_tall" horiz-adv-x="498" 
d="M440 740l-1 -153q-27 13 -64.5 21.5t-72.5 8.5q-45 0 -66.5 -14t-21.5 -36q0 -28 27 -53t78 -71q90 -81 124.5 -136t34.5 -113q0 -48 -21 -86.5t-57 -65t-85.5 -40.5t-105.5 -14q-22 0 -47 2t-49 6t-45.5 8.5t-36.5 10.5l1 154q31 -13 79.5 -25t96.5 -12q42 0 65.5 17.5
t23.5 41.5q0 28 -26.5 58t-80.5 78q-45 39 -76 69t-50 57t-27.5 54t-8.5 60q0 37 16 72.5t48 62t82.5 43t118.5 16.5q36 0 76 -5t71 -16zM289 -55l-76 -181h-118l34 181h160z" />
    <glyph glyph-name="T.salt_tall" horiz-adv-x="451" 
d="M137 0v586h-128v160h433v-160h-127v-586h-178z" />
    <glyph glyph-name="Tcaron.salt_tall" horiz-adv-x="451" 
d="M137 0v586h-128v160h433v-160h-127v-586h-178zM308 807h-163l-125 147h144l60 -76l61 76h148z" />
    <glyph glyph-name="Tcommaaccent.salt_tall" horiz-adv-x="451" 
d="M137 0v586h-128v160h433v-160h-127v-586h-178zM306 -55l-76 -181h-118l34 181h160z" />
    <glyph glyph-name="Tbar.salt_tall" horiz-adv-x="451" 
d="M388 295h-73v-295h-178v295h-74v118h74v173h-128v160h433v-160h-127v-173h73v-118z" />
    <glyph glyph-name="a.salt_ss" horiz-adv-x="716" 
d="M516 287q0 33 -12.5 63t-34.5 52t-52 35t-64 13q-69 0 -114.5 -48t-45.5 -114q0 -33 12 -63t33.5 -52.5t51 -35.5t63.5 -13t64 13t52 35.5t34.5 52t12.5 62.5zM521 0v82q-38 -46 -94.5 -73.5t-126.5 -27.5q-59 0 -110.5 23.5t-89 63.5t-59 96t-21.5 120t21.5 120.5
t59 98.5t89 66t110.5 24q64 0 119 -25.5t92 -68.5v75h165v-574h-155z" />
    <glyph glyph-name="agrave.salt_ss" horiz-adv-x="716" 
d="M516 287q0 33 -12.5 63t-34.5 52t-52 35t-64 13q-69 0 -114.5 -48t-45.5 -114q0 -33 12 -63t33.5 -52.5t51 -35.5t63.5 -13t64 13t52 35.5t34.5 52t12.5 62.5zM521 0v82q-38 -46 -94.5 -73.5t-126.5 -27.5q-59 0 -110.5 23.5t-89 63.5t-59 96t-21.5 120t21.5 120.5
t59 98.5t89 66t110.5 24q64 0 119 -25.5t92 -68.5v75h165v-574h-155zM163 797h193l78 -147h-134z" />
    <glyph glyph-name="aacute.salt_ss" horiz-adv-x="716" 
d="M516 287q0 33 -12.5 63t-34.5 52t-52 35t-64 13q-69 0 -114.5 -48t-45.5 -114q0 -33 12 -63t33.5 -52.5t51 -35.5t63.5 -13t64 13t52 35.5t34.5 52t12.5 62.5zM521 0v82q-38 -46 -94.5 -73.5t-126.5 -27.5q-59 0 -110.5 23.5t-89 63.5t-59 96t-21.5 120t21.5 120.5
t59 98.5t89 66t110.5 24q64 0 119 -25.5t92 -68.5v75h165v-574h-155zM573 797l-136 -147h-131l77 147h190z" />
    <glyph glyph-name="acircumflex.salt_ss" horiz-adv-x="716" 
d="M516 287q0 33 -12.5 63t-34.5 52t-52 35t-64 13q-69 0 -114.5 -48t-45.5 -114q0 -33 12 -63t33.5 -52.5t51 -35.5t63.5 -13t64 13t52 35.5t34.5 52t12.5 62.5zM521 0v82q-38 -46 -94.5 -73.5t-126.5 -27.5q-59 0 -110.5 23.5t-89 63.5t-59 96t-21.5 120t21.5 120.5
t59 98.5t89 66t110.5 24q64 0 119 -25.5t92 -68.5v75h165v-574h-155zM431 650l-61 75l-60 -75h-146l125 147h163l125 -147h-146z" />
    <glyph glyph-name="atilde.salt_ss" horiz-adv-x="716" 
d="M516 287q0 33 -12.5 63t-34.5 52t-52 35t-64 13q-69 0 -114.5 -48t-45.5 -114q0 -33 12 -63t33.5 -52.5t51 -35.5t63.5 -13t64 13t52 35.5t34.5 52t12.5 62.5zM521 0v82q-38 -46 -94.5 -73.5t-126.5 -27.5q-59 0 -110.5 23.5t-89 63.5t-59 96t-21.5 120t21.5 120.5
t59 98.5t89 66t110.5 24q64 0 119 -25.5t92 -68.5v75h165v-574h-155zM262 650l-122 4q-6 93 33.5 130.5t96.5 37.5q25 0 49.5 -7.5t46.5 -17t41 -17t33 -7.5q16 0 27.5 8.5t11.5 35.5l122 -4q4 -77 -28.5 -118.5t-98.5 -41.5q-25 0 -50.5 7t-48 16t-41.5 16t-33 7
q-16 0 -28 -9.5t-11 -39.5z" />
    <glyph glyph-name="adieresis.salt_ss" horiz-adv-x="716" 
d="M516 287q0 33 -12.5 63t-34.5 52t-52 35t-64 13q-69 0 -114.5 -48t-45.5 -114q0 -33 12 -63t33.5 -52.5t51 -35.5t63.5 -13t64 13t52 35.5t34.5 52t12.5 62.5zM521 0v82q-38 -46 -94.5 -73.5t-126.5 -27.5q-59 0 -110.5 23.5t-89 63.5t-59 96t-21.5 120t21.5 120.5
t59 98.5t89 66t110.5 24q64 0 119 -25.5t92 -68.5v75h165v-574h-155zM556 771v-121h-139v121h139zM325 771v-121h-139v121h139z" />
    <glyph glyph-name="aring.salt_ss" horiz-adv-x="716" 
d="M516 287q0 33 -12.5 63t-34.5 52t-52 35t-64 13q-69 0 -114.5 -48t-45.5 -114q0 -33 12 -63t33.5 -52.5t51 -35.5t63.5 -13t64 13t52 35.5t34.5 52t12.5 62.5zM521 0v82q-38 -46 -94.5 -73.5t-126.5 -27.5q-59 0 -110.5 23.5t-89 63.5t-59 96t-21.5 120t21.5 120.5
t59 98.5t89 66t110.5 24q64 0 119 -25.5t92 -68.5v75h165v-574h-155zM371 906q57 0 97 -39.5t40 -91.5t-40 -91.5t-97 -39.5t-97 40t-40 91t40 91t97 40zM371 835q-25 0 -42.5 -17.5t-17.5 -42.5t17.5 -42.5t42.5 -17.5t42.5 17.5t17.5 42.5t-17.5 42.5t-42.5 17.5z" />
    <glyph glyph-name="amacron.salt_ss" horiz-adv-x="716" 
d="M516 287q0 33 -12.5 63t-34.5 52t-52 35t-64 13q-69 0 -114.5 -48t-45.5 -114q0 -33 12 -63t33.5 -52.5t51 -35.5t63.5 -13t64 13t52 35.5t34.5 52t12.5 62.5zM521 0v82q-38 -46 -94.5 -73.5t-126.5 -27.5q-59 0 -110.5 23.5t-89 63.5t-59 96t-21.5 120t21.5 120.5
t59 98.5t89 66t110.5 24q64 0 119 -25.5t92 -68.5v75h165v-574h-155zM528 766v-117h-314v117h314z" />
    <glyph glyph-name="abreve.salt_ss" horiz-adv-x="716" 
d="M516 287q0 33 -12.5 63t-34.5 52t-52 35t-64 13q-69 0 -114.5 -48t-45.5 -114q0 -33 12 -63t33.5 -52.5t51 -35.5t63.5 -13t64 13t52 35.5t34.5 52t12.5 62.5zM521 0v82q-38 -46 -94.5 -73.5t-126.5 -27.5q-59 0 -110.5 23.5t-89 63.5t-59 96t-21.5 120t21.5 120.5
t59 98.5t89 66t110.5 24q64 0 119 -25.5t92 -68.5v75h165v-574h-155zM546 806q-10 -71 -56.5 -116t-118.5 -45t-118.5 45t-56.5 116l96 3q12 -34 34 -50.5t45 -16.5t45 16.5t34 50.5z" />
    <glyph glyph-name="aogonek.salt_ss" horiz-adv-x="716" 
d="M563 -191q-60 0 -87 26.5t-27 60.5q0 30 18.5 54t44.5 40l9 5v87q-38 -46 -94.5 -73.5t-126.5 -27.5q-59 0 -110.5 23.5t-89 63.5t-59 96t-21.5 120t21.5 120.5t59 98.5t89 66t110.5 24q64 0 119 -25.5t92 -68.5v75h165v-574l-64 -38q-20 -13 -28 -22.5t-8 -19.5
q0 -12 8.5 -19.5t21.5 -7.5q12 0 21.5 4.5t15.5 8.5l43 -55q-17 -16 -48.5 -28.5t-74.5 -13.5zM516 287q0 33 -12.5 63t-34.5 52t-52 35t-64 13q-69 0 -114.5 -48t-45.5 -114q0 -33 12 -63t33.5 -52.5t51 -35.5t63.5 -13t64 13t52 35.5t34.5 52t12.5 62.5z" />
    <glyph glyph-name="aringacute.salt_ss" horiz-adv-x="716" 
d="M516 287q0 33 -12.5 63t-34.5 52t-52 35t-64 13q-69 0 -114.5 -48t-45.5 -114q0 -33 12 -63t33.5 -52.5t51 -35.5t63.5 -13t64 13t52 35.5t34.5 52t12.5 62.5zM521 0v82q-38 -46 -94.5 -73.5t-126.5 -27.5q-59 0 -110.5 23.5t-89 63.5t-59 96t-21.5 120t21.5 120.5
t59 98.5t89 66t110.5 24q64 0 119 -25.5t92 -68.5v75h165v-574h-155zM371 906q57 0 97 -39.5t40 -91.5t-40 -91.5t-97 -39.5t-97 40t-40 91t40 91t97 40zM371 835q-25 0 -42.5 -17.5t-17.5 -42.5t17.5 -42.5t42.5 -17.5t42.5 17.5t17.5 42.5t-17.5 42.5t-42.5 17.5z
M573 1076l-136 -147h-131l77 147h190z" />
    <glyph glyph-name="Adieresis.salt" horiz-adv-x="758" 
d="M697 746v-135h-168v135h168zM227 746v-135h-167v135h167zM475 251l-98 273l-99 -273h197zM565 0l-40 111h-298l-40 -111h-185l289 746h176l289 -746h-191z" />
    <glyph glyph-name="Odieresis.salt" horiz-adv-x="869" 
d="M848 374q0 -82 -32 -155t-87.5 -126.5t-131.5 -85t-162 -31.5q-87 0 -163 31.5t-131.5 85t-87.5 126.5t-32 155q0 66 21.5 127t59.5 110h-66v135h162v-46q50 33 110.5 51.5t126.5 18.5t126.5 -18.5t110.5 -52.5v47h162v-135h-67q38 -49 59.5 -110t21.5 -127zM435 607
q-50 0 -93 -18.5t-74.5 -50t-49.5 -74t-18 -91.5q0 -48 18 -91t49.5 -74.5t74.5 -50t93 -18.5q49 0 92 18.5t74.5 50t49.5 74.5t18 91q0 49 -18 91.5t-49.5 74t-74.5 50t-92 18.5z" />
    <glyph glyph-name="Udieresis.salt" horiz-adv-x="712" 
d="M665 746v-121h-178v121h178zM225 746v-121h-178v121h178zM665 322q0 -165 -80 -255.5t-229 -90.5q-148 0 -228.5 90.5t-80.5 255.5v283h178v-315q0 -74 40 -113.5t91 -39.5t91 39.5t40 113.5v315h178v-283z" />
    <glyph glyph-name="asterisk.salt1" horiz-adv-x="375" 
d="M331 495l-111 18l-46 -96l-30 3l-16 112l-106 14l-6 29l100 51l-18 105l25 14l80 -81l94 51l21 -20l-51 -100l76 -74z" />
    <glyph glyph-name="space.em" horiz-adv-x="1000" 
 />
    <glyph glyph-name="space.en" horiz-adv-x="500" 
 />
    <glyph glyph-name="space.frac" horiz-adv-x="85" 
 />
    <glyph glyph-name="space.thin" horiz-adv-x="150" 
 />
    </font>
</defs>
</svg>
